<svg width="82" height="41" viewBox="0 0 82 41" fill="none" xmlns="http://www.w3.org/2000/svg">
<g opacity="0.5">
<path d="M20.7341 39.458L20.6836 40.0678C21.2718 40.3096 21.8635 40.5369 22.4878 40.7282C22.578 40.555 22.6718 40.3673 22.7584 40.2013C22.0656 39.9884 21.4017 39.7286 20.7341 39.458Z" fill="#3F89FF" style="fill:#3F89FF;fill:color(display-p3 0.2471 0.5373 1.0000);fill-opacity:1;"/>
<path d="M0 37.3362C0.920129 37.1377 1.85108 36.9753 2.78925 36.8671C6.51965 36.4147 10.3017 36.6594 13.9427 37.5887C15.7501 38.0706 17.5156 38.6981 19.2217 39.4651H19.247C19.2686 39.2594 19.2902 39.0573 19.3047 38.8517C19.0088 38.7218 18.7165 38.5919 18.4206 38.4692C12.6546 36.0582 6.29677 35.4371 0.173194 36.6867L0.151566 36.7769C0.10105 36.9501 0.0505169 37.1305 0 37.3362Z" fill="#3F89FF" style="fill:#3F89FF;fill:color(display-p3 0.2471 0.5373 1.0000);fill-opacity:1;"/>
<path d="M1.38574 32.7358C2.17958 32.7106 2.9698 32.707 3.76724 32.7358C9.20463 32.8498 14.5793 33.9223 19.644 35.904C20.0048 35.3735 21.0873 35.572 20.9971 36.3767V36.4524C21.8523 36.8133 22.6966 37.2138 23.5229 37.6324C23.4183 37.3617 23.3245 37.0947 23.227 36.8241C22.2071 36.3213 21.1679 35.8607 20.1094 35.4421C14.2176 33.1053 7.91295 31.9883 1.57695 32.1585C1.50839 32.3389 1.44708 32.5374 1.38574 32.7358Z" fill="#3F89FF" style="fill:#3F89FF;fill:color(display-p3 0.2471 0.5373 1.0000);fill-opacity:1;"/>
<path d="M3.04205 28.1635C3.72403 28.2104 4.40963 28.2681 5.088 28.3439C10.8915 28.9689 16.5527 30.5439 21.8451 33.0059C21.7513 32.7425 21.6503 32.4899 21.5601 32.2265C21.0513 32.0028 20.5461 31.7827 20.0374 31.5698C14.6959 29.3557 9.03301 28.0155 3.26577 27.6006C3.19721 27.7774 3.11422 27.9542 3.04205 28.1635Z" fill="#3F89FF" style="fill:#3F89FF;fill:color(display-p3 0.2471 0.5373 1.0000);fill-opacity:1;"/>
<path d="M4.3233 25.1359C4.68173 25.1359 5.04257 25.1504 5.40581 25.1792C10.3407 25.435 15.2244 26.3053 19.9439 27.77L19.6949 27.0736C19.1356 26.904 18.5691 26.7416 18.0026 26.5865C13.6275 25.4071 9.13292 24.7268 4.60476 24.5586C4.50373 24.7498 4.4099 24.9447 4.3233 25.1359Z" fill="#3F89FF" style="fill:#3F89FF;fill:color(display-p3 0.2471 0.5373 1.0000);fill-opacity:1;"/>
<path d="M6.44141 20.9215C6.84915 20.9215 7.26046 20.8999 7.6646 20.9215C11.1574 20.934 14.6308 21.4418 17.9809 22.4298C17.8979 22.1953 17.8149 21.968 17.7355 21.737H17.6994C14.1548 20.743 10.4828 20.2773 6.80224 20.355C6.69038 20.5246 6.56048 20.7375 6.44141 20.9215Z" fill="#3F89FF" style="fill:#3F89FF;fill:color(display-p3 0.2471 0.5373 1.0000);fill-opacity:1;"/>
<path d="M9.57715 16.9161C11.7852 16.7941 13.9997 16.9664 16.1624 17.4285C16.0758 17.212 15.9928 16.9919 15.9062 16.779C14.0695 16.4092 12.197 16.247 10.3241 16.2955C10.2881 16.3175 10.2543 16.3429 10.2231 16.3713C9.97408 16.5517 9.76117 16.7321 9.57715 16.9161Z" fill="#3F89FF" style="fill:#3F89FF;fill:color(display-p3 0.2471 0.5373 1.0000);fill-opacity:1;"/>
<path d="M60.9236 3.4535C61.7607 2.85692 62.581 2.22427 63.3845 1.55552C63.3845 1.30655 63.3845 1.06118 63.3628 0.808594C62.5979 1.45449 61.8148 2.07512 61.0066 2.65607C61.0066 2.83288 60.9741 3.01689 60.956 3.18287C60.956 3.237 60.956 3.28751 60.938 3.34164C60.9312 3.37864 60.9264 3.41598 60.9236 3.4535Z" fill="#3F89FF" style="fill:#3F89FF;fill:color(display-p3 0.2471 0.5373 1.0000);fill-opacity:1;"/>
<path d="M22.9602 14.0623C23.0468 14.2535 23.1334 14.4484 23.2164 14.6468C24.2304 14.6216 25.2515 14.5783 26.2691 14.5242C26.168 14.4339 26.067 14.3509 25.966 14.2571C25.865 14.1633 25.7531 14.0695 25.6485 13.9648C24.7536 14.0118 23.8587 14.0406 22.9602 14.0623Z" fill="#3F89FF" style="fill:#3F89FF;fill:color(display-p3 0.2471 0.5373 1.0000);fill-opacity:1;"/>
<path d="M59.0402 10.2445C60.599 9.48191 62.1289 8.66883 63.63 7.80523C63.63 7.58512 63.6047 7.3578 63.5975 7.1377C62.2336 7.93875 60.8407 8.68929 59.4227 9.40014H59.4046C59.2891 9.69241 59.1737 9.97024 59.0402 10.2445Z" fill="#3F89FF" style="fill:#3F89FF;fill:color(display-p3 0.2471 0.5373 1.0000);fill-opacity:1;"/>
<path d="M24.3711 17.3962L24.4325 17.5369C24.4902 17.6921 24.5587 17.84 24.6129 17.9916C26.7779 18.0205 28.9429 17.9591 31.1079 17.7931C30.7831 17.6199 30.4548 17.4323 30.1372 17.2627C28.2176 17.3854 26.2955 17.4299 24.3711 17.3962Z" fill="#3F89FF" style="fill:#3F89FF;fill:color(display-p3 0.2471 0.5373 1.0000);fill-opacity:1;"/>
<path d="M26.2764 22.1989C26.3594 22.3937 26.4316 22.5922 26.5074 22.787C29.1535 22.7702 31.7996 22.6379 34.4457 22.3901C40.961 21.8296 47.3834 20.4749 53.57 18.356C57.1553 17.1082 60.6203 15.5382 63.9223 13.6651C63.9223 13.4523 63.897 13.2285 63.8826 13.0156C62.9877 13.5352 62.0748 14.0272 61.1439 14.4914C57.8955 16.1266 54.5159 17.4869 51.0405 18.5581C48.6374 19.2797 46.1945 19.9184 43.7336 20.4163C43.4377 20.4813 43.1346 20.5426 42.8315 20.5968C37.3734 21.6333 31.832 22.1695 26.2764 22.1989Z" fill="#3F89FF" style="fill:#3F89FF;fill:color(display-p3 0.2471 0.5373 1.0000);fill-opacity:1;"/>
<path d="M27.5175 25.4068C27.5969 25.6089 27.6763 25.8181 27.7557 26.0274C30.4606 26.3262 33.1833 26.4323 35.9033 26.3449C42.1968 26.131 48.4183 24.9342 54.342 22.798C57.7639 21.5681 61.0631 20.0206 64.1964 18.1757C64.1964 17.9556 64.1675 17.7354 64.1603 17.5117C63.316 18.0169 62.4536 18.4968 61.5839 18.9551C56.0779 21.8515 50.1502 23.8631 44.0185 24.9161C38.5697 25.8653 33.0131 26.0306 27.5175 25.4068Z" fill="#3F89FF" style="fill:#3F89FF;fill:color(display-p3 0.2471 0.5373 1.0000);fill-opacity:1;"/>
<path d="M29.1445 29.5559C29.2239 29.7543 29.3069 29.9492 29.3863 30.1476C31.7642 30.126 34.1385 29.9889 36.5056 29.7507C42.5128 29.1296 48.4293 27.8233 54.1396 25.8573C56.7898 24.9463 59.3891 23.8935 61.9264 22.7036C62.3161 22.3534 62.6781 21.9733 63.0089 21.567C63.0269 21.5417 63.0486 21.5165 63.063 21.4912C62.5025 21.7727 61.9396 22.0445 61.3743 22.3067C55.9242 24.8339 50.2026 26.7286 44.3213 27.9538C39.3271 28.9842 34.2437 29.5208 29.1445 29.5559Z" fill="#3F89FF" style="fill:#3F89FF;fill:color(display-p3 0.2471 0.5373 1.0000);fill-opacity:1;"/>
<path d="M70.5361 1.66705C70.565 1.89799 70.5903 2.1253 70.6155 2.34902C71.0295 2.04151 71.4192 1.70252 71.781 1.33507C72.1419 0.974236 72.5027 0.613401 72.8635 0.252567C72.6687 0.165966 72.4738 0.0793836 72.2718 0L71.514 0.757744C71.205 1.07859 70.8786 1.38216 70.5361 1.66705Z" fill="#3F89FF" style="fill:#3F89FF;fill:color(display-p3 0.2471 0.5373 1.0000);fill-opacity:1;"/>
<path d="M71.0059 6.1314C71.0311 6.35151 71.0528 6.57522 71.0708 6.79533C71.7023 6.38037 72.3229 5.93293 72.9219 5.46385C72.9806 5.14842 73.0565 4.83644 73.1492 4.5293C72.46 5.09581 71.7492 5.63345 71.0059 6.1314Z" fill="#3F89FF" style="fill:#3F89FF;fill:color(display-p3 0.2471 0.5373 1.0000);fill-opacity:1;"/>
<path d="M71.6191 13.3264C71.6191 13.5573 71.6552 13.7919 71.6733 14.0481C72.4217 13.4851 73.1306 12.8714 73.795 12.2114C73.7012 12.0202 73.6146 11.8289 73.5388 11.6377C72.9322 12.2373 72.2912 12.8012 71.6191 13.3264Z" fill="#3F89FF" style="fill:#3F89FF;fill:color(display-p3 0.2471 0.5373 1.0000);fill-opacity:1;"/>
<path d="M75.0176 25.2916L75.5264 25.7174L75.6454 25.6669C77.3129 24.8948 78.8867 23.9347 80.3363 22.8055C80.2641 22.6142 80.1811 22.423 80.1017 22.2354C78.5426 23.4644 76.8344 24.4913 75.0176 25.2916Z" fill="#3F89FF" style="fill:#3F89FF;fill:color(display-p3 0.2471 0.5373 1.0000);fill-opacity:1;"/>
<path d="M78.4238 27.9219C78.4924 27.9688 78.5573 28.0157 78.6331 28.0627C78.7702 28.1565 78.911 28.2503 79.0517 28.3369C80.0434 27.987 81.0021 27.5499 81.9167 27.0307L81.7146 26.4678C80.6717 27.0664 79.5687 27.5538 78.4238 27.9219Z" fill="#3F89FF" style="fill:#3F89FF;fill:color(display-p3 0.2471 0.5373 1.0000);fill-opacity:1;"/>
</g>
</svg>
