<svg width="24" height="24" viewBox="0 0 24 24" fill="none" xmlns="http://www.w3.org/2000/svg">
<g opacity="0.5">
<path d="M8.01003 19.8843C7.72845 19.8228 7.43407 19.8678 7.18373 20.0106C7.13882 20.0158 7.09498 20.028 7.05381 20.0466C6.84066 20.1533 6.66366 20.3203 6.54493 20.527C6.4262 20.7336 6.37103 20.9707 6.38627 21.2085C6.40861 21.4654 6.50707 21.7097 6.66906 21.9102C6.83104 22.1108 7.0492 22.2585 7.29558 22.3343C7.51776 22.3966 7.75229 22.4001 7.97622 22.3445C8.20015 22.2888 8.40578 22.1759 8.57293 22.0168C8.74105 21.8652 8.86378 21.6699 8.92749 21.4526C8.9912 21.2354 8.99337 21.0048 8.93377 20.7864C8.87051 20.5692 8.75223 20.372 8.5904 20.214C8.42856 20.0559 8.22865 19.9424 8.01003 19.8843Z" fill="white" style="fill:white;fill-opacity:1;"/>
<path d="M12.0119 2.90623C11.7655 3.63933 11.2512 4.25224 10.572 4.62226C9.89287 4.99228 9.09901 5.09209 8.34941 4.90165C8.71025 6.31973 8.4288 7.85688 7.13702 8.76618C6.66123 9.09746 6.08725 9.25784 5.50866 9.22114C4.93006 9.18445 4.38096 8.95287 3.95084 8.56414C3.80944 9.02697 3.57702 9.45686 3.2672 9.82864C2.95739 10.2004 2.57641 10.5066 2.14667 10.7291C1.5372 11.0603 0.822585 11.1405 0.15485 10.9529C0.105238 10.9361 0.0569973 10.9156 0.0105296 10.8915C-0.03972 9.48313 0.0900291 8.07411 0.396625 6.6986C0.786681 5.1498 1.48495 3.69552 2.44975 2.4227C2.48307 2.38507 2.51928 2.35009 2.55802 2.31806C2.84169 1.81652 3.22478 1.37817 3.68382 1.02988C6.0942 -0.810376 9.31645 -0.00931633 11.301 2.05105C11.5554 2.32122 11.7927 2.60682 12.0119 2.90623Z" fill="white" style="fill:white;fill-opacity:1;"/>
</g>
</svg>
