<svg width="57" height="33" viewBox="0 0 57 33" fill="none" xmlns="http://www.w3.org/2000/svg">
<g opacity="0.5">
<path d="M56.0192 11.5547C55.9757 12.9446 55.8201 14.3286 55.5537 15.6935C54.9186 19.0492 53.7495 22.2823 52.6923 25.5154C51.8732 27.9727 51.0577 30.4372 50.2458 32.8908C50.0582 32.8223 49.867 32.7609 49.6721 32.7032C49.986 31.729 50.3108 30.7655 50.6319 29.8165C51.7144 26.5401 52.8619 23.2818 53.8578 19.9729C54.6805 17.245 55.3336 14.4305 55.413 11.5691L56.0192 11.5547Z" fill="white" style="fill:white;fill-opacity:1;"/>
<path d="M53.5183 11.5945C53.2441 13.009 52.9482 14.4162 52.6198 15.8199C51.3178 21.3947 49.5842 26.8598 47.4346 32.1657C47.2362 32.126 47.0305 32.0863 46.832 32.061C47.063 31.4981 47.2831 30.9388 47.5032 30.3723C49.856 24.2795 51.6672 17.991 52.9157 11.5801L53.5183 11.5945Z" fill="white" style="fill:white;fill-opacity:1;"/>
<path d="M48.6722 11.0753C48.4052 11.9521 48.1418 12.8326 47.8675 13.7094C46.0393 19.6559 44.1606 25.5857 42.2313 31.4985C42.0256 31.4769 41.8199 31.4552 41.6143 31.4408C41.9727 30.3367 42.3335 29.2301 42.6968 28.1211C44.5394 22.4055 46.3352 16.6767 48.084 10.9346C48.1923 10.967 48.3077 10.9923 48.4232 11.0176L48.6722 11.0753Z" fill="white" style="fill:white;fill-opacity:1;"/>
<path d="M45.9087 10.2705L44.7035 14.1278L39.4065 31.2494L38.7822 31.1989C38.9987 30.4773 39.2188 29.7953 39.4353 29.0953C41.3983 22.7518 43.3612 16.4059 45.3241 10.0576C45.5298 10.1262 45.7175 10.202 45.9087 10.2705Z" fill="white" style="fill:white;fill-opacity:1;"/>
<path d="M43.1661 9.15913C42.6682 10.576 42.1774 11.9977 41.6939 13.4242C39.7286 19.224 37.8799 25.0647 36.1479 30.9463L35.6824 30.8922L35.5381 30.8706C35.8087 29.9468 36.083 29.0195 36.3608 28.0957C38.2973 21.6584 40.3805 15.2633 42.6105 8.91016L43.1661 9.15913Z" fill="white" style="fill:white;fill-opacity:1;"/>
<path d="M38.039 6.93283C37.6566 8.29678 37.2741 9.65351 36.8988 11.0211C35.1115 17.4319 33.3253 23.8476 31.5404 30.268L30.9414 30.167C31.2686 28.9642 31.5993 27.7686 31.9337 26.5803C33.7788 19.9626 35.6202 13.3473 37.4581 6.73438C37.6565 6.79211 37.8478 6.86066 38.039 6.93283Z" fill="white" style="fill:white;fill-opacity:1;"/>
<path d="M35.4403 6.13878C34.9808 7.43778 34.5334 8.7392 34.098 10.043C31.933 16.5116 30.0482 23.0655 28.4437 29.7049L27.8447 29.5822C28.1081 28.525 28.3679 27.4677 28.6422 26.4105C30.4103 19.5185 32.479 12.7144 34.8485 5.99805C35.047 6.04496 35.2491 6.08826 35.4403 6.13878Z" fill="white" style="fill:white;fill-opacity:1;"/>
<path d="M29.7579 5.18936C29.3718 6.3729 29.0002 7.56365 28.6393 8.7508C26.6355 15.3012 24.8758 21.9165 23.3603 28.5967C23.1619 28.5606 22.967 28.5137 22.7686 28.4632C23.0139 27.3807 23.2701 26.2982 23.5263 25.2157C25.1428 18.4512 27.0144 11.7517 29.1409 5.11719L29.7579 5.18936Z" fill="white" style="fill:white;fill-opacity:1;"/>
<path d="M24.746 4.73815L23.7537 8.66765C22.1709 14.9606 20.588 21.2584 19.0052 27.5609L18.417 27.4094C18.7129 26.2259 19.01 25.0435 19.3083 23.8624C20.9104 17.4828 22.5161 11.0997 24.1254 4.71289L24.746 4.73815Z" fill="white" style="fill:white;fill-opacity:1;"/>
<path d="M21.7799 4.46777C19.8555 11.7206 17.931 18.9769 16.0066 26.2369C15.9633 26.4065 15.9163 26.5761 15.873 26.7457L16.4576 26.8973C16.6055 26.3488 16.7535 25.7931 16.8978 25.2374C18.1752 20.4263 19.4489 15.6152 20.7191 10.804C21.2723 8.716 21.8244 6.62798 22.3753 4.53994L21.7799 4.46777Z" fill="white" style="fill:white;fill-opacity:1;"/>
<path d="M17.3303 3.78224C17.0127 4.90083 16.6952 6.01582 16.3849 7.13802C14.6817 13.2578 13.1422 19.4244 11.7662 25.638C11.5749 25.5875 11.3765 25.537 11.1816 25.4792C11.4054 24.4689 11.6327 23.4658 11.8636 22.4627C13.307 16.1481 14.9343 9.87795 16.7457 3.65234C16.9406 3.69925 17.1318 3.74616 17.3303 3.78224Z" fill="white" style="fill:white;fill-opacity:1;"/>
<path d="M12.2604 2.14771C11.9248 3.25547 11.5964 4.37405 11.2789 5.49624C10.3576 8.72211 9.51563 11.9696 8.75306 15.2388C8.35975 16.8914 7.98088 18.5476 7.63809 20.2111C7.32211 21.58 7.1671 22.9811 7.17622 24.386L6.56641 24.2127C6.58679 22.6822 6.77679 21.1586 7.13292 19.6698C8.39825 13.6824 9.92698 7.75989 11.7191 1.90234L12.2604 2.14771Z" fill="white" style="fill:white;fill-opacity:1;"/>
<path d="M9.77444 1.02975C9.39195 2.28545 9.0239 3.5556 8.67028 4.8077C6.93384 11.0091 5.52464 17.2975 4.44851 23.6469L3.86035 23.4989C4.08046 22.1999 4.315 20.8973 4.56037 19.6055C5.78226 13.2603 7.33354 6.98286 9.20793 0.798828C9.327 0.842128 9.44247 0.88543 9.56876 0.935947L9.77444 1.02975Z" fill="white" style="fill:white;fill-opacity:1;"/>
<path d="M6.19193 0.0186277C5.73006 1.16247 5.30067 2.32798 4.89293 3.49708C2.71846 9.74965 1.27985 16.2343 0.606211 22.8198L0 22.7512C0.104642 21.6976 0.230937 20.6439 0.386096 19.5975C1.33045 12.8895 3.05988 6.31573 5.53882 0.011426C5.75629 -0.00591731 5.97489 -0.00351683 6.19193 0.0186277Z" fill="white" style="fill:white;fill-opacity:1;"/>
</g>
</svg>
