<svg width="105" height="55" viewBox="0 0 105 55" fill="none" xmlns="http://www.w3.org/2000/svg">
<g opacity="0.5">
<path d="M0 52.7619C0 53.1949 0 53.6351 0 54.0717C0.361651 53.8873 0.733958 53.7246 1.11497 53.5846C2.12525 53.2371 3.16883 52.9953 4.22897 52.8629C6.34346 52.5634 8.49407 52.383 10.623 52.2711C12.8263 52.1741 15.0338 52.2452 17.2262 52.484C18.945 52.6003 20.6486 52.8806 22.314 53.3211C22.314 52.9026 22.2707 52.484 22.2419 52.0654C20.6688 51.6844 19.0675 51.431 17.4536 51.3077C15.1216 51.0613 12.7743 50.9913 10.4317 51.0984C8.209 51.2283 5.95377 51.3979 3.74185 51.7299C2.75428 51.8732 1.78116 52.1026 0.833549 52.4154C0.537665 52.5273 0.267018 52.6392 0 52.7619Z" fill="white" style="fill:white;fill-opacity:1;"/>
<path d="M86.8271 11.1209C86.9823 11.5142 87.123 11.9075 87.271 12.2972C88.6903 12.295 90.105 12.1352 91.4891 11.8209C93.5687 11.2414 95.5534 10.3639 97.3816 9.21571C99.1857 8.13321 100.99 7.01101 102.408 5.45221C103.105 4.64872 103.679 3.74645 104.111 2.7748C104.349 2.26241 104.591 1.74283 104.79 1.2124C104.522 0.804656 104.245 0.400527 103.967 0C103.686 0.904141 103.324 1.78093 102.884 2.61964C102.446 3.53817 101.853 4.37432 101.131 5.09137C99.7667 6.43007 98.0744 7.45484 96.4398 8.41106C94.7595 9.4421 92.9354 10.2179 91.0273 10.7132C89.646 11 88.2378 11.1367 86.8271 11.1209Z" fill="white" style="fill:white;fill-opacity:1;"/>
</g>
</svg>
