<svg width="5" height="5" viewBox="0 0 5 5" fill="none" xmlns="http://www.w3.org/2000/svg">
<path d="M4.21546 2.04393C4.23092 2.36044 4.18269 2.67683 4.0736 2.97434C3.96451 3.27186 3.79678 3.54445 3.58038 3.77594C3.33905 4.02552 3.033 4.20296 2.69649 4.28836C2.35998 4.37376 2.00633 4.36376 1.67519 4.25947C1.35519 4.15125 1.06141 3.97716 0.812809 3.74845C0.56421 3.51974 0.366309 3.24148 0.231848 2.9316C0.0652017 2.588 -0.0137748 2.20847 0.00196599 1.82691C0.0177067 1.44536 0.127675 1.07365 0.322057 0.744938C0.549544 0.403462 0.893114 0.156019 1.28909 0.048508C1.65369 -0.0476007 2.04128 0.000222623 2.3716 0.182037C2.54612 0.18522 2.71952 0.21067 2.88759 0.257798C3.2862 0.376202 3.63004 0.63185 3.85823 0.979468C4.06543 1.29836 4.18833 1.66461 4.21546 2.04393Z" fill="#1A3869" style="fill:#1A3869;fill:color(display-p3 0.1020 0.2196 0.4118);fill-opacity:1;"/>
</svg>
