<svg width="46" height="5" viewBox="0 0 46 5" fill="none" xmlns="http://www.w3.org/2000/svg">
<path d="M44.6659 6.81617C43.8855 6.73714 43.1098 6.61669 42.3421 6.45534C40.805 6.21478 39.2654 5.99228 37.7234 5.7878C34.5806 5.36202 31.4305 4.99757 28.284 4.65117C21.9225 3.95115 15.5501 3.34133 9.20665 2.52223C7.43856 2.28769 5.6777 2.05317 3.92044 1.77893C3.40084 1.70677 -0.719896 1.36036 0.110023 0.0577459C0.110023 0.0577459 0.110011 0.0180417 0.142486 0C2.40131 0.147942 4.66735 0.31755 6.92618 0.512401C11.8155 0.93097 16.6904 1.46139 21.5544 2.13255C29.6155 3.25113 37.6188 4.84963 45.7304 5.41975C45.6913 5.54061 45.6814 5.66902 45.7014 5.79446C45.7215 5.91989 45.771 6.03878 45.8458 6.14142C46.1994 6.70432 44.8427 6.81617 44.6659 6.81617Z" fill="#1A3869" style="fill:#1A3869;fill:color(display-p3 0.1020 0.2196 0.4118);fill-opacity:1;"/>
</svg>
