<svg width="23" height="17" viewBox="0 0 23 17" fill="none" xmlns="http://www.w3.org/2000/svg">
<path d="M0 16.324C1.02886 15.6352 2.19456 15.1773 3.41709 14.9817C5.46613 14.5938 7.5454 14.3873 9.6307 14.3646C13.6838 14.2953 17.7213 14.8852 21.5852 16.1111C21.679 14.9167 21.7944 13.7332 21.9027 12.5424C22.0518 10.8128 22.2046 9.08322 22.3609 7.35362C22.3826 7.05052 22.4115 6.75463 22.4403 6.45514C22.5486 5.17057 22.664 3.87878 22.7795 2.59782C19.6432 0.893055 16.1303 0 12.5607 0C8.99103 0 5.47808 0.893055 2.34181 2.59782C2.248 3.03803 2.15779 3.47104 2.07119 3.91126C1.22323 8.01756 0.50156 12.1635 0 16.324Z" fill="white" style="fill:white;fill-opacity:1;"/>
</svg>
