<svg width="8" height="7" viewBox="0 0 8 7" fill="none" xmlns="http://www.w3.org/2000/svg">
<path d="M0.161711 2.79159C0.79719 3.69712 1.52254 4.53611 2.32672 5.29579C3.18911 6.05715 4.26441 6.69943 5.45156 6.37829C5.99443 6.21683 6.48603 5.9171 6.87821 5.50847C7.27039 5.09984 7.54968 4.59634 7.68872 4.04729C8.01708 2.86014 7.83307 1.66216 7.52997 0.496667C7.47056 0.327746 7.35215 0.185957 7.19654 0.0973573C7.04092 0.00875763 6.85858 -0.0206793 6.68299 0.0144384C6.5074 0.0495561 6.35036 0.146866 6.2408 0.2885C6.13124 0.430135 6.07651 0.606573 6.08663 0.785353C6.30674 1.63692 6.53044 2.55705 6.33198 3.44109C6.28287 3.79922 6.12938 4.13494 5.89067 4.40639C5.65195 4.67783 5.3386 4.87295 4.98968 4.96742C4.26801 5.10814 3.51387 4.40812 3.01231 3.91017C2.39471 3.2601 1.82435 2.56674 1.30557 1.83537C1.24371 1.75904 1.1669 1.69614 1.07988 1.65053C0.99285 1.60492 0.897443 1.57755 0.799471 1.57012C0.701499 1.56269 0.603035 1.57534 0.510125 1.6073C0.417214 1.63926 0.33181 1.68987 0.259144 1.756C0.113056 1.8831 0.0214542 2.06152 0.00331731 2.25431C-0.0148195 2.44709 0.0418918 2.63948 0.161711 2.79159Z" fill="#1A3869" style="fill:#1A3869;fill:color(display-p3 0.1020 0.2196 0.4118);fill-opacity:1;"/>
</svg>
