<svg width="122" height="42" viewBox="0 0 122 42" fill="none" xmlns="http://www.w3.org/2000/svg">
<path d="M121.095 18.8674C121.095 18.8674 121.539 9.05634 113.348 8.31302C105.157 7.5697 103.368 15.1689 103.368 15.1689C103.368 15.1689 105.089 0.991683 94.5344 0.0390795C84.3733 -0.877441 82.5908 14.6312 82.5908 14.6312C82.5908 14.6312 78.2607 -0.956832 64.8882 0.594757C48.0697 2.54687 51.0069 18.3298 51.0069 18.3298C51.0069 18.3298 38.605 11.9683 29.1619 20.5886C22.1798 26.9646 23.5835 34.8019 23.5835 34.8019C23.5835 34.8019 11.3656 18.9757 3.21435 27.946C-1.57393 33.207 -0.884733 41.95 4.43036 50.6064C12.4084 63.5965 48.5316 64.2027 73.2379 63.0661C100.398 61.7851 119.205 63.3403 121.095 18.8674Z" fill="white" style="fill:white;fill-opacity:1;"/>
</svg>
