<svg width="8" height="9" viewBox="0 0 8 9" fill="none" xmlns="http://www.w3.org/2000/svg">
<path d="M0 5.70121C0.573727 6.24607 1.1186 6.83062 1.6382 7.41517C1.91244 7.7291 2.18667 8.04302 2.45008 8.35333C4.13157 6.44813 5.78418 4.52127 7.3935 2.55472C7.38491 2.50226 7.37286 2.45043 7.35743 2.39956C7.35743 2.39956 7.35743 2.39956 7.35743 2.3743C7.35743 2.34904 7.35743 2.34543 7.35743 2.331C7.35888 2.32386 7.35888 2.31649 7.35743 2.30935C7.35743 2.26966 7.32134 2.22998 7.3069 2.18668C7.29247 2.14338 7.23114 2.00265 7.18423 1.91244C7.13732 1.82223 7.08679 1.71757 7.03267 1.62376L6.95329 1.49386C6.83422 1.33509 6.71514 1.18356 6.59246 1.03562C6.52751 0.963449 6.45531 0.887657 6.38315 0.81549H6.36152L6.33985 0.797453L6.2677 0.728893C6.1108 0.598165 5.94569 0.477639 5.77336 0.368059C5.70341 0.311431 5.62562 0.265243 5.54242 0.23094C5.5281 0.233507 5.51344 0.233507 5.49912 0.23094L5.36922 0.165992C5.2158 0.102685 5.05922 0.0472767 4.90012 0C3.2475 1.87273 1.63458 3.79961 0 5.70121Z" fill="white" style="fill:white;fill-opacity:1;"/>
</svg>
