<svg width="61" height="73" viewBox="0 0 61 73" fill="none" xmlns="http://www.w3.org/2000/svg">
<path d="M58.9611 109.949C59.1797 109.482 59.3009 108.975 59.3173 108.459C59.3338 107.943 59.2452 107.43 59.0568 106.949C58.8684 106.469 58.5843 106.032 58.2217 105.665C57.8591 105.298 57.4257 105.009 56.9477 104.814C57.0672 104.124 56.9395 103.414 56.5868 102.808C56.0492 101.877 55.0497 101.621 54.3388 100.874C52.9785 99.4307 51.0733 99.3694 49.2366 99.5534C48.6826 99.0656 48.0443 98.6829 47.3531 98.424C45.8159 97.8539 44.1597 97.7781 42.5431 97.6698L37.2281 97.2801C35.7847 97.1719 34.3017 97.0636 32.8439 96.9662C32.6731 93.3891 32.5071 89.8169 32.346 86.2494C31.6784 71.7403 30.9964 57.2239 30.0871 42.7255C29.6301 35.4824 29.1093 28.2476 28.5247 21.0213C28.3118 18.4233 28.0917 15.8253 27.85 13.2237V13.2056C27.8553 13.1492 27.8553 13.0924 27.85 13.036C27.7634 12.0293 27.6695 11.019 27.5757 10.0086C27.3989 8.15755 27.2149 6.30285 27.0309 4.45177C26.9897 3.45762 26.8495 2.47007 26.6123 1.50375C26.4491 1.04816 26.1432 0.6574 25.7401 0.389558C25.3371 0.121716 24.8584 -0.00890215 24.3751 0.0171169H24.3571C21.3369 -0.289593 21.1096 3.6002 21.059 5.69304C21.0013 9.33386 21.6328 12.9422 22.0333 16.5506C22.856 23.9549 23.5235 31.3773 24.155 38.796C25.4251 53.6768 26.3874 68.5781 27.0417 83.4999C27.2077 87.2261 27.3556 90.9547 27.4855 94.6857C27.4855 95.3352 27.518 95.9955 27.5324 96.6523L26.1793 96.5765C22.9534 96.3997 19.724 96.2662 16.4909 96.3167C15.2063 96.3167 13.9145 96.3852 12.6299 96.5115C11.4536 96.6234 10.0788 96.7172 9.0649 97.3703C8.70917 97.6193 8.40829 97.9386 8.18085 98.3085C5.60449 97.8647 2.4977 98.4168 0.603319 100.318C0.378329 100.512 0.206759 100.759 0.105035 101.038C0.00331204 101.317 -0.0251498 101.617 0.0223808 101.91C0.173931 102.563 0.744052 102.823 1.25283 103.158C2.1044 103.721 1.79407 104.962 1.80851 105.846C1.82655 107.001 2.16935 107.975 3.29515 108.47C3.88332 108.733 4.3957 108.83 4.67715 109.451C4.89726 109.963 4.99829 110.534 5.33026 110.981C5.48154 111.185 5.67416 111.355 5.89551 111.479C6.11687 111.603 6.36199 111.68 6.61483 111.703C6.93236 111.732 7.2535 111.645 7.57104 111.674C8.05095 111.71 8.23498 112.035 8.55973 112.341C9.51016 113.25 10.7098 113.856 12.0057 114.081C12.6713 114.196 13.3512 114.203 14.0192 114.102C14.8202 113.99 15.6393 113.608 16.444 113.879C17.0502 114.084 17.5553 114.535 18.1399 114.799C18.8318 115.091 19.5868 115.203 20.3338 115.123C21.7771 115.008 23.1555 114.376 24.6025 114.503C26.0494 114.629 27.3267 115.517 28.8242 115.318C29.5134 115.228 30.2062 114.708 30.9026 114.741C31.2553 114.805 31.5822 114.969 31.8444 115.214C32.1542 115.426 32.4813 115.612 32.8223 115.769C34.1082 116.35 35.5472 116.499 36.9249 116.195C37.5407 116.043 38.1339 115.812 38.6894 115.506C38.9878 115.317 39.3265 115.2 39.6781 115.167C40.1462 115.233 40.5984 115.384 41.0132 115.611C42.4834 116.216 44.0763 116.463 45.6608 116.332C47.5407 116.173 49.2908 115.401 51.1779 115.25C52.9821 115.127 54.7863 115.3 56.5508 114.889C57.8822 114.575 59.5168 113.875 60.1916 112.59C60.7869 111.418 59.9209 110.501 58.9611 109.949ZM32.6527 102.267C32.9614 101.719 33.0878 101.087 33.0135 100.463C34.0202 100.863 34.7672 102.072 34.0022 103.064C33.2372 104.057 31.6243 104.45 30.4408 104.454C29.2572 104.457 27.7489 104.093 26.8793 103.183C26.6553 102.976 26.5028 102.703 26.4438 102.403C26.3848 102.104 26.4223 101.793 26.5509 101.516C26.819 101.049 27.2375 100.687 27.7381 100.488C27.9185 101.621 28.3732 102.808 29.4845 103.263C30.0467 103.486 30.6684 103.508 31.2453 103.327C31.8222 103.146 32.3192 102.771 32.6527 102.267ZM31.6568 96.894C31.6568 97.3018 31.6964 97.7131 31.7109 98.1245C31.7434 98.958 31.7758 99.7879 31.7939 100.621C31.7939 101.235 31.6929 101.773 31.0939 102.065C30.8439 102.196 30.5587 102.243 30.2797 102.201C30.0007 102.159 29.7424 102.029 29.5423 101.83C28.7087 100.899 28.7881 99.207 28.7954 97.926C28.7954 97.742 28.7954 97.5652 28.7954 97.4136C28.7954 97.1755 28.7953 96.9337 28.7701 96.6919C28.7448 96.4502 28.7701 96.2084 28.7448 95.9703C29.2007 96.156 29.6892 96.2481 30.1814 96.2413C30.6735 96.2345 31.1593 96.1288 31.6099 95.9306C31.6279 96.2553 31.6387 96.5765 31.6568 96.894ZM22.8307 13.1262C22.8307 13.0938 22.8307 13.0577 22.8307 13.0216C22.6106 11.2788 22.3941 9.52872 22.3184 7.77506C22.2498 6.26678 22.1704 4.6358 22.4843 3.14916C22.6828 2.20016 23.1411 1.12847 24.2885 1.24394C24.3364 1.25111 24.385 1.25111 24.4328 1.24394H24.4798C25.5623 1.15373 25.5875 2.42388 25.685 3.19246C25.8473 4.49868 25.952 5.81933 26.0855 7.13277C26.2731 9.07406 26.4547 11.0129 26.6303 12.9494C26.5651 13.0066 26.4965 13.0596 26.4247 13.1082C26.4108 13.1186 26.3963 13.1283 26.3814 13.1371L26.2623 13.202C26.1818 13.2468 26.0987 13.2865 26.0133 13.3211C25.963 13.347 25.9112 13.3699 25.8582 13.3897L25.7679 13.4185L25.6741 13.4474L25.5081 13.4943C25.3049 13.5441 25.0989 13.5814 24.8911 13.6061H24.772H24.6818C24.5736 13.6061 24.4653 13.6061 24.3571 13.6061C24.1552 13.5956 23.954 13.5739 23.7545 13.5412C23.7545 13.5412 23.7545 13.5412 23.7328 13.5412L23.5704 13.4943L23.3215 13.4077L23.2024 13.3572C23.1136 13.3074 23.028 13.2519 22.9462 13.1912L22.8307 13.1262ZM25.8401 44.6019C25.2844 37.5728 24.659 30.551 23.9638 23.5363C23.6679 20.5522 23.3648 17.5717 23.0112 14.6021C23.3613 14.7201 23.7251 14.7929 24.0937 14.8185C24.4269 14.839 24.7614 14.8306 25.0932 14.7933C25.6564 14.7323 26.2033 14.5671 26.7061 14.3062C26.8071 15.432 26.907 16.5602 27.0056 17.6908C27.5926 24.5683 28.1122 31.4494 28.5644 38.3342C29.4845 52.1253 30.1629 65.9236 30.8124 79.7255C30.9712 83.1558 31.1275 86.5862 31.2815 90.0165C31.3537 91.5356 31.4403 93.0547 31.5233 94.5775L31.4872 94.6063C31.4686 94.6232 31.448 94.6377 31.4258 94.6496C31.4144 94.6615 31.401 94.6713 31.3861 94.6785L31.2779 94.7434L31.0866 94.8336L30.9712 94.8842H30.9351C30.9096 94.8946 30.883 94.9019 30.8557 94.9058C30.8232 94.9192 30.7893 94.9289 30.7547 94.9347C30.6789 94.9563 30.6031 94.9708 30.531 94.9852C30.4588 94.9996 30.3758 95.0068 30.3 95.0141H30.1809C30.0349 95.0152 29.889 95.0056 29.7443 94.9852H29.6289L29.4052 94.9275L29.1887 94.8481C29.1587 94.8318 29.1273 94.8186 29.0948 94.8084C29.0948 94.8084 29.0696 94.8084 29.0515 94.7831C29.0295 94.7706 29.0066 94.7598 28.983 94.7507C28.9567 94.7306 28.929 94.7124 28.9 94.6965C28.8257 94.6522 28.7545 94.6028 28.6871 94.5486C28.6005 92.0276 28.5055 89.5017 28.402 86.9711C27.8199 72.8384 26.9659 58.7141 25.8401 44.5982V44.6019ZM9.14428 99.0446L9.19119 98.9688C9.37347 98.66 9.64011 98.4097 9.95977 98.2472C10.5202 98.025 11.1095 97.884 11.7098 97.8286C12.7473 97.6853 13.7915 97.5962 14.8383 97.5616C17.6275 97.4461 20.4276 97.5255 23.2132 97.6409C24.6566 97.6987 26.0999 97.7745 27.5432 97.8574C27.5432 98.3085 27.5757 98.7559 27.601 99.2033C26.3958 99.6616 25.252 100.625 25.1617 101.942C25.1512 102.124 25.1585 102.306 25.1834 102.487C25.4035 103.97 26.8468 104.89 28.1603 105.32C29.575 105.783 31.1008 105.783 32.5156 105.32C33.8867 104.872 35.3156 104.002 35.4888 102.433C35.6765 100.784 34.4388 99.5101 32.9341 99.1528C32.9341 98.8281 32.9052 98.507 32.8872 98.1786C36.2682 98.4131 39.6493 98.6729 43.0267 98.9003C44.7948 99.0229 46.5773 99.1673 48.0387 100.16C48.2137 100.267 48.3801 100.388 48.5366 100.52C48.634 100.603 48.7243 100.69 48.8181 100.784C49.9691 101.913 50.5176 103.407 51.0119 104.937C51.3261 105.767 51.4982 106.644 51.5207 107.531C51.5207 107.824 51.5207 107.964 51.2609 108.102C50.9946 108.226 50.7092 108.306 50.4166 108.336C49.0069 108.54 47.5793 108.591 46.1587 108.488C44.2788 108.408 42.3952 108.282 40.508 108.181L28.2902 107.589C24.321 107.383 20.3518 107.275 16.4151 106.896C14.7805 106.741 13.0846 106.615 11.8469 105.417C10.6887 104.298 9.98863 102.635 9.52316 101.116C9.38604 100.694 8.8484 99.4451 9.14428 99.0446ZM57.9147 113.056C56.8033 113.694 55.4935 113.882 54.2342 113.936C52.7295 114.008 51.214 113.936 49.7274 114.182C48.2407 114.427 46.884 115.004 45.3973 115.105C43.9568 115.182 42.5183 114.92 41.1972 114.34C40.6042 114.028 39.9346 113.892 39.2668 113.947C38.5956 114.055 38.0508 114.477 37.4301 114.73C36.2515 115.193 34.9463 115.22 33.7496 114.806C32.5516 114.387 31.7145 113.265 30.3469 113.554C29.7371 113.684 29.185 114.026 28.5428 114.091C27.8464 114.167 27.1535 113.907 26.504 113.698C25.3189 113.276 24.0451 113.167 22.8055 113.381C21.5462 113.611 20.1497 114.174 18.876 113.759C18.3335 113.523 17.811 113.243 17.3136 112.922C16.7469 112.622 16.104 112.497 15.4661 112.561C14.8202 112.619 14.2032 112.85 13.5573 112.922C12.8946 112.987 12.2257 112.923 11.5871 112.735C11.0127 112.567 10.4701 112.304 9.98142 111.959C9.47986 111.598 9.12985 111.071 8.62829 110.739C8.12673 110.407 7.62156 110.447 7.07309 110.469C6.40194 110.498 6.23956 110.267 6.01945 109.668C5.89283 109.221 5.70588 108.794 5.46376 108.397C5.11353 107.959 4.63762 107.638 4.09981 107.477C3.50443 107.254 3.1472 107.048 3.03895 106.395C2.99386 105.892 2.99386 105.386 3.03895 104.883C3.03895 103.8 2.89101 102.765 1.92398 102.133C1.74356 102.018 1.3286 101.881 1.2456 101.686C1.10127 101.358 1.60644 101.022 1.84459 100.856C2.44034 100.426 3.09391 100.082 3.78588 99.8348C5.08944 99.3628 6.49348 99.2384 7.85971 99.474C7.894 99.8136 7.95922 100.149 8.05457 100.477C8.26462 101.325 8.5409 102.155 8.88087 102.96C9.54481 104.526 10.4289 106.164 11.9335 107.073C13.4382 107.982 15.4228 108.055 17.1548 108.203C19.3198 108.39 21.4668 108.498 23.6282 108.596C28.0448 108.802 32.465 109.043 36.8816 109.278C39.1212 109.389 41.3608 109.509 43.6004 109.639C45.4008 109.781 47.2077 109.824 49.0129 109.769C50.0593 109.714 51.8238 109.718 52.4697 108.711C52.8991 108.051 52.7367 107.091 52.614 106.362C52.4269 105.402 52.1503 104.461 51.7877 103.551C51.4292 102.538 50.9247 101.583 50.2903 100.715C51.4341 100.668 52.5852 100.842 53.4043 101.7C53.6631 102.004 53.9616 102.271 54.2919 102.494C54.6197 102.646 54.9306 102.832 55.2193 103.05C55.4747 103.304 55.6463 103.63 55.7108 103.984C55.7753 104.338 55.7297 104.703 55.5801 105.031C55.5271 105.186 55.5376 105.356 55.6092 105.503C55.6809 105.65 55.8079 105.763 55.9626 105.817C56.3915 105.897 56.7931 106.085 57.1297 106.362C57.4662 106.64 57.7267 106.998 57.8865 107.404C58.0463 107.81 58.1003 108.25 58.0434 108.683C57.9865 109.115 57.8205 109.526 57.5611 109.877C57.5097 109.955 57.4768 110.045 57.4646 110.138C57.4525 110.231 57.4614 110.325 57.4909 110.414C57.5204 110.504 57.5696 110.585 57.6348 110.652C57.7001 110.72 57.7797 110.772 57.8678 110.804C58.2575 110.967 58.972 111.244 59.0946 111.703C59.2678 112.237 58.3152 112.825 57.9147 113.056Z" fill="#1A3869" style="fill:#1A3869;fill:color(display-p3 0.1020 0.2196 0.4118);fill-opacity:1;"/>
</svg>
