<svg width="8" height="12" viewBox="0 0 8 12" fill="none" xmlns="http://www.w3.org/2000/svg">
<path d="M7.42255 6.8415C6.56431 7.06146 5.81463 7.5845 5.31191 8.31404C4.80919 9.04358 4.58739 9.93037 4.68743 10.8107C4.73355 10.9976 4.70607 11.195 4.6107 11.3623C4.51534 11.5295 4.35937 11.6537 4.17503 11.7092C4.04835 11.7414 3.91562 11.7414 3.78894 11.7092C3.70226 11.7069 3.61704 11.6864 3.53882 11.649C3.46059 11.6116 3.39112 11.5581 3.33494 11.4921C3.27877 11.426 3.23714 11.3489 3.21278 11.2657C3.18842 11.1824 3.18188 11.095 3.19357 11.0091C3.33791 8.9632 1.66003 7.5343 0.220299 6.34354C-0.237961 5.95745 0.0903922 5.30072 0.552261 5.12031C1.45737 4.75387 2.24702 4.15031 2.83818 3.37311C3.42933 2.59591 3.80015 1.67378 3.91163 0.703693C4.00906 -0.216436 5.35497 -0.252519 5.37662 0.703693C5.40188 2.54034 5.84931 4.57545 7.61019 5.50279C7.73937 5.57292 7.84405 5.68082 7.91024 5.81207C7.97643 5.94331 8.00096 6.09162 7.98056 6.23719C7.96016 6.38276 7.89579 6.51862 7.79607 6.62661C7.69635 6.7346 7.56603 6.80958 7.42255 6.8415Z" fill="white" style="fill:white;fill-opacity:1;"/>
</svg>
