<svg width="18" height="14" viewBox="0 0 18 14" fill="none" xmlns="http://www.w3.org/2000/svg">
<path d="M16.8821 2.94953C15.9548 1.44846 14.2733 0.640201 12.5882 0.322666C10.8856 0.0345869 9.15591 -0.0610484 7.43188 0.0375928C5.74354 0.103737 4.10276 0.615409 2.67608 1.52064C1.94499 2.1431 1.3807 2.93807 1.03428 3.83358C0.616871 4.72331 0.298623 5.65628 0.0852851 6.61563C-0.0875394 7.53327 0.00345824 8.48109 0.347718 9.34909C0.691979 10.2171 1.27538 10.9696 2.03018 11.5194C4.42252 13.356 7.80354 13.4859 10.6325 12.9158C13.3387 12.3745 17.0048 10.7183 17.528 7.67287C17.7698 6.18623 17.694 4.26297 16.8821 2.94953ZM12.3176 7.5574C12.1943 8.00164 11.9828 8.41652 11.6958 8.77731C11.4088 9.1381 11.0521 9.43744 10.6469 9.65746C10.2656 9.83299 9.85072 9.92388 9.4309 9.92388C9.01109 9.92388 8.59625 9.83299 8.21489 9.65746C7.81109 9.43907 7.45479 9.14251 7.16672 8.78506C6.87866 8.42762 6.6646 8.01642 6.53701 7.57544C6.2058 6.661 6.01953 5.70041 5.98494 4.72845C5.96066 4.53025 6.01337 4.3303 6.13221 4.16984C6.25105 4.00937 6.42694 3.90064 6.62361 3.86607C6.82276 3.84018 7.02414 3.89326 7.18464 4.01398C7.34514 4.13469 7.45202 4.31344 7.4824 4.51195C7.49978 5.4969 7.70555 6.46941 8.0886 7.37698C8.21006 7.71125 8.43028 8.00069 8.72006 8.2069C8.77759 8.23134 8.83309 8.26029 8.88605 8.29349C8.95094 8.31301 9.01477 8.3359 9.07729 8.36205L9.32266 8.39815H9.48864C9.58967 8.39815 9.67988 8.37287 9.78091 8.35483H9.80618L9.93968 8.30433C9.96133 8.30433 10.0804 8.22855 10.1165 8.21412C10.1912 8.16663 10.2612 8.11226 10.3258 8.05174C10.5774 7.76319 10.7633 7.42337 10.8706 7.05583C11.2007 6.05803 11.4044 5.02279 11.4768 3.97431C11.4889 3.87551 11.5204 3.78006 11.5693 3.6934C11.6183 3.60675 11.6839 3.53058 11.7623 3.46927C11.8407 3.40795 11.9304 3.36269 12.0263 3.33605C12.1222 3.3094 12.2224 3.3019 12.3212 3.31398C12.42 3.32606 12.5154 3.35748 12.6021 3.40646C12.6888 3.45543 12.7649 3.521 12.8262 3.5994C12.8875 3.67781 12.9328 3.76752 12.9595 3.86342C12.9861 3.95933 12.9936 4.05954 12.9815 4.15834C12.8944 5.3135 12.6716 6.45437 12.3176 7.5574Z" fill="white" style="fill:white;fill-opacity:1;"/>
</svg>
