<svg width="9" height="10" viewBox="0 0 9 10" fill="none" xmlns="http://www.w3.org/2000/svg">
<path d="M0 4.64394L0.0938206 4.71972L0.328372 4.91818H0.357223L0.866012 5.34396C1.50108 5.86356 2.13614 6.37596 2.79647 6.86308L3.1573 7.12287C3.35215 7.26721 3.55063 7.40793 3.7563 7.54866C3.82486 7.59557 3.8898 7.64248 3.96557 7.68939C4.10269 7.7832 4.24343 7.87703 4.38415 7.96363C5.62016 8.8036 6.98882 9.42938 8.43271 9.81471C8.01053 8.77551 7.62804 7.71465 7.24916 6.65741L7.04711 6.0945C6.66463 5.012 6.26772 3.92949 5.83833 2.86864C5.77698 2.7207 5.72286 2.57996 5.6543 2.43202C5.58574 2.28408 5.49913 2.04953 5.41975 1.8619L5.38367 1.77891C5.11304 1.17632 4.82436 0.580944 4.51043 0C3.7166 0.819095 2.91555 1.63457 2.12171 2.45006L1.67067 2.91555L1.55879 3.02741L0 4.64394Z" fill="white" style="fill:white;fill-opacity:1;"/>
</svg>
