<svg width="4" height="4" viewBox="0 0 4 4" fill="none" xmlns="http://www.w3.org/2000/svg">
<path d="M2.96244 0.370821C2.55279 0.0894905 2.05701 -0.0382875 1.5624 0.00998636C1.22826 0.0482944 0.915552 0.193901 0.671151 0.424955C0.654709 0.431157 0.639901 0.441036 0.627852 0.453828C0.434512 0.617548 0.278451 0.820752 0.170158 1.04979C0.0618638 1.27882 0.0038486 1.52838 3.20691e-06 1.7817C-0.000485646 2.05682 0.05492 2.32917 0.162846 2.58223C0.270771 2.8353 0.428965 3.0638 0.627852 3.25389C0.811176 3.45459 1.03969 3.6087 1.29446 3.70346C1.54923 3.79821 1.8229 3.83088 2.09282 3.79875C2.37289 3.75724 2.6417 3.65943 2.88294 3.51121C3.12418 3.36299 3.33287 3.16746 3.49647 2.93637C3.75522 2.52233 3.84413 2.02435 3.74463 1.54635C3.64513 1.06835 3.36492 0.647226 2.96244 0.370821Z" fill="white" style="fill:white;fill-opacity:1;"/>
</svg>
