<svg width="44" height="35" viewBox="0 0 44 35" fill="none" xmlns="http://www.w3.org/2000/svg">
<path d="M0 11.3013L0.151566 11.4493C0.158709 11.4507 0.166095 11.4507 0.173238 11.4493L0.223716 11.507C0.25386 11.5428 0.28048 11.5815 0.303133 11.6225C0.311655 11.6337 0.318893 11.6458 0.32476 11.6586C0.345187 11.6916 0.362122 11.7267 0.375282 11.7632C0.544875 12.124 0.736126 12.4524 0.88046 12.7988C1.5047 14.0942 2.10006 15.4076 2.66657 16.7283C2.75317 16.9195 2.8398 17.1144 2.9228 17.3128C2.95166 17.3814 2.97692 17.4427 3.00939 17.5077C3.17177 17.8685 3.32691 18.2474 3.48206 18.6227C3.53258 18.7418 3.5795 18.8572 3.63002 18.9835C3.78157 19.3443 3.9259 19.7052 4.07745 20.066L4.13881 20.2067C4.19654 20.3619 4.2651 20.5098 4.31923 20.6614C4.83161 21.9171 5.33194 23.1776 5.82027 24.4429L5.98267 24.8687C6.06566 25.0636 6.13783 25.262 6.21361 25.4569C6.23351 25.4965 6.2504 25.5375 6.26413 25.5796C6.58166 26.4095 6.90638 27.243 7.22392 28.0766C7.3033 28.2786 7.3827 28.4879 7.46208 28.6972C7.49817 28.7838 7.52704 28.8704 7.56313 28.9534C7.77241 29.4946 7.9817 30.0359 8.1982 30.5699C8.33892 30.9307 8.49047 31.3241 8.64202 31.7065L8.85129 32.2262C8.93067 32.4246 9.01368 32.6194 9.09306 32.8179C9.29152 33.3159 9.49356 33.8066 9.69563 34.3045H9.74254C10.273 34.3875 10.7962 34.4489 11.3302 34.5066L11.9184 34.5716C12.9504 34.6654 13.986 34.7267 15.0216 34.7412C16.3602 34.7592 17.7026 34.7123 19.0413 34.5968L19.6258 34.5391C22.3955 34.2725 25.1305 33.7224 27.7879 32.8973C27.9863 32.8432 28.1812 32.7782 28.376 32.7169L28.9931 32.5148H29.0111C31.694 31.6084 34.271 30.4143 36.6969 28.9534C36.8846 28.8487 37.0577 28.7297 37.2598 28.6142L38.0356 28.1126C39.1767 27.3587 40.2698 26.5344 41.3084 25.6445L41.6151 25.3739C42.0049 25.0236 42.3668 24.6436 42.6976 24.2373C42.7156 24.212 42.7373 24.1867 42.7517 24.1615C42.7662 24.1362 42.8563 24.0352 42.9033 23.9666C43.0225 23.7968 43.131 23.6196 43.228 23.4362C43.3968 23.1343 43.5254 22.8116 43.6105 22.4764C43.6381 22.3816 43.6598 22.2852 43.6755 22.1877C43.7021 22.009 43.7948 21.8467 43.9352 21.7331C43.9136 21.4408 43.8956 21.1413 43.8812 20.8454C43.8812 20.6253 43.8522 20.4052 43.845 20.1815C43.762 18.9005 43.6863 17.6268 43.6141 16.3458C43.6141 16.1329 43.5888 15.9092 43.5744 15.6963C43.5455 15.2056 43.5239 14.7221 43.495 14.2313C43.4734 13.8055 43.4518 13.3797 43.4301 12.9612C43.3868 12.1313 43.3471 11.3049 43.3146 10.475C43.3146 10.2549 43.2894 10.0276 43.2822 9.80749C43.2208 8.49044 43.1667 7.177 43.1161 5.85634C43.1161 5.40891 43.0909 4.96508 43.0765 4.52486C43.071 4.4251 43.071 4.32512 43.0765 4.22536C43.0765 3.97638 43.0765 3.73101 43.0548 3.47843C43.0187 2.39593 42.9863 1.31344 42.9682 0.202067C42.9682 0.202067 42.9682 0.184026 42.9682 0.180417C42.2142 0.0804516 41.4553 0.0202292 40.695 0C40.7919 1.0881 40.8329 2.18045 40.8176 3.27275C40.8176 3.95112 40.7707 4.64033 40.7058 5.3187C40.7058 5.49551 40.6733 5.67952 40.6553 5.84551C40.6553 5.89963 40.6553 5.95015 40.6372 6.00427C40.6355 6.03913 40.6355 6.07407 40.6372 6.10893C40.5867 6.50585 40.529 6.89553 40.464 7.28884C40.1906 8.92557 39.7393 10.5276 39.1181 12.0663C39.0026 12.3478 38.8872 12.6256 38.7573 12.8998C38.3224 13.8517 37.8044 14.7634 37.2093 15.6241C36.831 16.1836 36.4163 16.7176 35.968 17.2226C35.849 17.3561 35.7335 17.4861 35.6072 17.6123C35.5567 17.6665 35.5061 17.7242 35.4484 17.7783C35.0127 18.2336 34.5526 18.6648 34.07 19.0701C33.0428 19.8995 31.9356 20.6248 30.7648 21.2351C30.5302 21.3578 30.2885 21.4841 30.0431 21.596C29.3686 21.9294 28.6643 22.1988 27.9395 22.4006C27.7446 22.4619 27.5498 22.5125 27.3549 22.5594C26.2284 22.8225 25.0817 22.9903 23.927 23.0609C23.7718 23.0609 23.6094 23.0609 23.4543 23.0862C22.6821 23.1295 21.9111 23.1367 21.1413 23.1078C20.546 23.0862 19.9542 23.0357 19.3624 22.9707C19.1603 22.9527 18.9619 22.9238 18.7598 22.8986C18.3773 22.848 17.9876 22.7831 17.6088 22.7145C15.6562 22.3649 13.7546 21.7746 11.9473 20.9573C11.7452 20.8707 11.5431 20.7769 11.3483 20.6794L10.9008 20.4593C10.8891 20.4559 10.8766 20.4559 10.8648 20.4593C10.54 20.2861 10.2116 20.0985 9.8941 19.9289C8.83518 19.325 7.82318 18.6423 6.8667 17.8866C6.58164 17.6628 6.29297 17.4319 6.01513 17.1902C5.9141 17.0999 5.81308 17.017 5.71204 16.9231C5.61101 16.8293 5.49915 16.7355 5.39451 16.6309C5.09862 16.3675 4.80994 16.0896 4.52849 15.8046L3.98363 15.2344C3.18173 14.3677 2.43912 13.4479 1.76088 12.4813C1.4686 12.0699 1.19801 11.6549 0.938206 11.2328C0.896544 11.1629 0.868355 11.0858 0.855177 11.0055C0.534034 11.0957 0.270626 11.2039 0 11.3013Z" fill="white" style="fill:white;fill-opacity:1;"/>
</svg>
