<svg width="8" height="7" viewBox="0 0 8 7" fill="none" xmlns="http://www.w3.org/2000/svg">
<path d="M0.00720342 3.23799C0.0372851 4.22853 0.297972 5.1984 0.768559 6.07054C0.853818 6.24859 1.00549 6.38613 1.19102 6.45359C1.37655 6.52106 1.58114 6.51307 1.76086 6.43137C1.85 6.39025 1.93013 6.33188 1.9966 6.25963C2.06306 6.18738 2.11453 6.10269 2.14807 6.01043C2.18162 5.91817 2.19656 5.82019 2.19203 5.72212C2.1875 5.62406 2.1636 5.52785 2.12169 5.43907C1.66374 4.62034 1.45083 3.68722 1.50829 2.75087C1.49811 2.3964 1.60881 2.049 1.82221 1.76578C2.04683 1.59842 2.31797 1.5051 2.59802 1.49877C3.35072 1.47293 4.09217 1.68688 4.71541 2.10972C5.33865 2.53257 5.81146 3.14246 6.06563 3.85142C6.15324 4.027 6.30674 4.16082 6.49263 4.22368C6.67852 4.28655 6.88173 4.27336 7.05793 4.18699C7.23023 4.09592 7.36128 3.94251 7.42431 3.7581C7.48735 3.57369 7.47759 3.37218 7.39709 3.19469C7.07333 2.30411 6.48228 1.53535 5.7048 0.99361C4.42383 0.0734815 2.27325 -0.485818 0.916514 0.582253C0.0974192 1.18485 -0.0360967 2.29982 0.00720342 3.23799Z" fill="#1A3869" style="fill:#1A3869;fill:color(display-p3 0.1020 0.2196 0.4118);fill-opacity:1;"/>
</svg>
