<svg width="3" height="4" viewBox="0 0 3 4" fill="none" xmlns="http://www.w3.org/2000/svg">
<path d="M0.000577271 1.58196C-0.00514229 1.78696 0.031691 1.99091 0.108801 2.18094C0.161247 2.29319 0.225357 2.39963 0.300054 2.49848C0.465512 2.71157 0.688336 2.87304 0.942351 2.96395C1.24741 3.07373 1.58278 3.06343 1.88051 2.9351C2.15558 2.79779 2.37517 2.57021 2.50259 2.29042C2.63001 2.01063 2.65751 1.69558 2.58051 1.39794C2.54464 1.27312 2.49632 1.15223 2.43621 1.0371C2.43221 0.966754 2.41762 0.897411 2.39291 0.831422C2.37062 0.738589 2.32317 0.653696 2.25579 0.586057C2.16071 0.442982 2.03803 0.320311 1.89496 0.225223C1.76676 0.115253 1.61113 0.0420791 1.44467 0.0134876C1.2782 -0.0151039 1.10712 0.00195171 0.949574 0.0628425C0.80354 0.141374 0.670774 0.242453 0.556233 0.362342C0.441843 0.469752 0.341257 0.590958 0.256756 0.723176C0.0902856 0.978723 0.00132451 1.27698 0.000577271 1.58196Z" fill="#1A3869" style="fill:#1A3869;fill:color(display-p3 0.1020 0.2196 0.4118);fill-opacity:1;"/>
</svg>
