<svg width="30" height="26" viewBox="0 0 30 26" fill="none" xmlns="http://www.w3.org/2000/svg">
<path d="M0 14.1447C0.0974254 14.7726 0.209256 15.3896 0.33194 16.0066C0.614023 17.5072 1.03438 18.9785 1.58764 20.4016C2.11806 21.7222 2.74233 23.3244 4.00165 24.1038C5.3656 24.9589 7.29244 25.1502 8.85847 25.3125C10.4455 25.4767 12.0435 25.5093 13.6359 25.41C16.9701 25.2093 20.2786 24.7008 23.5192 23.8909C26.4636 23.1692 29.2926 21.5671 29.574 18.2655C29.6865 16.423 29.6527 14.5746 29.473 12.7375C29.3467 10.8864 29.1338 9.04974 28.8487 7.21669C28.4626 4.77384 28.0296 1.13663 25.4389 0C21.258 0.223718 17.0927 0.641072 12.9431 1.25209C8.64199 5.56767 4.32761 9.86523 0 14.1447Z" fill="white" style="fill:white;fill-opacity:1;"/>
</svg>
