<svg width="4" height="4" viewBox="0 0 4 4" fill="none" xmlns="http://www.w3.org/2000/svg">
<path d="M3.10395 1.48463C3.12042 1.77825 3.04473 2.06967 2.88745 2.31816C2.74229 2.55297 2.54311 2.74969 2.30651 2.8919C2.06457 3.03684 1.78858 3.11518 1.50657 3.11898C1.22456 3.12279 0.946554 3.05192 0.70079 2.91355C0.58309 2.84701 0.477053 2.76169 0.386866 2.66096C0.298784 2.56212 0.224719 2.45164 0.166757 2.33261C0.0490212 2.09111 -0.00791849 1.82448 0.000885775 1.55595C0.00969004 1.28742 0.0839714 1.02511 0.217273 0.791838C0.287871 0.682236 0.370144 0.580599 0.462644 0.488727C0.560422 0.398995 0.669613 0.322558 0.787393 0.2614L0.873995 0.232549C0.903559 0.206822 0.936298 0.184996 0.971417 0.167601C1.28642 0.00729013 1.64695 -0.0398457 1.99258 0.0340941C2.06531 0.0535775 2.13554 0.0814204 2.20186 0.117079C2.26993 0.142919 2.33521 0.175567 2.39672 0.214511C2.54717 0.307857 2.67726 0.430581 2.7792 0.575346C2.88743 0.716949 2.97155 0.875435 3.02818 1.04443C3.07499 1.18663 3.10052 1.33496 3.10395 1.48463Z" fill="#1A3869" style="fill:#1A3869;fill:color(display-p3 0.1020 0.2196 0.4118);fill-opacity:1;"/>
</svg>
