<svg width="36" height="16" viewBox="0 0 36 16" fill="none" xmlns="http://www.w3.org/2000/svg">
<path d="M35.7115 11.9242C35.4935 10.2185 34.8902 8.58471 33.9471 7.14677C32.8985 5.71236 31.581 4.49545 30.0681 3.5637C27.1074 1.68814 23.7559 0.516622 20.2714 0.139338C20.1652 0.13316 20.0617 0.103591 19.9683 0.0527412C16.562 -0.156543 13.0619 0.236778 9.91545 1.59712C6.3071 3.1415 3.75961 6.02457 1.97708 9.44889C1.0543 11.1079 0.427885 12.9151 0.125998 14.7893C-0.0852952 16.712 -0.0306297 18.6548 0.2884 20.5626C0.786352 23.7849 2.72041 26.6607 5.23543 28.6778C5.34729 28.7572 5.45916 28.8257 5.5638 28.9087C5.58287 28.905 5.60248 28.905 5.62155 28.9087C5.76311 28.923 5.89784 28.9765 6.01066 29.0632C6.12349 29.1499 6.2099 29.2664 6.26019 29.3995C8.93037 31.182 12.1057 32.0805 15.2811 32.3403C19.0446 32.6542 23.0679 32.2067 26.5824 30.7814C29.7614 29.4933 32.6589 27.202 34.0841 24.0122C34.9177 22.1431 35.2497 20.043 35.5564 18.0115C35.9094 16.0013 35.9617 13.9498 35.7115 11.9242ZM32.8248 20.0322C32.0518 22.9151 30.3842 25.4785 28.0618 27.3535C23.122 31.2505 16.1326 31.4165 10.5072 28.9809C7.7757 27.7973 5.45553 25.8994 4.1024 23.2256C2.80888 20.5639 2.40658 17.5566 2.95497 14.6485C3.49358 11.7087 4.86979 8.98704 6.91817 6.81064C8.96654 4.63424 11.5999 3.09578 14.5017 2.38015C14.6271 2.34776 14.7587 2.34776 14.8841 2.38015C18.6196 1.7734 22.4509 2.27521 25.9041 3.82349C28.7294 5.1261 31.6774 7.7169 32.8501 10.6361C34.0517 13.6562 33.6945 16.9903 32.8177 20.0322H32.8248Z" fill="#1A3869" style="fill:#1A3869;fill:color(display-p3 0.1020 0.2196 0.4118);fill-opacity:1;"/>
</svg>
