<svg width="65" height="32" viewBox="0 0 65 32" fill="none" xmlns="http://www.w3.org/2000/svg">
<path d="M1.81501 0.262038C2.90579 -0.0216197 4.04358 -0.0756843 5.15634 0.10327C5.47027 0.142962 5.78057 0.189864 6.08728 0.254815C6.17027 0.254815 6.24968 0.280068 6.33267 0.294501C7.2564 0.482135 8.18012 0.716686 9.11108 0.911537L9.72814 1.04143C10.3528 1.16555 10.9841 1.25351 11.6189 1.30486H11.8426C12.0447 1.30486 12.2395 1.30485 12.438 1.32289C13.3725 1.32289 14.3143 1.29042 15.2489 1.32289C15.4509 1.32289 15.653 1.32288 15.8587 1.35174C16.2049 1.37125 16.5496 1.41224 16.8907 1.47444C16.9626 1.48366 17.0338 1.49813 17.1036 1.51774C17.3118 1.55596 17.5177 1.60536 17.7206 1.66569C18.8595 1.97521 19.9396 2.47016 20.9176 3.13068C21.1269 3.26419 21.3326 3.41213 21.531 3.56007C22.1769 4.04359 22.8264 4.49463 23.6527 4.56679C24.0164 4.59118 24.3817 4.5583 24.7352 4.46936C24.9409 4.42967 25.143 4.37917 25.3414 4.32504C25.5399 4.27092 25.7853 4.2204 26.009 4.19153C26.2397 4.1571 26.4722 4.1366 26.7054 4.13018C26.9038 4.13018 27.0987 4.13018 27.2972 4.13018C28.3649 4.21358 29.3952 4.56074 30.2957 5.14051C30.3776 5.19175 30.4559 5.24841 30.5302 5.31011C30.7202 5.45246 30.901 5.60671 31.0715 5.77197C31.5008 6.24447 31.9678 6.68134 32.4679 7.07821C32.6398 7.20108 32.8265 7.3017 33.0236 7.37769C33.2901 7.49474 33.5769 7.55849 33.8679 7.56533C34.5211 7.56533 35.1706 7.40296 35.8201 7.43182C35.9106 7.43351 36.001 7.44074 36.0907 7.45347C36.1972 7.46694 36.3022 7.48989 36.4046 7.52203C36.9814 7.69095 37.5273 7.95169 38.0212 8.29422C38.1294 8.35917 38.2304 8.42773 38.3387 8.49629L38.5408 8.61535C39.2088 9.02814 39.9266 9.35431 40.6769 9.586C40.8746 9.64913 41.0759 9.70093 41.2795 9.74115C41.6912 9.83582 42.11 9.89617 42.5316 9.92157C43.3976 9.97209 44.3358 9.92157 45.2523 10.0118C45.4842 10.0344 45.7144 10.0718 45.9415 10.1236C46.349 10.2084 46.7409 10.3557 47.1034 10.5603C47.1359 10.5603 47.1575 10.5963 47.19 10.6108C47.3255 10.6936 47.4545 10.7864 47.5761 10.8886C47.9982 11.2495 48.3555 11.668 48.7632 12.0289C49.3292 12.5438 50.0347 12.8802 50.7911 12.9959H50.8994C51.1592 13.032 51.4189 13.0392 51.6824 13.05C52.1571 13.0398 52.632 13.0603 53.1041 13.1114C53.891 13.228 54.6481 13.495 55.334 13.898C55.6409 14.0763 55.9329 14.279 56.2072 14.5042C56.3569 14.6279 56.4991 14.7605 56.633 14.9011C56.7515 15.0151 56.8635 15.1356 56.9686 15.2619C57.0594 15.363 57.1416 15.4717 57.214 15.5867C57.3295 15.7525 57.4355 15.9248 57.5315 16.1027C57.7168 16.4455 57.9368 16.7684 58.1882 17.0661C58.6537 17.5785 59.2707 17.6903 59.9094 17.8202C60.696 17.9826 60.8187 18.2966 60.9017 19.0507C60.9272 19.4514 60.9767 19.8502 61.0497 20.2451C61.0818 20.3937 61.1252 20.5396 61.1796 20.6817C61.1796 20.7214 61.2156 20.7647 61.2409 20.8116C61.4186 21.1862 61.6819 21.5137 62.0094 21.7678C62.1643 21.8979 62.327 22.0184 62.4966 22.1286L62.5327 22.1503C63.1389 22.5724 63.4781 22.9188 63.4167 23.6802C63.3665 24.1171 63.271 24.5476 63.1317 24.9648L63.0017 25.4303L62.9368 25.6864C62.7311 26.5813 62.659 27.469 63.0379 28.2628C63.1233 28.4429 63.2312 28.6114 63.359 28.7644C63.4029 28.8234 63.4498 28.88 63.4997 28.934C63.6765 29.1216 64.1168 29.3958 64.16 29.6556C64.2322 30.0814 63.5394 30.3196 63.2291 30.4459C62.0546 30.9156 60.798 31.1457 59.5333 31.1228C58.2686 31.0998 57.0212 30.8243 55.8645 30.3123C55.9101 29.9992 55.9342 29.6834 55.9366 29.367C55.9366 29.2731 55.9366 29.1829 55.9366 29.0963C55.9366 29.0097 55.9366 28.8871 55.9366 28.7788C55.9311 28.1057 55.8877 27.4335 55.8067 26.7654C55.7851 26.5741 55.7598 26.3793 55.7273 26.1916C55.7273 26.1231 55.7273 26.0581 55.6985 25.9932C55.6191 25.4916 55.5289 24.9901 55.4062 24.4885C55.3629 24.3009 55.3196 24.106 55.2619 23.922C55.2041 23.738 55.1283 23.4565 55.0381 23.222C54.9479 22.9874 54.9083 22.8611 54.8325 22.6699C54.4943 21.8054 53.9878 21.0168 53.3422 20.3497C53.3056 20.3129 53.267 20.2779 53.2267 20.2451C53.08 20.0951 52.9233 19.9552 52.7577 19.8265C52.465 19.601 52.1563 19.3972 51.8339 19.2167C51.6499 19.1084 51.4731 19.0146 51.2818 18.9172C50.0924 18.3794 48.8689 17.9201 47.6194 17.5424L47.0276 17.3439C45.9571 16.9831 44.8746 16.6379 43.7801 16.3083C43.5961 16.247 43.4193 16.1929 43.2136 16.1315L42.0589 15.7707C41.8677 15.7166 41.6692 15.6589 41.478 15.5975L40.2259 15.2367C39.7532 15.096 39.2733 14.9552 38.8042 14.8109L38.2341 14.6413L36.9423 14.248L36.383 14.082L35.4087 13.7861L34.8494 13.6201C33.9618 13.3531 33.0741 13.0789 32.1901 12.8082C32.0025 12.7541 31.8112 12.7 31.6272 12.6387C31.1256 12.4907 30.6277 12.3392 30.1297 12.184L29.5668 12.0144L26.7378 11.1556L26.1605 10.9752L25.1105 10.6577H25.0708C24.8832 10.6072 24.71 10.5494 24.5187 10.4953C23.4362 10.1669 22.3537 9.8386 21.2712 9.51385L20.7119 9.34063C19.8784 9.09166 19.0485 8.83547 18.2185 8.58289L17.6412 8.40247C17.5546 8.38082 17.4716 8.35555 17.3887 8.32669L16.6994 8.11381L16.1041 7.92978C15.2344 7.66637 14.3576 7.40296 13.4808 7.16481L12.8241 6.99882C12.4091 6.89418 11.9833 6.79675 11.5575 6.70654C11.4204 6.67407 11.2797 6.64882 11.139 6.62356L10.9369 6.58026C10.7096 6.54057 10.4678 6.48644 10.2153 6.44675C9.96267 6.40706 9.74978 6.36375 9.49358 6.32767C8.89331 6.2327 8.28018 6.25723 7.68941 6.39984C7.45257 6.45442 7.22916 6.55627 7.03267 6.69932C6.96426 6.74502 6.90027 6.79696 6.84146 6.85447C6.7333 6.95522 6.63978 7.0706 6.56361 7.19727C6.45289 7.35862 6.3654 7.53476 6.30377 7.72049C6.15641 8.16298 6.06667 8.62261 6.03676 9.08804C6.03676 9.2432 6.0079 9.38755 5.99707 9.53188C5.99707 9.58601 5.99707 9.64012 5.99707 9.69785C5.95434 10.5635 5.98209 11.4311 6.08006 12.2923C6.10171 12.5088 6.12699 12.7253 6.14864 12.9418V13.0284C6.18833 13.3892 6.24605 13.7789 6.311 14.1506C6.34708 14.3779 6.39399 14.6016 6.4445 14.8217C6.59964 15.4776 6.80846 16.1197 7.06879 16.7414C5.72648 16.4635 4.44187 15.9367 3.74185 14.7062C3.55786 14.3491 3.33783 14.0118 3.08516 13.6995C3.04097 13.6398 2.99274 13.5831 2.94081 13.5299C2.69905 13.2882 2.40678 13.0897 2.17584 12.8082C2.12533 12.7433 2.07119 12.6747 2.02789 12.6062C1.83055 12.3019 1.72415 11.9477 1.72119 11.585C1.71462 11.389 1.73776 11.1932 1.78977 11.0041C1.85382 10.7162 1.97666 10.4448 2.15061 10.2066C2.20524 10.1264 2.24311 10.036 2.262 9.94082C2.28089 9.84562 2.28038 9.74759 2.2605 9.6526C2.24063 9.5576 2.2018 9.46758 2.14633 9.38794C2.09087 9.3083 2.01989 9.24067 1.93768 9.18909C1.45696 8.95179 1.04001 8.60288 0.72167 8.17153C0.574541 7.96203 0.453377 7.73546 0.360835 7.49677C0.206967 7.11265 0.134297 6.70084 0.147338 6.28726C0.160379 5.87367 0.258879 5.46728 0.43664 5.09362C0.516993 4.91555 0.617463 4.74726 0.736117 4.59206C0.887023 4.3828 1.06269 4.19258 1.25931 4.02554C1.33782 3.95861 1.40031 3.8749 1.44215 3.7806C1.48399 3.68629 1.50414 3.5838 1.50109 3.48068C1.49559 3.35951 1.46288 3.24115 1.40541 3.13434C1.34795 3.02752 1.26719 2.93499 1.1691 2.86364C0.734306 2.59436 0.364604 2.23206 0.0865968 1.80279C0.0331419 1.70134 0.00352779 1.58905 0 1.47444C0.010825 0.821327 1.27376 0.409981 1.81501 0.262038Z" fill="#3F89FF" style="fill:#3F89FF;fill:color(display-p3 0.2471 0.5373 1.0000);fill-opacity:1;"/>
</svg>
