<svg width="21" height="52" viewBox="0 0 21 52" fill="none" xmlns="http://www.w3.org/2000/svg">
<path d="M17.4464 0.179573L17.4969 0.157924C17.5245 0.144088 17.5536 0.133216 17.5835 0.125461C17.6052 0.125461 17.6304 0.103811 17.6376 0.125461L17.7819 0.0785512L18.0273 0.028029L18.1752 0.00276795H18.2185C18.251 0.00276795 18.3088 0.00276795 18.3196 0.00276795C18.3616 -0.00092265 18.4039 -0.00092265 18.4459 0.00276795H18.7201C18.8103 0.00276795 18.9041 0.00277764 18.9907 0.0352528H19.0413C19.0705 0.0465296 19.1007 0.0549902 19.1315 0.0605138C19.3011 0.10133 19.4675 0.154392 19.6294 0.219282C19.6727 0.219282 19.716 0.251744 19.7593 0.273394L20.0011 0.406901L20.2284 0.558468C20.2593 0.585702 20.2918 0.610994 20.3258 0.634229C20.3258 0.634229 20.3511 0.655896 20.3691 0.673937C20.3872 0.691979 20.4269 0.728053 20.4377 0.731661C20.4485 0.73527 20.4918 0.793 20.5207 0.818258C20.5929 0.890798 20.6605 0.967943 20.7228 1.0492C20.0949 3.99842 19.4803 6.94524 18.8789 9.88965C15.5111 26.4351 12.45 43.0335 9.69563 59.6848C8.32446 67.9888 7.03388 76.3013 5.82388 84.6222C5.31149 88.1583 4.80993 91.6981 4.38054 95.2415C4.00471 94.9995 3.59817 94.809 3.17175 94.675C2.79311 94.5542 2.40419 94.4685 2.00987 94.4188C1.33961 94.328 0.658348 94.3611 0 94.5162C0.205676 93.1847 0.411348 91.8461 0.627849 90.511C1.91723 82.3801 3.28841 74.2638 4.74137 66.1618C7.62805 49.9243 10.8034 33.748 14.0149 17.579C14.8111 13.5593 15.6133 9.54083 16.4216 5.52354C16.7752 3.75184 17.1108 1.96931 17.4464 0.179573Z" fill="white" style="fill:white;fill-opacity:1;"/>
</svg>
