<svg width="5" height="3" viewBox="0 0 5 3" fill="none" xmlns="http://www.w3.org/2000/svg">
<path d="M4.73791 1.14902C3.90438 1.45212 3.07806 1.76966 2.25536 2.10885C1.55895 2.39391 0.869754 2.68619 0.184168 2.9929C0.149292 2.95205 0.110634 2.9146 0.0687034 2.88104L0.0254049 2.84494C0.000146511 2.81247 0.0254049 2.84495 0.0254049 2.75835L0.000143868 2.60319C-0.00103261 2.52582 0.00500855 2.4485 0.0181867 2.37225C0.0566451 2.03547 0.163468 1.7101 0.332111 1.41605C0.642601 0.842481 1.15004 0.400532 1.76081 0.171741C2.37158 -0.0570499 3.04449 -0.057253 3.6554 0.171169C3.89827 0.241204 4.12199 0.36567 4.30956 0.535109C4.49713 0.704548 4.64362 0.914489 4.73791 1.14902Z" fill="#1A3869" style="fill:#1A3869;fill:color(display-p3 0.1020 0.2196 0.4118);fill-opacity:1;"/>
</svg>
