<svg width="7" height="3" viewBox="0 0 7 3" fill="none" xmlns="http://www.w3.org/2000/svg">
<path d="M6.08011 5.33301C5.35844 6.69336 3.63727 6.69699 2.38878 6.16295C1.66858 5.87888 1.0248 5.43033 0.508843 4.85312C0.30189 4.58659 0.152901 4.27974 0.071498 3.95227C-0.00990454 3.62479 -0.0219434 3.28392 0.0361281 2.95151C0.142969 2.29038 0.437992 1.674 0.885931 1.17615C1.33387 0.678294 1.91576 0.320043 2.56197 0.144209C2.66002 0.147254 2.75782 0.132587 2.85066 0.10091C4.01615 -0.259925 5.344 0.389585 5.98629 1.37106C6.33788 1.96886 6.53103 2.6465 6.54745 3.33983C6.56387 4.03317 6.40301 4.71924 6.08011 5.33301Z" fill="#FFB53F" style="fill:#FFB53F;fill:color(display-p3 1.0000 0.7098 0.2471);fill-opacity:1;"/>
</svg>
