<svg width="6" height="21" viewBox="0 0 6 21" fill="none" xmlns="http://www.w3.org/2000/svg">
<path d="M0 0C0.0216501 0.162376 0.0469279 0.321146 0.0649696 0.476305L0.0865968 0.656722C0.162372 1.24488 0.230918 1.84027 0.299477 2.42843C0.328344 2.65937 0.353636 2.88668 0.378894 3.11039C0.51962 4.36971 0.649504 5.63625 0.76858 6.89196C0.793838 7.11207 0.815508 7.33577 0.833549 7.55588C0.833549 7.61001 0.833549 7.66414 0.833549 7.71826C0.87685 8.14044 0.916526 8.55901 0.952609 8.98479C0.988693 9.41058 1.0392 9.94462 1.07528 10.4281C1.1258 11.0163 1.17632 11.6044 1.21962 12.1962C1.26292 12.788 1.32067 13.4555 1.36397 14.0906C1.36397 14.3215 1.40006 14.5561 1.4181 14.8123C1.49027 15.8154 1.5552 16.8221 1.62376 17.8289C1.65262 18.2366 1.67426 18.6407 1.70313 19.0557C1.72478 19.4165 1.75006 19.7774 1.7681 20.1382L3.34495 18.4567C3.46763 18.3304 3.5831 18.2005 3.70578 18.0742C3.82846 17.9479 3.99443 17.7639 4.13876 17.6051C4.47073 17.2443 4.79191 16.9051 5.11666 16.5479C5.23934 16.4108 5.36922 16.27 5.49912 16.1329C4.75513 15.1364 4.09841 14.0777 3.5362 12.9684C3.44238 12.7772 3.35575 12.5859 3.27998 12.3947C2.9202 11.5475 2.67741 10.6552 2.55831 9.74254C2.4969 9.25426 2.46797 8.76246 2.47171 8.27035C2.47376 7.81403 2.50631 7.35836 2.56914 6.90638C2.59801 6.68267 2.63411 6.45895 2.6738 6.23524C2.73248 5.9198 2.80837 5.60781 2.90113 5.30066C2.97205 5.00673 3.06122 4.71751 3.16814 4.43467C3.2367 4.21817 3.32689 4.00527 3.41709 3.79599C3.68482 3.15518 4.01097 2.54036 4.39138 1.95933C3.82887 1.59716 3.23465 1.28679 2.61605 1.032C2.4212 0.945404 2.22635 0.858799 2.02428 0.779415C1.55519 0.580956 1.07892 0.396916 0.606222 0.223716L0 0Z" fill="white" style="fill:white;fill-opacity:1;"/>
</svg>
