<svg width="16" height="15" viewBox="0 0 16 15" fill="none" xmlns="http://www.w3.org/2000/svg">
<path d="M12.9254 6.87005C13.5066 6.60273 13.9835 6.15124 14.2821 5.58548C14.4759 5.15691 14.5214 4.67605 14.4117 4.21872C14.3019 3.76138 14.043 3.3536 13.6759 3.05964C12.7017 2.21167 10.7243 1.61629 9.45417 2.29106C9.45258 1.81659 9.33882 1.34924 9.12218 0.927112C8.94971 0.617065 8.68965 0.364738 8.37453 0.20172C8.0594 0.0387029 7.70321 -0.0277821 7.35049 0.0105774C5.71591 0.165736 4.69475 1.83641 4.77413 3.37717C3.86626 3.57375 3.01228 3.96621 2.27185 4.52713C1.53143 5.08806 0.922419 5.80393 0.48741 6.62468C0.0327579 7.51955 -0.212607 8.62009 0.242045 9.56547C0.660613 10.4387 1.60238 10.9258 2.49004 11.1748C3.06722 11.357 3.68254 11.3819 4.27256 11.247C4.03283 11.9529 4.05591 12.7217 4.33753 13.412C4.7561 14.2924 5.67982 14.6244 6.59995 14.5991C8.24536 14.5522 10.1361 13.7836 10.7063 12.1924C11.0413 12.4536 11.4334 12.6318 11.8505 12.7124C12.2677 12.793 12.6979 12.7738 13.1062 12.6562C13.5144 12.5387 13.889 12.3262 14.1994 12.0361C14.5098 11.746 14.7471 11.3866 14.8919 10.9872C15.6028 9.24433 14.5275 7.53038 12.9254 6.87005ZM14.2533 10.6516C14.1503 11.0032 13.9523 11.3196 13.6811 11.566C13.4099 11.8124 13.076 11.9792 12.7161 12.048C12.364 12.113 12.0008 12.0801 11.6661 11.9528C11.3314 11.8256 11.0381 11.6089 10.8181 11.3264C10.7819 11.2496 10.7198 11.1881 10.6426 11.1526C10.5655 11.1171 10.4784 11.1099 10.3965 11.1323C10.3147 11.1547 10.2433 11.2053 10.195 11.2751C10.1468 11.3449 10.1246 11.4295 10.1325 11.514C9.99181 13.1414 8.11546 13.8414 6.71542 13.9172C5.99375 13.9569 5.23239 13.7836 4.95455 13.0331C4.65144 12.2104 5.00867 11.3263 5.31538 10.5578C5.34857 10.4773 5.35152 10.3875 5.32368 10.3049C5.29585 10.2224 5.2391 10.1528 5.16392 10.1088C5.08875 10.0648 5.00021 10.0495 4.91464 10.0657C4.82907 10.0819 4.75227 10.1285 4.69837 10.1969C4.0633 10.9186 2.89418 10.6372 2.13282 10.3016C1.67963 10.1316 1.28759 9.82999 1.00701 9.43558C0.875097 9.19934 0.791519 8.93921 0.761163 8.67035C0.730807 8.40148 0.754284 8.12927 0.830207 7.86957C1.31012 5.90663 3.19367 4.45967 5.11331 4.08801C5.15703 4.08189 5.19895 4.06652 5.23625 4.04292C5.27355 4.01932 5.30538 3.98804 5.32963 3.95115C5.35388 3.91427 5.36997 3.87263 5.37685 3.82903C5.38373 3.78543 5.38123 3.74088 5.36951 3.69832C5.42305 3.66854 5.46643 3.6234 5.49408 3.56873C5.52173 3.51407 5.5324 3.45237 5.52467 3.3916C5.46694 2.26218 6.13447 0.930716 7.36131 0.764732C8.70361 0.580706 8.76857 2.15033 8.72527 3.0849C8.72527 3.38439 9.15828 3.59727 9.35674 3.34469C10.1722 2.3127 12.0305 2.81787 12.9651 3.4349C13.5677 3.83542 13.9899 4.56793 13.6471 5.27155C13.3043 5.97518 12.4491 6.3324 11.7346 6.61385C11.6873 6.62025 11.6416 6.63592 11.6003 6.65997C11.5589 6.68401 11.5227 6.71596 11.4938 6.75399C11.4648 6.79202 11.4436 6.83539 11.4313 6.88161C11.4191 6.92784 11.4161 6.97601 11.4225 7.0234C11.4289 7.07079 11.4446 7.11646 11.4686 7.15779C11.4927 7.19912 11.5246 7.23531 11.5626 7.26429C11.6007 7.29328 11.644 7.31449 11.6903 7.32671C11.7365 7.33893 11.7847 7.34192 11.8321 7.33552C13.445 7.46903 14.7909 8.99175 14.2533 10.648V10.6516Z" fill="white" style="fill:white;fill-opacity:1;"/>
</svg>
