<svg width="13" height="7" viewBox="0 0 13 7" fill="none" xmlns="http://www.w3.org/2000/svg">
<path d="M0 1.31344C0.10537 1.60692 0.225809 1.89473 0.360835 2.1758C1.21445 3.82948 2.61813 5.13366 4.33002 5.86356C5.40641 6.33649 6.55885 6.61269 7.73269 6.67905C8.23652 6.7055 8.74153 6.69946 9.24458 6.661C10.3983 6.56959 11.5351 6.32695 12.6256 5.93933C12.1278 5.17406 11.8506 4.28636 11.8245 3.3738C10.8431 3.70265 9.82528 3.91105 8.79354 3.99442L8.20899 4.03772C7.70434 4.0702 7.19813 4.0702 6.69348 4.03772C5.37386 4.00926 4.11103 3.49539 3.14647 2.59438C2.40475 1.86362 1.83419 0.977603 1.4758 0C1.4288 0.0174209 1.383 0.0378842 1.33868 0.0613137C1.28997 0.0889806 1.23932 0.113125 1.18714 0.133507C1.18714 0.133507 1.18714 0.133507 1.16549 0.133507L1.12219 0.155134C1.0392 0.212868 0.956209 0.266986 0.876826 0.328328L0.620625 0.53764C0.58815 0.573724 0.555671 0.598982 0.526805 0.627849C0.514579 0.636045 0.50466 0.647209 0.497954 0.660312L0.476305 0.685595C0.312202 0.861083 0.167061 1.05338 0.0432984 1.25931C0.0309822 1.27895 0.0164556 1.29712 0 1.31344Z" fill="#1A3869" style="fill:#1A3869;fill:color(display-p3 0.1020 0.2196 0.4118);fill-opacity:1;"/>
</svg>
