<svg width="28" height="30" viewBox="0 0 28 30" fill="none" xmlns="http://www.w3.org/2000/svg">
<path d="M0.0245584 8.95013C-0.191942 11.8152 1.05292 14.1137 2.57925 16.3039C2.86792 16.7117 3.1674 17.1158 3.46328 17.5272C3.86381 18.0684 4.26797 18.6097 4.66128 19.1581C4.86695 19.4504 5.06541 19.7391 5.24944 20.0314C5.52728 20.4644 5.79071 20.9082 6.03247 21.352C6.82183 22.8169 7.50552 24.3362 8.07837 25.8985C8.23353 26.2918 8.37425 26.6851 8.52219 27.0749C8.88303 28.0202 9.20778 28.9729 9.56501 29.9255C16.7817 28.5182 24.7201 25.1264 27.0439 17.5669C26.7191 17.0352 26.3847 16.5096 26.0407 15.99C25.7737 15.5823 25.4959 15.1781 25.218 14.7776C24.4194 13.6518 23.5774 12.5573 22.6922 11.494C22.5874 11.3719 22.5264 11.2182 22.519 11.0574C21.7251 9.85942 20.9963 8.62536 20.1699 7.44904L19.7189 6.84284C19.423 6.44953 19.1055 6.06706 18.7844 5.68819C18.0627 4.85827 17.3157 4.0572 16.5508 3.30305C16.4795 3.22631 16.4036 3.15402 16.3234 3.08656C15.9729 2.74034 15.5992 2.41845 15.2049 2.12314C14.1242 1.25045 12.8635 0.628104 11.5135 0.300906C9.76222 -0.149588 7.91898 -0.0932723 6.19844 0.463286C4.78871 0.973828 3.53035 1.83136 2.53957 2.95667C2.20792 3.33171 1.90629 3.73227 1.63748 4.15464C0.710525 5.59467 0.156258 7.24262 0.0245584 8.95013Z" fill="#FFB53F" style="fill:#FFB53F;fill:color(display-p3 1.0000 0.7098 0.2471);fill-opacity:1;"/>
</svg>
