<svg width="7" height="6" viewBox="0 0 7 6" fill="none" xmlns="http://www.w3.org/2000/svg">
<path d="M5.07886 5.63196C5.3407 5.51006 5.57588 5.33767 5.77093 5.12467C5.96598 4.91166 6.11707 4.66222 6.2155 4.39069C6.2674 4.30507 6.30744 4.21282 6.33456 4.11645C6.47884 3.53115 6.46104 2.91762 6.28304 2.34168C6.10505 1.76573 5.77359 1.24912 5.32422 0.847285C4.81828 0.434251 4.21347 0.160142 3.56936 0.0519467C2.92525 -0.0562483 2.26406 0.0052171 1.65093 0.230272C1.33456 0.33915 1.04354 0.511029 0.795467 0.735537C0.547391 0.960046 0.347404 1.23252 0.207591 1.53649C-0.0505752 2.16724 -0.0685534 2.87075 0.157068 3.51386C0.604504 4.82008 1.96124 5.58505 3.24581 5.80876C3.86035 5.94184 4.50109 5.88005 5.07886 5.63196Z" fill="white" style="fill:white;fill-opacity:1;"/>
</svg>
