<svg width="105" height="39" viewBox="0 0 105 39" fill="none" xmlns="http://www.w3.org/2000/svg">
<path d="M0.107764 21.0439C0.107764 21.0439 -1.24176 12.788 5.61049 11.3483C12.4627 9.90855 14.7324 16.151 14.7324 16.151C14.7324 16.151 11.871 4.33365 20.7006 2.47896C29.2019 0.674785 32.2473 13.6324 32.2473 13.6324C32.2473 13.6324 34.3618 0.0180675 45.8255 2.57671e-05C60.2409 -0.0216243 59.3244 13.6071 59.3244 13.6071C59.3244 13.6071 69.1787 6.993 78.0228 13.3437C84.5611 18.0345 84.157 24.811 84.157 24.811C84.157 24.811 92.9181 10.208 100.701 16.9737C105.273 20.9429 105.558 28.4086 101.924 36.2567C96.4687 48.0416 65.9782 52.1334 44.974 53.6345C21.8805 55.2871 6.1301 58.4697 0.107764 21.0439Z" fill="white" style="fill:white;fill-opacity:1;"/>
</svg>
