<svg width="5" height="5" viewBox="0 0 5 5" fill="none" xmlns="http://www.w3.org/2000/svg">
<path d="M1.91891 0.162427C1.99145 0.0973246 2.07802 0.0498041 2.17188 0.0235237C2.26574 -0.0027567 2.36437 -0.00708558 2.46017 0.0108822C2.82918 0.0810601 3.1736 0.246042 3.45955 0.489609C3.74551 0.733176 3.96316 1.04694 4.09115 1.40009C4.22373 1.74511 4.26019 2.11966 4.19664 2.48378C4.13309 2.8479 3.97193 3.18796 3.73031 3.46769C3.48581 3.74174 3.17731 3.95105 2.8323 4.07697C2.48729 4.20288 2.11649 4.2415 1.75294 4.18935C1.39209 4.12462 1.0544 3.96669 0.773378 3.73124C0.492358 3.49579 0.277763 3.19098 0.150837 2.84704C-0.0045954 2.46199 -0.0409099 2.03917 0.0465773 1.63325C0.134065 1.22734 0.341323 0.857007 0.641567 0.570172C0.909582 0.313502 1.25986 0.160088 1.63025 0.137166C1.72696 0.138603 1.82343 0.147048 1.91891 0.162427Z" fill="#1A3869" style="fill:#1A3869;fill:color(display-p3 0.1020 0.2196 0.4118);fill-opacity:1;"/>
</svg>
