<svg width="160" height="99" viewBox="0 0 160 99" fill="none" xmlns="http://www.w3.org/2000/svg">
<path d="M159.42 97.3707C159.475 95.4082 159.173 93.4521 158.529 91.5974C158.665 88.0182 158.038 84.4511 156.689 81.1332C155.358 77.8094 153.387 74.7798 150.887 72.217C149.894 71.2048 148.821 70.2745 147.679 69.4349C148.123 67.8292 148.22 65.9348 147.448 64.4482C147.343 64.2464 147.222 64.0533 147.087 63.8709C149.559 59.4145 150.641 54.3701 150.977 49.2931C151.338 43.9853 151.107 38.3887 148.617 33.5644C146.362 29.1982 142.692 25.7126 138.636 23.0244C136.08 21.3164 133.334 19.9117 130.452 18.8387C130.366 14.7649 129.457 10.7199 126.812 7.46519C119.858 -1.07577 107.034 -1.01084 97.2232 1.40315C92.1619 2.64158 87.3367 4.69769 82.9377 7.49043C78.5355 10.2797 74.6385 13.787 71.1023 17.5938C67.5908 21.4689 64.318 25.5539 61.3021 29.8261C58.0546 34.3257 54.8756 38.8722 51.8265 43.4981C50.5155 45.4827 49.2358 47.4902 47.9873 49.5205C47.8754 49.4772 47.76 49.4483 47.6481 49.4158C47.5219 49.3726 47.3881 49.3561 47.2552 49.3672C47.1222 49.3784 46.9931 49.4171 46.8759 49.4808C46.7559 49.4799 46.6371 49.5042 46.5271 49.552C46.4171 49.5999 46.3184 49.6703 46.2372 49.7586C45.3496 50.6968 44.8155 51.8839 44.2743 53.0314C43.9892 53.634 43.7006 54.233 43.4191 54.8356C43.0996 55.4268 42.8211 56.0392 42.5856 56.6686C42.4784 56.9511 42.4524 57.2579 42.5104 57.5544C42.5684 57.8509 42.7082 58.1252 42.9139 58.3465C40.2871 63.2416 38.028 68.3254 36.1555 73.5557C35.2606 76.1104 34.4884 78.7012 33.8209 81.3172C33.8209 81.3172 33.8209 81.3389 33.8209 81.3533C33.6441 81.3281 33.4601 81.3028 33.276 81.2884C32.3013 81.1341 31.3049 81.1895 30.3533 81.4507C28.6718 82.0064 27.7661 83.5941 27.1058 85.1349C23.9882 84.5467 20.8669 83.9657 17.7241 83.6626C12.3476 83.1539 -2.03164 82.627 0.241623 91.601C0.226673 91.6948 0.232841 91.7908 0.259682 91.882C0.286524 91.9731 0.333361 92.0571 0.396779 92.1278C0.443088 92.2269 0.514309 92.3122 0.603493 92.3754C0.692677 92.4387 0.79676 92.4777 0.905547 92.4887C2.34889 93.297 3.93657 93.517 5.56394 93.6433C5.48138 94.157 5.55943 94.6835 5.78741 95.1511C6.01539 95.6187 6.38218 96.0045 6.83767 96.2558C8.24853 97.0929 10.2151 97.1146 11.7991 97.3383C15.6565 97.9048 19.5174 98.3631 23.3892 98.7816C31.1832 99.6404 38.9953 100.362 46.7604 101.477C47.8646 101.632 48.9651 101.805 50.0657 101.975C50.9858 102.123 51.942 102.336 52.8694 102.101C54.1611 101.769 54.9658 100.449 54.4931 99.2507C55.4818 99.2976 56.4633 99.3337 57.4556 99.3482C59.2164 99.377 60.6057 98.2945 60.649 96.4615C60.6923 94.6284 59.2237 93.0407 57.8092 92.0232C56.6308 91.2122 55.3363 90.5845 53.9699 90.1613C54.0096 90.0422 54.0457 89.9267 54.0746 89.8004C54.1634 89.3357 54.1041 88.8549 53.905 88.4257C53.4756 87.5055 52.541 87.004 51.6642 86.5818C50.8126 86.1414 49.8661 85.9159 48.9074 85.9251C48.4157 85.9635 47.9391 86.1135 47.514 86.3636C47.0888 86.6136 46.7263 86.9573 46.4537 87.3684C46.1966 87.7168 45.9821 88.0947 45.815 88.4942C44.8745 88.3306 43.9351 88.1646 42.9969 87.9963C43.2689 87.3879 43.3785 86.7195 43.3153 86.0562C43.2521 85.3928 43.0181 84.7571 42.6361 84.2111C42.4732 83.9885 42.2842 83.7862 42.0732 83.6085C42.7454 79.7727 43.8932 76.0357 45.4903 72.484C47.0927 68.9267 48.8999 65.4654 50.9028 62.1172C51.1004 62.1875 51.3069 62.23 51.5162 62.2435C52.8405 62.359 53.472 60.8362 54.0204 59.8872C54.6775 58.7794 55.2609 57.6294 55.7669 56.4449C56.1566 55.5175 56.355 54.583 55.9365 53.7494C59.4835 48.005 63.2001 42.3651 67.2558 36.967C72.4482 30.0534 78.2144 23.5259 84.8032 17.8969C88.1013 15.0824 91.587 12.3834 95.4262 10.341C99.3782 8.21408 103.743 6.96483 108.221 6.67855C111.909 6.45844 115.936 6.94558 119.097 8.99151C122.016 10.8751 123.427 13.8195 123.921 17.0814C114.381 15.4541 104.158 18.3335 98.2083 26.2899C95.5044 29.8545 94.043 34.2069 94.0478 38.681C94.0767 41.2068 94.5674 43.8084 95.9458 45.9662C97.2427 47.8773 98.9966 49.4339 101.048 50.4947C105.775 52.9701 111.086 52.0607 115.554 49.4627C119.923 46.9369 123.189 42.8811 125.588 38.497C127.908 34.2509 129.431 29.6159 130.081 24.8213C134.328 26.8669 137.951 30.0114 140.574 33.9288C144.835 40.3733 145.813 48.8457 143.461 56.1743C142.984 57.6843 142.367 59.1461 141.617 60.5404C140.478 60.2926 139.288 60.4549 138.257 60.9986C137.036 61.7062 136.036 62.7409 135.371 63.9863C133.323 63.4952 131.245 63.1456 129.15 62.9399C115.077 61.5399 99.9583 65.2709 88.8807 74.2413C88.2528 73.9273 87.7693 73.3825 87.0765 73.1588C86.6531 73.028 86.2066 72.9896 85.7671 73.0463C85.3276 73.1029 84.9054 73.2533 84.529 73.4871C83.0403 74.323 81.6863 75.3789 80.5129 76.6192C79.9304 77.2248 79.3903 77.8698 78.8964 78.5496C78.3912 79.2713 77.8572 80.0218 77.7742 80.9131C77.6335 82.5044 79.001 83.143 79.784 84.2508C76.5605 89.1006 74.4463 94.6017 73.5921 100.362C73.57 100.472 73.57 100.585 73.5921 100.694C73.5127 101.293 73.4586 101.856 73.953 102.318C74.5474 102.86 75.2358 103.289 75.9845 103.584C77.5793 104.259 79.3186 104.667 80.9856 105.122C84.5675 106.084 88.1855 106.926 91.8395 107.647C99.3196 109.062 106.875 110.112 114.388 111.321C118.518 111.977 122.651 112.639 126.786 113.305C132.322 117.209 139.971 117.715 146.419 116.011C150.237 115.001 153.867 112.984 156.191 109.711C157.301 108.093 158.069 106.265 158.446 104.338C159.015 102.057 159.342 99.7211 159.42 97.3707ZM30.8981 83.0565C31.6051 82.8713 32.344 82.843 33.0631 82.9735C33.9472 83.0709 34.8349 83.1791 35.7153 83.309C37.2488 83.5363 39.0783 83.7817 40.4675 84.5611C40.5838 84.7071 40.7448 84.8111 40.9257 84.857C41.3329 85.2026 41.5937 85.6899 41.6553 86.2205C41.7169 86.751 41.5748 87.2851 41.2577 87.7148C38.0535 87.1447 34.8481 86.5782 31.6414 86.0153L28.7836 85.4849C29.2311 84.4673 29.8301 83.4173 30.8981 83.0565ZM51.7905 100.55C51.01 100.471 50.2343 100.35 49.4667 100.189C47.9295 99.9483 46.39 99.7258 44.848 99.5213C41.7051 99.0956 38.555 98.7311 35.4086 98.3847C29.047 97.6847 22.6747 97.0749 16.3312 96.2558C14.5631 96.0212 12.8023 95.7867 11.045 95.5125C10.5254 95.4403 6.40468 95.0939 7.2346 93.7913C7.2346 93.7913 7.23459 93.7516 7.26707 93.7335C9.52589 93.8815 11.7919 94.0511 14.0508 94.2459C18.9401 94.6645 23.815 95.1949 28.679 95.8661C36.7401 96.9847 44.7434 98.5832 52.8549 99.1533C52.8159 99.2742 52.8059 99.4026 52.826 99.528C52.8461 99.6534 52.8956 99.7723 52.9704 99.875C53.324 100.438 51.9673 100.55 51.7905 100.55ZM48.4167 87.7978C48.6908 87.6776 48.9869 87.6155 49.2863 87.6155C49.5856 87.6155 49.8817 87.6776 50.1559 87.7978C50.8138 88.0026 51.435 88.3107 51.9961 88.7107C52.116 88.7947 52.222 88.897 52.3101 89.0138C52.3281 89.0138 52.3714 89.1185 52.3822 89.1329L52.4292 89.2484C52.4292 89.2737 52.4291 89.3494 52.4508 89.3783C52.4725 89.4072 52.4508 89.4504 52.4508 89.4937L52.4219 89.5912C52.3759 89.6224 52.3346 89.6601 52.2992 89.703C50.7332 89.3205 49.1239 89.0679 47.5543 88.8081C47.7397 88.4003 48.0344 88.0519 48.4058 87.8014L48.4167 87.7978ZM42.0479 89.5515L48.5899 90.7134C50.3978 90.9808 52.1813 91.3935 53.923 91.9474C55.5323 92.5175 57.1525 93.3583 58.253 94.7114C58.7365 95.3104 59.1731 96.1114 58.9061 96.8764C58.5453 97.9048 57.4628 97.6883 56.6004 97.6486C52.2163 97.4682 47.8357 97.0749 43.4913 96.4831C39.1468 95.8913 34.8529 95.0614 30.5265 94.4336C25.6155 93.7119 20.6829 93.1562 15.7323 92.7088C13.3267 92.4923 10.9103 92.3011 8.48308 92.1351C6.34693 91.9907 3.74532 92.1639 1.81486 91.0742C1.5298 89.9412 1.60917 88.7612 2.34889 87.8267C3.19685 86.7442 4.58246 86.1704 5.87786 85.8421C7.57807 85.4595 9.3133 85.254 11.0558 85.2287C12.9424 85.1342 14.833 85.1535 16.7173 85.2864C20.8236 85.5823 24.9119 86.5241 28.9641 87.2385C33.3302 88.0155 37.6915 88.7865 42.0479 89.5515ZM48.3048 63.3152C45.8475 67.6452 43.5743 72.1087 42.0227 76.8465C41.3815 78.7839 40.8763 80.7636 40.5108 82.7714L40.2654 82.6776C39.1156 82.2739 37.9322 81.9732 36.7292 81.7791C36.3143 81.7069 35.8885 81.6492 35.4627 81.5878C35.4649 81.584 35.4661 81.5797 35.4661 81.5752C35.4661 81.5708 35.4649 81.5664 35.4627 81.5626C37.4365 73.7938 40.5541 66.3751 44.2959 59.2991C45.4795 59.8548 46.6666 60.3816 47.8718 60.8976C48.3589 61.1033 48.8461 61.3089 49.3151 61.5074C49.0048 62.11 48.662 62.709 48.3192 63.3152H48.3048ZM53.2518 57.8557C53.0113 58.3369 52.7527 58.8035 52.4761 59.2558C52.3498 59.4759 52.2163 59.6888 52.0864 59.9017C51.9781 60.0604 51.8302 60.4501 51.6642 60.5367C51.4982 60.6233 51.6642 60.5728 51.4657 60.5367C51.2304 60.4784 51.0036 60.3898 50.7909 60.2733L50.192 60.028C49.8311 59.8873 49.4956 59.7393 49.1492 59.5914C48.1605 59.18 47.1766 58.7518 46.1975 58.3068C45.8367 58.1444 45.4759 57.9712 45.115 57.8016C44.9743 57.7439 44.8408 57.6789 44.7001 57.614C44.5385 57.5588 44.3873 57.4771 44.2526 57.3722C44.1227 57.2207 44.166 57.2712 44.231 57.0655C44.4549 56.4914 44.7177 55.9332 45.0176 55.3949C45.2882 54.8283 45.5516 54.2618 45.8223 53.6953C46.2129 52.7596 46.7184 51.8759 47.3269 51.0648C47.7996 51.202 48.2687 51.3535 48.7342 51.5159C50.2013 52.0297 51.625 52.6595 52.9921 53.3994C53.2988 53.5515 53.5964 53.7214 53.8833 53.9082C54.3019 54.1933 54.6266 54.5541 54.5184 55.0593C54.3163 56.0263 53.7101 57.0006 53.2663 57.8557H53.2518ZM72.0983 28.2853C65.9641 35.3613 60.649 43.0796 55.6875 51.0179C55.3699 51.5159 55.0632 52.0174 54.7529 52.519C53.8508 51.9269 52.8938 51.423 51.8951 51.0143C51.1482 50.6535 50.3832 50.3612 49.6074 50.0834C54.5039 42.1017 59.9093 34.3582 65.5635 26.9178C68.8399 22.6058 72.3833 18.3985 76.3886 14.7143C76.4782 14.7213 76.5674 14.7333 76.6556 14.7504H76.6953H76.7169L76.9154 14.8154C77.0453 14.8659 77.1716 14.9309 77.2762 14.9886L77.3195 15.0138C77.3195 15.0138 77.3195 15.0138 77.3448 15.0138C77.37 15.0138 77.4567 15.0896 77.518 15.1329C77.9497 15.4373 78.3175 15.8235 78.6005 16.2695C79.2428 17.2005 79.683 18.3985 80.2459 19.4629C80.2798 19.5216 80.3172 19.5783 80.3578 19.6325C77.4608 22.3714 74.7087 25.2596 72.1127 28.2853H72.0983ZM106.204 5.19191C101.55 5.79114 97.0717 7.35437 93.0555 9.78174C89.0467 12.1452 85.3878 15.1004 81.9274 18.2108L81.6279 18.4815C81.0541 17.352 80.5959 16.1577 79.8237 15.1221C79.3045 14.395 78.6159 13.8054 77.8175 13.4045C80.6177 10.9613 83.6865 8.84405 86.9646 7.09352C91.3386 4.78413 96.0524 3.18606 100.929 2.35937C103.143 1.97527 105.383 1.75816 107.63 1.70987C107.742 1.8176 107.889 1.8805 108.045 1.88668C108.077 1.93358 108.12 1.98048 108.153 2.031C108.216 2.10932 108.27 2.19397 108.315 2.28358L108.337 2.32688C108.364 2.3728 108.387 2.42112 108.405 2.47123C108.505 2.66901 108.589 2.87408 108.658 3.08465C108.658 3.08465 108.658 3.11352 108.658 3.13517C108.658 3.15682 108.68 3.22536 108.694 3.27227C108.719 3.38413 108.737 3.49599 108.755 3.6331C108.777 3.73422 108.791 3.83671 108.799 3.93983C108.799 4.00838 108.799 4.06972 108.799 4.13106C108.799 4.1924 108.799 4.15993 108.799 4.18519C108.801 4.21884 108.801 4.25256 108.799 4.28621C108.799 4.34756 108.799 4.41612 108.799 4.47747C108.794 4.58164 108.782 4.68534 108.763 4.78778C108.763 4.86355 108.763 4.93573 108.763 5.00429C107.918 5.02233 107.063 5.09088 106.219 5.19191H106.204ZM118.567 6.80485C116.03 5.62493 113.27 5.00235 110.473 4.97903C110.473 4.95738 110.473 4.93573 110.455 4.91047V4.87079C110.455 4.76975 110.477 4.66148 110.484 4.55684C110.5 4.29247 110.5 4.02738 110.484 3.76302C110.442 3.30326 110.345 2.85018 110.195 2.4135C110.121 2.18247 110.028 1.95797 109.917 1.74233C110.783 1.78202 111.653 1.85419 112.512 1.96605C113.952 2.15302 115.373 2.4596 116.762 2.88258C121.147 4.25015 125.289 7.09714 127.259 11.3658C128.226 13.5535 128.753 15.9099 128.811 18.301C127.775 17.9691 126.729 17.6804 125.664 17.4459C125.614 17.002 125.552 16.5618 125.473 16.1252C124.737 12.0009 122.363 8.65594 118.581 6.80485H118.567ZM144.662 38.3887C142.172 31.5761 136.81 26.0951 130.276 23.0857C129.76 22.8403 129.226 22.6166 128.692 22.411C128.331 22.2666 127.945 22.1295 127.569 21.9996C126.974 21.8011 126.375 21.6135 125.765 21.4511C125.155 21.2887 124.657 21.1733 124.091 21.0578C121.253 20.4597 118.335 20.3463 115.46 20.7223C113.187 21.0023 111 21.7598 109.041 22.945C107.241 24.1051 105.594 25.4858 104.137 27.0549C101.355 29.9777 99.4098 34.0226 99.4243 38.1253C99.4243 42.3399 102.105 46.0023 106.446 46.4858C110.852 46.9766 114.637 44.3208 117.462 41.2285C120.513 37.8704 122.811 33.8992 124.203 29.5807C124.889 27.4901 125.364 25.336 125.621 23.1507C126.596 23.4215 127.554 23.7505 128.49 24.1357C128.363 25.0883 128.208 26.0265 128.028 26.9286C126.166 36.2814 120.468 46.8178 110.769 49.7766C106.078 51.22 101.218 49.6756 98.0242 45.9698C95.1087 42.5708 95.2422 37.1294 96.552 33.0736C99.3232 24.4641 107.666 19.0732 116.448 18.3913C118.998 18.2042 121.562 18.3424 124.076 18.8026C124.647 18.8964 125.217 19.0191 125.787 19.1634C126.812 19.398 127.822 19.6867 128.829 20.0222C129.366 20.199 129.911 20.3831 130.424 20.5959C135.099 22.3979 139.348 25.153 142.901 28.6859C146.38 32.1031 148.59 36.6033 149.169 41.445C149.773 46.6543 149.395 51.9307 148.054 57.0006C147.532 58.9934 146.778 60.9178 145.806 62.7342L145.597 62.5755C144.867 62.0129 144.085 61.5212 143.262 61.1069H143.222C145.016 57.6243 146.071 53.8088 146.321 49.8996C146.571 45.9903 146.011 42.0715 144.677 38.3887H144.662ZM114.352 41.9466C111.465 44.4291 106.894 46.2261 103.484 43.592C100.236 41.0914 100.889 36.3969 102.188 33.0484C103.599 29.4003 106.782 26.3007 110.069 24.2765C113.482 22.1728 117.848 21.895 121.742 22.364C122.496 22.4579 123.243 22.5805 123.986 22.7249C123.304 29.9668 119.811 37.2846 114.363 41.9466H114.352ZM138.925 62.561C139.572 62.1885 140.327 62.0485 141.065 62.1641C141.527 62.2255 141.977 62.3569 142.4 62.5538C142.473 62.5786 142.544 62.6088 142.613 62.644C143.247 62.9641 143.851 63.3422 144.417 63.7734L144.98 64.1848C145.34 64.4378 145.65 64.756 145.893 65.123C145.947 65.2098 145.993 65.3017 146.03 65.3972C146.441 66.2921 146.391 67.4576 146.199 68.4571C143.364 66.6778 140.282 65.3258 137.052 64.4446C137.521 63.676 138.167 63.0302 138.936 62.561H138.925ZM79.4701 81.0646C79.5242 80.4296 80.0871 79.8089 80.4552 79.3146C80.8936 78.7418 81.3634 78.1936 81.8624 77.6728C82.8213 76.6934 83.9046 75.8441 85.0847 75.1469C85.5971 74.8366 86.1672 74.5516 86.7409 74.8727C87.0228 75.0379 87.2928 75.2224 87.5492 75.4248C86.7626 76.1068 86.0012 76.8248 85.2651 77.5645C83.6363 79.2081 82.1401 80.9781 80.7908 82.858C80.5743 82.6162 80.3397 82.3961 80.1015 82.176C79.7984 81.8476 79.4268 81.5157 79.4701 81.0646ZM102.751 68.2117C109.878 65.4829 117.473 64.188 125.101 64.4013C132.874 64.6106 141.148 66.4328 147.376 71.3329C150.004 73.42 152.19 76.0094 153.807 78.9502C155.424 81.8911 156.439 85.1245 156.793 88.4618C156.075 87.5532 155.254 86.7309 154.347 86.0117C152.599 84.6638 150.651 83.5984 148.574 82.8544C146.839 82.1823 145.038 81.6984 143.201 81.411C143.076 81.3097 142.921 81.2515 142.761 81.2451C139.184 80.8824 135.57 81.2934 132.166 82.4502C128.72 83.7134 125.776 86.061 123.777 89.1401C122.632 90.8178 121.71 92.6372 121.035 94.5526C120.365 96.6483 120.112 98.8549 120.291 101.048C120.396 102.935 120.598 104.739 121.313 106.511C121.343 106.566 121.37 106.624 121.392 106.684C109.409 104.88 97.4541 102.852 85.561 100.506C82.2419 99.8882 78.9575 99.0969 75.721 98.1357C78.6799 84.2256 89.6384 73.2778 102.751 68.1937V68.2117ZM106.226 108.333C99.3088 107.225 92.3735 106.24 85.561 104.602C83.6269 104.14 81.6964 103.628 79.7876 103.079C78.2432 102.635 76.5401 102.264 75.2808 101.246C75.3025 100.983 75.3277 100.723 75.3566 100.47C75.3732 100.376 75.3732 100.28 75.3566 100.185C75.3566 100.066 75.3963 99.9399 75.4179 99.8244C81.1119 101.546 87.0007 102.549 92.8354 103.631C99.0153 104.767 105.207 105.841 111.411 106.853C114.971 107.436 118.541 107.994 122.121 108.528C122.19 108.537 122.261 108.537 122.33 108.528C122.848 109.403 123.452 110.224 124.134 110.978C124.224 111.068 124.322 111.155 124.408 111.248L106.226 108.333ZM157.439 100.842C157.133 102.859 156.801 104.974 155.967 106.843C154.524 110.032 151.637 112.324 148.465 113.612C144.951 115.037 140.927 115.485 137.164 115.171C133.978 114.911 130.802 114.012 128.143 112.23C128.093 112.097 128.006 111.98 127.894 111.894C127.781 111.807 127.646 111.754 127.504 111.739C127.485 111.736 127.466 111.736 127.447 111.739C127.342 111.656 127.23 111.588 127.118 111.508C124.592 109.491 122.669 106.615 122.171 103.393C121.852 101.485 121.798 99.5425 122.009 97.6197C122.311 95.7456 122.937 93.9383 123.86 92.2794C125.664 88.855 128.19 85.972 131.798 84.4276C134.945 83.0673 138.445 82.674 141.851 82.8833C141.945 82.9341 142.048 82.9637 142.154 82.9699C145.639 83.3471 148.99 84.5186 151.951 86.3942C153.464 87.3259 154.781 88.5428 155.83 89.9772C156.773 91.4152 157.376 93.0489 157.594 94.7547C157.843 96.7743 157.791 98.8196 157.439 100.824V100.842Z" fill="#1A3869" style="fill:#1A3869;fill:color(display-p3 0.1020 0.2196 0.4118);fill-opacity:1;"/>
</svg>
