<svg width="41" height="37" viewBox="0 0 41 37" fill="none" xmlns="http://www.w3.org/2000/svg">
<path d="M37.4455 21.8594C36.6733 19.1568 35.8362 16.4469 34.5841 13.9391C33.5376 11.7495 32.0855 9.77822 30.3046 8.12965C29.4338 7.34601 28.4632 6.68112 27.4179 6.15228C26.4184 5.64711 25.3251 5.30433 24.4627 4.56101C23.6616 3.87182 23.2755 2.91199 22.8425 1.98465C22.3662 0.963484 21.8141 0.140786 20.6017 0.0289277C19.2294 -0.0414019 17.8534 0.0165763 16.4918 0.202121C15.1025 0.345276 13.722 0.564514 12.3567 0.858843C12.3147 0.864051 12.2723 0.864051 12.2304 0.858843C11.7273 0.870035 11.2328 0.991136 10.7815 1.21367C10.3302 1.4362 9.93307 1.75477 9.61792 2.14703C8.93595 3.0455 8.66172 4.18214 8.40914 5.26103C8.17522 6.45132 7.77816 7.60362 7.2292 8.68535C6.08896 10.7602 4.37861 12.4525 3.23837 14.5381C0.918201 18.7707 0.178506 23.6889 0.0305642 28.4591C-0.14579 34.1207 0.441631 39.7802 1.77699 45.2848C2.37237 47.7457 3.17342 50.0983 5.08584 51.852C6.80701 53.3424 8.89908 54.3398 11.1407 54.7387C13.7567 55.2583 16.4702 55.1284 19.1043 54.8722C21.9158 54.6243 24.7076 54.1891 27.4612 53.5696C30.1326 52.9878 32.7081 52.0304 35.1109 50.7262C37.2362 49.5138 38.9863 47.8395 39.6863 45.4364C40.408 42.9502 40.4513 40.1934 40.3647 37.6207C40.2526 34.9417 39.9244 32.2761 39.3832 29.6499C38.8564 27.023 38.1816 24.443 37.4455 21.8594ZM11.8623 5.44865C11.2561 5.73732 10.751 4.8208 11.3608 4.52853C14.4459 3.06354 17.8919 2.89395 21.2548 2.86508C21.926 2.86508 21.8863 3.90068 21.2188 3.9079C18.0398 3.93677 14.7923 4.06305 11.8623 5.44865ZM33.3031 30.552C32.9906 31.3332 32.4737 32.016 31.8066 32.5288C31.1395 33.0416 30.3467 33.3655 29.5114 33.4666C28.6761 33.5677 27.8289 33.4422 27.0587 33.1034C26.2885 32.7645 25.6237 32.2248 25.1338 31.5406C24.0513 30.0684 23.6472 28.1704 23.2936 26.4059C22.8937 24.3544 22.6178 22.2807 22.4673 20.196C22.2977 18.0526 22.2219 15.8948 22.1497 13.7479C22.1245 12.8782 22.0667 11.9437 22.4889 11.1607C22.6613 10.8153 22.9272 10.5253 23.2564 10.3237C23.5856 10.1221 23.9648 10.017 24.3508 10.0204C24.42 10.0212 24.4881 10.037 24.5505 10.067C24.6128 10.0969 24.6678 10.1401 24.7116 10.1936C28.7061 11.2473 30.3154 15.5592 31.4124 19.1207C32.033 21.1414 32.7078 23.1512 33.267 25.1863C33.7506 26.9147 34.0176 28.8416 33.3031 30.552Z" fill="white" style="fill:white;fill-opacity:1;"/>
</svg>
