<svg width="10" height="6" viewBox="0 0 10 6" fill="none" xmlns="http://www.w3.org/2000/svg">
<path d="M0.666145 0.791602C1.82803 -0.135743 3.81981 -0.128525 5.19098 0.207052C6.63432 0.567886 8.21119 1.37617 8.9509 2.69682C9.15119 3.00171 9.24969 3.36225 9.23218 3.72662C9.21468 4.09099 9.08207 4.44043 8.85346 4.72471C8.40871 5.18845 7.81966 5.48742 7.1828 5.57266C7.30187 4.21232 7.11423 2.68599 5.95595 1.85607C5.36725 1.43373 4.65086 1.2275 3.92771 1.2722C3.20456 1.31691 2.51897 1.6098 1.98677 2.10143C1.47169 2.64747 1.14539 3.34436 1.05583 4.08964C0.0202355 3.3391 -0.502959 1.72256 0.666145 0.791602Z" fill="#FFB53F" style="fill:#FFB53F;fill:color(display-p3 1.0000 0.7098 0.2471);fill-opacity:1;"/>
</svg>
