<svg width="39" height="34" viewBox="0 0 39 34" fill="none" xmlns="http://www.w3.org/2000/svg">
<path d="M37.8359 8.32769C37.4535 6.43691 37.0096 4.71935 35.8477 3.14972C34.6859 1.58009 33.4229 0.504804 31.5177 0.154794C29.23 -0.263774 26.9568 0.277483 24.6799 0.475942C22.3201 0.681618 19.9891 0.880075 17.6472 1.26256C12.859 2.03835 8.14286 3.21107 3.3618 4.01212C3.22462 4.02985 3.09746 4.09343 3.00096 4.19254C1.55763 4.95029 0.835956 6.40084 0.475121 7.93078C0.047065 9.65192 -0.0931533 11.432 0.0601578 13.199C0.200883 15.0897 0.53285 16.9697 0.803477 18.846C1.09936 20.8414 1.25091 22.8621 1.86073 24.7998C2.94323 28.2782 5.55206 30.768 8.91143 32.0959C12.6966 33.5897 16.9869 33.4129 20.9381 32.8536C24.9585 32.3057 28.8604 31.0949 32.4848 29.2705C34.0285 28.5251 35.4093 27.4815 36.5478 26.1998C37.7674 24.7565 38.2798 23.0642 38.4782 21.1987C38.9222 16.9007 38.7056 12.5601 37.8359 8.32769ZM36.6813 22.7972C36.2328 24.3002 35.3005 25.6131 34.0291 26.5318C31.2976 28.6535 27.6568 29.819 24.3479 30.6417C18.0983 32.1933 8.62998 33.1243 4.48038 26.9071C3.39788 25.2797 2.93962 23.3456 2.65456 21.4332C2.35507 19.4594 2.08444 17.464 1.8066 15.4939C1.53958 13.6103 1.29421 11.6221 1.61535 9.72053C1.88959 8.11842 2.26486 6.24929 3.83449 5.45185C7.65934 4.80234 11.4373 3.93272 15.2441 3.21105C17.1349 2.85022 19.0365 2.52909 20.9417 2.30538C22.8469 2.08166 24.6871 1.99506 26.549 1.76051C28.4109 1.52597 30.6301 1.15069 32.427 1.96978C33.7477 2.57238 34.924 4.13479 35.5086 5.44101C36.2555 7.1225 36.5009 9.17926 36.7643 10.9907C37.0481 12.9903 37.188 15.0078 37.1828 17.0274C37.1756 18.9254 37.1792 20.9605 36.6813 22.7972Z" fill="#1A3869" style="fill:#1A3869;fill:color(display-p3 0.1020 0.2196 0.4118);fill-opacity:1;"/>
</svg>
