<svg width="31" height="14" viewBox="0 0 31 14" fill="none" xmlns="http://www.w3.org/2000/svg">
<path d="M30.1338 8.50626C28.9539 5.58711 26.0131 2.99631 23.1878 1.6937C19.7346 0.145418 15.9033 -0.356394 12.1679 0.25036C12.0425 0.217972 11.9108 0.217972 11.7854 0.25036C8.88361 0.965986 6.25025 2.50445 4.20188 4.68085C2.15351 6.85724 0.777297 9.57894 0.238688 12.5187C-0.309708 15.4268 0.0926401 18.4342 1.38616 21.0958C2.74651 23.7696 5.05946 25.6675 7.79098 26.8511C13.4164 29.2867 20.4202 29.1207 25.3456 25.2237C27.6679 23.3487 29.3356 20.7853 30.1086 17.9024C30.9963 14.8569 31.3535 11.5228 30.1338 8.50626ZM27.5755 7.38046C27.804 7.67351 28.008 7.98487 28.1853 8.3114C28.1321 8.32152 28.0801 8.33724 28.0302 8.35831C25.3287 9.56109 22.5828 10.6556 19.7923 11.6419C19.7882 11.6229 19.7882 11.6032 19.7923 11.5841C19.5352 11.0419 19.179 10.5524 18.7423 10.1408C18.8272 10.0659 18.8948 9.97362 18.9407 9.87018C20.0232 7.62218 21.0661 5.36698 22.1342 3.11898C24.2717 4.06895 26.141 5.53294 27.5755 7.38046ZM18.1469 15.8456C17.4252 17.206 15.7041 17.2096 14.4556 16.6756C13.7354 16.3915 13.0916 15.9429 12.5757 15.3657C12.3687 15.0992 12.2197 14.7924 12.1383 14.4649C12.0569 14.1374 12.0449 13.7965 12.1029 13.4641C12.2098 12.803 12.5048 12.1866 12.9527 11.6888C13.4007 11.1909 13.9826 10.8327 14.6288 10.6568C14.7268 10.6599 14.8246 10.6452 14.9175 10.6135C16.083 10.2527 17.4108 10.9022 18.0531 11.8837C18.4047 12.4815 18.5978 13.1591 18.6143 13.8524C18.6307 14.5458 18.4698 15.2319 18.1469 15.8456ZM20.5645 2.51637L17.3928 9.22071C17.3928 9.22071 17.3928 9.24234 17.3928 9.24594C16.6227 8.91009 15.774 8.79638 14.9427 8.91762C14.8541 8.90513 14.7643 8.90513 14.6757 8.91762C14.5097 8.95009 14.3546 8.99699 14.1922 9.0439C13.5162 6.67682 12.8258 4.31335 12.121 1.95349C14.9356 1.4714 17.8245 1.6643 20.5501 2.51637H20.5645ZM10.5153 2.42259V2.44422C11.2369 4.87985 11.9586 7.31189 12.6514 9.75835C11.9482 10.2303 11.374 10.8703 10.9807 11.6203C8.41641 10.658 5.80997 9.81609 3.16144 9.09442C4.6975 6.03851 7.31274 3.66116 10.5009 2.42259H10.5153ZM1.7037 14.9832C1.72377 13.5062 1.98959 12.0429 2.49029 10.6532C5.18764 11.3762 7.84676 12.2348 10.4575 13.226C10.3637 13.8274 10.3957 14.4417 10.5513 15.0301L10.4395 15.0698C7.72542 16.2737 4.94349 17.3183 2.10783 18.1983C1.82669 17.1498 1.68593 16.0687 1.68925 14.9832H1.7037ZM10.0029 23.369C9.7307 24.0192 9.37792 24.6326 8.95286 25.1949C8.88897 25.271 8.83889 25.3577 8.8049 25.451C6.96531 24.7665 5.32999 23.6254 4.05269 22.135C3.4639 21.4129 2.97816 20.6126 2.60935 19.7571C2.64041 19.7623 2.67212 19.7623 2.70317 19.7571C5.54652 18.8775 8.33577 17.8317 11.0565 16.625C11.1437 16.5884 11.2232 16.5358 11.2911 16.4699C11.7066 16.9431 12.1936 17.3486 12.7344 17.6714C12.1462 18.8947 11.5617 20.1143 10.9699 21.3303C10.6632 22.0015 10.3385 22.6834 10.0029 23.369ZM10.8509 26.1475C10.7065 26.1078 10.5694 26.0608 10.4287 26.0175C10.808 25.4911 11.1332 24.9278 11.3993 24.3361C11.7602 23.6144 12.121 22.8603 12.4602 22.1314C13.064 20.8829 13.6653 19.6356 14.2643 18.3895C14.7756 18.5559 15.3075 18.6505 15.8448 18.6709C16.7733 21.2401 17.6213 23.8381 18.3887 26.465C18.3898 26.4818 18.3898 26.4987 18.3887 26.5155C15.8797 26.9497 13.3057 26.824 10.8509 26.1475ZM25.6775 22.6654C24.1271 24.3189 22.1565 25.52 19.9763 26.1403C19.977 26.0303 19.9611 25.9208 19.9294 25.8155C19.2078 23.3257 18.3995 20.8685 17.5299 18.4256C18.1437 18.2078 18.6906 17.8349 19.1175 17.3431C19.215 17.2275 19.3065 17.1071 19.3918 16.9823C21.9754 18.072 24.5409 19.2002 27.0884 20.3669C27.149 20.3938 27.2118 20.4156 27.2761 20.4318C26.8348 21.2378 26.2981 21.9878 25.6775 22.6654ZM29.0369 15.2142C28.8201 16.5033 28.4644 17.7651 27.9761 18.9777C27.9067 18.911 27.8261 18.8572 27.7379 18.8189C25.2096 17.6546 22.6586 16.5324 20.0846 15.4523C20.2619 14.7377 20.3084 13.9968 20.2217 13.2656C23.0867 12.2625 25.906 11.1428 28.6797 9.9063C28.7266 9.88465 28.7735 9.85575 28.8168 9.8305C29.3005 11.5847 29.3759 13.4264 29.0369 15.2142Z" fill="#1A3869" style="fill:#1A3869;fill:color(display-p3 0.1020 0.2196 0.4118);fill-opacity:1;"/>
</svg>
