<svg width="27" height="26" viewBox="0 0 27 26" fill="none" xmlns="http://www.w3.org/2000/svg">
<path d="M22.8596 12.1314C23.886 11.6592 24.729 10.8631 25.2591 9.86538C26.0061 8.29936 25.472 6.52406 24.1766 5.40908C22.4519 3.91162 18.9554 2.88324 16.711 4.05234C16.7048 3.21296 16.5034 2.38652 16.1228 1.63836C15.8171 1.09094 15.3572 0.645486 14.8004 0.357419C14.2435 0.0693519 13.6142 -0.0486117 12.9908 0.0182113C10.1041 0.292446 8.29991 3.24768 8.43342 5.97198C8.43342 5.97198 8.43342 5.97198 8.43342 5.99363C6.82596 6.34562 5.31487 7.04473 4.00595 8.04201C2.69703 9.03928 1.62191 10.3106 0.855889 11.767C0.0548353 13.3511 -0.374555 15.2996 0.430106 16.9702C1.15178 18.5074 2.82966 19.3698 4.39929 19.8136C5.42048 20.136 6.50928 20.1796 7.55298 19.9399C7.19215 21.2173 7.08029 22.5451 7.66845 23.8008C8.39012 25.356 10.0391 25.9406 11.6665 25.9009C14.5748 25.8179 17.9198 24.4575 18.9265 21.6394C19.5185 22.1021 20.2117 22.418 20.9493 22.5611C21.6868 22.7042 22.4479 22.6705 23.1699 22.4628C23.892 22.2551 24.5546 21.8793 25.1034 21.3661C25.6522 20.8529 26.0716 20.217 26.3272 19.5105C27.5938 16.3388 25.6921 13.3114 22.8596 12.1314ZM25.2086 18.8177C25.0265 19.4398 24.6761 19.9995 24.196 20.435C23.7159 20.8706 23.1248 21.165 22.4879 21.2858C21.8648 21.4 21.2222 21.3402 20.6308 21.1129C20.0394 20.8856 19.5221 20.4997 19.1358 19.9976C19.0618 19.8777 18.951 19.7849 18.82 19.7331C18.689 19.6814 18.5447 19.6733 18.4087 19.7103C18.2728 19.7472 18.1524 19.8271 18.0656 19.9381C17.9787 20.049 17.9301 20.1851 17.927 20.326C17.6744 23.2127 14.3583 24.4395 11.883 24.573C10.6056 24.6416 9.26334 24.3385 8.7726 23.0142C8.23496 21.5709 8.86642 19.9976 9.38242 18.6337C9.61335 18.0275 8.70765 17.5223 8.29991 18.0022C7.17772 19.2759 5.12456 18.7816 3.76422 18.1898C2.96338 17.8884 2.27098 17.3543 1.77601 16.6563C1.5412 16.2394 1.39244 15.7797 1.33851 15.3043C1.28459 14.8289 1.32661 14.3476 1.46209 13.8887C2.30644 10.4175 5.63695 7.86275 9.03962 7.20242C9.32399 6.8196 9.56597 6.40704 9.76129 5.97198C9.65665 3.97296 10.8438 1.62032 13.0088 1.32804C15.3867 1.00329 15.4986 3.7745 15.4228 5.43073C15.4011 5.95755 16.1842 6.33643 16.5378 5.889C17.9811 4.06318 21.2611 4.95803 22.8957 6.05136C23.9601 6.77303 24.6998 8.05038 24.1009 9.29887C23.4658 10.6015 21.9864 11.1752 20.7198 11.6696C20.5715 11.7151 20.4442 11.8119 20.3607 11.9427C20.2773 12.0735 20.2431 12.2298 20.2644 12.3835C20.2857 12.5372 20.361 12.6783 20.4768 12.7816C20.5927 12.8848 20.7415 12.9434 20.8966 12.9469C23.7761 13.1995 26.1468 15.8877 25.2086 18.8177Z" fill="#1A3869" style="fill:#1A3869;fill:color(display-p3 0.1020 0.2196 0.4118);fill-opacity:1;"/>
</svg>
