<svg width="21" height="21" viewBox="0 0 21 21" fill="none" xmlns="http://www.w3.org/2000/svg">
<path d="M17.9402 9.52805C18.7467 9.15715 19.4095 8.53234 19.8274 7.74914C20.0923 7.15457 20.1534 6.48921 20.0014 5.85632C19.8494 5.22343 19.4927 4.65842 18.9867 4.24903C17.6335 3.07271 14.8876 2.25361 13.1231 3.18457C13.1204 2.52555 12.9622 1.87648 12.6612 1.29018C12.4205 0.861089 12.0598 0.511638 11.6232 0.284719C11.1867 0.0577998 10.6934 -0.0366997 10.2039 0.0128372C7.93425 0.232946 6.51259 2.53868 6.62445 4.70369C5.36299 4.97913 4.17693 5.52678 3.14917 6.30835C2.12141 7.08992 1.27676 8.08654 0.674291 9.22855C0.0428303 10.477 -0.292769 12.0034 0.335084 13.3168C0.916027 14.5256 2.22226 15.2004 3.45631 15.5504C4.25812 15.8022 5.11252 15.8358 5.93163 15.6478C5.65379 16.6509 5.5708 17.6937 6.02184 18.6824C6.59918 19.902 7.88378 20.3603 9.16113 20.3278C11.4452 20.2629 14.0721 19.1984 14.8623 16.9829C15.3271 17.3465 15.8715 17.5949 16.4508 17.7075C17.0301 17.8201 17.6279 17.7939 18.1951 17.6308C18.7623 17.4678 19.2828 17.1727 19.714 16.7697C20.1451 16.3666 20.4745 15.8672 20.6753 15.3122C21.6604 12.8441 20.1666 10.4662 17.9402 9.52805ZM19.7841 14.7782C19.643 15.267 19.3689 15.7071 18.9924 16.0492C18.6158 16.3914 18.1516 16.6222 17.6515 16.7159C17.162 16.8068 16.6569 16.7606 16.192 16.5823C15.7271 16.404 15.3206 16.1005 15.0175 15.7055C14.9596 15.6112 14.8728 15.5382 14.77 15.4973C14.6672 15.4565 14.554 15.45 14.4472 15.4788C14.3404 15.5076 14.2458 15.5703 14.1775 15.6573C14.1093 15.7444 14.071 15.8511 14.0685 15.9617C13.87 18.2206 11.2648 19.2092 9.31988 19.2995C8.31676 19.3536 7.26311 19.1154 6.87702 18.0726C6.45484 16.9288 6.95282 15.7055 7.35696 14.6339C7.3852 14.5254 7.37704 14.4106 7.33379 14.3071C7.29054 14.2037 7.21458 14.1173 7.11752 14.0612C7.02045 14.0051 6.90763 13.9824 6.79641 13.9965C6.68519 14.0107 6.58171 14.0609 6.50178 14.1395C5.62134 15.139 4.00841 14.7493 2.94034 14.2875C2.31172 14.0493 1.76792 13.6298 1.3779 13.0823C1.1942 12.7562 1.07785 12.3965 1.0357 12.0246C0.993551 11.6528 1.0265 11.2762 1.13256 10.9173C1.79649 8.18934 4.40893 6.18311 7.0755 5.66711C7.13626 5.6584 7.19452 5.637 7.24644 5.60426C7.29837 5.57152 7.34277 5.52819 7.37682 5.47711C7.41087 5.42604 7.43379 5.36836 7.44404 5.30784C7.45429 5.24732 7.45166 5.1853 7.43633 5.12586C7.50896 5.08259 7.56782 5.01963 7.60613 4.94427C7.64445 4.86892 7.66065 4.78425 7.65282 4.70008C7.56983 3.12684 8.4972 1.27937 10.2003 1.05204C12.0659 0.79585 12.1561 2.97168 12.0947 4.27068C12.0947 4.68564 12.6937 4.99235 12.9715 4.63152C14.1045 3.18818 16.6809 3.90984 17.9655 4.76141C18.8026 5.31349 19.4088 6.33104 18.9108 7.30891C18.4129 8.28677 17.251 8.78112 16.2551 9.17083C16.1378 9.20601 16.037 9.28203 15.971 9.38511C15.9049 9.4882 15.8779 9.61152 15.8949 9.73278C15.9119 9.85403 15.9718 9.96518 16.0637 10.0461C16.1556 10.127 16.2734 10.1724 16.3958 10.1739C18.6619 10.3796 20.5238 12.4905 19.7841 14.789V14.7782Z" fill="white" style="fill:white;fill-opacity:1;"/>
</svg>
