<svg width="6" height="30" viewBox="0 0 6 30" fill="none" xmlns="http://www.w3.org/2000/svg">
<path d="M0 1.5214V1.57553C0 1.57553 0 1.6044 0 1.61883C0.122684 8.0056 0.440199 14.3996 0.837117 20.7791C1.01393 23.6658 1.19795 26.5525 1.37837 29.4392C2.89869 27.8732 4.39975 26.2999 5.88158 24.7195C5.60013 19.859 5.26816 14.9769 4.79908 10.1454C4.60423 8.21489 4.39497 6.28442 4.15321 4.372C4.09548 3.87766 4.07742 3.26423 4.00165 2.65081C3.95632 2.07135 3.8123 1.50388 3.57584 0.97292C3.46273 0.741516 3.3087 0.53249 3.12119 0.355907C2.57633 -0.142045 1.60571 -0.0807017 0.898475 0.312608C0.655282 0.416767 0.443997 0.583498 0.286175 0.795828C0.128353 1.00816 0.0296325 1.2585 0 1.5214Z" fill="#FFB53F" style="fill:#FFB53F;fill:color(display-p3 1.0000 0.7098 0.2471);fill-opacity:1;"/>
</svg>
