<svg width="25" height="32" viewBox="0 0 25 32" fill="none" xmlns="http://www.w3.org/2000/svg">
<path d="M0 28.3219C1.27391 27.7151 2.60305 27.2318 3.96918 26.8786C4.17125 26.8245 4.37691 26.7739 4.58258 26.727C6.5484 26.2698 8.56643 26.0769 10.5833 26.1533C10.7817 26.1533 10.9838 26.1533 11.1823 26.1786C12.702 26.2729 14.2089 26.5146 15.6819 26.9002C15.8731 26.9507 16.0716 27.0049 16.2628 27.0626C17.6158 27.4593 18.9289 27.9812 20.1851 28.6214C20.2428 27.943 20.3006 27.2683 20.3619 26.5863C20.3872 26.3518 20.4052 26.1208 20.4232 25.8646C20.4449 25.659 20.4666 25.4569 20.481 25.2512C20.5568 24.3852 20.6361 23.5228 20.7083 22.6604C20.713 22.5302 20.7571 22.4044 20.8346 22.2996C21.1954 21.7692 22.2779 21.9676 22.1877 22.7723V22.8481L21.9171 25.8646L21.8666 26.4744L21.4552 31.1148C22.2166 29.7941 22.9491 28.4735 23.6527 27.1456C23.7429 26.9724 23.8368 26.7848 23.9234 26.6188C24.01 26.4528 24.1615 26.1641 24.2842 25.9368C24.479 25.5507 24.6739 25.1791 24.8724 24.7894C24.8893 24.7474 24.9086 24.7065 24.9301 24.6667C24.9084 24.6125 24.8904 24.5548 24.8687 24.5007C24.8146 24.36 24.7677 24.2192 24.7172 24.0785C24.6125 23.8079 24.5187 23.5409 24.4213 23.2702C24.378 23.1475 24.3347 23.0249 24.2878 22.9094C24.1002 22.3862 23.9269 21.8774 23.7213 21.3578C23.5805 20.9789 23.4434 20.5928 23.3063 20.214C23.2161 19.9722 23.1295 19.7268 23.0393 19.4923C22.9455 19.2289 22.8445 18.9763 22.7543 18.7129L21.9532 16.5262C21.8161 16.1654 21.679 15.7613 21.5346 15.3824C21.3903 15.0035 21.264 14.6391 21.1233 14.2674L20.8743 13.571C20.4846 12.5101 20.0985 11.4493 19.716 10.3884C19.5753 10.0276 19.4382 9.62346 19.2938 9.24459C19.2541 9.13273 19.2181 9.01726 19.1712 8.90901C19.0882 8.67447 19.0051 8.44715 18.9258 8.21622C18.8464 7.98528 18.7742 7.80485 18.6984 7.59557C18.5577 7.20587 18.4134 6.81978 18.2691 6.42647C18.2691 6.38317 18.233 6.33626 18.2185 6.29296C17.9551 5.57129 17.6809 4.84962 17.4067 4.12795C17.3814 4.063 17.3562 4.00167 17.3345 3.93311C17.2479 3.71661 17.1649 3.49648 17.0783 3.28359L16.9737 3.00576C16.75 2.42842 16.5262 1.85107 16.2953 1.27374C16.2448 1.14023 16.1979 1.00672 16.1401 0.869602L15.9417 0.360835L15.7901 0C14.2913 0.828163 12.856 1.7665 11.4962 2.80728C11.4602 2.82931 11.4264 2.85469 11.3951 2.88307C11.175 3.05988 10.9621 3.2439 10.7601 3.42432C10.6554 3.51814 10.5616 3.60835 10.4642 3.70217C10.1549 4.00217 9.86105 4.3177 9.58379 4.64755C9.18246 5.10318 8.81234 5.58539 8.476 6.09089C8.31002 6.32904 8.15488 6.57441 8.00333 6.81256C7.85178 7.05071 7.76157 7.20947 7.6425 7.40793C7.37187 7.87701 7.11928 8.35331 6.87031 8.85127C6.58164 9.41417 6.30016 9.98069 6.02592 10.558C5.94654 10.724 5.86719 10.8972 5.79503 11.0632C5.72286 11.2292 5.611 11.4493 5.5244 11.6405C5.5244 11.6838 5.48469 11.7379 5.46304 11.7849C5.10221 12.5426 4.79189 13.3184 4.47075 14.0906C4.39858 14.2818 4.31559 14.4731 4.24342 14.6679C4.04496 15.1623 3.85373 15.653 3.66609 16.151C3.56145 16.4216 3.464 16.6958 3.37018 16.97C3.22224 17.3742 3.07793 17.7747 2.94081 18.1789C2.88669 18.3376 2.83254 18.4928 2.78563 18.6516C2.73873 18.8103 2.64854 19.0413 2.5872 19.2397C2.1542 20.5459 1.75007 21.8558 1.3748 23.1836L1.35313 23.2738C1.30261 23.4543 1.25208 23.6347 1.20156 23.8223C1.1294 24.0713 1.06447 24.3239 0.995907 24.5728C0.627856 25.7852 0.295884 27.0349 0 28.3219Z" fill="white" style="fill:white;fill-opacity:1;"/>
</svg>
