<svg width="19" height="40" viewBox="0 0 19 40" fill="none" xmlns="http://www.w3.org/2000/svg">
<path d="M0.0449765 2.4976C0.0449765 2.51925 0.0449765 2.54451 0.0449765 2.56977C0.160444 3.03525 0.304786 3.50073 0.459945 3.95178C0.77748 4.85747 1.15272 5.75594 1.51355 6.62916C2.14141 8.17714 2.68269 9.76121 3.25641 11.32C5.42142 17.2569 7.58643 23.1927 9.75144 29.1272C9.7767 29.1994 9.79834 29.2716 9.83081 29.3473C9.94989 29.6613 10.0617 29.9788 10.1916 30.2927C10.7726 31.8623 11.3427 33.4284 11.9164 34.9836C12.3819 36.2826 12.768 37.7403 13.5618 38.8842C14.2835 39.8981 15.4021 40.3059 16.5387 39.7069C17.6753 39.1079 18.1589 37.4048 17.9821 36.1671C17.7619 34.6155 17.015 33.035 16.4593 31.5664C15.8856 30.0365 15.2758 28.5138 14.6552 26.9947C13.4319 24.007 12.1979 21.0193 11.0468 17.9991C8.95037 12.5613 6.90084 7.13794 4.37499 1.89501L3.9095 0.935202C3.80507 0.823037 3.69426 0.717013 3.57756 0.617666C2.87754 0.029505 1.99709 -0.233904 1.12026 0.256831C0.718242 0.458591 0.39458 0.788055 0.199979 1.19358C0.00537729 1.59911 -0.0491506 2.05776 0.0449765 2.4976ZM13.4969 34.3268C13.4969 34.2872 13.5294 34.2438 13.5438 34.2114C13.5811 34.1146 13.6295 34.0226 13.6881 33.9371C13.8098 33.7712 13.9646 33.6324 14.1428 33.5294C14.1781 33.5066 14.2156 33.4873 14.2547 33.4717C14.3301 33.4421 14.4073 33.4168 14.4856 33.3959C14.5974 33.341 14.7224 33.3185 14.8464 33.3309C14.9539 33.3351 15.0605 33.3521 15.164 33.3815L15.3155 33.432C15.5157 33.5216 15.6951 33.6519 15.8423 33.8145C16.0903 34.0996 16.2194 34.4689 16.2032 34.8464C16.1966 34.9539 16.1784 35.0604 16.149 35.164C16.1167 35.2694 16.0706 35.3701 16.0119 35.4635C15.9395 35.5906 15.844 35.7032 15.7305 35.7954C15.6547 35.8532 15.5681 35.9073 15.4815 35.9614L15.3624 36.0155C15.2681 36.056 15.1703 36.0874 15.0701 36.1094C14.9641 36.1278 14.8566 36.1374 14.749 36.1382C14.5972 36.1386 14.4466 36.1104 14.3052 36.0552C14.112 35.9876 13.9376 35.8751 13.7964 35.7269C13.6899 35.6262 13.6072 35.5029 13.5546 35.366C13.4713 35.1735 13.4284 34.966 13.4283 34.7562C13.432 34.6107 13.455 34.4663 13.4969 34.3268Z" fill="#FFB53F" style="fill:#FFB53F;fill:color(display-p3 1.0000 0.7098 0.2471);fill-opacity:1;"/>
</svg>
