<svg width="26" height="44" viewBox="0 0 26 44" fill="none" xmlns="http://www.w3.org/2000/svg">
<path d="M23.1422 29.0147C21.7157 29.7677 20.3168 30.5615 18.9457 31.3962C13.152 34.9071 7.80098 39.1012 3.00758 43.8883C2.52046 41.2831 1.59672 38.7572 0.889484 36.2061C0.452626 34.74 0.163719 33.2338 0.0270893 31.7101C-0.0641729 30.0045 0.0754071 28.2943 0.442047 26.626C1.12042 23.2847 2.50963 20.131 4.11895 17.1469C5.47766 14.5846 7.21474 12.2417 9.27167 10.1972C13.5295 6.01149 18.7905 2.91913 24.2138 0.497932C24.5747 0.324731 24.9716 0.158767 25.3505 0C23.004 3.68773 21.5623 7.87785 21.1431 12.2287C20.6452 17.7747 21.504 23.3099 22.9473 28.6575C22.9818 28.7908 23.0487 28.9136 23.1422 29.0147Z" fill="#3F89FF" style="fill:#3F89FF;fill:color(display-p3 0.2471 0.5373 1.0000);fill-opacity:1;"/>
</svg>
