<svg width="14" height="14" viewBox="0 0 14 14" fill="none" xmlns="http://www.w3.org/2000/svg">
<path d="M13.505 9.90171C13.402 10.2533 13.204 10.5698 12.9328 10.8161C12.6616 11.0625 12.3277 11.2293 11.9678 11.2982C11.6157 11.3631 11.2525 11.3302 10.9178 11.203C10.5831 11.0757 10.2898 10.859 10.0698 10.5765C10.0336 10.4997 9.97146 10.4382 9.89435 10.4027C9.81725 10.3672 9.73011 10.36 9.64824 10.3824C9.56637 10.4048 9.49503 10.4554 9.44675 10.5252C9.39846 10.595 9.37633 10.6796 9.38424 10.7641C9.24352 12.3915 7.36717 13.0915 5.96713 13.1673C5.24546 13.207 4.48409 13.0338 4.20625 12.2832C3.90315 11.4605 4.26038 10.5765 4.56709 9.80791C4.60028 9.72739 4.60322 9.63758 4.57539 9.55506C4.54755 9.47254 4.49081 9.40288 4.41563 9.35891C4.34045 9.31495 4.25191 9.29966 4.16635 9.31586C4.08078 9.33206 4.00397 9.37867 3.95007 9.44707C3.315 10.1687 2.14588 9.88729 1.38452 9.55171C0.931334 9.38169 0.539295 9.08011 0.258719 8.6857C0.126803 8.44946 0.043225 8.18933 0.0128692 7.92046C-0.0174865 7.6516 0.00599052 7.37939 0.0819132 7.11969C0.561823 5.15674 2.44538 3.7098 4.36502 3.33814C4.40873 3.33203 4.45065 3.31664 4.48796 3.29304C4.52526 3.26944 4.55709 3.23815 4.58134 3.20127C4.60558 3.16438 4.62168 3.12277 4.62855 3.07917C4.63543 3.03557 4.63294 2.99099 4.62122 2.94844C4.67476 2.91866 4.71813 2.87352 4.74579 2.81885C4.77344 2.76418 4.7841 2.70249 4.77638 2.64171C4.71864 1.5123 5.38618 0.180833 6.61301 0.0148485C7.95532 -0.169177 8.02028 1.40045 7.97698 2.33501C7.97698 2.63451 8.40998 2.84739 8.60844 2.5948C9.42393 1.56282 11.2822 2.06799 12.2168 2.68501C12.8194 3.08554 13.2416 3.81804 12.8988 4.52167C12.556 5.2253 11.7008 5.58254 10.9864 5.86399C10.939 5.87039 10.8933 5.88604 10.852 5.91008C10.8106 5.93413 10.7744 5.96607 10.7455 6.0041C10.7165 6.04213 10.6953 6.0855 10.683 6.13173C10.6708 6.17796 10.6678 6.22613 10.6742 6.27352C10.6806 6.3209 10.6963 6.36657 10.7203 6.40791C10.7444 6.44924 10.7763 6.48543 10.8143 6.51441C10.8524 6.54339 10.8957 6.5646 10.942 6.57683C10.9882 6.58905 11.0364 6.59205 11.0838 6.58566C12.6967 6.72277 14.0426 8.24548 13.505 9.90171Z" fill="white" style="fill:white;fill-opacity:1;"/>
</svg>
