<svg width="22" height="21" viewBox="0 0 22 21" fill="none" xmlns="http://www.w3.org/2000/svg">
<path d="M18.2486 9.68489C19.0675 9.30932 19.7406 8.67553 20.1646 7.88071C20.436 7.2764 20.4997 6.59923 20.3456 5.95492C20.1916 5.31062 19.8285 4.73545 19.3131 4.31927C17.9347 3.12491 15.1418 2.29138 13.3521 3.23677C13.3458 2.56656 13.184 1.90697 12.8794 1.30993C12.6357 0.872403 12.2687 0.51627 11.824 0.285916C11.3794 0.0555622 10.8767 -0.0388321 10.3788 0.014519C8.07307 0.234628 6.62972 2.59448 6.74158 4.77032C6.74193 4.77633 6.74193 4.78237 6.74158 4.78838C5.45891 5.06867 4.2529 5.62557 3.20774 6.42019C2.16257 7.21482 1.30347 8.22801 0.690397 9.38902C0.0481109 10.6556 -0.294682 12.2107 0.329562 13.5422C0.917723 14.7727 2.24559 15.4619 3.50129 15.8155C4.31926 16.0732 5.19119 16.1081 6.02713 15.9165C5.74207 16.9377 5.64826 17.9949 6.11734 18.998C6.7055 20.2429 8.01172 20.7084 9.31072 20.6759C11.6309 20.6074 14.3047 19.5249 15.1093 17.2733C15.582 17.6471 16.1367 17.9032 16.7279 18.0204C17.319 18.1376 17.9295 18.1125 18.5091 17.9472C19.0886 17.7819 19.6204 17.4811 20.0608 17.0696C20.5011 16.6582 20.8372 16.1479 21.0415 15.5809C22.0374 13.0551 20.5183 10.6267 18.2486 9.68489ZM20.125 15.0253C19.9802 15.521 19.7015 15.9673 19.3195 16.3148C18.9376 16.6624 18.4671 16.8979 17.9599 16.9954C17.4622 17.087 16.9489 17.0394 16.4765 16.858C16.0041 16.6765 15.591 16.3682 15.2826 15.967C15.2232 15.8718 15.1348 15.7981 15.0304 15.7569C14.926 15.7158 14.8111 15.7092 14.7027 15.7384C14.5943 15.7675 14.4982 15.8307 14.4284 15.9186C14.3587 16.0066 14.3191 16.1146 14.3155 16.2268C14.117 18.5253 11.4649 19.514 9.49114 19.6223C8.46998 19.6764 7.39831 19.4346 7.005 18.3738C6.57922 17.2119 7.08077 15.967 7.49573 14.8773C7.52173 14.7671 7.51154 14.6516 7.46671 14.5476C7.42187 14.4437 7.34477 14.357 7.2468 14.3003C7.14883 14.2436 7.03521 14.22 6.92277 14.2329C6.81033 14.2459 6.70506 14.2947 6.62252 14.3721C5.72765 15.3897 4.09668 14.9928 3.01417 14.5237C2.3754 14.2805 1.82294 13.8536 1.42649 13.2968C1.23924 12.9642 1.12071 12.5973 1.07795 12.218C1.03518 11.8386 1.06904 11.4545 1.17751 11.0885C1.85228 8.31733 4.51163 6.27501 7.2215 5.7518C7.44249 5.43982 7.63109 5.10613 7.7844 4.75589C7.70141 3.161 8.64318 1.28104 10.3752 1.0465C12.2732 0.7867 12.3634 3.00223 12.3021 4.32289C12.3021 4.74146 12.9082 5.04456 13.1933 4.68372C14.3444 3.24038 16.964 3.94401 18.2703 4.81362C19.1182 5.37652 19.7136 6.41212 19.2337 7.40802C18.7538 8.40392 17.545 8.90189 16.531 9.29881C16.4137 9.33637 16.3135 9.41409 16.2479 9.5183C16.1822 9.62251 16.1555 9.74652 16.1723 9.86852C16.1891 9.99052 16.2484 10.1027 16.3398 10.1853C16.4311 10.2678 16.5487 10.3155 16.6718 10.32C18.9883 10.5292 20.8827 12.6943 20.1322 15.0253H20.125Z" fill="#1A3869" style="fill:#1A3869;fill:color(display-p3 0.1020 0.2196 0.4118);fill-opacity:1;"/>
</svg>
