<svg width="28" height="25" viewBox="0 0 28 25" fill="none" xmlns="http://www.w3.org/2000/svg">
<path d="M0 0C0.54486 2.7676 1.13302 5.5316 1.78252 8.27755C1.87634 8.68529 1.96655 9.0822 2.07119 9.48634C2.1217 9.71366 2.17583 9.93738 2.23357 10.1611C2.35986 10.6951 2.49697 11.2436 2.63409 11.756C2.63409 11.7777 2.63409 11.7957 2.63409 11.8173C2.73873 12.2251 2.84699 12.6364 2.95524 13.0478C3.88619 16.5551 4.93622 20.0191 6.15945 23.4326L6.50223 24.3924C7.60889 24.3527 8.70612 24.1732 9.7678 23.8584C11.9328 23.2522 13.737 21.9279 15.2561 20.3258C16.7368 18.7024 18.1154 16.9888 19.384 15.1947C19.7304 14.7136 20.0696 14.2457 20.4016 13.7911C20.683 13.3942 20.9573 13.0009 21.2315 12.6004C21.7944 11.7957 22.3393 10.9838 22.8805 10.1611L23.3027 9.51521C23.4254 9.32397 23.5517 9.12912 23.6635 8.93427C24.7894 7.16257 25.8574 5.36201 26.8822 3.52175C26.9724 3.35216 27.0698 3.18978 27.1528 3.0238C26.1425 2.3346 25.5796 1.28457 25.2007 0.137119C21.0367 0.497954 16.8221 0.638667 12.6473 0.710834C8.51832 0.798284 4.38882 0.565452 0.295887 0.0144255C0.198462 0.0144255 0.104642 0.0072167 0 0Z" fill="white" style="fill:white;fill-opacity:1;"/>
</svg>
