<svg width="68" height="82" viewBox="0 0 68 82" fill="none" xmlns="http://www.w3.org/2000/svg">
<path d="M1.16477 5.0553C0.777426 5.53343 0.491516 6.08542 0.324442 6.67765C0.157367 7.26987 0.112608 7.88992 0.192961 8.49999C0.273313 9.11006 0.477062 9.69736 0.791783 10.2261C1.1065 10.7549 1.52562 11.214 2.02356 11.5756C1.68498 12.3375 1.62247 13.1937 1.84676 13.9968C2.20759 15.2344 3.29007 15.8009 3.89627 16.8834C5.06177 18.9258 7.24846 19.5608 9.4279 19.8748C9.92877 20.5994 10.5587 21.2256 11.2862 21.7222C12.9027 22.83 14.7971 23.3893 16.641 23.9811L22.6922 25.9476C24.3568 26.4961 26.0203 27.0373 27.6825 27.5714C26.8526 31.7571 26.019 35.9415 25.1819 40.1248C21.7937 57.1201 18.4163 74.1227 15.3095 91.1757C13.7651 99.6938 12.2929 108.223 10.8929 116.763C10.3949 119.83 9.9138 122.904 9.44953 125.985V126.014C9.4341 126.081 9.42446 126.148 9.42068 126.216C9.23665 127.407 9.05983 128.605 8.8722 129.803C8.54264 131.997 8.22027 134.193 7.90514 136.392C7.73916 137.554 7.48297 138.752 7.54431 139.925C7.60135 140.499 7.84313 141.041 8.23343 141.467C8.62372 141.893 9.14152 142.181 9.70932 142.288C9.70932 142.288 9.70934 142.288 9.73099 142.288C13.1373 143.511 14.5373 139.077 15.176 136.663C16.2873 132.459 16.5904 128.104 17.1642 123.81C18.3369 114.998 19.69 106.212 21.0901 97.4362C23.8901 79.8419 27.0462 62.3077 30.5584 44.8337C31.4364 40.4676 32.3349 36.1123 33.2538 31.7679C33.4162 31.0065 33.5894 30.2379 33.7626 29.473L35.307 29.9529C38.9947 31.0787 42.6932 32.1648 46.4495 33.0308C47.947 33.3916 49.4553 33.6875 50.978 33.9149C52.3708 34.1205 53.9946 34.4056 55.3585 33.9401C55.8398 33.7538 56.2782 33.4715 56.6467 33.1102C59.5045 34.3587 63.2608 34.6113 66.0068 32.955C66.3223 32.7955 66.5917 32.558 66.7894 32.2649C66.9871 31.9718 67.1065 31.633 67.1362 31.2808C67.1362 30.4833 66.5552 30.0142 66.0537 29.4766C65.2274 28.5745 65.949 27.2105 66.18 26.2002C66.4903 24.8579 66.3676 23.6311 65.2129 22.7362C64.6067 22.2635 64.0366 22.0145 63.8923 21.2027C63.784 20.5459 63.8273 19.8748 63.5711 19.2469C63.4566 18.9669 63.2833 18.7148 63.0629 18.5075C62.8425 18.3002 62.5803 18.1426 62.2938 18.0453C61.933 17.9191 61.5396 17.9263 61.1788 17.8036C60.6303 17.6232 60.5077 17.201 60.2226 16.7463C59.384 15.4208 58.1691 14.3755 56.7333 13.7442C55.9952 13.4188 55.2092 13.2153 54.4059 13.1416C53.4461 13.0406 52.3888 13.2498 51.5192 12.705C50.8769 12.2936 50.4367 11.6225 49.8197 11.1534C49.1031 10.6122 48.2594 10.2643 47.3696 10.1431C45.6845 9.86882 43.8876 10.2044 42.253 9.64149C40.6184 9.07859 39.388 7.68577 37.5982 7.47649C36.7719 7.38628 35.8229 7.79042 35.0219 7.55227C34.5889 7.42237 34.3543 7.04709 34.0657 6.73317C33.7678 6.39805 33.4419 6.08902 33.0914 5.80943C31.7711 4.76625 30.1478 4.17997 28.4655 4.13876C27.7091 4.13559 26.9556 4.23265 26.2247 4.42743C25.8249 4.56489 25.3978 4.60328 24.9799 4.53929C24.4422 4.39856 24.002 3.96195 23.5618 3.64081C22.0325 2.51996 20.2592 1.77796 18.3874 1.4758C16.1683 1.11497 13.9166 1.51189 11.6939 1.11497C9.58663 0.754132 7.5263 0.0324751 5.3649 0C3.73392 0 1.63747 0.324748 0.490015 1.62014C-0.527539 2.82894 0.208562 4.13878 1.16477 5.0553ZM29.4326 21.4985C28.9175 22.0446 28.5912 22.7414 28.5016 23.4867C27.4516 22.7362 26.932 21.1196 28.1011 20.1887C29.2702 19.2577 31.2548 19.2686 32.6259 19.6041C34.0693 19.965 35.6461 20.7732 36.3858 22.0939C36.5861 22.3988 36.6846 22.7593 36.6671 23.1237C36.6496 23.4881 36.517 23.8375 36.2884 24.1218C35.8437 24.5855 35.2546 24.8845 34.6177 24.9697C34.7368 23.6094 34.5492 22.0831 33.3909 21.2532C32.8031 20.8336 32.089 20.629 31.3682 20.6737C30.6475 20.7184 29.964 21.0096 29.4326 21.4985ZM29.0393 27.9935C29.1403 27.5136 29.2305 27.0337 29.3315 26.5502C29.5336 25.5723 29.7321 24.6017 29.9522 23.6311C30.1146 22.9094 30.396 22.3248 31.1826 22.148C31.51 22.0678 31.8545 22.0946 32.1656 22.2244C32.4766 22.3543 32.7379 22.5805 32.911 22.8697C33.611 24.1868 33.0301 26.1172 32.6512 27.6039C32.5959 27.8155 32.549 28.014 32.5105 28.1992C32.4528 28.4771 32.3914 28.7585 32.3337 29.0364C32.2759 29.3142 32.2146 29.6029 32.1533 29.8843C31.678 29.5393 31.1384 29.2931 30.5663 29.1605C29.9942 29.0279 29.4013 29.0114 28.8228 29.1121C28.8985 28.7549 28.9707 28.3797 29.0393 28.008V27.9935ZM15.2301 127.537C15.2301 127.577 15.2301 127.62 15.2301 127.66C14.9847 129.745 14.7321 131.831 14.3208 133.888C13.96 135.652 13.5991 137.565 12.7981 139.196C12.3001 140.235 11.4594 141.361 10.1856 140.888C10.1314 140.868 10.0739 140.858 10.0161 140.859H9.99439H9.95832C8.699 140.661 9.01291 139.178 9.12477 138.257C9.3124 136.699 9.56502 135.14 9.78873 133.567C10.1279 131.264 10.4743 128.966 10.8279 126.671C10.9218 126.628 11.0155 126.584 11.113 126.548L11.1707 126.527L11.3259 126.487C11.4327 126.458 11.5411 126.435 11.6506 126.418C11.7156 126.418 11.7877 126.393 11.8491 126.382C11.9104 126.372 11.9321 126.382 11.9645 126.382C12.0018 126.379 12.0392 126.379 12.0764 126.382H12.2821C12.5329 126.387 12.7835 126.403 13.0326 126.433C13.0788 126.444 13.1259 126.451 13.1734 126.455H13.2527L13.6136 126.545C13.8444 126.614 14.071 126.697 14.2919 126.794C14.2919 126.794 14.2919 126.794 14.3208 126.794C14.3497 126.794 14.4363 126.855 14.4904 126.895C14.5445 126.934 14.6708 127.007 14.7574 127.064L14.8801 127.158C14.9676 127.242 15.0507 127.329 15.1291 127.422C15.1868 127.505 15.1868 127.523 15.2301 127.551V127.537ZM20.7725 90.2195C19.4014 98.5235 18.1108 106.836 16.9008 115.157C16.3884 118.693 15.8868 122.233 15.4574 125.776C15.0816 125.534 14.6751 125.344 14.2486 125.21C13.87 125.089 13.4811 125.003 13.0868 124.953C12.4165 124.863 11.7352 124.896 11.0769 125.051C11.2826 123.719 11.4882 122.381 11.7047 121.046C12.9941 112.915 14.3653 104.798 15.8183 96.6965C18.7049 80.4589 21.8803 64.2827 25.0917 48.1137C25.8879 44.094 26.6902 40.0755 27.4985 36.0582C27.8593 34.2793 28.1877 32.4968 28.5269 30.707L28.5774 30.6854C28.605 30.6715 28.634 30.6606 28.664 30.6529C28.6856 30.6529 28.7109 30.6312 28.7181 30.6529L28.8625 30.606L29.1078 30.5555L29.2558 30.5302H29.299C29.3315 30.5302 29.3893 30.5302 29.4001 30.5302C29.4421 30.5265 29.4844 30.5265 29.5264 30.5302H29.8006C29.8908 30.5302 29.9846 30.5302 30.0712 30.5627H30.1218C30.151 30.574 30.1812 30.5824 30.212 30.5879C30.3816 30.6288 30.548 30.6818 30.7099 30.7467C30.7532 30.7467 30.7965 30.7792 30.8398 30.8008L31.0816 30.9344L31.3089 31.0859C31.3398 31.1131 31.3723 31.1384 31.4063 31.1617C31.4063 31.1617 31.4316 31.1833 31.4496 31.2014C31.4677 31.2194 31.5074 31.2555 31.5182 31.2591C31.529 31.2627 31.5723 31.3205 31.6012 31.3457C31.6734 31.4183 31.741 31.4954 31.8033 31.5767C31.1754 34.5259 30.5608 37.4727 29.9594 40.4171C26.5819 56.965 23.5197 73.5706 20.7725 90.2339V90.2195ZM55.7302 31.9591L55.6508 32.0313C55.3557 32.3338 54.98 32.5454 54.5683 32.6411C53.8562 32.7421 53.1334 32.7421 52.4213 32.6411C51.1802 32.5087 49.9468 32.3112 48.7264 32.0493C45.4572 31.3818 42.2314 30.4905 39.0452 29.556C37.3854 29.0749 35.7303 28.5757 34.0801 28.0585C34.192 27.5353 34.3002 27.0085 34.4013 26.4853C35.9276 26.2976 37.5297 25.5146 38.0096 24.0099C38.073 23.8029 38.1165 23.5902 38.1395 23.3749C38.3091 21.5959 36.9019 20.1274 35.5054 19.2397C33.999 18.2915 32.2292 17.849 30.4537 17.9768C28.7362 18.1031 26.8454 18.6984 26.1814 20.4629C25.4922 22.3176 26.5639 24.1435 28.1985 24.9914C28.1191 25.3739 28.0505 25.7492 27.9748 26.1316C24.1283 24.8904 20.2854 23.6058 16.4281 22.379C14.4182 21.7331 12.3939 21.0511 10.9903 19.4923C10.8195 19.312 10.6627 19.119 10.5212 18.915C10.431 18.7887 10.348 18.6624 10.2686 18.5252C9.2619 16.8907 9.05622 14.9999 8.9155 13.0911C8.79295 12.0383 8.84663 10.9725 9.07429 9.93738C9.16811 9.6018 9.2222 9.44304 9.53973 9.35283C9.88313 9.28366 10.2359 9.27389 10.5826 9.32396C12.2735 9.49397 13.9416 9.84355 15.5585 10.3668C17.7235 10.9982 19.8596 11.6874 22.0138 12.3441L36.0033 16.5984C40.5282 17.9696 45.0928 19.2361 49.5527 20.8021C51.4038 21.4516 53.3306 22.0831 54.424 23.8295C55.4415 25.4533 55.7735 27.5822 55.8673 29.4766C55.9214 29.9962 56.1921 31.5803 55.7302 31.9736V31.9591ZM3.27926 1.75726C4.75147 1.33509 6.32111 1.49384 7.79692 1.78973C9.55418 2.15056 11.2898 2.67379 13.0832 2.80008C14.8765 2.92637 16.6157 2.66296 18.3586 2.97327C20.0489 3.29615 21.6396 4.0118 23.0025 5.0625C23.6484 5.54602 24.2979 5.99708 25.1242 6.06924C25.9505 6.14141 26.6866 5.80944 27.4769 5.70841C28.9754 5.50842 30.496 5.85146 31.7635 6.67544C33.0301 7.50175 33.676 9.04251 35.343 9.10385C36.09 9.1255 36.8261 8.88735 37.5658 8.992C38.3957 9.10385 39.121 9.60181 39.8138 10.0348C41.0639 10.8687 42.5081 11.3658 44.0067 11.4782C45.5294 11.572 47.3119 11.3194 48.6651 12.1673C49.2713 12.5282 49.7079 13.1235 50.2383 13.5854C50.8043 14.1004 51.5098 14.4368 52.2662 14.5524C53.0312 14.6679 53.8106 14.5777 54.5792 14.6824C55.3661 14.799 56.1232 15.066 56.8091 15.469C57.4254 15.8274 57.9779 16.2859 58.4437 16.8257C58.9236 17.3814 59.1653 18.0959 59.6633 18.6299C60.1613 19.1639 60.7458 19.2541 61.3845 19.384C62.1711 19.5464 62.2938 19.8603 62.3768 20.6145C62.395 21.1682 62.4885 21.7169 62.6546 22.2454C62.9378 22.8486 63.3969 23.3518 63.9716 23.6888C64.5995 24.1182 64.9531 24.4574 64.8918 25.2404C64.8053 25.836 64.6664 26.4228 64.4768 26.994C64.1521 28.2353 64.0366 29.4874 64.9748 30.4977C65.1516 30.6854 65.5918 30.9596 65.6351 31.2194C65.7073 31.6452 65.0145 31.8833 64.7042 32.0096C63.5296 32.4793 62.2731 32.7095 61.0084 32.6866C59.7436 32.6636 58.4962 32.3881 57.3395 31.8761C57.3985 31.4737 57.4203 31.0666 57.4045 30.6601C57.4041 29.6185 57.322 28.5785 57.1591 27.5497C56.8379 25.5399 56.2823 23.3929 54.8029 21.9063C53.3234 20.4196 51.0466 19.7701 49.08 19.099C46.6444 18.2691 44.1726 17.5221 41.6973 16.7896C36.6456 15.2813 31.594 13.7334 26.5423 12.1962C23.9803 11.424 21.4208 10.647 18.8637 9.86521C16.8126 9.18554 14.7264 8.61702 12.6141 8.16208C11.3872 7.92032 9.34487 7.41155 8.30928 8.39302C7.62008 9.03531 7.53349 10.1972 7.46494 11.0704C7.40834 12.2382 7.4603 13.4087 7.62011 14.5669C7.74191 15.8432 8.05196 17.0944 8.54022 18.2799C7.19791 18.002 5.91335 17.4752 5.21333 16.2448C5.00044 15.8184 4.731 15.4228 4.41229 15.0685C4.07729 14.7978 3.77133 14.4931 3.49936 14.1592C3.27443 13.7929 3.16732 13.3663 3.19249 12.9372C3.21765 12.5081 3.37388 12.0971 3.6401 11.7596C3.69473 11.6794 3.7326 11.589 3.75149 11.4938C3.77038 11.3986 3.76987 11.3005 3.74999 11.2055C3.73012 11.1105 3.69129 11.0205 3.63582 10.9409C3.58036 10.8613 3.50942 10.7936 3.42722 10.742C2.95263 10.527 2.54058 10.1947 2.22984 9.77648C1.91909 9.35825 1.71986 8.86783 1.65092 8.35137C1.58199 7.83492 1.64561 7.30939 1.83579 6.8243C2.02597 6.33921 2.33644 5.91049 2.73801 5.57849C2.82022 5.50231 2.88415 5.40852 2.92499 5.30414C2.96583 5.19976 2.98256 5.0875 2.97388 4.97575C2.96521 4.864 2.93137 4.75566 2.87491 4.65883C2.81844 4.562 2.74079 4.4792 2.6478 4.41661C2.24366 4.12073 1.49675 3.59029 1.48592 3.02739C1.4751 2.31654 2.73801 1.90521 3.27926 1.75726Z" fill="#1A3869" style="fill:#1A3869;fill:color(display-p3 0.1020 0.2196 0.4118);fill-opacity:1;"/>
</svg>
