<svg width="5" height="3" viewBox="0 0 5 3" fill="none" xmlns="http://www.w3.org/2000/svg">
<path d="M4.89653 1.87465L4.86766 1.97208C4.82165 2.00334 4.78033 2.04098 4.74496 2.08392C3.17894 1.70143 1.56963 1.44886 0 1.18905C0.190349 0.77897 0.491547 0.4303 0.869602 0.182355C1.14375 0.0621132 1.43987 0 1.73923 0C2.03858 0 2.33468 0.0621132 2.60883 0.182355C3.26679 0.387112 3.88797 0.695236 4.44908 1.09523C4.56896 1.17919 4.67489 1.28151 4.763 1.39837C4.78104 1.39837 4.82435 1.50299 4.83517 1.51743L4.88208 1.63287C4.88208 1.65813 4.88208 1.73395 4.90373 1.76281C4.92538 1.79168 4.90014 1.83135 4.89653 1.87465Z" fill="#FFB53F" style="fill:#FFB53F;fill:color(display-p3 1.0000 0.7098 0.2471);fill-opacity:1;"/>
</svg>
