<svg width="48" height="24" viewBox="0 0 48 24" fill="none" xmlns="http://www.w3.org/2000/svg">
<path d="M0.717145 0.0603118C1.06054 -0.00885992 1.41326 -0.0186079 1.75996 0.0314609C3.45091 0.201473 5.11892 0.551031 6.73584 1.07426C8.90085 1.70572 11.037 2.39493 13.1912 3.05165L27.1808 7.30588C31.7056 8.67705 36.2702 9.94359 40.7301 11.5096C42.5812 12.1591 44.5081 12.7906 45.6014 14.537C46.6189 16.1608 46.9509 18.2897 47.0447 20.1841C47.07 20.7109 47.3406 22.295 46.8787 22.6883L46.7993 22.7604C46.5042 23.063 46.1285 23.2746 45.7168 23.3702C45.0047 23.4713 44.282 23.4713 43.5699 23.3702C42.3287 23.2379 41.0954 23.0403 39.8749 22.7785C36.6058 22.1109 33.3799 21.2197 30.1937 20.2851C28.5339 19.804 26.8788 19.3048 25.2286 18.7876C25.3405 18.2644 25.4487 17.7376 25.5498 17.2144C27.0761 17.0268 28.6782 16.2437 29.1581 14.7391C29.2215 14.532 29.265 14.3194 29.288 14.104C29.4576 12.3251 28.0504 10.8565 26.6539 9.96884C25.1475 9.02061 23.3777 8.57815 21.6023 8.70592C19.8847 8.83221 17.9939 9.4276 17.33 11.1921C16.6408 13.0468 17.7125 14.8726 19.347 15.7205C19.2677 16.103 19.1991 16.4783 19.1233 16.8608C15.2768 15.6195 11.4339 14.3349 7.57662 13.1081C5.56677 12.4622 3.54246 11.7802 2.13881 10.2214C1.96801 10.0412 1.81122 9.84817 1.66975 9.64408C1.57955 9.51779 1.49653 9.39151 1.41714 9.2544C0.410414 7.61981 0.204738 5.72904 0.0640126 3.82023C-0.0585401 2.76747 -0.00486055 1.70164 0.222803 0.666512C0.345487 0.309285 0.39961 0.150521 0.717145 0.0603118Z" fill="white" style="fill:white;fill-opacity:1;"/>
</svg>
