<svg width="21" height="34" viewBox="0 0 21 34" fill="none" xmlns="http://www.w3.org/2000/svg">
<path d="M21.0042 11.0307C20.6963 12.2335 20.3535 13.4291 19.9758 14.6174C19.8243 15.1009 19.6655 15.5845 19.5031 16.0608C18.8392 17.9852 18.0874 19.8579 17.2479 21.679C17.0097 22.2094 16.7608 22.729 16.5046 23.245C15.4509 25.3803 14.2638 27.4472 12.9504 29.4333C12.8421 29.0725 12.7375 28.7405 12.6184 28.3977C12.4993 28.0549 12.3875 27.7157 12.2576 27.3765C12.0411 26.7523 11.8173 26.1461 11.5828 25.5363C11.5142 25.3414 11.4348 25.1466 11.3591 24.9517C11.3591 24.9265 11.341 24.8976 11.3302 24.8723C11.1895 24.5115 11.056 24.1723 10.908 23.8187C10.5075 22.8372 10.0853 21.8738 9.62346 20.932C9.52964 20.7227 9.43583 20.5207 9.33479 20.315C9.31871 20.2901 9.3054 20.2634 9.2951 20.2356C9.14715 19.9289 8.992 19.6258 8.83323 19.3263C8.64559 18.9655 8.44354 18.6046 8.23425 18.2438L8.16569 18.1103C7.72547 17.3345 6.57801 17.8902 6.75843 18.6443C6.77817 18.7187 6.80728 18.7902 6.84504 18.8572C7.01102 19.1495 7.177 19.449 7.33577 19.7485C7.67495 20.3835 7.99249 21.0186 8.2992 21.6645C8.40023 21.8666 8.49405 22.0723 8.58786 22.2743C8.90299 22.9383 9.20008 23.6106 9.47913 24.2914C9.63068 24.6522 9.78223 25.0419 9.93017 25.4244C10.0456 25.7239 10.1575 26.0234 10.2694 26.3193C10.3596 26.5394 10.4353 26.7523 10.5147 26.9724C11.1354 28.6755 11.6838 30.4112 12.1818 32.1576C12.2756 32.486 12.3622 32.8071 12.4524 33.1355C12.2503 32.8504 12.0555 32.5545 11.8534 32.2695C11.6044 31.9086 11.3519 31.5478 11.1101 31.1869L9.2518 28.5204L8.89096 28.008L7.57031 26.1028L6.84864 25.0456C6.7476 24.8976 6.64657 24.7569 6.54554 24.6125L6.1847 24.0966C5.60737 23.2739 5.03364 22.4475 4.46352 21.6284C4.37416 21.4997 4.24857 21.4005 4.10269 21.3434L4.00527 20.5892C3.99454 20.5441 3.9873 20.4983 3.98362 20.4521C3.98362 20.3763 3.95836 20.3042 3.94753 20.232C3.91506 19.9902 3.88258 19.7449 3.83568 19.5103V19.4021C3.59031 17.7026 3.31968 15.9958 3.03462 14.2891C3.00215 14.069 2.96606 13.8525 2.92636 13.6323C2.92811 13.6083 2.92811 13.5842 2.92636 13.5602C2.86141 13.1777 2.79286 12.8024 2.73152 12.4235C2.55471 11.4349 2.37069 10.4606 2.17945 9.47914C2.17484 9.42806 2.1664 9.3774 2.15418 9.32759C2.11088 9.13274 2.07119 8.93787 2.03871 8.74302C2.00624 8.54817 1.95211 8.32446 1.91242 8.11878C1.72479 7.1758 1.52512 6.23884 1.31343 5.30789C1.24487 4.99757 1.17632 4.69807 1.10054 4.39497C1.02477 4.09186 0.974253 3.84651 0.912912 3.57589C0.819094 3.17897 0.721663 2.78564 0.624237 2.38872C0.42217 1.59128 0.216501 0.793837 0 0C0.977862 0.382485 1.93047 0.804654 2.88668 1.2557L3.43514 1.51551C3.94753 1.76449 4.45991 2.02789 4.96508 2.2949C5.47025 2.56192 5.85995 2.77121 6.30017 3.01657C6.48059 3.11761 6.66101 3.20782 6.82339 3.31607C7.7796 3.84289 8.72498 4.39859 9.66315 4.95066L10.0493 5.18158C10.0941 5.20539 10.1375 5.23191 10.1791 5.26098C10.5761 5.49191 10.9622 5.72645 11.3591 5.961C11.8715 6.2641 12.3802 6.5672 12.8998 6.8667C13.073 6.97134 13.2607 7.07598 13.423 7.17701C13.8849 7.44764 14.354 7.72187 14.8303 7.98889C15.1478 8.17291 15.4726 8.34972 15.8046 8.52653L16.1834 8.73221C16.2329 8.76291 16.2848 8.78945 16.3386 8.81158C17.1866 9.28066 18.049 9.71367 18.9222 10.1214C19.1026 10.2116 19.283 10.2946 19.4706 10.3704C19.9722 10.6049 20.4774 10.8178 20.9898 11.0271C20.9946 11.0281 20.9994 11.0293 21.0042 11.0307Z" fill="white" style="fill:white;fill-opacity:1;"/>
</svg>
