<svg width="36" height="26" viewBox="0 0 36 26" fill="none" xmlns="http://www.w3.org/2000/svg">
<path d="M35.5639 16.5335C34.8422 20.6758 31.1906 23.8476 27.3188 25.0275C22.6604 26.4708 17.8938 25.6986 13.3834 23.945C13.3294 23.9163 13.2725 23.8933 13.2138 23.8764C9.54769 22.4331 6.05842 20.3294 2.9408 18.2222C2.61605 18.0057 2.29852 17.7819 1.98098 17.5654L1.92686 17.5294C1.27014 17.0783 0.635069 16.602 0 16.1293C1.49746 12.5895 3.39906 9.16521 6.10172 6.40843C9.2518 3.19339 13.2679 1.17271 17.5727 0C18.1067 0.382485 18.6552 0.757755 19.1892 1.12941C19.6042 1.41447 20.0227 1.69231 20.4449 1.95933L20.8887 2.24799C21.9112 2.95641 23.1049 3.37759 24.3455 3.46762C25.7023 3.50009 26.9255 2.86502 28.2461 2.72069C29.3719 2.59079 30.505 2.90833 30.5302 4.22177C30.5089 5.33551 30.1778 6.4213 29.574 7.35743L28.7621 7.04711C27.8456 6.71515 27.4307 8.17653 28.34 8.49045C30.1441 9.14356 32.0277 9.82913 33.5324 11.0451C34.3442 11.6837 34.9635 12.5342 35.3221 13.5028C35.6806 14.4714 35.7643 15.5203 35.5639 16.5335Z" fill="#FFB53F" style="fill:#FFB53F;fill:color(display-p3 1.0000 0.7098 0.2471);fill-opacity:1;"/>
</svg>
