<svg width="7" height="7" viewBox="0 0 7 7" fill="none" xmlns="http://www.w3.org/2000/svg">
<path d="M6.33844 4.24902C6.21514 4.69327 6.00368 5.10814 5.71665 5.46893C5.42963 5.82973 5.07292 6.12906 4.66777 6.34908C4.28641 6.52462 3.87157 6.6155 3.45175 6.6155C3.03194 6.6155 2.6171 6.52462 2.23574 6.34908C1.83194 6.13069 1.47563 5.83413 1.18757 5.47669C0.899508 5.11924 0.68545 4.70805 0.557862 4.26706C0.226648 3.35262 0.0403756 2.39203 0.00578482 1.42007C-0.018493 1.22187 0.0342231 1.02193 0.153062 0.861463C0.271901 0.700996 0.447794 0.592263 0.644458 0.557691C0.843612 0.531808 1.04499 0.584889 1.20549 0.705602C1.36599 0.826314 1.47286 1.00506 1.50325 1.20358C1.52063 2.18852 1.7264 3.16103 2.10945 4.06861C2.23091 4.40288 2.45113 4.69231 2.74091 4.89852C2.79844 4.92296 2.85394 4.95191 2.90689 4.98512C2.97179 5.00464 3.03562 5.02752 3.09814 5.05368L3.34351 5.08977H3.50949C3.61052 5.08977 3.70073 5.0645 3.80176 5.04645H3.82702L3.96053 4.99595C3.98218 4.99595 4.10126 4.92018 4.13734 4.90575C4.212 4.85825 4.28207 4.80389 4.34663 4.74337C4.59828 4.45481 4.78419 4.11499 4.89149 3.74746C5.22157 2.74966 5.42522 1.71441 5.49768 0.665937C5.50977 0.567138 5.5412 0.47168 5.59017 0.385026C5.63914 0.298372 5.7047 0.222209 5.78311 0.160892C5.86152 0.0995747 5.95123 0.0543161 6.04713 0.027671C6.14303 0.00102586 6.24324 -0.00647996 6.34204 0.00560334C6.44083 0.0176866 6.53629 0.0491083 6.62295 0.0980805C6.7096 0.147053 6.78575 0.212624 6.84707 0.291029C6.90839 0.369435 6.95367 0.459146 6.98031 0.555048C7.00696 0.65095 7.01445 0.751168 7.00237 0.849966C6.91526 2.00512 6.69242 3.146 6.33844 4.24902Z" fill="#1A3869" style="fill:#1A3869;fill:color(display-p3 0.1020 0.2196 0.4118);fill-opacity:1;"/>
</svg>
