<svg width="31" height="17" viewBox="0 0 31 17" fill="none" xmlns="http://www.w3.org/2000/svg">
<path d="M30.9488 3.28359C30.0864 3.31245 29.2312 3.38101 28.3868 3.48204C23.7325 4.08127 19.2543 5.6445 15.238 8.07187C11.2292 10.4353 7.57032 13.3906 4.10991 16.501L3.81039 16.7716C3.23667 15.6422 2.7784 14.4478 2.00622 13.4122C1.48703 12.6851 0.798422 12.0956 0 11.6946C2.79574 9.25232 5.85956 7.13511 9.13271 5.38365C13.5066 3.07426 18.2205 1.47619 23.097 0.649498C25.3112 0.2654 27.551 0.048292 29.7977 0C29.9097 0.107727 30.0574 0.17063 30.2127 0.176806C30.2452 0.223714 30.2884 0.270609 30.3209 0.321126C30.3837 0.399447 30.4381 0.484104 30.4833 0.573715L30.5049 0.617013C30.5322 0.662928 30.5551 0.711251 30.5735 0.761356C30.6731 0.959145 30.7575 1.16421 30.8261 1.37478C30.8261 1.37478 30.8261 1.40365 30.8261 1.4253C30.8261 1.44695 30.8477 1.51549 30.8622 1.5624C30.8874 1.67426 30.9055 1.78612 30.9235 1.92323C30.945 2.02435 30.9595 2.12684 30.9668 2.22996C30.9668 2.29851 30.9668 2.35985 30.9668 2.42119C30.9668 2.48253 30.9668 2.45006 30.9668 2.47532C30.9687 2.50897 30.9687 2.54269 30.9668 2.57634C30.9668 2.63769 30.9668 2.70625 30.9668 2.7676C30.9623 2.87177 30.9502 2.97547 30.9307 3.07791C30.9704 3.14286 30.9704 3.21864 30.9488 3.28359Z" fill="#1A3869" style="fill:#1A3869;fill:color(display-p3 0.1020 0.2196 0.4118);fill-opacity:1;"/>
</svg>
