<svg width="99" height="46" viewBox="0 0 99 46" fill="none" xmlns="http://www.w3.org/2000/svg">
<path d="M1.28463 13.3341C1.28463 13.3341 2.68105 3.75392 10.7421 4.55858C18.8031 5.36324 19.1243 13.0454 19.1243 13.0454C19.1243 13.0454 20.095 -0.987444 30.4834 0.0553689C40.4857 1.05488 39.3274 16.3904 39.3274 16.3904C39.3274 16.3904 46.4142 2.11574 59.0615 6.09935C74.9707 11.1113 69.2009 25.8226 69.2009 25.8226C69.2009 25.8226 82.3822 21.9725 89.9129 32.065C95.4878 39.5307 92.6696 46.8592 92.6696 46.8592C92.6696 46.8592 107.435 33.8151 113.659 43.9942C117.315 49.9733 115.02 58.3049 108.272 65.6912C98.1363 76.7833 63.074 70.6527 39.3852 64.9695C13.3401 58.7018 -5.14544 56.71 1.28463 13.3341Z" fill="white" style="fill:white;fill-opacity:1;"/>
</svg>
