<svg width="25" height="24" viewBox="0 0 25 24" fill="none" xmlns="http://www.w3.org/2000/svg">
<path d="M23.8929 17.5158C23.7108 18.1379 23.3604 18.6977 22.8803 19.1332C22.4002 19.5687 21.8091 19.8631 21.1722 19.984C20.549 20.0981 19.9065 20.0383 19.3151 19.8111C18.7237 19.5838 18.2064 19.1979 17.82 18.6958C17.7461 18.5759 17.6353 18.4831 17.5043 18.4313C17.3732 18.3795 17.229 18.3715 17.093 18.4084C16.957 18.4453 16.8366 18.5253 16.7498 18.6362C16.663 18.7472 16.6144 18.8833 16.6113 19.0241C16.3587 21.9108 13.0426 23.1377 10.5673 23.2712C9.28992 23.3397 7.94761 23.0366 7.45688 21.7124C6.91923 20.269 7.55069 18.6958 8.06669 17.3318C8.29762 16.7256 7.39193 16.2204 6.98418 16.7004C5.86199 17.9741 3.80884 17.4798 2.44849 16.888C1.64765 16.5865 0.955257 16.0525 0.460285 15.3544C0.225472 14.9376 0.0767092 14.4778 0.0227861 14.0025C-0.0311369 13.5271 0.0108783 13.0457 0.146361 12.5868C0.990714 9.11562 4.32122 6.5609 7.72389 5.90057C8.00827 5.51775 8.25024 5.10519 8.44556 4.67013C8.34092 2.67111 9.52806 0.318467 11.6931 0.0261912C14.071 -0.29856 14.1828 2.47265 14.1071 4.12888C14.0854 4.6557 14.8684 5.03458 15.222 4.58715C16.6654 2.76132 19.9454 3.65618 21.58 4.74951C22.6444 5.47118 23.3841 6.74853 22.7851 7.99702C22.1501 9.29963 20.6706 9.87336 19.4041 10.3677C19.2558 10.4132 19.1285 10.51 19.045 10.6409C18.9615 10.7717 18.9274 10.928 18.9487 11.0817C18.9699 11.2354 19.0452 11.3765 19.1611 11.4797C19.277 11.583 19.4258 11.6416 19.5809 11.6451C22.4604 11.8977 24.8311 14.5859 23.8929 17.5158Z" fill="white" style="fill:white;fill-opacity:1;"/>
</svg>
