<svg width="8" height="6" viewBox="0 0 8 6" fill="none" xmlns="http://www.w3.org/2000/svg">
<path d="M6.40008 5.03516C6.22688 3.54852 5.57738 1.74795 3.92476 1.53145C3.60248 1.49295 3.27587 1.54597 2.98232 1.68444C2.68878 1.82292 2.44015 2.04125 2.26491 2.31445C2.0454 2.61621 1.87041 2.94798 1.74531 3.29955C1.5683 3.64958 1.49091 4.04153 1.5216 4.43257C1.70201 5.396 0.197335 5.60528 0.024134 4.64906C-0.0506736 4.02194 0.0492191 3.38634 0.312797 2.81241C0.4934 2.30674 0.744888 1.82929 1.05973 1.39433C1.37977 0.938274 1.81081 0.57138 2.31213 0.328297C2.81345 0.0852139 3.36848 -0.0260187 3.92476 0.00512243C4.48296 0.0577809 5.02366 0.228093 5.51127 0.50486C5.99888 0.781627 6.42232 1.15857 6.7537 1.61084C7.41139 2.55774 7.80609 3.66218 7.89754 4.81144C8.0094 5.7857 6.51194 6.0022 6.40008 5.03516Z" fill="#1A3869" style="fill:#1A3869;fill:color(display-p3 0.1020 0.2196 0.4118);fill-opacity:1;"/>
</svg>
