<svg width="9" height="59" viewBox="0 0 9 59" fill="none" xmlns="http://www.w3.org/2000/svg">
<path d="M8.5193 80.2785L8.48323 80.3074C8.46463 80.3243 8.44401 80.3388 8.42187 80.3507C8.41043 80.3625 8.397 80.3723 8.38218 80.3796L8.27394 80.4445L8.08269 80.5347L7.96722 80.5852H7.93114C7.90568 80.5957 7.87902 80.603 7.85177 80.6069C7.81929 80.6203 7.78538 80.63 7.75072 80.6357C7.67495 80.6574 7.59917 80.6718 7.52701 80.6863C7.45484 80.7007 7.37184 80.7079 7.29607 80.7151H7.17701C7.03096 80.7163 6.88502 80.7066 6.74039 80.6863H6.62492L6.40121 80.6285L6.18471 80.5491C6.15481 80.5329 6.12338 80.5196 6.09089 80.5095C6.09089 80.5095 6.06564 80.5094 6.04759 80.4842C6.02557 80.4717 6.00265 80.4608 5.97903 80.4517C5.95277 80.4316 5.92501 80.4135 5.89603 80.3976C5.82169 80.3533 5.75057 80.3039 5.68315 80.2497C5.59655 77.7286 5.50151 75.2028 5.39807 72.6721C4.80871 58.5346 3.95233 44.4091 2.82893 30.2957C2.27325 23.2666 1.64782 16.2448 0.952609 9.23014C0.656725 6.24603 0.353618 3.26554 0 0.295865C0.35012 0.413922 0.71391 0.486694 1.0825 0.512379C1.41578 0.532879 1.75019 0.524425 2.082 0.487118C2.64518 0.426072 3.19212 0.260901 3.69494 0C3.79598 1.1258 3.89582 2.25399 3.99444 3.38461C4.5814 10.2621 5.10101 17.1432 5.55325 24.028C6.47338 37.8191 7.15174 51.6174 7.80125 65.4193C7.96001 68.8497 8.11637 72.28 8.27033 75.7103C8.34971 77.2367 8.43631 78.7558 8.5193 80.2785Z" fill="white" style="fill:white;fill-opacity:1;"/>
</svg>
