<svg width="24" height="33" viewBox="0 0 24 33" fill="none" xmlns="http://www.w3.org/2000/svg">
<path d="M23.1169 2.87627C22.7272 3.98765 21.1973 4.2655 20.1689 4.42066H20.0859C19.9752 4.43353 19.8696 4.4745 19.7792 4.53972L18.4225 4.97995C17.2197 9.04295 16.0253 13.1035 14.8394 17.1617C13.5308 21.6313 12.2438 26.1044 10.9784 30.5812C9.68305 30.9817 8.36962 31.3028 7.04896 31.6023C6.64844 31.6925 6.24791 31.7719 5.84738 31.8477C5.15458 31.9776 4.46178 32.0967 3.76898 32.2085C1.03559 24.3264 -0.230196 16.0102 0.034336 7.67176C0.694664 7.65011 1.3622 7.62847 2.02253 7.59239C2.43027 7.59239 2.8272 7.55629 3.23494 7.53825C4.85078 7.44638 6.46095 7.27296 8.0593 7.01865C9.50307 6.82219 10.9211 6.46889 12.2883 5.96502C12.8227 5.75255 13.3082 5.43339 13.7152 5.02703C14.1222 4.62068 14.4421 4.13566 14.6554 3.60156C15.2074 2.39998 15.875 1.43654 17.0441 0.750953C17.9075 0.247332 18.8916 -0.0120818 19.8911 0.000432257C20.1722 0.0110998 20.4521 0.0436587 20.7282 0.0978427C20.953 0.14764 21.1728 0.217694 21.3849 0.307133C22.4241 0.754568 23.5211 1.72521 23.1169 2.87627Z" fill="#FFB53F" style="fill:#FFB53F;fill:color(display-p3 1.0000 0.7098 0.2471);fill-opacity:1;"/>
</svg>
