<svg width="24" height="24" viewBox="0 0 24 24" fill="none" xmlns="http://www.w3.org/2000/svg">
<path d="M23.6308 29.1678C23.7719 29.9848 23.8143 30.8159 23.7571 31.6431C23.6091 33.9019 22.6565 36.0381 20.5528 37.2396C19.0011 38.0576 17.3205 38.6032 15.5841 38.8526C13.865 39.1418 12.1145 39.1952 10.3809 39.0114C8.81885 38.8936 7.29503 38.4707 5.89574 37.7665C4.49186 36.9931 3.40199 35.7539 2.81422 34.2628C2.37643 33.1786 2.03472 32.0582 1.79305 30.9142C1.65955 30.3261 1.53325 29.7307 1.43222 29.1389C1.07138 27.259 0.80436 25.361 0.613117 23.4522C0.234241 19.6454 0.129608 15.8241 0.0357906 12.0029C0.0357906 11.642 0.035788 11.2595 0.0105296 10.8915C-0.03972 9.48311 0.0900291 8.07409 0.396625 6.69858C0.786681 5.14978 1.48498 3.69552 2.44978 2.4227C2.4831 2.38507 2.51928 2.35009 2.55802 2.31806C2.84169 1.81652 3.22478 1.37817 3.68382 1.02988C6.0942 -0.810376 9.31645 -0.00931633 11.301 2.05105C11.5592 2.32206 11.8002 2.60888 12.0227 2.90984C13.8269 5.39599 14.1444 8.65791 14.415 11.6564C14.581 13.4895 14.7759 15.337 15.3713 17.0906C15.9263 18.7201 16.9399 20.1547 18.2904 21.2222C19.6075 22.3047 20.8848 23.2862 21.8555 24.7006C22.7602 26.0454 23.3656 27.5688 23.6308 29.1678Z" fill="#3F89FF" style="fill:#3F89FF;fill:color(display-p3 0.2471 0.5373 1.0000);fill-opacity:1;"/>
</svg>
