<svg width="33" height="36" viewBox="0 0 33 36" fill="none" xmlns="http://www.w3.org/2000/svg">
<path d="M32.0716 16.6453C31.902 17.9046 31.7649 19.1711 31.6458 20.4341C31.3571 20.2103 31.0576 20.0011 30.769 19.7809C28.8349 18.2799 26.9838 16.6922 25.176 15.0468C24.4544 14.3937 23.3718 15.4473 24.0935 16.104C25.4286 17.3237 26.7926 18.5216 28.2034 19.6871C24.1368 20.5712 20.3986 22.7182 17.2954 25.4605C14.1922 28.2028 12.1896 31.9086 10.6488 35.7118C9.35703 34.5752 8.09771 33.4061 6.89613 32.172C3.97337 29.1699 1.16247 25.677 0.267599 21.4661C-0.677788 17.0134 1.01453 12.4776 3.26253 8.68527C5.23299 5.45468 7.66415 2.5288 10.4792 0C12.7561 0.187634 14.9464 1.51911 16.8696 2.65935C18.9265 3.88065 20.8889 5.25445 22.7404 6.76924C26.3015 9.60412 29.4431 12.9292 32.0716 16.6453Z" fill="white" style="fill:white;fill-opacity:1;"/>
</svg>
