<svg width="97" height="97" viewBox="0 0 97 97" fill="none" xmlns="http://www.w3.org/2000/svg">
<circle cx="48.0957" cy="48.0957" r="48.0957" fill="#15562E" style="fill:#15562E;fill:color(display-p3 0.0824 0.3373 0.1804);fill-opacity:1;"/>
<path d="M36.1832 65.1915L35.208 64.4216C35.516 56.0554 39.7761 52.2572 44.6008 49.0236C48.1936 46.6113 52.0431 44.5069 52.0431 40.9654C52.0431 38.6043 50.1954 37.4238 48.1936 37.4238C45.9353 37.4238 44.1902 39.015 44.1902 41.7353C44.1902 42.4025 44.2928 43.0184 44.5494 44.1989L36.4912 42.7105C36.2859 41.6326 36.2345 41.222 36.2345 40.4008C36.2345 34.3442 42.2398 30.3921 48.6043 30.3921C55.2767 30.3921 61.0253 33.8823 61.0253 40.7601C61.0253 45.1228 57.843 48.4591 54.4555 50.8201C50.9653 53.2838 46.8591 55.3368 45.8326 58.6217H61.1279V65.1915H36.1832Z" fill="white" style="fill:white;fill-opacity:1;"/>
</svg>
