<svg width="62" height="22" viewBox="0 0 62 22" fill="none" xmlns="http://www.w3.org/2000/svg">
<path d="M9.55228 10.216H12.2088V13.9226C11.3799 14.1871 10.3333 14.3322 9.24542 14.3322C4.83632 14.3322 2.24494 10.5814 2.24494 6.91828C2.24494 3.32551 4.58889 0.805392 7.85902 0.805392C9.9283 0.805392 11.1324 1.5018 12.2096 2.47186V3.68117L14.2293 1.67467C12.9518 0.816032 11.1019 0 8.45776 0C2.65319 0 0 4.12532 0 7.51556C0 12.3412 3.53817 15.2483 7.98446 15.2483C10.1403 15.2483 12.0546 14.9213 14.2657 14.3101V10.4807C14.2657 10.2848 14.3523 10.1505 14.4818 10.0325L15.1795 9.33936H10.4414L9.55228 10.216Z" fill="url(#paint0_linear_1_1923)"/>
<path d="M21.4522 5.17871C18.1111 5.17871 16.041 7.60396 16.041 10.1782C16.041 12.4002 17.7087 15.0383 21.0876 15.0383C24.338 15.0383 26.3322 12.6083 26.3322 9.989C26.3322 7.54908 24.3833 5.17961 21.4522 5.17961V5.17871ZM20.8978 5.88579C23.2534 5.88579 24.3024 8.93446 24.3024 11.1089C24.3024 14.3427 21.8604 14.4067 21.5684 14.4067C20.4509 14.4067 19.6698 13.7357 19.0851 12.8557C18.5705 12.0446 18.0674 10.5379 18.0674 9.06555C18.0674 7.59898 18.5506 6.88289 19.3111 6.35607C19.933 5.96117 20.5153 5.88579 20.897 5.88579H20.8978Z" fill="url(#paint1_linear_1_1923)"/>
<path d="M43.2913 5.17871C40.3733 5.17871 38.7947 7.01399 38.7947 9.06309C38.7947 10.6231 39.9196 12.383 42.2405 12.383H42.8276C42.8276 12.383 42.6677 12.7688 42.6669 13.1416C42.6669 13.6915 42.8656 14.0003 43.2878 14.4755C39.2944 14.7172 37.6895 16.3173 37.6895 18.037C37.6895 19.543 39.1411 21.0252 42.1917 21.0252C45.8033 21.0252 47.6738 19.0333 47.6738 17.0785C47.6738 15.7004 46.9827 14.945 45.2326 13.6423C44.7179 13.2449 44.6181 12.9919 44.6181 12.6945C44.6181 12.2684 44.8746 11.9865 44.9686 11.88C45.1344 11.7063 45.4214 11.5081 45.5287 11.413C46.1167 10.9182 46.9472 10.1858 46.9472 8.72404C46.9472 7.7212 46.5273 6.85848 45.5707 6.05063H46.7386L47.6161 5.17889H43.2913V5.17871ZM42.4864 5.83088C43.0158 5.83088 43.4578 6.01688 43.9246 6.40278C44.4425 6.86651 45.2699 8.11268 45.2699 9.65463C45.2699 11.3187 43.9684 11.7742 43.2641 11.7742C42.9193 11.7742 42.5062 11.6783 42.1565 11.4407C41.3795 10.9402 40.6083 9.60792 40.6083 8.02255C40.6083 6.59202 41.4661 5.83088 42.4864 5.83088ZM43.6418 15.1072C43.8644 15.1072 44.0245 15.1253 44.0245 15.1253C44.0245 15.1253 44.5498 15.4981 44.9169 15.7765C45.7713 16.4476 46.304 16.9605 46.304 17.8741C46.304 19.1301 45.1312 20.1149 43.2318 20.1149C41.1469 20.1149 39.5535 19.1506 39.5535 17.5759C39.5535 16.2715 40.6454 15.1489 43.6418 15.1072Z" fill="url(#paint2_linear_1_1923)"/>
<path d="M48.2492 14.7507H52.255L52.8652 14.1445L51.7163 14.002C51.407 13.9643 51.2232 13.6988 51.2232 13.4416V1.42141C51.2232 1.18463 51.3337 1.06337 51.4145 0.986274L52.137 0.268555H48.7209L47.8318 1.15178H49.1597V13.6029C49.1597 13.7799 49.1036 13.9003 48.9832 14.024L48.2492 14.7507Z" fill="url(#paint3_linear_1_1923)"/>
<path d="M57.6831 5.17871C55.4464 5.17871 53.0703 6.87223 53.0703 9.91271C53.0703 12.4238 54.7751 15.0383 57.9602 15.0383C58.7545 15.0383 59.4085 14.9368 60.0213 14.6574C60.6786 14.3568 61.3112 13.8684 61.773 13.2548C60.9013 13.6915 60.1903 13.9782 59.2459 13.9782C57.4513 13.9782 55.721 12.6919 55.1156 10.3274L61.4554 7.78175C61.0892 6.48478 60.0567 5.17871 57.6839 5.17871H57.6831ZM57.269 5.87431C58.4691 5.87431 59.3367 6.85503 59.3367 7.62273C59.3367 7.87098 59.18 8.00208 58.8698 8.12334L54.9729 9.68904C54.9729 9.68904 54.8674 9.20156 54.8674 8.67474C54.8674 6.46505 56.4757 5.87431 57.269 5.87431Z" fill="url(#paint4_linear_1_1923)"/>
<path d="M32.7901 5.17871C29.449 5.17871 27.3789 7.60396 27.3789 10.1782C27.3789 12.4002 29.0466 15.0383 32.4255 15.0383C35.6759 15.0383 37.6701 12.6083 37.6701 9.989C37.6701 7.54908 35.7212 5.17961 32.7901 5.17961V5.17871ZM32.2358 5.88579C34.5913 5.88579 35.6403 8.93446 35.6403 11.1089C35.6403 14.3427 33.1982 14.4067 32.9063 14.4067C31.7887 14.4067 31.0077 13.7357 30.4231 12.8557C29.9084 12.0446 29.4053 10.5379 29.4053 9.06555C29.4053 7.59898 29.8885 6.88289 30.649 6.35607C31.2709 5.96117 31.8532 5.88579 32.2349 5.88579H32.2358Z" fill="url(#paint5_linear_1_1923)"/>
<defs>
<linearGradient id="paint0_linear_1_1923" x1="7.55203" y1="-0.0431636" x2="7.55203" y2="15.2474" gradientUnits="userSpaceOnUse">
<stop stop-color="#196EEF" style="stop-color:#196EEF;stop-color:color(display-p3 0.0980 0.4314 0.9373);stop-opacity:1;"/>
<stop offset="0.5" stop-color="#186DEE" style="stop-color:#186DEE;stop-color:color(display-p3 0.0941 0.4275 0.9333);stop-opacity:1;"/>
<stop offset="1" stop-color="#1065E7" style="stop-color:#1065E7;stop-color:color(display-p3 0.0627 0.3961 0.9059);stop-opacity:1;"/>
</linearGradient>
<linearGradient id="paint1_linear_1_1923" x1="21.1492" y1="5.15536" x2="21.1492" y2="15.0425" gradientUnits="userSpaceOnUse">
<stop stop-color="#DE5744" style="stop-color:#DE5744;stop-color:color(display-p3 0.8706 0.3412 0.2667);stop-opacity:1;"/>
<stop offset="0.5" stop-color="#DB4632" style="stop-color:#DB4632;stop-color:color(display-p3 0.8588 0.2745 0.1961);stop-opacity:1;"/>
<stop offset="1" stop-color="#D13D29" style="stop-color:#D13D29;stop-color:color(display-p3 0.8196 0.2392 0.1608);stop-opacity:1;"/>
</linearGradient>
<linearGradient id="paint2_linear_1_1923" x1="42.645" y1="5.15618" x2="42.645" y2="21.0312" gradientUnits="userSpaceOnUse">
<stop stop-color="#1A6FEF" style="stop-color:#1A6FEF;stop-color:color(display-p3 0.1020 0.4353 0.9373);stop-opacity:1;"/>
<stop offset="0.25" stop-color="#1E72EF" style="stop-color:#1E72EF;stop-color:color(display-p3 0.1176 0.4471 0.9373);stop-opacity:1;"/>
<stop offset="0.5" stop-color="#166BEC" style="stop-color:#166BEC;stop-color:color(display-p3 0.0863 0.4196 0.9255);stop-opacity:1;"/>
<stop offset="0.75" stop-color="#1267E9" style="stop-color:#1267E9;stop-color:color(display-p3 0.0706 0.4039 0.9137);stop-opacity:1;"/>
<stop offset="1" stop-color="#1063E5" stop-opacity="0.87" style="stop-color:#1063E5;stop-color:color(display-p3 0.0627 0.3882 0.8980);stop-opacity:0.87;"/>
</linearGradient>
<linearGradient id="paint3_linear_1_1923" x1="50.312" y1="0.234466" x2="50.312" y2="14.7647" gradientUnits="userSpaceOnUse">
<stop stop-color="#0AA561" style="stop-color:#0AA561;stop-color:color(display-p3 0.0392 0.6471 0.3804);stop-opacity:1;"/>
<stop offset="0.5" stop-color="#009B58" style="stop-color:#009B58;stop-color:color(display-p3 0.0000 0.6078 0.3451);stop-opacity:1;"/>
<stop offset="1" stop-color="#00914B" style="stop-color:#00914B;stop-color:color(display-p3 0.0000 0.5686 0.2941);stop-opacity:1;"/>
</linearGradient>
<linearGradient id="paint4_linear_1_1923" x1="57.3853" y1="5.15536" x2="57.3853" y2="15.0153" gradientUnits="userSpaceOnUse">
<stop stop-color="#DE5644" style="stop-color:#DE5644;stop-color:color(display-p3 0.8706 0.3373 0.2667);stop-opacity:1;"/>
<stop offset="0.5" stop-color="#DA4531" style="stop-color:#DA4531;stop-color:color(display-p3 0.8549 0.2706 0.1922);stop-opacity:1;"/>
<stop offset="1" stop-color="#CE3A28" style="stop-color:#CE3A28;stop-color:color(display-p3 0.8078 0.2275 0.1569);stop-opacity:1;"/>
</linearGradient>
<linearGradient id="paint5_linear_1_1923" x1="32.4874" y1="5.17683" x2="32.4874" y2="15.0229" gradientUnits="userSpaceOnUse">
<stop stop-color="#FFC01A" style="stop-color:#FFC01A;stop-color:color(display-p3 1.0000 0.7529 0.1020);stop-opacity:1;"/>
<stop offset="0.5" stop-color="#FFBA03" style="stop-color:#FFBA03;stop-color:color(display-p3 1.0000 0.7294 0.0118);stop-opacity:1;"/>
<stop offset="1" stop-color="#FFB300" style="stop-color:#FFB300;stop-color:color(display-p3 1.0000 0.7020 0.0000);stop-opacity:1;"/>
</linearGradient>
</defs>
</svg>
