<svg width="26" height="35" viewBox="0 0 26 35" fill="none" xmlns="http://www.w3.org/2000/svg">
<path d="M6.62113 17.1944L5.79991 16.1679L12.7803 6.72379C12.7803 6.67246 12.729 6.56981 12.729 6.51848H0.718572V0H25.5093V1.07786L16.9378 12.5237C22.4811 14.0635 25.0474 17.9643 25.0474 22.6864C25.0474 29.3075 19.5041 34.2862 11.0865 34.2862C7.59634 34.2862 4.10613 33.9269 0 31.8225V24.1748C2.72031 26.4845 6.3645 27.4084 9.39277 27.4084C13.8582 27.4084 16.4758 25.2014 16.4758 22.0191C16.4758 18.1696 12.9856 16.8351 9.59808 16.8351C8.57154 16.8351 7.54501 16.9891 6.62113 17.1944Z" fill="white" style="fill:white;fill-opacity:1;"/>
</svg>
