<svg width="39" height="40" viewBox="0 0 39 40" fill="none" xmlns="http://www.w3.org/2000/svg">
<g clip-path="url(#clip0_1_1246)">
<path d="M33.5075 14.0833C31.8013 6.38329 25.2525 2.91663 19.5 2.91663C19.5 2.91663 19.5 2.91663 19.4838 2.91663C13.7475 2.91663 7.18253 6.36663 5.47628 14.0666C3.57503 22.6666 8.71003 29.95 13.3575 34.5333C15.08 36.2333 17.29 37.0833 19.5 37.0833C21.71 37.0833 23.92 36.2333 25.6263 34.5333C30.2738 29.95 35.4088 22.6833 33.5075 14.0833ZM19.5 22.4333C16.6725 22.4333 14.3813 20.0833 14.3813 17.1833C14.3813 14.2833 16.6725 11.9333 19.5 11.9333C22.3275 11.9333 24.6188 14.2833 24.6188 17.1833C24.6188 20.0833 22.3275 22.4333 19.5 22.4333Z" fill="white" style="fill:white;fill-opacity:1;"/>
</g>
<defs>
<clipPath id="clip0_1_1246">
<rect width="39" height="40" fill="white" style="fill:white;fill-opacity:1;"/>
</clipPath>
</defs>
</svg>
