<svg width="40" height="42" viewBox="0 0 40 42" fill="none" xmlns="http://www.w3.org/2000/svg">
<path d="M18.4167 26.1625L15.3334 29.4C14.6834 30.0825 13.65 30.0825 12.9834 29.4175C12.8 29.225 12.6167 29.05 12.4334 28.8575C10.7167 27.0375 9.16671 25.13 7.78337 23.135C6.41671 21.14 5.31671 19.145 4.51671 17.1675C3.73337 15.1725 3.33337 13.265 3.33337 11.445C3.33337 10.255 3.53337 9.1175 3.93337 8.0675C4.33337 7 4.96671 6.02 5.85004 5.145C6.91671 4.0425 8.08337 3.5 9.31671 3.5C9.78337 3.5 10.25 3.605 10.6667 3.815C11.1 4.025 11.4834 4.34 11.7834 4.795L15.65 10.5175C15.95 10.955 16.1667 11.3575 16.3167 11.7425C16.4667 12.11 16.55 12.4775 16.55 12.81C16.55 13.23 16.4334 13.65 16.2 14.0525C15.9834 14.455 15.6667 14.875 15.2667 15.295L14 16.6775C13.8167 16.87 13.7334 17.0975 13.7334 17.3775C13.7334 17.5175 13.75 17.64 13.7834 17.78C13.8334 17.92 13.8834 18.025 13.9167 18.13C14.2167 18.7075 14.7334 19.46 15.4667 20.37C16.2167 21.28 17.0167 22.2075 17.8834 23.135C18.05 23.31 18.2334 23.485 18.4 23.66C19.0667 24.3425 19.0834 25.4625 18.4167 26.1625Z" fill="white" style="fill:white;fill-opacity:1;"/>
<path d="M36.6167 32.0775C36.6167 32.5675 36.5333 33.075 36.3667 33.565C36.3167 33.705 36.2667 33.845 36.2 33.985C35.9167 34.615 35.55 35.21 35.0667 35.77C34.25 36.715 33.35 37.3975 32.3333 37.835C32.3167 37.835 32.3 37.8525 32.2833 37.8525C31.3 38.2725 30.2333 38.5 29.0833 38.5C27.3833 38.5 25.5667 38.08 23.65 37.2225C21.7333 36.365 19.8167 35.21 17.9167 33.7575C17.2667 33.25 16.6167 32.7425 16 32.2L21.45 26.4775C21.9167 26.845 22.3333 27.125 22.6833 27.3175C22.7667 27.3525 22.8667 27.405 22.9833 27.4575C23.1167 27.51 23.25 27.5275 23.4 27.5275C23.6833 27.5275 23.9 27.4225 24.0833 27.23L25.35 25.9175C25.7667 25.48 26.1667 25.1475 26.55 24.9375C26.9333 24.6925 27.3167 24.57 27.7333 24.57C28.05 24.57 28.3833 24.64 28.75 24.7975C29.1167 24.955 29.5 25.1825 29.9167 25.48L35.4333 29.5925C35.8667 29.9075 36.1667 30.275 36.35 30.7125C36.5167 31.15 36.6167 31.5875 36.6167 32.0775Z" fill="white" style="fill:white;fill-opacity:1;"/>
</svg>
