<svg width="40" height="40" viewBox="0 0 40 40" fill="none" xmlns="http://www.w3.org/2000/svg">
<path d="M20 3.33337C10.8167 3.33337 3.33337 10.8167 3.33337 20C3.33337 29.1834 10.8167 36.6667 20 36.6667C29.1834 36.6667 36.6667 29.1834 36.6667 20C36.6667 10.8167 29.1834 3.33337 20 3.33337ZM27.25 25.95C27.0167 26.35 26.6 26.5667 26.1667 26.5667C25.95 26.5667 25.7334 26.5167 25.5334 26.3834L20.3667 23.3C19.0834 22.5334 18.1334 20.85 18.1334 19.3667V12.5334C18.1334 11.85 18.7 11.2834 19.3834 11.2834C20.0667 11.2834 20.6334 11.85 20.6334 12.5334V19.3667C20.6334 19.9667 21.1334 20.85 21.65 21.15L26.8167 24.2334C27.4167 24.5834 27.6167 25.35 27.25 25.95Z" fill="white" style="fill:white;fill-opacity:1;"/>
</svg>
