<svg width="66" height="65" viewBox="0 0 66 65" fill="none" xmlns="http://www.w3.org/2000/svg">
<path d="M10.1995 47.6353L7.13724 56.0797L5.50229 60.1628L16.8808 57.0077C41.7505 66.0648 53.6595 55.523 56.5053 49.1199C73.1346 23.8048 50.0344 7.23575 37.3212 2.62683C-3.5097 6.78415 2.83756 34.7055 10.1995 47.6353Z" fill="white" style="fill:white;fill-opacity:1;"/>
<path d="M65.6633 31.6638C65.6633 49.1501 51.2318 63.3256 33.4258 63.3256C27.7753 63.3256 22.4673 61.8949 17.8467 59.3896L0 65L5.81756 48.0076C2.88416 43.2387 1.19477 37.6388 1.19477 31.6617C1.19691 14.1755 15.6241 0 33.4301 0C51.2339 0.00423908 65.6633 14.1776 65.6633 31.6638ZM33.4237 5.04875C18.4804 5.04875 6.32502 16.9902 6.32502 31.6702C6.32502 37.4947 8.24351 42.8868 11.4874 47.2743L8.10433 57.1577L18.5147 53.883C22.797 56.6638 27.9209 58.2832 33.4237 58.2832C48.3669 58.2832 60.5266 46.3438 60.5266 31.6638C60.5309 16.9902 48.369 5.04875 33.4237 5.04875ZM49.7051 38.9572C49.5039 38.6371 48.9771 38.4421 48.1892 38.0521C47.4034 37.6621 43.5129 35.7864 42.7913 35.532C42.0633 35.2713 41.5366 35.1399 41.0098 35.9178C40.4895 36.6956 38.9736 38.4421 38.5089 38.9635C38.0486 39.4828 37.5882 39.5485 36.7982 39.1649C36.0081 38.7707 33.4601 37.9568 30.441 35.3137C28.0922 33.2535 26.5055 30.7164 26.0473 29.9385C25.5827 29.1628 26.0002 28.7431 26.3921 28.3574C26.7454 28.0076 27.1822 27.4502 27.5783 26.9945C27.9744 26.543 28.105 26.223 28.3684 25.7037C28.6274 25.1844 28.4968 24.7329 28.302 24.3408C28.105 23.9508 26.527 20.1357 25.8653 18.582C25.208 17.0305 24.5507 17.287 24.0882 17.287C23.6278 17.287 23.1011 17.2234 22.5744 17.2234C22.0476 17.2234 21.1912 17.412 20.4696 18.1899C19.748 18.9678 17.7053 20.8436 17.7053 24.663C17.7053 28.4866 20.5338 32.1725 20.9299 32.6897C21.3282 33.2047 26.3985 41.2993 34.43 44.4065C42.4658 47.5117 42.4658 46.4752 43.9133 46.3438C45.365 46.2124 48.5896 44.468 49.2448 42.6579C49.9043 40.8393 49.9043 39.2815 49.7051 38.9572Z" fill="#43C554" style="fill:#43C554;fill:color(display-p3 0.2627 0.7725 0.3294);fill-opacity:1;"/>
</svg>
