<svg width="18" height="18" viewBox="0 0 18 18" fill="none" xmlns="http://www.w3.org/2000/svg">
<g clip-path="url(#clip0_141_1083)">
<path d="M12.9375 0H5.0625C2.25 0 0 2.25 0 5.0625V8.4375V12.9375C0 15.75 2.25 18 5.0625 18H12.9375C15.75 18 18 15.75 18 12.9375V8.4375V5.0625C18 2.25 15.75 0 12.9375 0ZM9 5.625C10.8562 5.625 12.375 7.14375 12.375 9C12.375 10.8562 10.8562 12.375 9 12.375C7.14375 12.375 5.625 10.8562 5.625 9C5.625 7.14375 7.14375 5.625 9 5.625ZM12.375 3.9375C12.375 3.31875 12.8813 2.8125 13.5 2.8125C14.1187 2.8125 14.625 3.31875 14.625 3.9375C14.625 4.55625 14.1187 5.0625 13.5 5.0625C12.8813 5.0625 12.375 4.55625 12.375 3.9375Z" fill="#001107" style="fill:#001107;fill:color(display-p3 0.0000 0.0667 0.0275);fill-opacity:1;"/>
</g>
<defs>
<clipPath id="clip0_141_1083">
<rect width="18" height="18" fill="white" style="fill:white;fill-opacity:1;"/>
</clipPath>
</defs>
</svg>
