<svg width="82" height="82" viewBox="0 0 82 82" fill="none" xmlns="http://www.w3.org/2000/svg">
<path d="M74.7909 49.7125C74.3467 48.8242 63.3451 27.3334 41.0001 27.3334C18.6551 27.3334 7.6534 48.8242 7.20924 49.7125C6.96893 50.1894 6.84375 50.716 6.84375 51.25C6.84375 51.7841 6.96893 52.3106 7.20924 52.7875C7.6534 53.6759 18.6551 75.1667 41.0001 75.1667C63.3451 75.1667 74.3467 53.6759 74.7909 52.7875C75.0312 52.3106 75.1564 51.7841 75.1564 51.25C75.1564 50.716 75.0312 50.1894 74.7909 49.7125Z" fill="#15562E" style="fill:#15562E;fill:color(display-p3 0.0824 0.3373 0.1804);fill-opacity:1;"/>
<path d="M37.5833 17.0834V10.25C37.5833 9.34388 37.9433 8.47484 38.584 7.83409C39.2248 7.19334 40.0938 6.83337 41 6.83337C41.9061 6.83337 42.7752 7.19334 43.4159 7.83409C44.0567 8.47484 44.4166 9.34388 44.4166 10.25V17.0834C44.4166 17.9895 44.0567 18.8586 43.4159 19.4993C42.7752 20.1401 41.9061 20.5 41 20.5C40.0938 20.5 39.2248 20.1401 38.584 19.4993C37.9433 18.8586 37.5833 17.9895 37.5833 17.0834ZM23.4725 14.0425C23.0194 13.2542 22.2717 12.6781 21.3939 12.441C20.516 12.2039 19.58 12.3253 18.7916 12.7784C18.0033 13.2315 17.4272 13.9791 17.1901 14.857C16.953 15.7348 17.0744 16.6709 17.5275 17.4592L20.9441 23.37C21.1685 23.7604 21.4675 24.1027 21.8242 24.3775C22.1808 24.6523 22.5881 24.8542 23.0227 24.9716C23.4574 25.0889 23.9109 25.1196 24.3574 25.0617C24.8039 25.0038 25.2346 24.8585 25.625 24.6342C26.0153 24.4099 26.3577 24.1108 26.6325 23.7542C26.9072 23.3975 27.1091 22.9903 27.2265 22.5556C27.3439 22.121 27.3745 21.6674 27.3166 21.2209C27.2587 20.7744 27.1135 20.3437 26.8891 19.9534L23.4725 14.0425ZM41 41C38.9727 41 36.991 41.6012 35.3054 42.7275C33.6198 43.8538 32.306 45.4546 31.5302 47.3275C30.7544 49.2005 30.5514 51.2614 30.9469 53.2497C31.3424 55.238 32.3186 57.0644 33.7521 58.4979C35.1856 59.9314 37.012 60.9076 39.0003 61.3031C40.9886 61.6986 43.0495 61.4956 44.9225 60.7198C46.7954 59.944 48.3963 58.6302 49.5225 56.9446C50.6488 55.259 51.25 53.2773 51.25 51.25C51.25 48.5316 50.1701 45.9244 48.2478 44.0022C46.3256 42.0799 43.7184 41 41 41ZM63.2083 12.7784C62.8183 12.5525 62.3876 12.4059 61.9407 12.3472C61.4939 12.2885 61.0399 12.3188 60.6048 12.4363C60.1697 12.5538 59.7622 12.7562 59.4057 13.0319C59.0491 13.3076 58.7507 13.651 58.5275 14.0425L55.1108 19.9534C54.6577 20.7417 54.5364 21.6778 54.7735 22.5556C55.0105 23.4334 55.5866 24.1811 56.375 24.6342C57.1633 25.0873 58.0994 25.2086 58.9772 24.9716C59.855 24.7345 60.6027 24.1584 61.0558 23.37L64.4725 17.4592C64.6984 17.0693 64.8449 16.6385 64.9036 16.1916C64.9623 15.7448 64.9321 15.2908 64.8146 14.8557C64.6971 14.4206 64.4946 14.0131 64.219 13.6566C63.9433 13.3 63.5998 13.0016 63.2083 12.7784Z" fill="white" style="fill:white;fill-opacity:1;"/>
</svg>
