<svg width="32" height="32" viewBox="0 0 32 32" fill="none" xmlns="http://www.w3.org/2000/svg">
<path d="M18.8443 24.577C18.5962 24.577 18.3481 24.4856 18.1522 24.2897C17.7735 23.911 17.7735 23.2842 18.1522 22.9055L25.3869 15.6708L18.1522 8.43611C17.7735 8.0574 17.7735 7.43057 18.1522 7.05186C18.5309 6.67314 19.1577 6.67314 19.5364 7.05186L27.4633 14.9787C27.842 15.3574 27.842 15.9842 27.4633 16.3629L19.5364 24.2897C19.3406 24.4856 19.0924 24.577 18.8443 24.577Z" fill="#15562E" style="fill:#15562E;fill:color(display-p3 0.0824 0.3373 0.1804);fill-opacity:1;"/>
<path d="M26.549 16.6503H4.57073C4.03531 16.6503 3.59131 16.2062 3.59131 15.6708C3.59131 15.1354 4.03531 14.6914 4.57073 14.6914H26.549C27.0844 14.6914 27.5284 15.1354 27.5284 15.6708C27.5284 16.2062 27.0844 16.6503 26.549 16.6503Z" fill="#15562E" style="fill:#15562E;fill:color(display-p3 0.0824 0.3373 0.1804);fill-opacity:1;"/>
</svg>
