<svg width="109" height="68" viewBox="0 0 109 68" fill="none" xmlns="http://www.w3.org/2000/svg">
<path d="M65.8383 22.301L88.1422 27.9993L65.8383 33.6948L60.1429 55.9957L54.4474 33.6948L32.1436 27.9993L54.4474 22.301L60.1429 0L65.8383 22.301Z" fill="#E8F9EE" style="fill:#E8F9EE;fill:color(display-p3 0.9099 0.9748 0.9348);fill-opacity:1;"/>
<path d="M99.6967 53.7525L108.493 55.9956L99.6967 58.2444L97.4508 67.0352L95.2078 58.2444L86.4141 55.9956L95.2078 53.7525L97.4508 44.9588L99.6967 53.7525Z" fill="#E8F9EE" style="fill:#E8F9EE;fill:color(display-p3 0.9099 0.9748 0.9348);fill-opacity:1;"/>
<path d="M35.3617 49.2493L44.1525 51.4952L35.3617 53.7411L33.1158 62.5348L30.8698 53.7411L22.0762 51.4952L30.8698 49.2493L33.1158 40.4585L35.3617 49.2493Z" fill="#E8F9EE" style="fill:#E8F9EE;fill:color(display-p3 0.9099 0.9748 0.9348);fill-opacity:1;"/>
<path d="M8.79082 17.0832L11.0368 8.28952L13.2856 17.0832L22.0764 19.3291L13.2856 21.5751L11.0368 30.3688L8.79082 21.5751L0 19.3291L8.79082 17.0832Z" fill="#E8F9EE" style="fill:#E8F9EE;fill:color(display-p3 0.9099 0.9748 0.9348);fill-opacity:1;"/>
</svg>
