<svg width="32" height="32" viewBox="0 0 32 32" fill="none" xmlns="http://www.w3.org/2000/svg">
<path d="M19.2398 25.0934C18.9865 25.0934 18.7332 25 18.5332 24.8C18.1465 24.4134 18.1465 23.7734 18.5332 23.3867L25.9198 16L18.5332 8.61337C18.1465 8.2267 18.1465 7.5867 18.5332 7.20003C18.9198 6.81337 19.5598 6.81337 19.9465 7.20003L28.0398 15.2934C28.4265 15.68 28.4265 16.32 28.0398 16.7067L19.9465 24.8C19.7465 25 19.4932 25.0934 19.2398 25.0934Z" fill="#15562E" style="fill:#15562E;fill:color(display-p3 0.0824 0.3373 0.1804);fill-opacity:1;"/>
<path d="M27.1065 17H4.6665C4.11984 17 3.6665 16.5467 3.6665 16C3.6665 15.4533 4.11984 15 4.6665 15H27.1065C27.6532 15 28.1065 15.4533 28.1065 16C28.1065 16.5467 27.6532 17 27.1065 17Z" fill="#15562E" style="fill:#15562E;fill:color(display-p3 0.0824 0.3373 0.1804);fill-opacity:1;"/>
</svg>
