<svg width="42" height="42" viewBox="0 0 42 42" fill="none" xmlns="http://www.w3.org/2000/svg">
<circle cx="20.876" cy="20.876" r="20.876" fill="white" style="fill:white;fill-opacity:1;"/>
<path fill-rule="evenodd" clip-rule="evenodd" d="M15.7079 29.924V17.7141H11.65V29.9239H15.7079V29.924ZM13.6794 16.0477C15.094 16.0477 15.9752 15.1093 15.9752 13.9377C15.9485 12.74 15.094 11.8281 13.7059 11.8281C12.3176 11.8282 11.4102 12.74 11.4102 13.9377C11.4102 15.1094 12.2909 16.0477 13.6527 16.0477L13.6794 16.0477ZM17.9538 29.924C17.9538 29.924 18.007 18.8597 17.9538 17.7142H22.0123V19.4849H21.9853C22.519 18.6516 23.4804 17.4275 25.6694 17.4275C28.34 17.4275 30.3418 19.1725 30.3418 22.9229V29.924H26.284V23.3921C26.284 21.7508 25.6968 20.6308 24.2279 20.6308C23.107 20.6308 22.4391 21.3859 22.1457 22.1157C22.0384 22.3755 22.0123 22.7404 22.0123 23.1053V29.924H17.9538Z" fill="#001107" style="fill:#001107;fill:color(display-p3 0.0000 0.0667 0.0275);fill-opacity:1;"/>
</svg>
