<svg width="82" height="82" viewBox="0 0 82 82" fill="none" xmlns="http://www.w3.org/2000/svg">
<path d="M79.1812 14.3498C78.925 13.3248 77.9 12.8123 76.875 12.8123H69.1875V5.12476C69.1875 4.09976 68.675 3.07476 67.65 2.81851C66.625 2.30601 65.6 2.56226 64.8312 3.33101L54.5812 13.581C54.0687 14.0935 53.8125 14.606 53.8125 15.3748V24.5998L39.2063 39.206C38.1813 40.231 38.1813 41.7685 39.2063 42.7935C39.7188 43.306 40.4875 43.5623 41 43.5623C41.5125 43.5623 42.2813 43.306 42.7938 42.7935L57.4 28.1873H66.625C67.3937 28.1873 67.9063 27.931 68.4188 27.4185L78.6688 17.1685C79.4375 16.3998 79.6937 15.3748 79.1812 14.3498Z" fill="#15562E" style="fill:#15562E;fill:color(display-p3 0.0824 0.3373 0.1804);fill-opacity:1;"/>
<path d="M46.3813 46.3811C45.1 47.9186 43.05 48.6874 41 48.6874C38.95 48.6874 36.9 47.9186 35.6187 46.3811C32.5437 43.3061 32.5437 38.4374 35.6187 35.6186L42.7938 28.4436C42.2813 28.1874 41.5125 28.1874 41 28.1874C33.825 28.1874 28.1875 33.8249 28.1875 40.9999C28.1875 48.1749 33.825 53.8124 41 53.8124C48.175 53.8124 53.8125 48.1749 53.8125 40.9999C53.8125 40.4874 53.8125 39.7186 53.5562 39.2061L46.3813 46.3811Z" fill="#15562E" style="fill:#15562E;fill:color(display-p3 0.0824 0.3373 0.1804);fill-opacity:1;"/>
<path d="M72.0062 31.0059C70.725 32.5434 68.675 33.3121 66.625 33.3121H59.45L57.6562 35.1059C58.425 36.8996 58.6812 38.9496 58.6812 40.9996C58.6812 50.9934 50.7375 58.9371 40.7437 58.9371C30.75 58.9371 22.8062 50.9934 22.8062 40.9996C22.8062 31.0059 30.75 23.0621 40.7437 23.0621C42.7938 23.0621 44.8438 23.5746 46.6375 24.0871L48.6875 22.5496V15.3746C48.6875 13.3246 49.4562 11.2746 50.9937 9.99338L53.5562 7.43088C49.4562 5.89338 45.3563 5.12463 41 5.12463C21.2688 5.12463 5.125 21.2684 5.125 40.9996C5.125 60.7309 21.2688 76.8746 41 76.8746C60.7313 76.8746 76.875 60.7309 76.875 40.9996C76.875 36.6434 76.1063 32.5434 74.5687 28.4434L72.0062 31.0059Z" fill="#15562E" style="fill:#15562E;fill:color(display-p3 0.0824 0.3373 0.1804);fill-opacity:1;"/>
</svg>
