<svg width="32" height="32" viewBox="0 0 32 32" fill="none" xmlns="http://www.w3.org/2000/svg">
<path d="M12.76 25.0935C13.0133 25.0935 13.2667 25.0002 13.4667 24.8002C13.8533 24.4135 13.8533 23.7735 13.4667 23.3868L6.08 16.0002L13.4667 8.61349C13.8533 8.22682 13.8533 7.58682 13.4667 7.20016C13.08 6.81349 12.44 6.81349 12.0533 7.20016L3.96 15.2935C3.57333 15.6802 3.57333 16.3202 3.96 16.7068L12.0533 24.8002C12.2533 25.0002 12.5067 25.0935 12.76 25.0935Z" fill="#292D32" style="fill:#292D32;fill:color(display-p3 0.1608 0.1765 0.1961);fill-opacity:1;"/>
<path d="M4.89333 17H27.3333C27.88 17 28.3333 16.5467 28.3333 16C28.3333 15.4533 27.88 15 27.3333 15H4.89333C4.34666 15 3.89333 15.4533 3.89333 16C3.89333 16.5467 4.34666 17 4.89333 17Z" fill="#292D32" style="fill:#292D32;fill:color(display-p3 0.1608 0.1765 0.1961);fill-opacity:1;"/>
</svg>
