<svg width="20" height="20" viewBox="0 0 20 20" fill="none" xmlns="http://www.w3.org/2000/svg">
<path d="M9.10459 3.48362C9.47143 2.74045 10.5312 2.74045 10.898 3.48362L12.3439 6.41275C12.4894 6.7076 12.7706 6.91206 13.0959 6.95961L16.3309 7.43244C17.1508 7.55229 17.4775 8.56013 16.884 9.13829L14.5448 11.4167C14.3089 11.6464 14.2012 11.9775 14.2569 12.3021L14.8087 15.5196C14.9488 16.3366 14.0913 16.9595 13.3577 16.5737L10.4668 15.0534C10.1754 14.9002 9.82723 14.9002 9.53585 15.0534L6.64493 16.5737C5.9113 16.9595 5.05376 16.3366 5.19387 15.5196L5.74572 12.3021C5.80138 11.9775 5.69372 11.6464 5.45785 11.4167L3.11865 9.13829C2.52506 8.56013 2.85184 7.55229 3.67175 7.43244L6.90667 6.95961C7.23202 6.91206 7.51321 6.7076 7.65875 6.41275L9.10459 3.48362Z" fill="#FFB800" style="fill:#FFB800;fill:color(display-p3 1.0000 0.7200 0.0000);fill-opacity:1;"/>
</svg>
