<svg width="9" height="9" viewBox="0 0 9 9" fill="none" xmlns="http://www.w3.org/2000/svg">
<g opacity="0.5">
<path d="M8.94537 2.74208C7.76664 4.77238 6.58068 6.80388 5.38752 8.83659C5.27927 8.78968 5.16381 8.73916 5.05195 8.69947L4.77051 8.58039C5.9757 6.5128 7.18088 4.438 8.4005 2.37402C8.51412 2.43571 8.62377 2.5044 8.72885 2.5797C8.80102 2.63022 8.87681 2.68796 8.94537 2.74208Z" fill="white" style="fill:white;fill-opacity:1;"/>
<path d="M7.50869 1.89716C6.23495 3.95752 5.03336 6.072 3.91838 8.22258C3.71271 8.14319 3.51427 8.0566 3.30859 7.96279C4.42718 5.79778 5.62996 3.67606 6.91694 1.59766C7.1154 1.69147 7.31023 1.79251 7.50869 1.89716Z" fill="white" style="fill:white;fill-opacity:1;"/>
<path d="M5.75181 1.04602C4.61638 3.21103 3.47857 5.37603 2.33833 7.54104L1.72852 7.27042C2.85913 5.10541 3.99335 2.9404 5.13118 0.775391C5.34408 0.869208 5.55335 0.959416 5.75181 1.04602Z" fill="white" style="fill:white;fill-opacity:1;"/>
<path d="M3.67691 0.227328C2.62567 2.39234 1.6021 4.57298 0.6062 6.76926C0.400524 6.68266 0.198459 6.58523 0 6.49503C0.988687 4.33002 1.99541 2.16501 3.04183 0C3.22225 0.0577336 3.40269 0.115467 3.5795 0.180417C3.61343 0.192828 3.64604 0.208541 3.67691 0.227328Z" fill="white" style="fill:white;fill-opacity:1;"/>
</g>
</svg>
