<svg width="53" height="12" viewBox="0 0 53 12" fill="none" xmlns="http://www.w3.org/2000/svg">
<g opacity="0.5">
<path d="M0 5.03711C0.160394 6.33814 0.391666 7.62945 0.692797 8.90527L1.28096 8.93773C0.97694 7.66093 0.743248 6.36841 0.580939 5.06598L0 5.03711Z" fill="white" style="fill:white;fill-opacity:1;"/>
<path d="M1.48358 5.13867C1.664 6.41843 1.8769 7.69458 2.12227 8.96712L2.70682 9.0032C2.46626 7.73306 2.25097 6.45691 2.06093 5.17475L1.48358 5.13867Z" fill="white" style="fill:white;fill-opacity:1;"/>
<path d="M5.30083 9.4358L5.89261 9.4791C5.61116 8.08989 5.39827 6.68625 5.24311 5.27539H4.66937C4.82092 6.67062 5.03141 8.05742 5.30083 9.4358Z" fill="white" style="fill:white;fill-opacity:1;"/>
<path d="M7.17347 9.56976L7.75441 9.60224C7.48739 8.18055 7.2745 6.74442 7.12295 5.30469H6.56366C6.69717 6.73359 6.9245 8.15889 7.17347 9.56976Z" fill="white" style="fill:white;fill-opacity:1;"/>
<path d="M9.17233 9.65906L9.74968 9.68432C9.53318 8.24098 9.3311 6.75796 9.15429 5.29297C8.96305 5.29297 8.7718 5.29297 8.58417 5.29297C8.76098 6.75435 8.95944 8.21211 9.17233 9.65906Z" fill="white" style="fill:white;fill-opacity:1;"/>
<path d="M12.5858 9.70285H13.1523C13.0176 8.20178 12.8264 6.71034 12.5786 5.22852L12.0013 5.25016C12.2575 6.72598 12.4487 8.21261 12.5858 9.70285Z" fill="white" style="fill:white;fill-opacity:1;"/>
<path d="M15.6605 9.64498C15.8553 9.64498 16.043 9.64498 16.2378 9.64498C16.0836 8.93035 15.9704 8.2075 15.8986 7.47997C15.8012 6.69335 15.7074 5.91035 15.6172 5.12012C15.4295 5.12012 15.2347 5.14175 15.0471 5.14536L15.3538 7.6712C15.4216 8.33401 15.524 8.99284 15.6605 9.64498Z" fill="white" style="fill:white;fill-opacity:1;"/>
<path d="M16.8117 5.04084C17.0535 6.55995 17.2952 8.08267 17.5334 9.59457H18.1035C17.8629 8.07425 17.6224 6.55275 17.3818 5.03002C17.1906 5.02642 16.9993 5.03723 16.8117 5.04084Z" fill="white" style="fill:white;fill-opacity:1;"/>
<path d="M21.3826 9.43988L21.9455 9.411C21.8515 7.84385 21.6429 6.2857 21.3213 4.74902C21.13 4.74902 20.9604 4.77788 20.7512 4.78871C21.0731 6.32191 21.2842 7.87633 21.3826 9.43988Z" fill="white" style="fill:white;fill-opacity:1;"/>
<path d="M24.3529 9.25495C24.5405 9.25495 24.7354 9.2297 24.9194 9.21527C24.6957 7.64924 24.472 6.076 24.2555 4.52441C24.0715 4.54606 23.8946 4.56411 23.6926 4.57494C23.9043 6.12893 24.1244 7.68893 24.3529 9.25495Z" fill="white" style="fill:white;fill-opacity:1;"/>
<path d="M26.3306 9.10423L26.5796 9.08258C26.6906 9.0725 26.8025 9.08602 26.9079 9.12227C26.6986 7.52257 26.4677 5.92647 26.2151 4.33398C26.0275 4.35563 25.8543 4.37008 25.6486 4.38812C25.9012 5.95895 26.1285 7.53099 26.3306 9.10423Z" fill="white" style="fill:white;fill-opacity:1;"/>
<path d="M30.1548 9.55085C30.3027 9.26579 30.4579 8.99157 30.6311 8.72455C30.4435 7.13688 30.2186 5.55161 29.9563 3.96875L29.3898 4.03009C29.6977 5.86313 29.9527 7.70338 30.1548 9.55085Z" fill="white" style="fill:white;fill-opacity:1;"/>
<path d="M33.8034 6.94586C34.0026 6.97409 34.197 7.02994 34.3808 7.11183C34.2473 5.92108 34.0813 4.73394 33.8756 3.55762L33.3127 3.61895C33.522 4.70507 33.6771 5.83449 33.8034 6.94586Z" fill="white" style="fill:white;fill-opacity:1;"/>
<path d="M36.0835 11.7559C36.2546 11.6257 36.4128 11.4795 36.5562 11.3194C36.5562 11.3013 36.5887 11.2796 36.6103 11.2616C36.3698 8.61549 36.0595 5.96936 35.6794 3.32324C35.4954 3.3485 35.3185 3.37016 35.1201 3.39903C35.3907 5.24289 35.6253 7.09758 35.8201 8.94867C35.8454 9.17238 35.867 9.3997 35.8887 9.61981C35.9608 10.3415 36.0294 11.0451 36.0835 11.7559Z" fill="white" style="fill:white;fill-opacity:1;"/>
<path d="M38.9093 7.18047L39.4614 7.05419C39.3363 5.66137 39.1427 4.27938 38.8805 2.9082L38.3176 2.99119C38.5854 4.37673 38.7829 5.77495 38.9093 7.18047Z" fill="white" style="fill:white;fill-opacity:1;"/>
<path d="M41.182 6.64956C41.3696 6.60987 41.5428 6.55936 41.7413 6.51606C41.6006 5.18458 41.4057 3.86031 41.1676 2.54688C40.9799 2.57935 40.8067 2.61183 40.6047 2.63708C40.8428 3.983 41.0449 5.30726 41.182 6.64956Z" fill="white" style="fill:white;fill-opacity:1;"/>
<path d="M42.6143 6.29988C42.7947 6.25658 42.9751 6.20608 43.1663 6.15556C43.0906 5.4808 43.0112 4.80242 42.9354 4.13126C42.8897 3.51317 42.8053 2.89856 42.6828 2.29102L42.1271 2.38845C42.2545 3.02469 42.3425 3.66819 42.3905 4.31529C42.4627 4.97562 42.5349 5.63595 42.6143 6.29988Z" fill="white" style="fill:white;fill-opacity:1;"/>
<path d="M45.1439 5.64307C45.3243 5.59616 45.5048 5.54926 45.6996 5.49153C45.6462 4.24897 45.4966 3.01241 45.2521 1.79297L44.9346 1.86153L44.6965 1.90844C44.9412 3.14001 45.0907 4.38856 45.1439 5.64307Z" fill="white" style="fill:white;fill-opacity:1;"/>
<path d="M46.8802 5.17469L47.4323 5.01954C47.2904 3.81676 47.0968 2.62599 46.8514 1.44727C46.671 1.49417 46.4906 1.53388 46.3029 1.56996C46.5483 2.76071 46.7395 3.98394 46.8802 5.17469Z" fill="white" style="fill:white;fill-opacity:1;"/>
<path d="M49.8892 4.34403L50.4448 4.18887C50.3897 3.01444 50.2474 1.84572 50.019 0.692383C49.8386 0.746508 49.6582 0.793425 49.467 0.836726C49.6977 1.99323 49.8388 3.16581 49.8892 4.34403Z" fill="white" style="fill:white;fill-opacity:1;"/>
<path d="M52.4075 3.62277L52.9596 3.464C52.9055 2.85419 52.8116 2.24077 52.7395 1.63457C52.6709 1.0861 52.606 0.552077 52.5374 0L51.9817 0.155156C52.0467 0.638675 52.1044 1.11859 52.1621 1.5985C52.2415 2.26604 52.357 2.9408 52.4075 3.62277Z" fill="white" style="fill:white;fill-opacity:1;"/>
</g>
</svg>
