<svg width="51" height="11" viewBox="0 0 51 11" fill="none" xmlns="http://www.w3.org/2000/svg">
<g opacity="0.5">
<path d="M29.4473 4.47436C29.2091 4.90014 28.9673 5.32231 28.7256 5.74448C36.2244 4.81781 43.636 3.28651 50.8881 1.16551C50.8881 0.77581 50.8881 0.389702 50.8881 0C47.424 1.01034 43.9264 1.88836 40.395 2.63409C36.7554 3.39665 33.1061 4.01009 29.4473 4.47436Z" fill="#3F89FF" style="fill:#3F89FF;fill:color(display-p3 0.2471 0.5373 1.0000);fill-opacity:1;"/>
<path d="M0 4.56445C0.093817 4.9722 0.184021 5.36911 0.288663 5.77324C3.17535 6.27739 6.09512 6.56924 9.02448 6.64645C13.0478 6.77996 17.0891 6.71141 21.116 6.45161L21.5382 5.80573C21.6609 5.61448 21.7872 5.41964 21.8991 5.22479C20.7588 5.30898 19.6174 5.37634 18.4747 5.42685C12.3369 5.71552 6.06202 5.73356 0 4.56445Z" fill="#3F89FF" style="fill:#3F89FF;fill:color(display-p3 0.2471 0.5373 1.0000);fill-opacity:1;"/>
<path d="M27.2315 8.20168C26.9789 8.60942 26.7191 9.02078 26.4629 9.42491C28.4042 9.21803 30.3383 8.97748 32.2651 8.70324C35.9998 8.1656 39.7164 7.47277 43.3788 6.58151C45.1289 6.15572 46.8717 5.69026 48.5929 5.17427C49.3687 4.94694 50.1337 4.70518 50.877 4.40569C50.877 4.00516 50.877 3.60463 50.877 3.2041C49.6615 3.68883 48.4165 4.09618 47.1496 4.42372C45.1794 4.98422 43.1972 5.48457 41.203 5.92479C36.59 6.93336 31.9261 7.69343 27.2315 8.20168Z" fill="#3F89FF" style="fill:#3F89FF;fill:color(display-p3 0.2471 0.5373 1.0000);fill-opacity:1;"/>
<path d="M0.869293 8.10742C0.973935 8.51517 1.08219 8.92653 1.19044 9.33788C4.20711 9.99889 7.28547 10.3375 10.3737 10.3482C13.1269 10.3807 15.8836 10.2616 18.6368 10.0812C18.9182 9.68426 19.1925 9.29093 19.4667 8.89041C13.2892 9.31258 6.9241 9.61571 0.869293 8.10742Z" fill="#3F89FF" style="fill:#3F89FF;fill:color(display-p3 0.2471 0.5373 1.0000);fill-opacity:1;"/>
</g>
</svg>
