<svg width="67" height="25" viewBox="0 0 67 25" fill="none" xmlns="http://www.w3.org/2000/svg">
<g opacity="0.5">
<path d="M66.1482 17.1325C65.4877 19.831 64.583 22.4639 63.4456 24.9987C63.2832 24.6378 63.11 24.277 62.9368 23.9162C62.9695 23.8246 62.9783 23.7262 62.9626 23.6303C62.9468 23.5343 62.9069 23.444 62.8466 23.3677C63.8701 20.9953 64.6464 18.5238 65.1632 15.9922C65.8127 12.6653 65.4987 9.33483 63.0162 6.82342C60.8007 4.5682 57.6794 3.529 54.6773 2.81094C45.2803 0.575423 35.4811 0.653431 26.1208 3.03826C23.1404 3.74679 20.262 4.83071 17.5546 6.26411C15.1699 7.59971 12.9604 9.22631 10.9766 11.1065C7.21309 14.6319 4.1929 18.9186 1.74283 23.4507C1.15828 23.6888 0.577336 23.9486 0 24.212C0.00881116 24.1587 0.0271424 24.1073 0.054123 24.0605C3.03462 18.2871 6.8739 12.8457 11.9148 8.66728C14.1232 6.82528 16.5686 5.28766 19.1856 4.09551C22.2634 2.78464 25.4761 1.81658 28.7657 1.20883C35.4175 -0.134462 42.2466 -0.360079 48.9725 0.541272C52.303 0.992316 55.7309 1.62377 58.863 2.83979C61.5909 3.92229 64.1276 5.64708 65.5637 8.25231C67.0792 10.9477 66.8483 14.2025 66.1482 17.1325Z" fill="white" style="fill:white;fill-opacity:1;"/>
<path d="M62.6742 17.7711C62.3887 19.2176 61.9558 20.631 61.3824 21.9893C61.0613 21.7259 60.7401 21.4697 60.4046 21.2207C61.0475 19.5872 61.4874 17.8809 61.7144 16.1402C62.0752 13.47 62.0752 10.4534 59.5494 8.82604C57.3844 7.41518 54.6456 6.60692 52.1523 6.01515C49.5361 5.41306 46.8706 5.05073 44.1886 4.93264C41.4909 4.81535 38.7887 4.85149 36.0951 5.04089C33.4168 5.18311 30.7492 5.48312 28.1062 5.93937C23.4824 6.8193 19.1723 8.90278 15.6105 11.9797C12.601 14.5948 10.0038 17.6494 7.90671 21.0403C7.30051 21.246 6.70152 21.4589 6.10254 21.6826C8.87014 17.0242 12.3775 12.7086 16.7869 9.51523C18.7006 8.1188 20.7851 6.9729 22.9896 6.10536C25.6023 5.16477 28.3225 4.55502 31.0867 4.29035C36.7518 3.63724 42.5685 3.35579 48.2372 4.08828C51.0341 4.4332 53.783 5.0929 56.4318 6.05484C58.7628 6.92445 61.4474 7.97447 62.4938 10.4209C63.4608 12.6653 63.1577 15.4365 62.6742 17.7711Z" fill="white" style="fill:white;fill-opacity:1;"/>
</g>
</svg>
