<svg width="315" height="492" viewBox="0 0 315 492" fill="none" xmlns="http://www.w3.org/2000/svg">
<g filter="url(#filter0_ddddd_1_1799)">
<circle cx="159.6" cy="143.185" r="101.713" fill="black" style="fill:black;fill-opacity:1;"/>
<path d="M112.204 133.424C113.601 131.56 115.444 130.093 117.735 129.022C120.025 127.951 122.592 127.416 125.436 127.417C128.027 127.417 130.335 127.847 132.358 128.708C134.381 129.569 135.974 130.762 137.136 132.285C138.298 133.808 138.879 135.58 138.879 137.603C138.888 138.695 138.728 139.783 138.403 140.826C138.085 141.821 137.545 142.808 136.785 143.785C136.024 144.763 134.985 145.816 133.666 146.944C132.345 148.073 130.682 149.356 128.677 150.794L121.429 156.01L121.404 156.212H135.592L133.887 164.238H105.615L107.224 156.943L121.797 146.284C123.101 145.314 124.188 144.478 125.058 143.775C125.794 143.196 126.487 142.563 127.129 141.881C127.639 141.321 127.999 140.787 128.208 140.281C128.417 139.767 128.524 139.218 128.521 138.663C128.535 138.058 128.364 137.463 128.032 136.957C127.694 136.462 127.225 136.071 126.678 135.828C126.05 135.55 125.37 135.413 124.683 135.427C123.854 135.415 123.032 135.586 122.276 135.928C121.558 136.261 120.937 136.77 120.47 137.408C119.984 138.06 119.65 138.863 119.467 139.816H109.883C110.034 137.419 110.808 135.289 112.204 133.424Z" fill="url(#paint0_linear_1_1799)"/>
<path d="M156.737 158.869H138.803L140.609 149.664C141.379 148.593 142.163 147.532 142.962 146.479C143.762 145.426 144.59 144.355 145.446 143.268C146.298 142.181 147.193 141.061 148.129 139.906C149.066 138.752 150.056 137.552 151.102 136.308C152.147 135.062 153.255 133.754 154.426 132.382C155.597 131.011 156.842 129.565 158.163 128.043H173.338L168.496 150.743H172.811L171.08 158.869H166.766L165.637 164.235H155.608L156.737 158.869ZM149.463 151.144H158.694L162.054 135.342H161.854C161.201 136.078 160.519 136.862 159.809 137.695C159.099 138.528 158.377 139.393 157.644 140.291C156.909 141.186 156.177 142.088 155.45 142.999C154.723 143.911 154.012 144.821 153.318 145.729C152.624 146.64 151.955 147.535 151.311 148.413C150.667 149.291 150.061 150.131 149.492 150.934L149.463 151.144Z" fill="url(#paint1_linear_1_1799)"/>
<path d="M181.545 128.045H191.428L188.699 140.737H188.899C189.881 139.281 191.197 138.081 192.737 137.238C194.258 136.409 195.98 135.996 197.904 135.996C199.592 135.996 201.067 136.318 202.328 136.962C203.543 137.562 204.564 138.492 205.275 139.646C205.977 140.792 206.328 142.134 206.328 143.672C206.327 144.216 206.298 144.76 206.241 145.301C206.178 145.892 206.082 146.478 205.952 147.058L202.34 164.239H192.48L195.766 148.587C195.827 148.289 195.874 147.988 195.904 147.684C195.929 147.417 195.941 147.149 195.941 146.882C195.951 146.432 195.86 145.986 195.676 145.576C195.491 145.166 195.218 144.802 194.876 144.511C194.165 143.884 193.266 143.57 192.18 143.57C191.404 143.568 190.64 143.762 189.959 144.135C189.261 144.515 188.657 145.047 188.191 145.691C187.695 146.374 187.353 147.157 187.188 147.986L183.751 164.239H173.844L181.545 128.045Z" fill="url(#paint2_linear_1_1799)"/>
<path d="M170.337 60.2725H170.336C169.354 60.2725 168.559 61.0681 168.559 62.0495V72.6759C168.559 73.6573 169.354 74.453 170.336 74.453H170.337C171.318 74.453 172.114 73.6573 172.114 72.6759V62.0495C172.114 61.0681 171.318 60.2725 170.337 60.2725Z" fill="url(#paint3_linear_1_1799)"/>
<path d="M80.7891 149.821V149.823C80.7891 150.804 81.5847 151.6 82.5662 151.6H93.1925C94.174 151.6 94.9696 150.804 94.9696 149.823V149.821C94.9696 148.84 94.174 148.044 93.1925 148.044H82.5662C81.5847 148.044 80.7891 148.84 80.7891 149.821Z" fill="url(#paint4_linear_1_1799)"/>
<path d="M170.339 239.372H170.34C171.322 239.372 172.117 238.576 172.117 237.595V226.969C172.117 225.987 171.322 225.192 170.34 225.192H170.339C169.357 225.192 168.562 225.987 168.562 226.969V237.595C168.562 238.576 169.357 239.372 170.339 239.372Z" fill="url(#paint5_linear_1_1799)"/>
<path d="M259.887 149.822V149.821C259.887 148.84 259.091 148.044 258.11 148.044H247.483C246.502 148.044 245.706 148.84 245.706 149.821V149.822C245.706 150.804 246.502 151.599 247.483 151.599H258.11C259.091 151.599 259.887 150.804 259.887 149.822Z" fill="url(#paint6_linear_1_1799)"/>
<path d="M86.2491 141.892C86.201 141.892 86.1517 141.892 86.1024 141.883C85.9278 141.864 85.7587 141.811 85.6047 141.727C85.4507 141.642 85.3149 141.528 85.2049 141.391C85.0949 141.255 85.013 141.097 84.9638 140.929C84.9146 140.76 84.899 140.584 84.9181 140.409C87.0368 121.096 95.6413 103.072 109.326 89.2805C123.011 75.4891 140.968 66.7453 160.264 64.4771C160.442 64.4511 160.622 64.4608 160.796 64.5059C160.969 64.5509 161.132 64.6302 161.274 64.7392C161.416 64.8482 161.535 64.9846 161.623 65.1404C161.711 65.2961 161.768 65.468 161.788 65.6459C161.809 65.8238 161.794 66.0041 161.744 66.176C161.694 66.3479 161.61 66.508 161.496 66.6468C161.383 66.7856 161.243 66.9003 161.085 66.984C160.927 67.0678 160.753 67.1189 160.575 67.1343C141.88 69.3308 124.482 77.8016 111.223 91.1632C97.9645 104.525 89.6284 121.987 87.5765 140.699C87.5407 141.026 87.3855 141.329 87.1406 141.549C86.8957 141.769 86.5783 141.891 86.2491 141.892Z" fill="#C7DDD5" style="fill:#C7DDD5;fill:color(display-p3 0.7804 0.8667 0.8353);fill-opacity:1;"/>
<path d="M161.071 235.248C161.022 235.248 160.973 235.248 160.924 235.241C141.611 233.122 123.587 224.518 109.796 210.832C96.0043 197.147 87.2609 179.19 84.9934 159.894C84.9523 159.541 85.0528 159.187 85.2727 158.909C85.4927 158.631 85.8141 158.452 86.1663 158.41C86.5185 158.369 86.8727 158.47 87.1508 158.69C87.4289 158.91 87.6083 159.231 87.6494 159.583C89.8459 178.278 98.3167 195.676 111.678 208.935C125.04 222.193 142.503 230.53 161.214 232.581C161.555 232.617 161.869 232.782 162.092 233.043C162.315 233.304 162.429 233.64 162.41 233.983C162.392 234.325 162.243 234.648 161.993 234.883C161.744 235.119 161.414 235.249 161.071 235.248Z" fill="#C7DDD5" style="fill:#C7DDD5;fill:color(display-p3 0.7804 0.8667 0.8353);fill-opacity:1;"/>
<path d="M180.25 235.171C179.908 235.172 179.579 235.042 179.33 234.807C179.081 234.573 178.932 234.252 178.912 233.911C178.893 233.569 179.005 233.234 179.225 232.972C179.446 232.711 179.758 232.544 180.097 232.506C198.792 230.309 216.19 221.839 229.449 208.477C242.707 195.116 251.043 177.653 253.096 158.942C253.11 158.764 253.16 158.59 253.242 158.431C253.325 158.273 253.439 158.132 253.577 158.018C253.714 157.904 253.874 157.819 254.045 157.767C254.217 157.716 254.397 157.699 254.575 157.719C254.752 157.738 254.925 157.793 255.081 157.88C255.237 157.967 255.375 158.085 255.485 158.226C255.595 158.367 255.675 158.529 255.722 158.702C255.768 158.874 255.78 159.055 255.755 159.232C253.638 178.546 245.034 196.572 231.349 210.365C217.663 224.157 199.706 232.902 180.409 235.171C180.356 235.174 180.303 235.174 180.25 235.171Z" fill="#C7DDD5" style="fill:#C7DDD5;fill:color(display-p3 0.7804 0.8667 0.8353);fill-opacity:1;"/>
<path d="M254.352 141.242C254.025 141.24 253.71 141.119 253.466 140.902C253.223 140.684 253.067 140.384 253.029 140.06C250.833 121.365 242.362 103.968 229.001 90.7089C215.639 77.4502 198.177 69.1139 179.466 67.0618C179.291 67.0427 179.122 66.9895 178.968 66.9051C178.814 66.8208 178.678 66.7069 178.568 66.57C178.458 66.4331 178.376 66.2759 178.327 66.1074C178.278 65.9388 178.262 65.7622 178.281 65.5877C178.3 65.4131 178.354 65.244 178.438 65.0901C178.522 64.9361 178.636 64.8002 178.773 64.6902C178.91 64.5803 179.067 64.4983 179.236 64.4491C179.404 64.3999 179.581 64.3844 179.755 64.4034C199.069 66.5215 217.093 75.1259 230.884 88.8111C244.676 102.496 253.419 120.454 255.686 139.75C255.727 140.102 255.627 140.456 255.406 140.734C255.186 141.013 254.865 141.192 254.513 141.233C254.459 141.239 254.405 141.242 254.352 141.242Z" fill="#C7DDD5" style="fill:#C7DDD5;fill:color(display-p3 0.7804 0.8667 0.8353);fill-opacity:1;"/>
<path d="M240.849 58.8441L196.429 79.8359C192.917 81.4963 189.088 78.2476 190.149 74.5119L194.324 59.8432C145.142 47.1104 94.5228 76.087 80.8449 125.389C67.0756 175.038 95.8743 226.258 145.447 240.307C164.742 245.809 185.299 244.928 204.052 237.794C204.806 237.519 205.639 237.555 206.367 237.894C207.095 238.233 207.659 238.847 207.934 239.601C208.209 240.355 208.173 241.188 207.834 241.916C207.496 242.644 206.882 243.208 206.127 243.483C184.624 251.209 160.614 252.586 136.954 246.026C75.6989 229.04 40.0649 165.706 57.3703 104.544C74.6095 43.638 137.989 8.28892 198.848 25.6112L203.673 26.983L207.855 12.2855C208.918 8.54983 213.885 7.80437 215.999 11.0639L242.716 52.2949C243.067 52.8362 243.298 53.4463 243.393 54.0843C243.489 54.7223 243.447 55.3733 243.27 55.9937C243.093 56.614 242.786 57.1894 242.368 57.681C241.95 58.1727 241.432 58.5692 240.849 58.8441Z" fill="url(#paint7_linear_1_1799)"/>
</g>
<defs>
<filter id="filter0_ddddd_1_1799" x="0" y="0" width="314.313" height="491.212" filterUnits="userSpaceOnUse" color-interpolation-filters="sRGB">
<feFlood flood-opacity="0" result="BackgroundImageFix"/>
<feColorMatrix in="SourceAlpha" type="matrix" values="0 0 0 0 0 0 0 0 0 0 0 0 0 0 0 0 0 0 127 0" result="hardAlpha"/>
<feOffset dy="8"/>
<feGaussianBlur stdDeviation="8.5"/>
<feColorMatrix type="matrix" values="0 0 0 0 0.501961 0 0 0 0 0.501961 0 0 0 0 0.501961 0 0 0 0.49 0"/>
<feBlend mode="normal" in2="BackgroundImageFix" result="effect1_dropShadow_1_1799"/>
<feColorMatrix in="SourceAlpha" type="matrix" values="0 0 0 0 0 0 0 0 0 0 0 0 0 0 0 0 0 0 127 0" result="hardAlpha"/>
<feOffset dy="30"/>
<feGaussianBlur stdDeviation="15"/>
<feColorMatrix type="matrix" values="0 0 0 0 0.501961 0 0 0 0 0.501961 0 0 0 0 0.501961 0 0 0 0.43 0"/>
<feBlend mode="normal" in2="effect1_dropShadow_1_1799" result="effect2_dropShadow_1_1799"/>
<feColorMatrix in="SourceAlpha" type="matrix" values="0 0 0 0 0 0 0 0 0 0 0 0 0 0 0 0 0 0 127 0" result="hardAlpha"/>
<feOffset dy="68"/>
<feGaussianBlur stdDeviation="20.5"/>
<feColorMatrix type="matrix" values="0 0 0 0 0.501961 0 0 0 0 0.501961 0 0 0 0 0.501961 0 0 0 0.25 0"/>
<feBlend mode="normal" in2="effect2_dropShadow_1_1799" result="effect3_dropShadow_1_1799"/>
<feColorMatrix in="SourceAlpha" type="matrix" values="0 0 0 0 0 0 0 0 0 0 0 0 0 0 0 0 0 0 127 0" result="hardAlpha"/>
<feOffset dy="120"/>
<feGaussianBlur stdDeviation="24"/>
<feColorMatrix type="matrix" values="0 0 0 0 0.501961 0 0 0 0 0.501961 0 0 0 0 0.501961 0 0 0 0.07 0"/>
<feBlend mode="normal" in2="effect3_dropShadow_1_1799" result="effect4_dropShadow_1_1799"/>
<feColorMatrix in="SourceAlpha" type="matrix" values="0 0 0 0 0 0 0 0 0 0 0 0 0 0 0 0 0 0 127 0" result="hardAlpha"/>
<feOffset dy="188"/>
<feGaussianBlur stdDeviation="26.5"/>
<feColorMatrix type="matrix" values="0 0 0 0 0.501961 0 0 0 0 0.501961 0 0 0 0 0.501961 0 0 0 0.01 0"/>
<feBlend mode="normal" in2="effect4_dropShadow_1_1799" result="effect5_dropShadow_1_1799"/>
<feBlend mode="normal" in="SourceGraphic" in2="effect5_dropShadow_1_1799" result="shape"/>
</filter>
<linearGradient id="paint0_linear_1_1799" x1="161.656" y1="131.911" x2="147.459" y2="182.043" gradientUnits="userSpaceOnUse">
<stop stop-color="#1FD95D" style="stop-color:#1FD95D;stop-color:color(display-p3 0.1216 0.8510 0.3647);stop-opacity:1;"/>
<stop offset="1" stop-color="#04855C" style="stop-color:#04855C;stop-color:color(display-p3 0.0157 0.5216 0.3608);stop-opacity:1;"/>
</linearGradient>
<linearGradient id="paint1_linear_1_1799" x1="161.656" y1="131.91" x2="147.459" y2="182.042" gradientUnits="userSpaceOnUse">
<stop stop-color="#1FD95D" style="stop-color:#1FD95D;stop-color:color(display-p3 0.1216 0.8510 0.3647);stop-opacity:1;"/>
<stop offset="1" stop-color="#04855C" style="stop-color:#04855C;stop-color:color(display-p3 0.0157 0.5216 0.3608);stop-opacity:1;"/>
</linearGradient>
<linearGradient id="paint2_linear_1_1799" x1="161.657" y1="131.911" x2="147.46" y2="182.043" gradientUnits="userSpaceOnUse">
<stop stop-color="#1FD95D" style="stop-color:#1FD95D;stop-color:color(display-p3 0.1216 0.8510 0.3647);stop-opacity:1;"/>
<stop offset="1" stop-color="#04855C" style="stop-color:#04855C;stop-color:color(display-p3 0.0157 0.5216 0.3608);stop-opacity:1;"/>
</linearGradient>
<linearGradient id="paint3_linear_1_1799" x1="170.337" y1="61.3389" x2="170.337" y2="74.5467" gradientUnits="userSpaceOnUse">
<stop stop-color="#1FD95D" style="stop-color:#1FD95D;stop-color:color(display-p3 0.1216 0.8510 0.3647);stop-opacity:1;"/>
<stop offset="1" stop-color="#04855C" style="stop-color:#04855C;stop-color:color(display-p3 0.0157 0.5216 0.3608);stop-opacity:1;"/>
</linearGradient>
<linearGradient id="paint4_linear_1_1799" x1="81.8652" y1="149.823" x2="94.7435" y2="149.823" gradientUnits="userSpaceOnUse">
<stop stop-color="#1FD95D" style="stop-color:#1FD95D;stop-color:color(display-p3 0.1216 0.8510 0.3647);stop-opacity:1;"/>
<stop offset="1" stop-color="#04855C" style="stop-color:#04855C;stop-color:color(display-p3 0.0157 0.5216 0.3608);stop-opacity:1;"/>
</linearGradient>
<linearGradient id="paint5_linear_1_1799" x1="170.339" y1="240.294" x2="170.339" y2="225.009" gradientUnits="userSpaceOnUse">
<stop stop-color="#1FD95D" style="stop-color:#1FD95D;stop-color:color(display-p3 0.1216 0.8510 0.3647);stop-opacity:1;"/>
<stop offset="1" stop-color="#04855C" style="stop-color:#04855C;stop-color:color(display-p3 0.0157 0.5216 0.3608);stop-opacity:1;"/>
</linearGradient>
<linearGradient id="paint6_linear_1_1799" x1="260.761" y1="149.822" x2="242.746" y2="149.822" gradientUnits="userSpaceOnUse">
<stop stop-color="#1FD95D" style="stop-color:#1FD95D;stop-color:color(display-p3 0.1216 0.8510 0.3647);stop-opacity:1;"/>
<stop offset="1" stop-color="#04855C" style="stop-color:#04855C;stop-color:color(display-p3 0.0157 0.5216 0.3608);stop-opacity:1;"/>
</linearGradient>
<linearGradient id="paint7_linear_1_1799" x1="167.867" y1="48.8117" x2="107.196" y2="263.059" gradientUnits="userSpaceOnUse">
<stop stop-color="#1FD95D" style="stop-color:#1FD95D;stop-color:color(display-p3 0.1216 0.8510 0.3647);stop-opacity:1;"/>
<stop offset="1" stop-color="#04855C" style="stop-color:#04855C;stop-color:color(display-p3 0.0157 0.5216 0.3608);stop-opacity:1;"/>
</linearGradient>
</defs>
</svg>
