<svg width="102" height="40" viewBox="0 0 102 40" fill="none" xmlns="http://www.w3.org/2000/svg">
<g opacity="0.5">
<path d="M91.8755 28.0303C91.9657 28.2504 92.0415 28.4633 92.1208 28.6834C91.7095 29.2102 91.2909 29.7334 90.8579 30.2422L90.4971 29.7298C90.9698 29.1777 91.4316 28.6076 91.8755 28.0303Z" fill="#3F89FF" style="fill:#3F89FF;fill:color(display-p3 0.2471 0.5373 1.0000);fill-opacity:1;"/>
<path d="M101.048 12.0847C100.712 13.1022 100.344 14.1126 99.9475 15.1049C98.2135 19.4301 95.9429 23.5203 93.189 27.2794C93.1205 27.0846 93.0411 26.8897 92.9653 26.6949C92.9653 26.6696 92.9473 26.6408 92.9364 26.6155C96.1984 22.0972 98.7536 17.1087 100.514 11.8213C100.68 11.9259 100.868 12.0089 101.048 12.0847Z" fill="#3F89FF" style="fill:#3F89FF;fill:color(display-p3 0.2471 0.5373 1.0000);fill-opacity:1;"/>
<path d="M90.1939 23.9846C89.5372 24.7929 88.8516 25.5795 88.148 26.3409L87.7871 25.8249C88.2273 25.3594 88.6531 24.8795 89.0645 24.3815C89.3495 24.0459 89.631 23.7031 89.9016 23.3604C90.0062 23.5841 90.1001 23.7825 90.1939 23.9846Z" fill="#3F89FF" style="fill:#3F89FF;fill:color(display-p3 0.2471 0.5373 1.0000);fill-opacity:1;"/>
<path d="M97.9164 10.5257C97.6602 11.2221 97.3823 11.9149 97.09 12.5969C95.5504 16.1758 93.5827 19.555 91.2301 22.6605C91.1363 22.4513 91.0425 22.2492 90.9414 22.0435C93.6414 18.4346 95.8105 14.4575 97.3823 10.2334L97.7612 10.4391C97.8104 10.4723 97.8623 10.5012 97.9164 10.5257Z" fill="#3F89FF" style="fill:#3F89FF;fill:color(display-p3 0.2471 0.5373 1.0000);fill-opacity:1;"/>
<path d="M94.9937 8.88378C94.788 9.31678 94.5751 9.74257 94.3514 10.172C92.0748 14.5507 89.1039 18.5317 85.5543 21.9604C85.5218 21.7187 85.4893 21.4733 85.4424 21.2388C85.8249 20.8779 86.1929 20.4918 86.561 20.1021C89.7769 16.696 92.4451 12.8118 94.4705 8.58789C94.6437 8.6781 94.8169 8.78996 94.9937 8.88378Z" fill="#3F89FF" style="fill:#3F89FF;fill:color(display-p3 0.2471 0.5373 1.0000);fill-opacity:1;"/>
<path d="M91.75 6.98589C91.6778 7.12301 91.602 7.25652 91.5227 7.39003C89.6301 10.5639 87.3112 13.4631 84.6307 16.0068C84.5982 15.7867 84.5622 15.5701 84.5225 15.35C84.5242 15.326 84.5242 15.3019 84.5225 15.2779C84.7245 15.0794 84.9302 14.8846 85.1323 14.6789C87.5025 12.2762 89.5576 9.58205 91.2484 6.66113L91.6345 6.89207C91.6748 6.92104 91.7134 6.95237 91.75 6.98589Z" fill="#3F89FF" style="fill:#3F89FF;fill:color(display-p3 0.2471 0.5373 1.0000);fill-opacity:1;"/>
<path d="M88.3938 5.02313C87.0889 7.24707 85.5345 9.31481 83.7607 11.1862C83.756 11.1351 83.7476 11.0844 83.7354 11.0346C83.6921 10.8398 83.6524 10.6449 83.6199 10.4501C85.2331 8.69339 86.66 6.77434 87.8778 4.72363C88.051 4.82106 88.2386 4.91488 88.3938 5.02313Z" fill="#3F89FF" style="fill:#3F89FF;fill:color(display-p3 0.2471 0.5373 1.0000);fill-opacity:1;"/>
<path d="M84.9909 3.21877C84.2403 4.45644 83.5475 5.72297 82.88 7.01115C82.8114 6.70083 82.7429 6.40133 82.6671 6.09823C83.2336 5.03377 83.8218 3.98736 84.4424 2.95898L84.9909 3.21877Z" fill="#3F89FF" style="fill:#3F89FF;fill:color(display-p3 0.2471 0.5373 1.0000);fill-opacity:1;"/>
<path d="M35.5823 8.02846C35.0121 8.0465 34.442 8.05011 33.8791 8.02846C33.7853 7.82279 33.6915 7.6135 33.5977 7.41504C34.1064 7.41504 34.608 7.41504 35.1168 7.41504C35.2647 7.63876 35.4271 7.83361 35.5823 8.02846Z" fill="#3F89FF" style="fill:#3F89FF;fill:color(display-p3 0.2471 0.5373 1.0000);fill-opacity:1;"/>
<path d="M72.1883 0.58455L71.4414 0.829916C71.4811 0.598981 71.5244 0.375262 71.5605 0.151544C71.7193 0.104636 71.8744 0.0541252 72.0332 0C72.0909 0.194851 72.145 0.3897 72.1883 0.58455Z" fill="#3F89FF" style="fill:#3F89FF;fill:color(display-p3 0.2471 0.5373 1.0000);fill-opacity:1;"/>
<path d="M38.5909 11.5077C37.5084 11.5293 36.4259 11.5077 35.3434 11.4536C35.339 11.4362 35.333 11.4193 35.3254 11.403C35.2496 11.2154 35.1738 11.0422 35.0908 10.8438C36.0651 10.9051 37.0502 10.9304 38.0244 10.9159L38.5621 11.4896L38.5909 11.5077Z" fill="#3F89FF" style="fill:#3F89FF;fill:color(display-p3 0.2471 0.5373 1.0000);fill-opacity:1;"/>
<path d="M73.0042 3.82495C72.0709 4.26998 71.1219 4.67893 70.1572 5.0518C70.2691 4.792 70.3701 4.53218 70.4567 4.27238C71.2686 3.94763 72.0733 3.59763 72.8599 3.21875C72.9104 3.42082 72.9573 3.61927 73.0042 3.82495Z" fill="#3F89FF" style="fill:#3F89FF;fill:color(display-p3 0.2471 0.5373 1.0000);fill-opacity:1;"/>
<path d="M43.6972 15.4805C41.4942 15.7083 39.2769 15.765 37.0651 15.6501L36.8125 15.0295C38.796 15.1546 40.7862 15.1317 42.7663 14.9609C43.073 15.1522 43.3833 15.3218 43.6972 15.4805Z" fill="#3F89FF" style="fill:#3F89FF;fill:color(display-p3 0.2471 0.5373 1.0000);fill-opacity:1;"/>
<path d="M73.8047 7.38992C71.9717 8.1585 70.1062 8.88017 68.2334 9.55493L67.4649 9.82555C67.6741 9.54771 67.8726 9.25904 68.0711 8.96677C69.9582 8.28479 71.8274 7.56673 73.6748 6.80176C73.7302 6.9918 73.7735 7.18785 73.8047 7.38992Z" fill="#3F89FF" style="fill:#3F89FF;fill:color(display-p3 0.2471 0.5373 1.0000);fill-opacity:1;"/>
<path d="M50.8452 17.2156C51.6824 17.2156 52.5195 17.2156 53.3494 17.1543C52.7649 17.2842 52.1875 17.4033 51.603 17.5151C48.6261 18.1719 45.66 18.8719 42.629 19.2544C41.2875 19.4356 39.9337 19.5092 38.5805 19.4745C38.5011 19.2652 38.4217 19.0595 38.3387 18.8574C40.235 18.917 42.1324 18.7791 44.0002 18.4461C46.1111 18.0853 48.2075 17.6595 50.3004 17.2012C50.3388 17.2048 50.3774 17.2048 50.4158 17.2012C50.571 17.2156 50.7117 17.2156 50.8452 17.2156Z" fill="#3F89FF" style="fill:#3F89FF;fill:color(display-p3 0.2471 0.5373 1.0000);fill-opacity:1;"/>
<path d="M74.5627 10.9548C72.7585 11.7125 70.9219 12.3981 69.0636 13.0151C66.1228 14.0074 63.1314 14.8482 60.1221 15.5951C60.4829 15.4435 60.8438 15.2776 61.2046 15.0935L61.7783 14.794C62.0381 14.6533 62.2907 14.5054 62.5397 14.3502C66.5949 13.2919 70.5733 11.9585 74.4472 10.3594C74.4833 10.5506 74.5266 10.7491 74.5627 10.9548Z" fill="#3F89FF" style="fill:#3F89FF;fill:color(display-p3 0.2471 0.5373 1.0000);fill-opacity:1;"/>
<path d="M75.2702 14.488C73.2218 15.445 71.1222 16.2883 68.9809 17.0139C63.857 18.7784 58.5563 19.9583 53.2485 21.03C48.8318 21.9176 44.2853 22.8955 39.7605 22.6646L39.7424 22.6104C39.6811 22.4228 39.6089 22.2496 39.544 22.0439C41.741 22.1536 43.9435 22.0424 46.1184 21.712C48.8715 21.3295 51.5922 20.7521 54.3165 20.1928C56.9181 19.6588 59.5053 19.0923 62.0781 18.4284C66.5697 17.3297 70.947 15.8074 75.1511 13.8818L75.2702 14.488Z" fill="#3F89FF" style="fill:#3F89FF;fill:color(display-p3 0.2471 0.5373 1.0000);fill-opacity:1;"/>
<path d="M75.9165 17.8114C74.2206 18.6847 72.4777 19.4677 70.706 20.1713C65.4523 22.2497 59.9459 23.6209 54.4216 24.7359C50.0446 25.6199 45.3718 26.623 40.8939 25.9916C40.8253 25.7715 40.7531 25.5586 40.6846 25.3457C42.8293 25.6405 45.0035 25.6502 47.1507 25.3745C49.9689 25.0606 52.7581 24.4724 55.5221 23.8915C58.232 23.325 60.9346 22.6863 63.5976 21.9214C67.8139 20.7622 71.9006 19.1747 75.7938 17.1836L75.9129 17.7862C75.9129 17.7862 75.9201 17.8114 75.9165 17.8114Z" fill="#3F89FF" style="fill:#3F89FF;fill:color(display-p3 0.2471 0.5373 1.0000);fill-opacity:1;"/>
<path d="M26.3839 12.94C25.5089 12.3244 24.5858 11.7802 23.6235 11.3127C22.1411 10.6169 20.5579 10.1602 18.9326 9.95954L19.9321 9.50488C21.2293 9.73966 22.4923 10.1348 23.692 10.6812C24.4692 11.0374 25.2193 11.4498 25.9364 11.9153C26.0844 12.258 26.2323 12.6009 26.3839 12.94Z" fill="#3F89FF" style="fill:#3F89FF;fill:color(display-p3 0.2471 0.5373 1.0000);fill-opacity:1;"/>
<path d="M28.7699 18.7595C28.5461 18.5863 28.3188 18.4204 28.0915 18.2616C25.5938 16.4753 22.9264 14.9392 20.1279 13.6754C18.7098 13.0403 17.2412 12.481 15.7979 11.9903C15.5561 11.9073 15.3107 11.8243 15.0762 11.7485C15.3396 11.6186 15.6066 11.4959 15.87 11.3877C16.2056 11.4996 16.5448 11.615 16.8767 11.7485C20.9705 13.2034 24.8421 15.2206 28.3802 17.742C28.4992 18.0667 28.6364 18.4059 28.7699 18.7595Z" fill="#3F89FF" style="fill:#3F89FF;fill:color(display-p3 0.2471 0.5373 1.0000);fill-opacity:1;"/>
<path d="M30.5451 23.5157L29.8234 23.0178C24.0212 18.9331 17.4143 16.2413 10.7461 13.8706L11.4678 13.5098C12.3626 13.8237 13.2503 14.152 14.1343 14.4876C18.0894 15.9378 21.9319 17.6782 25.6305 19.6945C27.1903 20.5656 28.7031 21.5183 30.1626 22.5487C30.1626 22.5703 30.1807 22.5884 30.1879 22.6136C30.3286 22.9095 30.4405 23.2234 30.5451 23.5157Z" fill="#3F89FF" style="fill:#3F89FF;fill:color(display-p3 0.2471 0.5373 1.0000);fill-opacity:1;"/>
<path d="M32.9808 30.9235C32.9714 30.9447 32.9605 30.9652 32.9483 30.9848C32.2916 30.3353 31.6024 29.7111 30.8951 29.1157C27.2255 26.0414 22.9568 23.7754 18.6015 21.8413C14.3833 19.9722 10.0605 18.3159 5.76661 16.6344C5.98672 16.5118 6.20683 16.3819 6.42694 16.252C8.55105 17.0891 10.6752 17.931 12.7993 18.7778C17.4901 20.6505 22.2171 22.5918 26.5327 25.2548C28.7302 26.587 30.7857 28.1407 32.6668 29.8915L32.9808 30.9235Z" fill="#3F89FF" style="fill:#3F89FF;fill:color(display-p3 0.2471 0.5373 1.0000);fill-opacity:1;"/>
<path d="M30.8912 34.0199C30.7758 34.1823 30.6495 34.3447 30.5304 34.4998C29.6644 33.9658 28.802 33.4173 27.9432 32.8761C23.5121 30.0507 19.1388 27.1316 14.5923 24.4867C10.7625 22.2091 6.74933 20.255 2.59456 18.6448C2.62888 18.616 2.66504 18.5895 2.70281 18.5654C2.87601 18.4535 3.06364 18.3344 3.22241 18.2334C5.07349 18.9551 6.89571 19.7417 8.67823 20.6149C13.4232 22.9315 17.9156 25.7207 22.3575 28.5533C25.2009 30.3863 28.0226 32.2446 30.8912 34.0199Z" fill="#3F89FF" style="fill:#3F89FF;fill:color(display-p3 0.2471 0.5373 1.0000);fill-opacity:1;"/>
<path d="M18.6912 32.9662C18.6912 33.0709 18.6479 33.1791 18.6263 33.2838C18.6046 33.3884 18.5686 33.5292 18.5433 33.6446C17.9948 33.1286 17.4608 32.6126 16.8871 32.1038C15.0334 30.3937 13.0931 28.7799 11.074 27.2687C7.59395 24.6752 3.88768 22.4 0 20.4705C0.176809 20.3334 0.360836 20.2035 0.544861 20.0664C2.35625 20.9709 4.12675 21.9512 5.85635 23.0072C10.1332 25.6418 14.1366 28.6963 17.8072 32.1255L18.6912 32.9662Z" fill="#3F89FF" style="fill:#3F89FF;fill:color(display-p3 0.2471 0.5373 1.0000);fill-opacity:1;"/>
<path d="M26.1245 39.4617C26.0379 39.5519 25.9513 39.6493 25.8647 39.7359C25.7781 39.8225 25.7601 39.8442 25.706 39.8983C24.5405 39.0431 23.4327 38.0941 22.3466 37.1524C21.5022 36.4018 20.6759 35.6332 19.8496 34.8538C19.8677 34.7456 19.8893 34.641 19.9074 34.5327C19.9254 34.4245 19.9543 34.2837 19.9867 34.1719C21.9307 36.0501 23.98 37.8162 26.1245 39.4617Z" fill="#3F89FF" style="fill:#3F89FF;fill:color(display-p3 0.2471 0.5373 1.0000);fill-opacity:1;"/>
</g>
</svg>
