<svg width="8" height="7" viewBox="0 0 8 7" fill="none" xmlns="http://www.w3.org/2000/svg">
<g opacity="0.5">
<path d="M7.8921 5.81308H7.46993C7.13896 3.85003 6.6895 1.90878 6.12402 1.95778e-05C6.27967 -0.000791163 6.43441 0.0235836 6.58227 0.0721909C7.13058 1.95861 7.56794 3.87553 7.8921 5.81308Z" fill="white" style="fill:white;fill-opacity:1;"/>
<path d="M6.74784 5.84927L6.33287 5.88175C6.10426 3.91602 5.712 1.97278 5.16016 0.0723009C5.30449 0.0506508 5.44162 0.0362157 5.57874 0.0253906C6.12804 1.9312 6.51907 3.87911 6.74784 5.84927Z" fill="white" style="fill:white;fill-opacity:1;"/>
<path d="M4.18261 0.21582L5.15326 5.98918L4.73829 6.03247L3.77126 0.277156L4.18261 0.21582Z" fill="white" style="fill:white;fill-opacity:1;"/>
<path d="M2.74647 0.479492C2.88031 2.39145 3.11034 4.29546 3.43568 6.18429C3.29856 6.18429 3.16144 6.22039 3.02432 6.24203C2.69658 4.35696 2.46415 2.45655 2.32791 0.548052L2.74647 0.479492Z" fill="white" style="fill:white;fill-opacity:1;"/>
<path d="M1.64639 0.681641C1.72337 2.58685 1.88694 4.48603 2.13712 6.37921L1.7294 6.44777C1.47681 4.56422 1.31083 2.67466 1.23145 0.779073C1.36495 0.746598 1.50206 0.706899 1.64639 0.681641Z" fill="white" style="fill:white;fill-opacity:1;"/>
<path d="M0.418581 1.0752C0.418581 2.94071 0.497965 4.79899 0.667558 6.65007C0.573741 6.65007 0.476297 6.68978 0.378872 6.70782H0.259813C0.0974368 4.93251 0.0072167 3.14999 0 1.36747C0.123392 1.24877 0.264641 1.15015 0.418581 1.0752Z" fill="white" style="fill:white;fill-opacity:1;"/>
</g>
</svg>
