<svg width="64" height="30" viewBox="0 0 64 30" fill="none" xmlns="http://www.w3.org/2000/svg">
<g opacity="0.5">
<path d="M2.07812 12.7334C3.47456 13.1267 4.84932 13.5669 6.21328 14.0613C6.24936 14.2886 6.29627 14.5123 6.34678 14.7324C5.23541 14.3259 4.11565 13.9518 2.98744 13.6102C2.94325 13.5505 2.89502 13.4938 2.84309 13.4406C2.59773 13.1989 2.30545 12.9968 2.07812 12.7334Z" fill="white" style="fill:white;fill-opacity:1;"/>
<path d="M1.68882 10.9258C3.14516 11.2443 4.57564 11.6713 5.96831 12.2032C5.98996 12.4197 6.0152 12.6361 6.03685 12.8526C4.60079 12.2939 3.12434 11.8452 1.62024 11.5103C1.61386 11.3132 1.63699 11.1161 1.68882 10.9258Z" fill="white" style="fill:white;fill-opacity:1;"/>
<path d="M0.342773 5.01914C0.422306 4.84064 0.522875 4.67226 0.642294 4.51758C2.54029 5.45936 4.48518 6.32177 6.45895 7.10478C6.34882 7.26777 6.26142 7.44499 6.19916 7.63158C4.21096 6.83775 2.25159 5.97175 0.342773 5.01914Z" fill="white" style="fill:white;fill-opacity:1;"/>
<path d="M0 1.73145C1.03178 2.50372 2.117 3.20187 3.24751 3.82067C4.69085 4.65059 6.13422 5.47691 7.60281 6.31405C7.36597 6.36863 7.14257 6.4705 6.94607 6.61355C5.57129 5.82693 4.18569 5.0367 2.80731 4.24286C2.34303 3.97585 1.88234 3.698 1.42528 3.40934C1.41979 3.28817 1.38712 3.16978 1.32965 3.06297C1.27219 2.95616 1.19142 2.86365 1.09334 2.7923C0.654617 2.52429 0.281113 2.16189 0 1.73145Z" fill="white" style="fill:white;fill-opacity:1;"/>
<path d="M5.04785 0C5.36178 0.0360835 5.67212 0.0865906 5.97883 0.147933C7.65035 2.00416 9.04106 4.09513 10.1068 6.35429C9.88304 6.30739 9.64128 6.27491 9.38509 6.23882C8.26259 3.95218 6.80026 1.84873 5.04785 0Z" fill="white" style="fill:white;fill-opacity:1;"/>
<path d="M9.00293 0.808594L9.61999 0.938489C10.0855 2.86174 11.0633 4.67313 11.4602 6.61802C11.3231 6.58555 11.1824 6.5603 11.0417 6.53504L10.8396 6.49174C10.3994 4.55045 9.43593 2.73906 9.00293 0.808594Z" fill="white" style="fill:white;fill-opacity:1;"/>
<path d="M11.7383 1.21191C11.9367 1.21191 12.1316 1.21191 12.3301 1.21191C12.5337 3.18534 12.8859 5.14061 13.3837 7.06105L12.727 6.89145C12.2698 5.02271 11.9395 3.12521 11.7383 1.21191Z" fill="white" style="fill:white;fill-opacity:1;"/>
<path d="M15.1445 1.22266C15.3502 1.22266 15.5487 1.22264 15.7544 1.25151C16.2102 3.48405 16.4937 5.74836 16.6023 8.02438C16.4039 7.96665 16.2054 7.90169 16.0069 7.83674C15.8912 5.61303 15.6029 3.40169 15.1445 1.22266Z" fill="white" style="fill:white;fill-opacity:1;"/>
<path d="M16.9991 1.41797C17.2072 1.45619 17.4132 1.50557 17.6161 1.5659C18.0418 3.84925 18.2112 6.17299 18.1212 8.49393L17.5439 8.31352C17.6177 6.00193 17.4349 3.68929 16.9991 1.41797Z" fill="white" style="fill:white;fill-opacity:1;"/>
<path d="M20.8134 3.03125C21.0227 3.16476 21.2284 3.3127 21.4268 3.46064C21.5617 5.45101 21.4758 7.45019 21.1706 9.42164C20.9866 9.3603 20.8098 9.30618 20.6113 9.24845C20.9162 7.1906 20.984 5.10455 20.8134 3.03125Z" fill="white" style="fill:white;fill-opacity:1;"/>
<path d="M24.6299 4.37286C24.8356 4.33317 25.0377 4.28264 25.2397 4.22852C24.997 6.33734 24.9198 8.46195 25.0088 10.5828H24.9691L24.4171 10.4205C24.3429 8.40209 24.414 6.38101 24.6299 4.37286Z" fill="white" style="fill:white;fill-opacity:1;"/>
<path d="M26.6155 4.03418C26.8139 4.03418 27.0088 4.03418 27.2072 4.03418C26.9667 6.36998 26.7814 8.713 26.6515 11.0632L26.0742 10.8828C26.1945 8.59994 26.3749 6.31706 26.6155 4.03418Z" fill="white" style="fill:white;fill-opacity:1;"/>
<path d="M30.4257 5.23145C30.6157 5.37379 30.7964 5.52804 30.9669 5.6933C30.7251 7.84027 30.4148 9.98364 30.0287 12.109L29.4658 11.9394C29.87 9.71661 30.1899 7.48065 30.4257 5.23145Z" fill="white" style="fill:white;fill-opacity:1;"/>
<path d="M32.3885 7C32.5594 7.12535 32.7463 7.22729 32.9442 7.30311C32.7457 9.10728 32.4679 10.9403 32.107 12.7156C31.9194 12.6615 31.7282 12.6074 31.5442 12.546C31.9002 10.7178 32.1816 8.86912 32.3885 7Z" fill="white" style="fill:white;fill-opacity:1;"/>
<path d="M35.7228 7.35742C35.8146 7.35925 35.9062 7.36648 35.9971 7.37907C36.1023 7.3929 36.2061 7.41584 36.3074 7.44763C36.1991 8.45436 36.0692 9.45385 35.9465 10.4498C35.7878 11.5323 35.6976 12.6797 35.3259 13.6973L34.7666 13.5313C34.9334 13.015 35.0541 12.4849 35.1274 11.9472C35.2285 11.3446 35.3259 10.742 35.4089 10.1431C35.5135 9.21932 35.6362 8.28838 35.7228 7.35742Z" fill="white" style="fill:white;fill-opacity:1;"/>
<path d="M37.924 8.22656C38.0322 8.29151 38.1333 8.36007 38.2415 8.42863L38.4436 8.54771C37.9793 10.4433 37.4453 12.3208 36.8415 14.1803L36.2822 14.0143C36.9005 12.1019 37.4477 10.1727 37.924 8.22656Z" fill="white" style="fill:white;fill-opacity:1;"/>
<path d="M38.1328 14.5663C38.7708 12.8021 39.5906 11.1091 40.5792 9.51465C40.7764 9.58066 40.9777 9.63369 41.1818 9.67342C40.1723 11.261 39.3409 12.9552 38.7029 14.7251C38.5225 14.6782 38.3277 14.6205 38.1328 14.5663Z" fill="white" style="fill:white;fill-opacity:1;"/>
<path d="M41.377 15.5341C42.18 14.1117 43.0593 12.7337 44.011 11.4061C44.3665 10.897 44.7483 10.4068 45.1549 9.9375C45.3868 9.96011 45.617 9.99747 45.8441 10.0494C45.2968 10.6469 44.7938 11.2837 44.3394 11.9546C43.4826 13.1644 42.6878 14.4169 41.9579 15.7072C41.7703 15.6531 41.5682 15.5954 41.377 15.5341Z" fill="white" style="fill:white;fill-opacity:1;"/>
<path d="M43.1124 16.0607C43.8809 14.6772 44.748 13.3507 45.7068 12.0915C46.1218 11.5539 46.5475 11.009 47.0058 10.4678C47.0383 10.4678 47.0599 10.5075 47.0924 10.5219C47.2279 10.6047 47.3569 10.6976 47.4785 10.7997C46.9552 11.3915 46.4789 12.0266 46.0351 12.6292C45.1712 13.7788 44.3841 14.9842 43.6789 16.2375L43.1124 16.0607Z" fill="white" style="fill:white;fill-opacity:1;"/>
<path d="M46.9121 17.2734C48.1164 15.7497 49.4156 14.3035 50.8019 12.9434C51.0617 12.9758 51.3215 12.9866 51.5849 12.9975C50.117 14.3897 48.753 15.8876 47.5039 17.4791L46.9121 17.2734Z" fill="white" style="fill:white;fill-opacity:1;"/>
<path d="M51.1699 18.8465C52.1658 17.9517 53.1653 17.0592 54.1684 16.1691L55.738 14.7691C55.8607 14.6608 55.9798 14.549 56.0988 14.4443C56.2485 14.5681 56.3907 14.7007 56.5246 14.8413L56.2829 15.0578L54.6591 16.5011C53.674 17.3743 52.6962 18.2584 51.7111 19.1388C51.5379 19.0522 51.3539 18.9403 51.1699 18.8465Z" fill="white" style="fill:white;fill-opacity:1;"/>
<path d="M52.6455 19.7733C53.0674 19.5282 53.4504 19.2218 53.7821 18.864C54.2043 18.4526 54.6229 18.0269 55.0487 17.6083L57.1163 15.5371C57.2318 15.703 57.3378 15.8752 57.4338 16.0531L55.3482 18.1279C54.6481 18.8279 53.9661 19.6578 53.1146 20.1919C52.9688 20.0409 52.812 19.901 52.6455 19.7733Z" fill="white" style="fill:white;fill-opacity:1;"/>
<path d="M54.7208 22.5989C56.881 22.0245 58.971 21.2125 60.9524 20.1777C60.9845 20.3264 61.0279 20.4723 61.0823 20.6144C61.0823 20.654 61.1183 20.6973 61.1436 20.7442C59.1659 21.7725 57.0809 22.5796 54.9264 23.151C54.8687 22.967 54.7965 22.783 54.7208 22.5989Z" fill="white" style="fill:white;fill-opacity:1;"/>
<path d="M55.1504 23.8506C57.5065 23.4986 59.7901 22.7675 61.9124 21.6855C62.0673 21.8156 62.2301 21.9361 62.3996 22.0464L62.4357 22.068C60.2026 23.237 57.7885 24.0213 55.2947 24.3882C55.2514 24.2294 55.2081 24.0346 55.1504 23.8506Z" fill="white" style="fill:white;fill-opacity:1;"/>
<path d="M55.6154 26.1209C58.0907 25.7204 60.7465 25.9766 63.0342 24.9121C62.9909 25.0709 62.9476 25.2224 62.9043 25.374L62.8393 25.6338C60.5949 26.507 58.0691 26.3049 55.6948 26.6946C55.6731 26.5034 55.6479 26.3086 55.6154 26.1209Z" fill="white" style="fill:white;fill-opacity:1;"/>
<path d="M55.8427 28.7151C58.2278 28.9208 60.6923 29.0038 62.962 28.21C63.0448 28.3907 63.1516 28.5594 63.2795 28.7115C60.9124 29.5739 58.3505 29.5126 55.8572 29.3033C55.8572 29.2095 55.8572 29.1193 55.8572 29.0291C55.8572 28.9389 55.8427 28.8198 55.8427 28.7151Z" fill="white" style="fill:white;fill-opacity:1;"/>
<path d="M0.274414 7.42188C2.19536 7.82253 4.08781 8.34928 5.9395 8.99872C5.9395 9.15388 5.91064 9.29821 5.89982 9.44254C5.89982 9.49667 5.89982 9.5508 5.89982 9.60853C4.18273 9.00024 2.43078 8.49537 0.653308 8.09663C0.499887 7.88806 0.372626 7.66145 0.274414 7.42188Z" fill="white" style="fill:white;fill-opacity:1;"/>
</g>
</svg>
