<svg width="51" height="51" viewBox="0 0 51 51" fill="none" xmlns="http://www.w3.org/2000/svg">
<path d="M17.649 11.3568C17.649 11.3568 17.0591 10.3049 16.3401 10.3826C15.6325 10.4591 15.2998 10.8255 15.0788 11.0774C14.8578 11.3293 11.1168 15.1467 11.1168 15.1467C11.1168 15.1467 10.0355 16.3185 10.3388 18.2702C10.6278 20.2233 11.3132 22.9735 13.7248 26.6471C16.1213 30.3135 21.7106 35.7074 25.0628 37.4537C25.0628 37.4537 28.2002 39.3631 30.9939 39.9747C31.8038 40.1369 33.4048 40.2886 33.77 40.2491C34.1409 40.2091 34.7956 40.1383 35.4881 39.5079C36.1927 38.8703 40.1095 34.9574 40.1095 34.9574C40.1095 34.9574 41.057 33.8953 39.7181 32.9244C38.3736 31.9541 34.3882 29.904 33.5225 29.3452C32.6543 28.7766 31.5499 29.1875 31.1072 29.6841C30.6661 30.1835 29.871 31.0127 29.7741 31.117C29.6276 31.2569 29.2326 31.7022 28.7205 31.557C28.069 31.3777 25.3566 30.2637 22.6303 27.2708C19.9186 24.2791 19.5442 23.2458 19.0679 22.137C18.9899 21.9739 18.9691 21.7892 19.0089 21.6129C19.0488 21.4365 19.147 21.2787 19.2876 21.1651C19.6149 20.8815 20.8 19.6551 20.8 19.6551C20.8 19.6551 21.5532 18.7324 21.0949 17.7904C20.6367 16.8485 17.649 11.3568 17.649 11.3568Z" fill="#005F62" style="fill:#005F62;fill:color(display-p3 0.0000 0.3718 0.3846);fill-opacity:1;"/>
</svg>
