<svg width="3" height="3" viewBox="0 0 3 3" fill="none" xmlns="http://www.w3.org/2000/svg">
<path d="M0 1.42864C4.95291e-05 1.6384 0.04302 1.84593 0.126283 2.03846C0.178911 2.17528 0.261536 2.29858 0.368059 2.39929C0.50924 2.54751 0.683635 2.66004 0.876848 2.72764C1.01829 2.78285 1.16883 2.81102 1.32067 2.81065C1.42832 2.80983 1.53574 2.80017 1.64182 2.78177C1.74199 2.7598 1.83982 2.72839 1.93407 2.68795L2.05317 2.63384C2.13977 2.57972 2.22635 2.52558 2.30213 2.46785C2.41572 2.3756 2.51117 2.26304 2.58359 2.13589C2.64228 2.04253 2.68839 1.94182 2.72071 1.83639C2.75011 1.7328 2.76827 1.62634 2.77484 1.51885C2.79111 1.14135 2.66196 0.771989 2.41401 0.48687C2.26678 0.324275 2.08735 0.194031 1.88716 0.104386L1.73564 0.053864C1.63217 0.0244984 1.52557 0.00753507 1.4181 0.00334185C1.29412 -0.00910983 1.16912 0.0133863 1.05727 0.0682895C0.978929 0.0892037 0.901824 0.11451 0.826326 0.144073C0.787277 0.159691 0.749797 0.179015 0.714446 0.201797C0.536311 0.304783 0.381491 0.443628 0.25979 0.609542C0.201141 0.695006 0.152735 0.787048 0.115492 0.88378C0.115492 0.916255 0.0830149 0.959558 0.0685815 0.999249C0.0267078 1.13869 0.00362803 1.2831 0 1.42864Z" fill="#1A3869" style="fill:#1A3869;fill:color(display-p3 0.1020 0.2196 0.4118);fill-opacity:1;"/>
</svg>
