<svg width="58" height="13" viewBox="0 0 58 13" fill="none" xmlns="http://www.w3.org/2000/svg">
<path d="M57.244 11.7066C56.8832 12.735 55.8007 12.5185 54.9383 12.4788C50.5542 12.2984 46.1736 11.9051 41.8292 11.3133C37.4847 10.7215 33.1908 9.89158 28.8644 9.26372C23.9534 8.54205 19.0208 7.98636 14.0702 7.53892C11.6646 7.32242 9.24819 7.13119 6.82098 6.96521C4.68484 6.82087 2.08323 6.9941 0.152759 5.90438C-0.1323 4.77135 -0.0529238 3.59142 0.686787 2.65686C1.53475 1.57436 2.92037 1.00063 4.21576 0.672272C5.91597 0.289718 7.6512 0.0841231 9.39373 0.058826C11.2803 -0.0356158 13.1709 -0.016324 15.0552 0.116572C19.1615 0.412456 23.2498 1.35425 27.302 2.0687C31.6632 2.8457 36.0282 3.61665 40.3967 4.38162L46.9386 5.54354C48.7466 5.81101 50.53 6.22367 52.2717 6.77757C53.8811 7.34769 55.5012 8.18844 56.6017 9.54157C57.0744 10.1225 57.511 10.9236 57.244 11.7066Z" fill="#3F89FF" style="fill:#3F89FF;fill:color(display-p3 0.2471 0.5373 1.0000);fill-opacity:1;"/>
</svg>
