<svg width="44" height="29" viewBox="0 0 44 29" fill="none" xmlns="http://www.w3.org/2000/svg">
<path d="M43.8559 21.0763C41.9255 22.2446 39.8986 23.2454 37.7974 24.0677C36.6572 24.5271 35.5049 24.9373 34.3406 25.2981C33.3544 25.6132 32.3633 25.9031 31.3674 26.1677C29.0797 26.7739 26.7631 27.3513 24.4105 27.7915C21.9974 28.2634 19.5502 28.5398 17.0927 28.6178C16.2484 28.6178 15.4076 28.6178 14.5669 28.5601H14.5452C12.6453 28.444 10.7643 28.1148 8.93788 27.5786L8.77189 27.5281C8.72647 27.5122 8.67915 27.5025 8.63117 27.4992C8.60952 27.4126 8.58065 27.3332 8.55539 27.2502L8.2992 26.4348C8.23064 26.2146 8.15847 26.0017 8.08991 25.7888C7.79403 24.894 7.48732 23.9847 7.16618 23.1151L7.14814 23.0609C7.08679 22.8733 7.01463 22.7001 6.94968 22.4944L6.72235 21.8666C6.4818 21.2171 6.24124 20.57 6.00068 19.9253C5.9213 19.716 5.84191 19.5103 5.75892 19.3083C5.60015 18.8897 5.43056 18.4675 5.26458 18.0526C5.09859 17.6376 4.96148 17.2804 4.80271 16.8979L4.75219 16.8185C4.65477 16.5731 4.56095 16.3314 4.45992 16.0968L4.20733 15.4762C3.72622 14.2903 3.24511 13.0983 2.764 11.9003C2.7596 11.8829 2.75356 11.866 2.74595 11.8498C2.67018 11.6622 2.5944 11.489 2.51141 11.2905C2.42841 11.0921 2.32378 10.825 2.22274 10.5941C1.91964 9.87243 1.61293 9.18684 1.28818 8.49043C1.19436 8.28475 1.10054 8.07547 1.00673 7.87701C0.876826 7.59556 0.746929 7.31412 0.609812 7.03989C0.422178 6.6574 0.220109 6.26048 0 5.85634C0.360835 5.85634 0.73971 5.81304 1.10415 5.78417C1.10298 5.96342 1.16278 6.13773 1.27375 6.27851C1.6851 6.81255 2.10367 7.36102 2.52584 7.88423C2.67379 8.0863 2.83616 8.28115 2.99132 8.476C3.58669 9.22293 4.19651 9.95903 4.82797 10.6771C5.03365 10.9116 5.23571 11.1354 5.44499 11.3627L5.98264 11.9364C6.76325 12.7524 7.59743 13.5155 8.47962 14.2205C9.01373 14.6551 9.57673 15.0529 10.1647 15.4112C10.4714 15.6025 10.7817 15.7721 11.0957 15.9308C11.6708 16.2285 12.2651 16.4876 12.8746 16.7066C14.4224 17.2662 16.0472 17.5839 17.6917 17.6484C17.7301 17.652 17.7688 17.652 17.8072 17.6484C17.9443 17.6484 18.0778 17.6484 18.2185 17.6484C19.0557 17.6484 19.8928 17.6484 20.7227 17.5871C21.9513 17.5052 23.1713 17.3242 24.3708 17.0458C24.3789 17.0428 24.3879 17.0428 24.396 17.0458C25.4564 16.7975 26.4934 16.4582 27.4956 16.0319C27.8564 15.8803 28.2173 15.7143 28.5781 15.5303L29.1518 15.2308C29.4116 15.0901 29.6642 14.9422 29.9132 14.787C31.827 13.6079 33.5006 12.0775 34.8458 10.2766C35.0551 9.99872 35.2535 9.71005 35.452 9.41778L35.4881 9.36367C35.6288 9.14717 35.7732 8.92344 35.9067 8.69972C36.0402 8.476 36.1989 8.21259 36.3361 7.97805C36.7842 7.18104 37.1818 6.35671 37.5268 5.50993C37.6387 5.25013 37.7397 4.99034 37.8263 4.73054C38.2515 3.61304 38.5811 2.46145 38.8114 1.28818C38.8511 1.05725 38.8944 0.833529 38.9305 0.609812C38.9665 0.386094 38.9882 0.205676 39.0171 0L39.2877 0.0216492C39.3274 0.165983 39.3707 0.313911 39.4032 0.458245C39.4356 0.602579 39.515 0.847967 39.5583 1.04282C39.7965 1.91965 40.0166 2.79647 40.2295 3.67691C40.28 3.87897 40.3269 4.07743 40.3738 4.28311C40.5867 5.15993 40.7851 6.03676 40.98 6.9172C41.0089 7.02545 41.0305 7.1373 41.0558 7.25277C41.1015 7.44762 41.1448 7.64609 41.1857 7.84816L41.2398 8.08991C41.4383 8.9956 41.6259 9.89409 41.8099 10.807C41.8532 11.0091 41.8929 11.2075 41.9326 11.4096C42.0264 11.8462 42.1166 12.29 42.2032 12.7266L42.4414 13.9246C42.4703 14.0653 42.4919 14.1988 42.5208 14.336L42.6398 14.9458C42.7409 15.4798 42.8491 16.0283 42.9538 16.5479C42.9862 16.7139 43.0151 16.8762 43.0476 17.0422C43.0801 17.2082 43.1234 17.4355 43.1631 17.6304L43.2821 18.233C43.2821 18.233 43.2821 18.251 43.2821 18.2582C43.4914 19.1964 43.6682 20.1346 43.8559 21.0763Z" fill="white" style="fill:white;fill-opacity:1;"/>
</svg>
