<svg width="95" height="41" viewBox="0 0 95 41" fill="none" xmlns="http://www.w3.org/2000/svg">
<path d="M-19.9991 26.2008C-19.9991 26.2008 -22.0486 17.2846 -14.6696 15.235C-7.2905 13.1855 -4.38218 19.8429 -4.38218 19.8429C-4.38218 19.8429 -8.32971 7.14512 1.17829 4.49298C10.3327 1.96714 14.5616 15.8593 14.5616 15.8593C14.5616 15.8593 15.9184 0.884637 28.4141 0.0511085C44.1465 -0.980879 44.096 13.9577 44.096 13.9577C44.096 13.9577 54.3906 6.0554 64.4831 12.3664C71.9452 17.0392 71.9705 24.4508 71.9705 24.4508C71.9705 24.4508 80.515 7.91008 89.4818 14.7479C94.75 18.764 95.5799 26.8864 92.1628 35.7052C87.0281 48.9478 54.0406 55.5511 31.2214 58.6399C6.14698 62.0461 -10.8195 66.6179 -19.9991 26.2008Z" fill="white" style="fill:white;fill-opacity:1;"/>
</svg>
