<svg width="5" height="13" viewBox="0 0 5 13" fill="none" xmlns="http://www.w3.org/2000/svg">
<path d="M4.30216 11.6924C4.23697 11.7495 4.16827 11.8026 4.09649 11.8512C4.08262 11.8616 4.06816 11.8713 4.05319 11.8801L3.93411 11.945C3.85363 11.9898 3.77048 12.0295 3.68513 12.0641C3.6348 12.09 3.58299 12.1128 3.52997 12.1326L3.43976 12.1615L3.34594 12.1904L3.17997 12.2373C2.97676 12.2871 2.7707 12.3244 2.56294 12.3491H2.44386H2.38613C2.27788 12.3491 2.16962 12.3491 2.06137 12.3491C1.85947 12.3386 1.6583 12.3169 1.45878 12.2842C1.45878 12.2842 1.45879 12.2842 1.43714 12.2842L1.27476 12.2373L1.02578 12.1507L0.906719 12.1002C0.817869 12.0503 0.732289 11.9949 0.650518 11.9342L0.574735 11.8909C0.574735 11.8584 0.574735 11.8223 0.574735 11.7862C0.354626 10.0434 0.138131 8.29336 0.0623556 6.5397C-0.00620303 5.03141 -0.0855787 3.40044 0.228347 1.9138C0.426807 0.964803 0.885067 -0.106887 2.03252 0.00858012C2.08037 0.0157473 2.129 0.0157473 2.17684 0.00858012H2.22375C3.30626 -0.0816286 3.33152 1.18852 3.42895 1.9571C3.59133 3.26332 3.69596 4.58397 3.82947 5.89741C3.96899 7.82426 4.12656 9.75593 4.30216 11.6924Z" fill="#FFB53F" style="fill:#FFB53F;fill:color(display-p3 1.0000 0.7098 0.2471);fill-opacity:1;"/>
</svg>
