<svg width="10" height="7" viewBox="0 0 10 7" fill="none" xmlns="http://www.w3.org/2000/svg">
<path d="M9.74826 5.85488C9.45237 5.82962 9.14927 5.8188 8.84617 5.8188H8.424C8.18585 5.8188 7.94409 5.81879 7.70233 5.84765L7.28736 5.88014C6.89405 5.90901 6.49715 5.94869 6.10745 5.98477L5.69248 6.02807H5.66361C5.23782 6.07137 4.81205 6.1219 4.38987 6.17964C4.25275 6.17964 4.11563 6.21571 3.97851 6.23736C3.68263 6.27705 3.38674 6.32036 3.09085 6.37448L2.68313 6.44304C2.32229 6.50438 1.96146 6.57294 1.62227 6.64511C1.52846 6.64511 1.43101 6.68479 1.33359 6.70283H1.21453C0.813741 6.74123 0.418186 6.82229 0.0345919 6.94461C-0.0607439 5.47026 0.0412 3.98978 0.337703 2.54242C0.427007 2.09844 0.641036 1.68912 0.954716 1.36248C1.07732 1.23994 1.21862 1.13764 1.3733 1.05939C1.43103 1.02692 1.49235 0.99805 1.5573 0.969183C1.76213 0.887689 1.97183 0.818995 2.18517 0.763505C2.31868 0.73103 2.45579 0.691331 2.60012 0.666072C2.82745 0.615555 3.05839 0.575865 3.28572 0.532565L3.70066 0.464006L4.0615 0.399058C4.28522 0.359366 4.50895 0.312448 4.73628 0.276365L5.144 0.200603C5.47236 0.146478 5.79712 0.0923442 6.12187 0.0562607C6.26621 0.0346106 6.40334 0.0201755 6.54045 0.00935042H6.63786C6.78675 -0.00311681 6.93641 -0.00311681 7.0853 0.00935042C7.24094 0.00853967 7.3957 0.0329144 7.54356 0.0815218C7.73314 0.139437 7.90767 0.238299 8.05482 0.37111C8.20197 0.503921 8.31814 0.667438 8.39513 0.850102C9.13724 2.42571 9.59532 4.11998 9.74826 5.85488Z" fill="#1A3869" style="fill:#1A3869;fill:color(display-p3 0.1020 0.2196 0.4118);fill-opacity:1;"/>
</svg>
