<svg width="19" height="40" viewBox="0 0 19 40" fill="none" xmlns="http://www.w3.org/2000/svg">
<path d="M18.1151 34.2689C17.5582 31.1243 16.7928 28.0203 15.8238 24.9774C13.9078 18.8432 11.4288 12.9002 8.85607 7.03667C7.77357 4.59742 6.40601 1.06485 3.63119 0.180807C2.44043 -0.205286 0.989874 -0.0140612 0.336763 1.15504C0.0824542 1.60381 -0.0321091 2.11829 0.0077471 2.63256C0.0476033 3.14684 0.240063 3.63749 0.560479 4.04172C0.60051 4.08292 0.633433 4.13048 0.657906 4.18245H0.675949C2.48012 6.7083 3.60592 9.47591 4.80029 12.3085C6.19792 15.657 7.49332 19.044 8.68648 22.4696C9.28546 24.198 9.85919 25.9408 10.3932 27.6872C10.5448 28.1563 10.6891 28.6218 10.8298 29.0909C11.1017 30.0026 11.3687 30.9155 11.6309 31.8296C12.2912 34.1642 12.6701 37.9638 15.3367 38.9345C16.4913 39.3494 17.6424 38.9345 18.0754 37.7437C18.4759 36.6468 18.3063 35.3766 18.1151 34.2689ZM16.3795 34.7055C16.2343 34.9403 16.0351 35.137 15.7985 35.2792C15.5566 35.4241 15.2806 35.5025 14.9986 35.5063C14.7166 35.5101 14.4386 35.4392 14.1928 35.3008C14.0751 35.2343 13.9691 35.149 13.8789 35.0483C13.7908 34.9494 13.7167 34.8389 13.6588 34.7199C13.541 34.4784 13.4841 34.2118 13.4929 33.9433C13.5017 33.6747 13.576 33.4124 13.7093 33.1791C13.7799 33.0695 13.8622 32.9679 13.9547 32.876C14.0524 32.7863 14.1616 32.7099 14.2794 32.6487L14.366 32.6198C14.3956 32.5941 14.4283 32.5723 14.4634 32.5549C14.7784 32.3946 15.139 32.3474 15.4846 32.4214C15.5573 32.4409 15.6276 32.4687 15.6939 32.5044C15.7619 32.5302 15.8272 32.5629 15.8887 32.6018C16.0392 32.6951 16.1693 32.8179 16.2712 32.9626C16.3795 33.1042 16.4636 33.2627 16.5202 33.4317C16.5667 33.5728 16.5922 33.7199 16.596 33.8683C16.6102 34.1583 16.5346 34.4456 16.3795 34.691V34.7055Z" fill="#FFB53F" style="fill:#FFB53F;fill:color(display-p3 1.0000 0.7098 0.2471);fill-opacity:1;"/>
</svg>
