<svg width="13" height="15" viewBox="0 0 13 15" fill="none" xmlns="http://www.w3.org/2000/svg">
<path d="M0 12.3153C1.14769 12.8188 2.07884 13.7141 2.62689 14.8412C3.74788 13.4531 4.84844 12.0471 5.92853 10.623C7.59078 8.43153 9.18447 6.19675 10.7096 3.91868C10.7485 3.81881 10.8075 3.72794 10.8828 3.65167C11.1245 3.29084 11.3591 2.93 11.6045 2.56917C11.6958 2.41675 11.8437 2.30654 12.0158 2.26246C12.4957 1.48306 12.7375 0.61706 11.9075 0.144367C10.89 -0.432969 9.3817 0.866033 8.70333 1.49389C7.53423 2.60886 6.62135 4.05581 5.62545 5.32956C4.55737 6.6887 3.47487 8.04183 2.37793 9.38895C1.59492 10.356 0.801053 11.3411 0 12.3153Z" fill="#1A3869" style="fill:#1A3869;fill:color(display-p3 0.1020 0.2196 0.4118);fill-opacity:1;"/>
</svg>
