<svg width="83" height="43" viewBox="0 0 83 43" fill="none" xmlns="http://www.w3.org/2000/svg">
<path d="M80.9749 10.9769C80.9194 10.818 80.9194 10.645 80.9749 10.4862C77.6697 8.43301 74.7938 5.58241 73.5273 1.84416C69.9659 0.822998 66.1194 0.527109 62.4605 0.238441C50.1302 -0.687561 37.7465 1.0907 26.175 5.4489C21.5822 7.16433 17.1426 9.26465 12.9035 11.7274C11.5611 15.0832 10.0853 18.5003 7.80125 21.3292C5.80353 23.8286 3.07677 25.6435 0 26.5217C0.176809 27.0629 0.360837 27.6042 0.552079 28.1382C1.13663 29.7728 1.77892 31.3857 2.51141 32.977C4.22538 36.6828 6.76926 40.4643 10.7421 41.9762C12.9323 42.8097 15.3427 42.7845 17.6448 42.5463C19.6848 42.3818 21.702 42.0045 23.6635 41.4205C25.5145 40.8871 27.2132 39.924 28.6214 38.6096C30.0431 37.2024 31.021 35.4234 32.2009 33.8286C33.3746 32.2059 34.9102 30.879 36.6861 29.9532C38.4391 29.1246 40.2889 28.5185 42.1924 28.149C46.3925 27.2217 50.8524 26.5253 55.1825 26.7418C57.1237 26.8356 59.0903 27.2361 60.7646 28.2645C62.3775 29.2568 63.3157 30.8264 64.4848 32.2517C65.1049 33.0363 65.9169 33.6477 66.8422 34.0269C67.7675 34.4061 68.775 34.5404 69.7674 34.4167C71.6321 34.2192 73.4249 33.5891 75.0031 32.5765C78.1657 30.5444 80.4916 27.4424 81.5559 23.837C82.8332 19.6369 82.4183 15.0543 80.9749 10.9769ZM28.4446 24.1582C28.2596 24.2348 28.052 24.2362 27.866 24.162C27.68 24.0879 27.5303 23.9441 27.4487 23.7613C27.3116 23.303 27.1636 22.852 27.0193 22.4009C26.9158 22.0287 26.7512 21.6763 26.5322 21.3581C26.3383 21.1412 26.0887 20.9815 25.8105 20.8962H25.7816C25.7383 20.8962 25.7023 20.8962 25.6554 20.8746C25.572 20.8582 25.4876 20.8474 25.4028 20.8421H25.3523L25.1863 20.8638C25.1059 20.8738 25.0263 20.8895 24.9481 20.9107C24.8854 20.9297 24.8239 20.9526 24.7641 20.9792L24.5873 21.0658C24.4519 21.1474 24.3301 21.2497 24.2264 21.3689C23.9934 21.6381 23.8046 21.9426 23.6672 22.271C23.3404 23.017 23.2388 23.8423 23.3749 24.6453C23.3891 24.7439 23.3838 24.8443 23.3592 24.9408C23.3346 25.0373 23.2912 25.128 23.2316 25.2077C23.172 25.2875 23.0972 25.3547 23.0116 25.4055C22.9259 25.4564 22.8312 25.4899 22.7326 25.5041C22.634 25.5183 22.5336 25.513 22.4371 25.4884C22.3406 25.4638 22.2499 25.4205 22.1702 25.3608C22.0904 25.3012 22.0232 25.2264 21.9724 25.1408C21.9215 25.0552 21.888 24.9604 21.8738 24.8618C21.7171 23.868 21.8228 22.8505 22.1805 21.9102C22.4463 21.1189 22.9396 20.4235 23.5986 19.9112C23.9392 19.6682 24.3255 19.4969 24.7343 19.4076C25.143 19.3183 25.5656 19.3128 25.9765 19.3916C26.3803 19.4749 26.7635 19.6373 27.1042 19.8696C27.4448 20.1018 27.736 20.3992 27.9611 20.7447C28.4121 21.4664 28.6142 22.3648 28.8668 23.1839C28.9343 23.3695 28.9282 23.5739 28.8497 23.7551C28.7712 23.9363 28.6262 24.0806 28.4446 24.1582ZM75.5371 21.2715C75.3639 19.7849 74.7144 17.9843 73.0618 17.7678C72.7395 17.7293 72.4129 17.7823 72.1194 17.9208C71.8258 18.0593 71.5772 18.2776 71.402 18.5508C71.1825 18.8526 71.0075 19.1843 70.8824 19.5359C70.7054 19.8859 70.628 20.2779 70.6587 20.6689C70.8391 21.6324 69.3344 21.8416 69.1612 20.8854C69.0864 20.2583 69.1863 19.6227 69.4499 19.0488C69.6305 18.5431 69.882 18.0656 70.1968 17.6307C70.5168 17.1746 70.9479 16.8077 71.4492 16.5646C71.9505 16.3216 72.5055 16.2103 73.0618 16.2415C73.62 16.2941 74.1607 16.4644 74.6483 16.7412C75.1359 17.018 75.5594 17.3949 75.8908 17.8472C76.5485 18.7941 76.9432 19.8985 77.0346 21.0478C77.1465 22.0221 75.649 22.2386 75.5371 21.2715Z" fill="white" style="fill:white;fill-opacity:1;"/>
</svg>
