<svg width="13" height="41" viewBox="0 0 13 41" fill="none" xmlns="http://www.w3.org/2000/svg">
<path d="M12.167 32.4055C11.9757 30.8864 11.7628 29.3709 11.5427 27.8517C10.6226 21.6923 9.47152 15.5437 7.96684 9.49969C7.79725 8.81411 7.62406 8.10687 7.42199 7.40324C7.25961 6.80787 7.06115 6.20888 6.8663 5.62072C6.43051 4.26885 5.79568 2.98946 4.98274 1.82473C4.23221 0.796351 3.02702 -0.152645 1.66667 0.020556C0.508391 0.157673 -0.328742 1.27266 0.12591 2.39847C0.178355 2.51104 0.19474 2.63706 0.17282 2.7593C0.338804 3.31138 0.501171 3.86706 0.659938 4.41913C0.818706 4.97121 0.959435 5.50163 1.10377 6.03205C2.46772 11.1162 3.50332 16.287 4.51005 21.4577C5.08739 24.4671 5.66111 27.4729 6.28896 30.4786C6.59206 31.9219 6.9084 33.3653 7.23796 34.8086C7.54828 36.1293 7.76117 37.5618 8.30243 38.8031C8.74986 39.8531 9.62668 40.4882 10.7525 39.9938C11.9721 39.4598 12.4556 38.1896 12.5386 36.9267C12.6433 35.4365 12.3618 33.8993 12.167 32.4055ZM10.7561 34.3684C10.7596 34.4153 10.7596 34.4623 10.7561 34.5092C10.7484 34.5727 10.7352 34.6355 10.7164 34.6968C10.6614 34.8441 10.5794 34.98 10.4746 35.0973C10.4654 35.1109 10.4531 35.122 10.4386 35.1298C10.3816 35.1837 10.3187 35.231 10.2509 35.2705C9.97968 35.4121 9.66413 35.4431 9.37049 35.3571C9.11733 35.3577 8.86845 35.2918 8.64883 35.1659C8.44638 35.05 8.2802 34.8801 8.16891 34.6751C8.11158 34.5617 8.07262 34.4399 8.05345 34.3143C8.02802 34.2031 8.01711 34.0891 8.02098 33.9751C8.03763 33.7366 8.11326 33.506 8.24108 33.304C8.36397 33.1018 8.54334 32.94 8.75707 32.8385C8.79618 32.8185 8.83731 32.8028 8.87975 32.7916C8.96088 32.7056 9.05169 32.6293 9.15038 32.5642C9.33501 32.455 9.55036 32.4093 9.76345 32.434C9.97654 32.4588 10.1757 32.5527 10.3303 32.7014C10.5003 32.8801 10.6112 33.1069 10.6479 33.3509C10.6718 33.4698 10.6863 33.5905 10.6912 33.7117C10.6912 33.7442 10.7272 33.7802 10.7381 33.8163C10.7903 33.9959 10.7965 34.1858 10.7561 34.3684Z" fill="#FFB53F" style="fill:#FFB53F;fill:color(display-p3 1.0000 0.7098 0.2471);fill-opacity:1;"/>
</svg>
