<svg width="19" height="17" viewBox="0 0 19 17" fill="none" xmlns="http://www.w3.org/2000/svg">
<path d="M18.8861 16.5587C17.8505 16.2267 16.8041 15.9381 15.7396 15.7035C15.6891 15.2597 15.6277 14.8195 15.5484 14.3829C14.805 10.2585 12.4307 6.9136 8.6492 5.06252C6.11281 3.8826 3.35301 3.26001 0.5557 3.2367C0.5557 3.21505 0.555682 3.1934 0.53764 3.16814V3.12845C0.53764 3.02742 0.559274 2.91915 0.566491 2.81451C0.582677 2.55014 0.582677 2.28505 0.566491 2.02069C0.524573 1.56092 0.427684 1.10785 0.27785 0.671169C0.203992 0.44014 0.11105 0.215633 0 0C0.866004 0.0396918 1.73559 0.111857 2.59438 0.223716C4.03425 0.410685 5.45605 0.717266 6.84503 1.14025C11.2292 2.50781 15.3715 5.3548 17.3417 9.62348C18.306 11.8117 18.8308 14.1681 18.8861 16.5587Z" fill="white" style="fill:white;fill-opacity:1;"/>
</svg>
