<svg width="90" height="101" viewBox="0 0 90 101" fill="none" xmlns="http://www.w3.org/2000/svg">
<path d="M89.5062 47.3776C88.915 38.1166 87.6475 28.9112 85.7138 19.8351C85.5154 18.9222 85.3133 18.0309 85.0968 17.1C83.8916 15.1803 82.5998 13.3148 81.308 11.4565C79.5472 8.93066 77.7827 6.40483 76.0182 3.84651C76.0759 4.29034 76.13 4.73417 76.1842 5.17799C76.3826 6.78731 76.6136 8.4724 76.1192 10.0601C75.3976 12.355 72.5109 14.2927 70.3459 12.4632C69.3464 11.608 68.9855 10.2766 68.6824 9.04974C68.2675 7.38269 67.8814 5.69759 67.5241 4.0197C67.2319 2.68462 66.9504 1.34231 66.6906 0C64.5628 1.24956 62.3304 2.31199 60.0188 3.17534C55.4548 4.83751 50.7426 6.06027 45.9462 6.82699C43.481 7.26676 40.981 7.48175 38.4769 7.46928C36.1751 7.45274 33.8842 7.14972 31.6572 6.5672C32.5083 9.28687 33.1121 12.0778 33.4613 14.9061C33.584 16.151 33.5371 17.5041 32.9201 18.6227C32.6075 19.1855 32.1413 19.6479 31.5758 19.9558C31.0104 20.2638 30.3691 20.4046 29.7267 20.3619C26.4792 20.1382 25.2307 16.9881 24.4982 14.2891C24.1735 13.0863 23.8379 11.8919 23.4915 10.706C23.0513 11.3843 22.5641 12.0338 22.077 12.6689C19.6969 15.6562 17.1273 18.4874 14.384 21.1449C13.1355 22.3898 11.8906 23.7069 10.5592 24.8651C10.7576 25.0059 10.9561 25.1538 11.1581 25.2945C12.0674 25.926 13.0345 26.5935 14.1386 26.8064C15.333 27.0373 16.4841 26.5286 17.6279 26.2724C19.2625 25.9115 21.3734 26.0595 22.1203 27.8204C22.7806 29.3936 22.1708 31.3566 21.3301 32.8468C21.5466 32.9406 21.7631 33.0236 21.9796 33.121C23.7838 33.9473 25.5879 35.0984 26.6235 36.8629C27.7349 38.7861 27.706 41.1568 26.9844 43.2136C25.541 47.3632 21.7956 50.3653 17.646 51.5128C13.1644 52.7685 8.36528 52.1045 4.03887 50.5385C3.03936 57.0588 2.13727 63.6007 1.44447 70.1607C0.455256 79.1956 -0.0266135 88.2788 0.00113306 97.3677C0.00113306 100.211 0.0949492 103.054 0.2032 105.894C2.62801 106.41 5.07086 106.811 7.52815 107.11C17.4764 108.319 27.7674 108.294 37.6759 106.692H37.8491C40.6131 100.655 43.1425 94.5171 45.0658 88.1303C42.3595 88.0293 39.6064 87.5927 37.2212 86.373C36.3552 85.9328 37.1419 84.6338 38.0079 85.074C39.5969 85.8263 41.3078 86.2882 43.0595 86.438C47.0617 86.8591 51.1059 86.6153 55.0284 85.7163C58.6368 84.9225 62.4616 83.6451 65.3122 81.1842C66.0339 80.5455 67.1164 81.6317 66.3695 82.2667C64.7099 83.6439 62.8366 84.7408 60.8234 85.5142C56.7512 87.1109 52.4331 87.9899 48.0607 88.1122C47.6133 88.1303 47.1514 88.1447 46.6931 88.1483C45.3845 93.655 44.3906 99.2317 43.7163 104.851C43.6261 105.638 43.5395 106.417 43.4565 107.2C45.838 107.594 48.2411 107.868 50.6515 108.063C60.394 108.839 70.4433 108.582 80.0523 106.706H80.0992C81.4488 103.819 82.6684 100.864 83.8158 97.88C86.8477 90.066 88.7656 81.8646 89.5134 73.5165C90.2423 64.8312 90.1016 56.0629 89.5062 47.3776ZM75.5527 42.2177C75.3542 44.0832 74.831 45.7611 73.6222 47.2188C72.4803 48.496 71.097 49.5347 69.552 50.2751C65.9276 52.0994 62.0258 53.3102 58.0053 53.8582C54.0542 54.4175 49.7639 54.5799 45.9787 53.1005C42.6193 51.7726 40.0213 49.2828 38.928 45.8044C38.3182 43.8667 38.1666 41.8352 37.8707 39.8506C37.6001 37.9743 37.2682 36.0943 37.1274 34.2035C36.9741 32.4366 37.1143 30.6565 37.5424 28.9353C37.9321 27.4054 38.6465 25.9548 40.0682 25.1971C40.1647 25.098 40.2919 25.0344 40.4291 25.0167C45.2101 24.2156 49.9262 23.0429 54.7145 22.2671C57.0527 21.8846 59.3873 21.6862 61.7472 21.4805C64.024 21.282 66.2973 20.7408 68.585 21.1594C70.483 21.5202 71.7892 22.6352 72.915 24.1543C74.0408 25.6734 74.5207 27.4415 74.9032 29.3322C75.7768 33.569 75.9958 37.9146 75.5527 42.2177Z" fill="#3F89FF" style="fill:#3F89FF;fill:color(display-p3 0.2471 0.5373 1.0000);fill-opacity:1;"/>
</svg>
