<svg width="6" height="11" viewBox="0 0 6 11" fill="none" xmlns="http://www.w3.org/2000/svg">
<path d="M0 4.90014C0.0272547 6.04496 0.165017 7.18447 0.411357 8.30281C0.552082 8.93427 0.721687 9.78585 1.19077 10.2694C1.62032 10.6093 2.13665 10.8218 2.68102 10.8828C4.23983 11.1606 4.98675 9.70284 5.15995 8.35692C5.36924 6.71513 5.12745 5.00117 5.03724 3.35576C4.97469 2.23717 4.91456 1.11859 4.85682 0C3.22224 1.63819 1.60571 3.26917 0 4.90014ZM1.74643 5.21768C1.75322 4.9121 1.84848 4.61505 2.02067 4.3625C2.10517 4.23028 2.2058 4.10908 2.32019 4.00167C2.43473 3.88178 2.56745 3.7807 2.71348 3.70217C2.87103 3.64128 3.04211 3.62422 3.20858 3.65281C3.37504 3.6814 3.53067 3.75458 3.65887 3.86455C3.80194 3.95964 3.92462 4.08231 4.0197 4.22538C4.08708 4.29302 4.13453 4.37791 4.15682 4.47075C4.18153 4.53674 4.19612 4.60608 4.20012 4.67643C4.26023 4.79155 4.30859 4.91244 4.34446 5.03726C4.42146 5.3349 4.39392 5.64993 4.2665 5.92972C4.13908 6.20951 3.91949 6.43709 3.64442 6.5744C3.34669 6.70273 3.01132 6.71306 2.70626 6.60327C2.45225 6.51237 2.22942 6.3509 2.06396 6.1378C1.98927 6.03895 1.92516 5.93252 1.87271 5.82027C1.78395 5.63153 1.73604 5.4262 1.73202 5.21768H1.74643Z" fill="#FFB53F" style="fill:#FFB53F;fill:color(display-p3 1.0000 0.7098 0.2471);fill-opacity:1;"/>
</svg>
