<svg width="47" height="6" viewBox="0 0 47 6" fill="none" xmlns="http://www.w3.org/2000/svg">
<path d="M0 5.58464C0.791431 5.62313 1.58528 5.65319 2.38152 5.67484C10.4245 5.89135 18.4964 5.20938 26.5033 4.46606C30.9885 4.0511 35.4737 3.52787 39.9083 2.73764C42.1672 2.33712 44.4079 1.86803 46.6307 1.29431L46.923 1.21854C46.5276 0.831486 46.0589 0.527262 45.5444 0.323703C45.0299 0.120144 44.4799 0.0213389 43.9267 0.0331016C43.3736 0.0448642 42.8283 0.166951 42.3229 0.392196C41.8175 0.617442 41.3622 0.941312 40.9836 1.34483C40.6228 1.70566 40.0455 1.44225 39.847 1.06698C38.8439 -0.849055 36.2747 0.370569 34.8855 1.00203C33.9401 1.43142 33.0813 1.00205 32.0999 1.22216C31.0534 1.43505 30.1225 2.09175 29.2637 2.69073C29.1106 2.81262 28.9157 2.86925 28.7211 2.84831C28.5266 2.82737 28.3481 2.73055 28.2245 2.57888C27.1853 0.882953 25.0564 0.125202 23.1512 0.00973454C21.246 -0.105733 19.1279 0.803587 18.8572 2.86756C18.8344 3.00888 18.7715 3.14065 18.676 3.24723C18.5804 3.3538 18.4562 3.43066 18.3182 3.46867C18.1802 3.50669 18.0342 3.50427 17.8975 3.46167C17.7609 3.41907 17.6393 3.3381 17.5474 3.2284C17.4422 3.10503 17.3067 3.01125 17.1541 2.95636C17.0016 2.90147 16.8374 2.88735 16.6777 2.91542C16.5181 2.94349 16.3685 3.01276 16.2438 3.11638C16.1192 3.22001 16.0237 3.35438 15.9669 3.50622C15.9165 3.62348 15.8369 3.72587 15.7357 3.80361C15.6345 3.88135 15.515 3.93188 15.3887 3.95033C15.2624 3.96879 15.1335 3.95456 15.0143 3.90904C14.8951 3.86351 14.7895 3.78818 14.7076 3.69025C14.1916 3.12735 13.6901 2.55362 13.1633 1.99794C12.7303 1.54689 12.1854 0.994822 11.5467 0.875747C10.2621 0.637596 9.90131 2.45981 9.74254 3.35829C9.72056 3.49968 9.65825 3.63171 9.56307 3.73855C9.46789 3.84539 9.3439 3.92247 9.20598 3.96057C9.06806 3.99867 8.92207 3.99616 8.78555 3.95333C8.64902 3.9105 8.52776 3.82918 8.43632 3.71913C7.9961 3.18148 6.93887 3.17787 6.58164 3.84541C6.5173 3.99246 6.40772 4.11514 6.26884 4.19561C6.12996 4.27608 5.96903 4.31014 5.80945 4.29284C3.93311 4.015 1.08611 3.61448 0 5.58464Z" fill="#FFB53F" style="fill:#FFB53F;fill:color(display-p3 1.0000 0.7098 0.2471);fill-opacity:1;"/>
</svg>
