<svg width="46" height="50" viewBox="0 0 46 50" fill="none" xmlns="http://www.w3.org/2000/svg">
<path d="M0.0268736 37.3392C-0.113852 40.3125 0.347985 43.2533 0.264993 46.2265C0.228909 47.475 0.135105 48.7163 0.0521127 49.9576C1.06967 48.9833 2.07279 48.0127 3.07952 47.0384C8.00852 42.2802 12.9303 37.5148 17.8449 32.7421C17.7403 31.5442 17.6861 30.2921 18.1191 29.2132C18.6387 27.9106 19.8258 27.1203 21.0996 26.6873C22.3946 26.2582 23.7219 25.9336 25.0688 25.7167C28.0252 22.8132 30.966 19.8976 33.8912 16.9701C37.882 12.9865 41.8404 8.96435 45.7663 4.90375C45.705 3.26556 45.5678 1.63458 45.4595 0C44.5286 1.36035 43.1394 2.44646 41.8151 3.43154C39.728 4.9741 37.4917 6.3038 35.1397 7.40072C30.2863 9.65934 25.0584 11.0048 19.7176 11.3699C17.0254 11.556 14.3214 11.4726 11.6457 11.1209V11.139C12.0932 12.2383 12.5382 13.3365 12.9808 14.4334C13.6664 16.1185 14.3303 17.818 14.9329 19.5392C15.485 21.098 16.1742 22.6929 15.8567 24.378C15.5897 25.7889 14.9618 27.0987 13.6448 27.7807C13.0817 28.08 12.4508 28.2283 11.8133 28.2112C11.1759 28.1942 10.5537 28.0123 10.0075 27.6833C8.85286 26.9616 8.22501 25.6012 7.75593 24.3672C7.10642 22.6496 6.50023 20.914 5.86877 19.1856C5.73165 18.7995 5.5873 18.4206 5.45019 18.0345C4.06458 20.7516 2.56351 23.4254 0.983051 26.0414C0.89645 27.0121 0.813472 27.9827 0.726872 28.9534C0.474288 31.7174 0.160382 34.5247 0.0268736 37.3392Z" fill="#3F89FF" style="fill:#3F89FF;fill:color(display-p3 0.2471 0.5373 1.0000);fill-opacity:1;"/>
</svg>
