<svg width="40" height="35" viewBox="0 0 40 35" fill="none" xmlns="http://www.w3.org/2000/svg">
<path d="M0.103173 23.3969C0.464008 24.8835 1.58982 26.0309 2.76975 26.9294C5.40023 28.9393 8.56112 30.4187 11.5885 31.7069C13.3356 32.4573 15.1191 33.1197 16.9325 33.6915C18.1702 34.0812 19.5991 34.4889 20.9233 34.2977C21.3799 33.5534 21.9961 32.9199 22.7275 32.443C24.6624 31.1898 26.7605 30.2088 28.9627 29.5274C31.1821 28.7997 33.4867 28.3643 35.8186 28.2321C36.2227 28.2104 36.6594 28.1888 37.1068 28.2068C37.1195 28.142 37.1401 28.079 37.1681 28.0192C38.7017 24.7716 39.3331 21.2463 39.4883 17.6704C39.6684 14.2404 39.4565 10.8011 38.8568 7.41911C38.5813 5.84535 38.0576 4.32532 37.3052 2.91588C36.6088 1.66739 35.3964 0.0292028 33.8088 0.000336019C32.3654 -0.0249224 31.6077 1.37872 31.1855 2.55504C30.6549 4.22086 30.2745 5.93083 30.0488 7.66447C29.3487 11.9653 29.1393 16.3317 29.4246 20.6798C29.4787 21.452 28.4107 21.9788 28.0318 21.1453C26.5977 17.9919 24.8509 14.9904 22.8177 12.1857C21.8357 10.8284 20.7855 9.52173 19.6712 8.27067C18.6263 7.00368 17.4453 5.85534 16.1495 4.84634C14.9623 3.99117 13.1979 3.04218 11.7149 3.71333C10.2896 4.33757 10.1272 6.26082 10.138 7.61034C10.1777 10.9408 11.7112 14.127 13.5443 16.8333C15.7887 20.1421 18.5635 23.0541 20.761 26.4062C21.194 27.0666 20.2378 27.7269 19.6785 27.3444C16.8552 25.4378 13.8298 23.8489 10.6576 22.6066C9.12139 22.011 7.55572 21.4943 5.96674 21.0587C4.6533 20.6978 3.19554 20.2468 1.82797 20.4958C0.330509 20.7592 -0.257662 22.0076 0.103173 23.3969Z" fill="#1A3869" style="fill:#1A3869;fill:color(display-p3 0.1020 0.2196 0.4118);fill-opacity:1;"/>
</svg>
