<svg width="83" height="61" viewBox="0 0 83 61" fill="none" xmlns="http://www.w3.org/2000/svg">
<path d="M0.0114058 36.3157C0.162189 44.6691 2.00338 52.9053 5.42393 60.5277C5.55022 60.4411 5.6729 60.3617 5.78476 60.286L5.98324 60.1633C5.76313 59.8024 5.55384 59.4127 5.34455 59.0339C5.34151 59.0257 5.34151 59.0168 5.34455 59.0086C5.73786 58.7127 6.12036 58.388 6.4848 58.0524C9.23273 55.5614 10.9582 52.1391 11.3268 48.4485C11.6955 44.7579 10.6811 41.0619 8.48019 38.0766C8.09049 37.5462 8.55957 36.5286 9.28845 36.893C11.1648 37.8276 12.6767 39.2168 14.1742 40.653C15.6716 42.0891 17.198 43.5937 19.1501 44.3407C20.1352 44.7015 21.4558 44.9685 22.2641 44.1061C22.9858 43.3484 23.0615 42.1612 23.0688 41.1834C23.0552 38.646 22.4471 36.1472 21.2934 33.8873C21.2282 33.7408 21.2118 33.5771 21.2468 33.4205C21.2818 33.264 21.3662 33.1229 21.4876 33.018C21.6091 32.9132 21.761 32.8503 21.921 32.8385C22.081 32.8267 22.2405 32.8668 22.3759 32.9527C26.1647 35.5507 30.0978 38.2895 34.6119 39.4478C35.5428 39.6823 36.6181 39.8555 37.5238 39.4478C38.332 39.0869 38.8769 38.257 39.2197 37.4848C39.9883 35.7636 39.6708 33.9017 39.1836 32.1409C38.6496 30.1815 37.5346 28.4459 36.4233 26.7644C35.9866 26.0969 36.6506 25.1731 37.4119 25.6819C42.1713 28.7923 47.1545 31.6176 52.4949 33.6203C57.7687 35.5827 63.3309 36.6593 68.9561 36.8064C72.2036 36.893 75.5233 36.5178 78.3991 34.9012C78.5374 34.8136 78.7046 34.7838 78.8646 34.8182C79.5882 34.0711 80.4749 33.5017 81.4554 33.1548C81.8928 33.0254 82.3507 32.9801 82.805 33.0213C81.5035 28.3006 79.5338 23.7903 76.9558 19.6271C74.0908 14.9904 70.4283 10.5737 66.0369 7.32262C61.6456 4.0715 56.2944 2.23126 50.9252 1.2534C48.194 0.775478 45.4394 0.443038 42.6729 0.257494C39.7646 0.0482095 36.7516 -0.226031 33.8649 0.318829C30.6499 0.932249 27.4781 2.12301 24.4147 3.25242C21.3095 4.39818 18.2765 5.7309 15.3324 7.24325C15.2678 7.28536 15.1989 7.32043 15.1268 7.34788H15.1015C13.3407 7.94326 11.8901 9.17372 10.5406 10.4042C9.1582 11.6579 7.8543 12.9955 6.63633 14.4094C4.18626 17.2961 2.23053 20.5436 1.22381 24.2097C0.134084 28.1392 -0.0535444 32.2996 0.0114058 36.3157Z" fill="#1A3869" style="fill:#1A3869;fill:color(display-p3 0.1020 0.2196 0.4118);fill-opacity:1;"/>
</svg>
