<svg width="72" height="31" viewBox="0 0 72 31" fill="none" xmlns="http://www.w3.org/2000/svg">
<path d="M71.0772 20.5647C70.4313 23.9673 69.6664 27.6767 67.4941 30.4732C67.3173 29.9211 67.1333 29.3907 66.9204 28.8314C66.7797 28.4417 66.6173 28.0628 66.4513 27.6803C66.2853 27.2979 66.1158 26.9587 65.9426 26.5978C65.9752 26.5063 65.9841 26.4079 65.9683 26.3119C65.9525 26.216 65.9126 26.1256 65.8523 26.0494C65.8298 26.0139 65.8018 25.9822 65.7693 25.9555C65.6813 25.8619 65.5885 25.7728 65.4915 25.6885C65.4915 25.6885 65.4915 25.6885 65.4915 25.6669C65.4192 25.5067 65.2909 25.3784 65.1307 25.306C64.8961 25.0859 64.658 24.8803 64.409 24.6782C64.0879 24.4148 63.7667 24.1586 63.4311 23.9096C61.7602 22.6896 59.8982 21.7555 57.9212 21.1456C54.9479 20.2219 51.8375 19.8863 48.7524 19.5435C35.9958 18.1014 23.0782 19.5341 10.9477 23.7364C10.3415 23.9421 9.74254 24.155 9.14355 24.3787C7.67135 24.9163 6.21357 25.4937 4.77384 26.1215C4.18929 26.3597 3.60835 26.6195 3.03101 26.8829C2.00985 27.3448 1.00312 27.8283 0 28.3262C3.87537 15.1846 15.5772 5.59363 28.5059 1.98528C35.9139 -0.0822996 43.7404 -0.439527 51.3612 0.473385C57.9861 1.27083 66.1554 2.86573 69.7638 9.1659C70.7582 10.9297 71.3635 12.886 71.5391 14.9032C71.7123 16.8228 71.4345 18.6739 71.0772 20.5647Z" fill="#3F89FF" style="fill:#3F89FF;fill:color(display-p3 0.2471 0.5373 1.0000);fill-opacity:1;"/>
</svg>
