<svg width="75" height="51" viewBox="0 0 75 51" fill="none" xmlns="http://www.w3.org/2000/svg">
<path d="M0 30.7431C1.50488 33.2496 3.18322 35.6478 5.02279 37.9201C7.32131 40.8068 9.89768 43.4409 13.0153 45.4219C14.0493 46.0772 15.1258 46.6631 16.2376 47.1755C16.8077 47.4426 17.3862 47.6831 17.9732 47.8972C18.7165 48.1859 19.4634 48.4457 20.2248 48.6766C20.9464 48.8931 21.6681 49.0843 22.3898 49.2503C22.9346 49.3766 23.4723 49.4885 24.0316 49.5787C24.6017 49.6869 25.1646 49.7735 25.7383 49.8385C25.9801 49.8746 26.2218 49.9071 26.46 49.9323C27.1672 50.0093 27.8781 50.0646 28.5925 50.0983C29.5343 50.1452 30.4869 50.1596 31.4287 50.1272C32.1504 50.1272 32.8468 50.073 33.554 50.0225H33.7344C41.312 49.3911 48.6369 46.84 55.3845 43.4481C56.7196 42.7733 58.0439 42.0481 59.332 41.2614C59.8625 40.9403 60.3929 40.6047 60.9089 40.2547C62.8188 38.9998 64.6133 37.5773 66.2709 36.0041L66.4044 35.8778C66.841 35.4592 67.2596 35.0262 67.6709 34.5788C67.6878 34.5681 67.7015 34.5532 67.7106 34.5355C68.5424 33.6365 69.3161 32.6856 70.0272 31.6885C70.3195 31.2844 70.5973 30.8694 70.8643 30.4472C71.0881 30.0864 71.3009 29.7256 71.5066 29.3647C75.2485 22.8156 75.7933 14.2097 71.0375 7.9997C68.6524 9.14715 66.0039 9.57654 63.359 9.65592C60.3358 9.7074 57.3147 9.46572 54.3381 8.93425C48.6745 7.93373 43.1981 6.06935 38.1005 3.40628C36.0474 2.35625 34.0411 1.2088 32.0782 0C32.5423 0.820057 32.9266 1.68279 33.2256 2.57634C33.8571 4.51763 34.2865 6.78729 33.6189 8.76467C32.9514 10.742 31.4973 12.4308 29.2673 12.5174C26.7775 12.6148 24.1362 11.3663 21.9748 10.273C20.0415 9.26739 18.1702 8.1468 16.3711 6.9172C16.8141 8.20161 17.1036 9.53393 17.2335 10.8864C17.3958 12.6617 17.4644 14.8123 16.2592 16.2736C14.9458 17.8721 12.7338 17.6629 11.0235 16.9087C9.31312 16.1546 7.87339 14.9061 6.51665 13.6251C5.7156 12.8673 4.91815 12.0735 4.07379 11.3482C5.45023 14.2783 5.93223 17.5491 5.45943 20.7516C4.86008 24.6167 2.92897 28.1509 0 30.7431ZM53.3494 15.588C53.6497 15.2027 54.0553 14.9128 54.5171 14.7533C54.9789 14.5939 55.4769 14.5717 55.951 14.6896C56.7882 14.9103 57.5414 15.3735 58.116 16.021C58.7539 16.7067 59.1887 17.5562 59.3717 18.4747C59.3868 18.6563 59.3344 18.837 59.2245 18.9822C59.1146 19.1275 58.9549 19.2271 58.7762 19.262C58.5974 19.2968 58.412 19.2645 58.2556 19.1712C58.0991 19.0778 57.9826 18.9301 57.9284 18.7562C57.7867 18.0501 57.4344 17.4035 56.9181 16.9015C56.4959 16.4793 55.6696 15.9309 55.0237 16.1257C54.7588 16.227 54.5404 16.4222 54.4102 16.6742C54.2204 17.048 54.118 17.4601 54.1108 17.8794C54.0446 18.7822 54.1814 19.6884 54.5113 20.5315C54.5902 20.7116 54.5967 20.9151 54.5295 21.0999C54.4623 21.2846 54.3266 21.4364 54.1505 21.5238C53.9707 21.6055 53.7661 21.6135 53.5806 21.546C53.3951 21.4785 53.2434 21.341 53.1582 21.1629C52.7956 20.2494 52.6036 19.2771 52.5917 18.2943C52.5953 17.3778 52.7504 16.3386 53.3494 15.5845V15.588ZM33.8391 33.8932C33.9117 33.8271 33.9971 33.7765 34.09 33.7445C34.1829 33.7125 34.2814 33.6999 34.3794 33.7073C34.4773 33.7148 34.5728 33.7421 34.6598 33.7877C34.7468 33.8333 34.8236 33.8962 34.8855 33.9726C35.4043 34.7039 35.9746 35.3973 36.5922 36.0474C37.0938 36.5453 37.8371 37.2453 38.5696 37.1046C38.9185 37.0102 39.2319 36.815 39.4706 36.5436C39.7093 36.2722 39.8628 35.9364 39.9119 35.5783C40.1104 34.6943 39.8867 33.7741 39.6665 32.9226C39.6564 32.7438 39.7112 32.5673 39.8207 32.4257C39.9303 32.2841 40.0873 32.1868 40.2629 32.1516C40.4385 32.1165 40.6209 32.146 40.7765 32.2346C40.9321 32.3232 41.0505 32.465 41.1099 32.6339C41.413 33.7994 41.597 34.9974 41.2687 36.1845C41.1296 36.7335 40.8503 37.237 40.4582 37.6457C40.066 38.0543 39.5743 38.354 39.0315 38.5155C37.8443 38.8439 36.7691 38.2016 35.9067 37.433C35.1025 36.6733 34.3771 35.8343 33.7417 34.9288C33.6208 34.7764 33.5634 34.5833 33.5816 34.3896C33.5997 34.196 33.6919 34.0168 33.8391 33.8896V33.8932ZM10.5724 31.8256C11.9292 30.7431 14.0798 31.3168 15.3607 32.237C16.1382 32.7787 16.7293 33.5475 17.0531 34.4381C17.1336 34.6156 17.1433 34.8171 17.0802 35.0015C17.0172 35.1859 16.8861 35.3393 16.7138 35.4304C16.5376 35.5167 16.3344 35.5299 16.1485 35.4671C15.9627 35.4042 15.8092 35.2704 15.7216 35.0948C15.4674 34.3858 14.9946 33.7759 14.3713 33.3531C13.7481 32.9302 13.0066 32.7163 12.2539 32.7421C11.9739 32.7485 11.7028 32.8418 11.4781 33.0092C11.2647 33.2924 11.154 33.6398 11.1642 33.9942C11.1067 34.9306 11.3197 35.8637 11.7777 36.6824C11.8196 36.7712 11.8435 36.8674 11.848 36.9655C11.8525 37.0636 11.8376 37.1615 11.804 37.2538C11.7705 37.3461 11.719 37.4308 11.6525 37.503C11.5861 37.5753 11.506 37.6336 11.4168 37.6747C11.2371 37.7564 11.0325 37.7644 10.847 37.697C10.6614 37.6295 10.5098 37.492 10.4245 37.3139C9.95393 36.4418 9.6932 35.4719 9.66312 34.4814C9.63786 33.5576 9.77138 32.4427 10.5724 31.822V31.8256Z" fill="white" style="fill:white;fill-opacity:1;"/>
</svg>
