<svg width="45" height="38" viewBox="0 0 45 38" fill="none" xmlns="http://www.w3.org/2000/svg">
<path d="M0 35.1994C0.750536 36.9819 1.5624 38.7464 2.44284 40.4676C3.28358 42.1166 4.28671 43.7837 5.79139 44.9131C6.97132 45.7972 8.5626 45.9379 9.98429 46.0822C13.8705 46.4827 17.6917 46.8363 21.5996 46.5585C25.5798 46.2901 29.5354 45.7329 33.4349 44.8914C36.7654 44.1698 40.2547 42.7625 41.6728 39.3995C42.3764 37.7289 42.5857 35.8994 42.8094 34.1133C43.0873 31.9483 43.3038 29.7833 43.477 27.5858C43.8378 22.9383 44.0074 18.2763 44.0327 13.6071C44.0327 13.2065 44.0327 12.806 44.0327 12.4055C44.0327 11.7271 44.0327 11.0451 44.0327 10.3704C44.0327 9.98069 44.0327 9.59458 44.0327 9.20488C43.9894 6.13538 43.8991 3.0671 43.762 0C43.6863 0.0288668 43.6033 0.0541111 43.5275 0.0757612C43.0981 0.194837 42.6687 0.313912 42.2393 0.436596L41.7774 0.559289C41.7545 0.569792 41.7302 0.577077 41.7053 0.580939C41.6898 0.584049 41.6738 0.584049 41.6584 0.580939C41.5482 0.612379 41.4328 0.620977 41.3192 0.6062C37.4582 1.6887 33.5973 2.77121 29.6787 3.64803C29.5512 4.33262 29.3578 5.00328 29.1013 5.65066C28.8433 6.29765 28.4691 6.89197 27.9972 7.40431C27.1666 8.24924 26.119 8.84857 24.9697 9.13632C24.7424 9.61262 24.5007 10.0889 24.277 10.5797C24.2678 10.661 24.242 10.7396 24.2012 10.8106C24.147 10.9152 24.0857 11.0163 24.028 11.1209C24.0132 11.1532 23.9963 11.1846 23.9775 11.2147C23.5264 12.041 23.0718 12.871 22.6027 13.6937C22.3645 14.1194 22.1228 14.5416 21.881 14.9638C21.4047 15.7865 20.914 16.6092 20.4088 17.4211C20.1562 17.8288 19.8964 18.2402 19.6402 18.6443C18.7454 20.0335 17.8108 21.4011 16.8221 22.7326C14.1339 26.3409 11.0235 29.9962 7.2239 32.4751C5.05963 33.9309 2.58658 34.8635 0 35.1994Z" fill="white" style="fill:white;fill-opacity:1;"/>
</svg>
