<svg width="12" height="24" viewBox="0 0 12 24" fill="none" xmlns="http://www.w3.org/2000/svg">
<path d="M11.1334 15.166C10.5741 13.1309 9.89937 11.121 9.27874 9.10032C8.19623 5.53888 6.57247 1.22691 2.57803 0.173276C2.53422 0.119768 2.47919 0.0765222 2.41684 0.0465958C2.35449 0.0166694 2.28635 0.000798124 2.2172 8.19372e-05C1.83119 -0.00336006 1.45199 0.101704 1.1228 0.303303C0.793607 0.504902 0.527652 0.794916 0.355278 1.14031C-0.066899 1.93775 -0.00555804 2.85788 0.016092 3.72749C0.088259 5.87446 0.164036 8.03225 0.333628 10.1756C0.484133 12.2603 0.760083 14.334 1.15995 16.3856C1.52079 18.15 1.90687 20.0481 3.0002 21.5203C3.49006 22.2044 4.15493 22.7442 4.92511 23.083C5.69529 23.4219 6.54243 23.5473 7.37777 23.4462C8.2131 23.3451 9.00587 23.0212 9.67298 22.5084C10.3401 21.9956 10.857 21.3128 11.1695 20.5316C11.8767 18.8212 11.6097 16.8944 11.1334 15.166ZM10.5525 17.8866C10.603 19.4491 10.1087 21.0476 8.71222 21.8991C8.07875 22.2821 7.34444 22.4649 6.60536 22.4237C5.86627 22.3825 5.15683 22.1192 4.56985 21.6682C3.33579 20.7084 2.85586 19.0955 2.49864 17.6449C2.07077 15.8553 1.75742 14.0402 1.56048 12.2107C1.32593 10.154 1.19964 8.08639 1.13108 6.0188C1.09139 5.0229 1.03726 4.01617 1.03365 3.02027C1.03365 2.35272 1.1419 1.25217 1.91047 1.07175H1.93574C5.12912 1.7429 6.77092 4.83888 7.73074 7.67504C8.30808 9.37818 8.81325 11.1102 9.34007 12.8277C9.84524 14.4695 10.4983 16.1619 10.5525 17.8866Z" fill="#1A3869" style="fill:#1A3869;fill:color(display-p3 0.1020 0.2196 0.4118);fill-opacity:1;"/>
</svg>
