<svg width="30" height="102" viewBox="0 0 30 102" fill="none" xmlns="http://www.w3.org/2000/svg">
<path d="M29.0941 4.13156C28.7333 5.30788 28.4049 6.4842 28.0621 7.66413C27.3693 10.048 26.6849 12.4332 26.009 14.8195L25.4569 16.7391C23.1067 25.06 20.8418 33.4025 18.6624 41.7666C15.7071 53.2267 12.972 64.741 10.5761 76.331C8.21621 87.7694 6.19915 99.3162 4.62952 110.863C4.48157 111.945 4.33363 113.071 4.19291 114.179C3.97363 114.225 3.7808 114.354 3.65526 114.54C3.6375 114.562 3.61687 114.581 3.59392 114.597C3.54921 114.622 3.50584 114.648 3.46402 114.677C3.40348 114.692 3.34434 114.713 3.28721 114.738C3.21865 114.738 3.14648 114.767 3.07792 114.778H3.01297C2.98557 114.773 2.95739 114.773 2.92999 114.778H2.6377C2.4212 114.778 2.20109 114.753 1.98459 114.731C1.52811 114.685 1.07498 114.61 0.62786 114.507C0.418576 114.457 0.212892 114.399 0 114.341C0.288668 112.388 0.595384 110.435 0.920135 108.481C2.79648 97.1728 5.2321 85.9653 7.8698 74.8119C10.4462 63.7956 13.2426 52.7685 16.003 41.7558C18.0069 33.7813 20.1274 25.837 22.3645 17.9227C22.5269 17.3237 22.7001 16.7319 22.8697 16.1365C23.4254 14.1736 23.9847 12.213 24.5476 10.2549C25.5363 6.8318 26.537 3.4135 27.5497 0C27.7058 0.981034 27.9909 1.93712 28.3977 2.84338C28.5936 3.29137 28.8266 3.72226 29.0941 4.13156Z" fill="white" style="fill:white;fill-opacity:1;"/>
</svg>
