<svg width="23" height="27" viewBox="0 0 23 27" fill="none" xmlns="http://www.w3.org/2000/svg">
<path d="M0.0444977 2.68481C0.0444977 3.04565 0.0156362 3.43174 0.00481113 3.81423C-0.00601391 4.19671 0.00481113 4.68745 0.00481113 5.12406C-0.0302687 8.52973 0.333033 11.9278 1.08732 15.2491C1.61413 17.4935 2.36826 19.7523 3.6817 21.6647C4.79757 23.2563 6.32386 24.5157 8.09831 25.3092C8.51339 25.5016 8.9386 25.6715 9.37207 25.8179C9.45867 25.8468 9.54526 25.8793 9.63186 25.9009C10.8481 26.3052 12.0997 26.5939 13.3701 26.7633C14.0256 26.8523 14.6861 26.8981 15.3475 26.9004C16.883 26.9617 18.4044 26.5864 19.7352 25.8179C19.8193 25.694 19.949 25.6083 20.0961 25.5798C20.6104 25.2012 21.0497 24.7301 21.3915 24.1906C22.2034 22.9168 22.4523 21.4338 22.474 19.9399C22.474 19.2724 22.4415 18.6084 22.3838 17.9517C22.3549 17.5548 22.3152 17.1651 22.2755 16.779C22.1745 15.83 22.124 14.8918 22.1023 13.9573C22.1023 13.2681 22.1023 12.5825 22.1023 11.9005C22.1023 10.8361 22.1781 9.77523 22.2539 8.69633C22.3657 7.32337 22.3982 5.94509 22.3513 4.56838C22.3548 4.5107 22.3548 4.45285 22.3513 4.39517C22.3513 3.9766 22.308 3.55804 22.2791 3.13947C22.2322 2.5044 22.1853 1.87654 22.1492 1.24147C18.1996 0.326934 14.1503 -0.0852808 10.0973 0.0146271C6.67303 0.0940107 2.82655 0.375474 0.102244 2.68843L0.0444977 2.68481Z" fill="#FFB53F" style="fill:#FFB53F;fill:color(display-p3 1.0000 0.7098 0.2471);fill-opacity:1;"/>
</svg>
