<svg width="10" height="14" viewBox="0 0 10 14" fill="none" xmlns="http://www.w3.org/2000/svg">
<path d="M8.51273 7.69857C6.23587 8.12075 5.36265 10.3832 5.67297 12.4796C5.77761 13.2338 4.84666 13.4034 4.41727 12.9559C4.32013 12.897 4.23942 12.8146 4.18265 12.7162C4.12588 12.6178 4.09488 12.5066 4.09251 12.393C4.03388 11.1009 3.55782 9.86269 2.73577 8.86408C2.33643 8.3784 1.86123 7.96046 1.32852 7.62642C0.794488 7.29806 0.209923 7.07794 0.0295056 6.414C-0.0241452 6.22931 -0.00411316 6.03103 0.0853795 5.86079C0.174872 5.69055 0.326865 5.56162 0.509422 5.5011C1.59193 5.14027 2.75743 4.73614 3.5657 3.88457C4.37397 3.033 4.64819 1.86748 4.69871 0.730854C4.72397 -0.203708 6.11679 -0.265033 6.14205 0.680354C6.23586 2.7768 6.56423 5.27377 8.6282 6.35267C9.15863 6.62329 9.15502 7.5795 8.51273 7.69857Z" fill="white" style="fill:white;fill-opacity:1;"/>
</svg>
