<svg width="4" height="4" viewBox="0 0 4 4" fill="none" xmlns="http://www.w3.org/2000/svg">
<path d="M2.96251 0.370821C2.55285 0.0894905 2.05707 -0.0382875 1.56247 0.00998636C1.22854 0.0490489 0.916057 0.19455 0.671215 0.424955L0.624305 0.453828C0.43304 0.619084 0.278597 0.822687 0.171059 1.05144C0.0635208 1.28019 0.00525075 1.52898 2.36661e-05 1.7817C-0.00131008 2.05694 0.0537442 2.32955 0.161721 2.58274C0.269698 2.83593 0.428308 3.06432 0.627873 3.25389C0.811014 3.45482 1.03953 3.6091 1.29435 3.70387C1.54917 3.79865 1.82295 3.83118 2.09288 3.79875C2.37245 3.75718 2.64068 3.65931 2.88133 3.51108C3.12197 3.36285 3.33003 3.16732 3.49292 2.93635C3.75293 2.52299 3.84291 2.02506 3.74404 1.54684C3.64516 1.06861 3.36511 0.647192 2.96251 0.370821Z" fill="white" style="fill:white;fill-opacity:1;"/>
</svg>
