<svg width="36" height="31" viewBox="0 0 36 31" fill="none" xmlns="http://www.w3.org/2000/svg">
<path d="M35.2184 21.3295C34.7699 22.8326 33.8376 24.1454 32.5663 25.0641C29.8348 27.1859 26.194 28.3514 22.8851 29.1741C16.6354 30.7257 7.16714 31.6566 3.01754 25.4394C1.93504 23.8121 1.47678 21.878 1.19172 19.9656C0.892229 17.9918 0.621606 15.9964 0.343764 14.0262C0.0767459 12.1427 -0.168627 10.1545 0.152516 8.25287C0.426751 6.65076 0.802022 4.78163 2.37165 3.98419C6.1965 3.33469 9.97445 2.46507 13.7813 1.7434C15.672 1.38256 17.5736 1.06144 19.4788 0.83772C21.384 0.614003 23.2243 0.527399 25.0862 0.292856C26.9481 0.0583136 29.1672 -0.31697 30.9642 0.502124C32.2849 1.10472 33.4612 2.66713 34.0457 3.97335C34.7926 5.65484 35.038 7.7116 35.3014 9.52299C35.5853 11.5226 35.7252 13.5401 35.72 15.5598C35.7128 17.4578 35.7164 19.4929 35.2184 21.3295Z" fill="white" style="fill:white;fill-opacity:1;"/>
</svg>
