<svg width="35" height="20" viewBox="0 0 35 20" fill="none" xmlns="http://www.w3.org/2000/svg">
<path d="M34.9901 1.44695C34.9698 1.95529 34.9241 2.46231 34.853 2.96607C34.153 8.52654 30.9885 13.9535 26.1533 16.7391C23.2363 18.3754 19.9429 19.2224 16.5984 19.1964C13.2102 19.2433 9.94821 18.5108 7.21669 16.4613C4.37693 14.3396 2.16501 11.4673 0 8.68168C0.721669 8.6023 1.44334 8.50246 2.16501 8.38218C3.91867 11.0163 6.06202 13.5963 8.68168 15.4257C11.2075 17.1866 14.7617 17.4861 17.7422 17.284C23.1548 16.9232 28.2498 14.5164 30.9344 9.64152C32.0402 7.54778 32.7798 5.28031 33.121 2.9372C33.2028 2.43684 33.2714 1.93167 33.3267 1.42169C33.3736 1.00312 33.4097 0.58456 33.4422 0.165992V0.129895C33.9618 0.0902034 34.485 0.0396918 35.0082 0C35.0082 0.47991 35.0082 0.956216 34.9901 1.44695Z" fill="#3F89FF" style="fill:#3F89FF;fill:color(display-p3 0.2471 0.5373 1.0000);fill-opacity:1;"/>
</svg>
