<svg width="3" height="3" viewBox="0 0 3 3" fill="none" xmlns="http://www.w3.org/2000/svg">
<path d="M2.51626 2.55809C2.39022 2.69556 2.23482 2.80286 2.06161 2.87202C1.85624 2.94733 1.6378 2.98047 1.41933 2.96945C1.26249 2.9633 1.1077 2.93161 0.961065 2.87563C0.917463 2.86132 0.87519 2.8432 0.83476 2.82149C0.736547 2.77398 0.642424 2.71848 0.55332 2.65552C0.384154 2.52173 0.244159 2.35471 0.141963 2.16477C0.119054 2.12195 0.0997527 2.07729 0.0842391 2.03127C0.0441659 1.91439 0.0175216 1.79333 0.00484398 1.67043C-0.0133726 1.44342 0.0199386 1.21523 0.102276 1.0029C0.14339 0.903167 0.194142 0.807701 0.253821 0.717844C0.283372 0.667198 0.318483 0.619994 0.358477 0.577113C0.505683 0.406629 0.683031 0.264724 0.88167 0.158532C1.03326 0.0758099 1.20037 0.0254441 1.37242 0.0105995C1.49229 -0.00353318 1.61339 -0.00353318 1.73326 0.0105995C1.84437 0.0275113 1.9504 0.0685919 2.04392 0.130937C2.13744 0.193281 2.21616 0.275372 2.27451 0.371434C2.38112 0.445793 2.47703 0.534415 2.55956 0.634837C2.65335 0.754036 2.72876 0.88662 2.78328 1.02816C2.84059 1.17096 2.87471 1.32201 2.88432 1.47559C2.90121 1.68573 2.87417 1.89708 2.80493 2.09621C2.74532 2.27024 2.64657 2.42826 2.51626 2.55809Z" fill="#1A3869" style="fill:#1A3869;fill:color(display-p3 0.1020 0.2196 0.4118);fill-opacity:1;"/>
</svg>
