<svg width="201" height="190" viewBox="0 0 201 190" fill="none" xmlns="http://www.w3.org/2000/svg">
<path d="M200.114 16.1944C200.093 14.7511 200.006 12.6474 198.534 11.9258C196.932 11.1355 194.788 11.5361 193.067 11.5216C189.116 11.4819 185.601 10.1432 182.058 8.52308C180.378 7.71671 178.647 7.02006 176.876 6.43747C175.197 5.94386 173.481 5.58193 171.745 5.35497C168.166 4.84619 164.529 4.75599 160.953 4.32299C159.18 4.12275 157.426 3.78373 155.706 3.30904C154.003 2.76251 152.339 2.09942 150.727 1.32445C147.696 -0.0322893 144.412 -0.818928 141.544 1.34969C138.336 3.7745 137.448 8.08286 136.759 11.8139C135.963 16.06 135.658 20.3835 135.85 24.6993C135.176 24.986 134.569 25.4114 134.071 25.9478C133.58 26.4553 133.219 27.0744 133.021 27.752C133.001 27.7835 132.985 27.8174 132.974 27.853C132.034 30.286 131.371 32.8169 130.996 35.3981C130.599 37.9456 130.549 40.4245 131.357 42.9142C132.84 47.5005 137.491 50.4918 141.821 52.0795C145.513 53.4254 149.312 54.4501 153.112 55.4569C153.09 55.6156 153.065 55.778 153.043 55.9404C152.893 56.6834 152.83 57.4415 152.856 58.1992C152.947 59.052 153.329 59.8473 153.938 60.4508C152.8 64.4417 151.643 68.4241 150.467 72.3981C149.914 72.3447 149.356 72.3605 148.807 72.445C146.353 72.8383 144.513 74.4729 143.506 76.6776C143.214 77.3162 142.918 77.8755 142.287 78.2327C141.626 78.5525 140.926 78.7842 140.205 78.922C138.604 79.3136 136.975 79.5838 135.334 79.7302C132.126 80.0776 128.896 80.1729 125.674 80.0153C122.455 79.8096 119.421 78.608 116.549 77.1863C110.992 74.4476 105.99 70.7166 100.311 68.2196C99.3186 67.7794 98.3119 67.368 97.2908 67.0036C96.909 65.767 96.435 64.5608 95.8727 63.3952C95.1727 61.988 94.2237 60.5807 92.7948 59.8302C91.4885 59.1374 89.7998 58.9894 88.5477 59.8843C88.1595 60.1492 87.8312 60.4926 87.5838 60.8922C87.3364 61.2918 87.1756 61.7389 87.1116 62.2045C87.0654 62.2593 87.0288 62.3215 87.0034 62.3885C81.9517 62.8035 76.882 63.2293 71.989 64.5535C66.9662 65.9355 62.4341 68.6165 57.4041 69.966C54.5288 70.7429 51.5757 71.1955 48.5997 71.3156C48.4462 71.3221 48.3013 71.3881 48.1956 71.4996C46.7522 69.183 44.7027 67.1263 41.7727 67.5557C38.8428 67.9851 37.634 71.3444 39.0989 73.661C39.0378 73.6725 38.9783 73.6919 38.9221 73.7187C29.8652 77.7204 20.6639 81.8267 12.9637 88.181C9.49762 90.9783 6.48935 94.2995 4.04746 98.0245C1.55409 101.929 -0.423285 106.62 0.0782754 111.347C0.558186 115.918 3.2464 119.844 6.2702 123.157C9.488 126.624 13.0606 129.744 16.9293 132.466C20.6531 135.115 24.6583 137.536 28.8981 139.282C27.2167 150.187 25.7986 161.16 25.1527 172.187C24.7016 179.862 24.6872 187.54 24.9795 195.215C24.8954 195.29 24.8289 195.382 24.7849 195.485C24.7408 195.589 24.7203 195.701 24.7248 195.813C24.7293 195.925 24.7587 196.035 24.8108 196.134C24.863 196.234 24.9366 196.321 25.0264 196.388C25.0264 196.561 25.0264 196.749 25.0264 196.915C25.2285 201.512 25.5135 206.102 25.795 210.695C25.7967 210.713 25.7967 210.731 25.795 210.749C25.6283 211.582 25.3479 212.389 24.9614 213.145C24.3119 214.39 23.4279 215.52 22.8469 216.808C21.7644 219.193 22.2913 222.444 24.7233 223.761C25.6197 224.224 26.6029 224.494 27.61 224.555C29.36 224.724 31.1028 224.88 32.8601 224.959C36.3714 225.107 39.8886 225.025 43.3893 224.714C46.3156 224.447 49.5235 224.216 51.9663 222.383C54.4092 220.55 55.5133 217.533 56.769 214.863C59.5222 208.978 62.4666 203.186 65.1981 197.287C66.6739 194.093 68.0848 190.871 69.373 187.595C69.0699 189.471 68.7848 191.344 68.5539 193.227C67.9441 198.124 67.5472 203.046 67.0239 207.953C66.7461 210.587 66.2518 213.235 66.1074 215.891C65.9983 217.119 66.1813 218.356 66.6415 219.5C67.1027 220.412 67.7896 221.19 68.6369 221.762C70.6539 223.31 72.9272 224.082 75.3881 224.649C77.99 225.248 80.6574 225.514 83.3265 225.443C84.8528 225.41 86.3755 225.284 87.8982 225.114C89.421 224.945 90.9978 224.908 92.4123 224.367C93.4948 223.96 94.4113 223.176 94.6567 221.989C94.8461 220.825 94.8388 219.637 94.635 218.475C97.2439 214.437 99.9934 210.504 102.49 206.39C105.32 201.719 107.779 196.833 109.844 191.777C111.735 187.169 113.474 182.525 114.683 177.704C115.7 173.781 116.462 169.796 116.963 165.775C117.959 157.259 117.934 148.61 117.487 140.058C117.017 130.634 115.884 121.254 114.095 111.989C113.99 111.444 113.882 110.906 113.766 110.354C113.46 108.853 113.131 107.345 112.781 105.851C112.781 105.815 112.763 105.782 112.76 105.754C117.936 107.495 123.389 108.268 128.846 108.034C128.981 108.109 129.134 108.146 129.288 108.139C129.442 108.132 129.592 108.082 129.719 107.994C130.871 107.929 132.018 107.822 133.158 107.673H133.244C133.407 107.698 133.574 107.675 133.724 107.608C136.032 107.299 138.315 106.824 140.555 106.187C139.051 111.556 137.594 116.94 136.182 122.338C133.266 133.56 130.498 144.828 127.767 156.09C124.999 167.492 122.383 178.931 120.294 190.474C119.601 194.288 118.963 198.117 118.403 201.952C118.336 202.049 118.293 202.16 118.277 202.277C118.26 202.393 118.272 202.512 118.309 202.623C118.064 204.276 117.844 205.921 117.635 207.57C117.281 210.373 116.976 213.181 116.718 215.996C116.52 218.161 116.188 220.474 116.819 222.624C117.267 224.136 118.623 226.096 120.471 225.702C121.849 225.403 122.564 224.032 122.997 222.816C123.614 221.044 123.809 219.11 123.996 217.259C124.198 215.166 124.357 213.062 124.573 210.969C125.833 199.022 127.63 187.154 129.827 175.326C132.025 163.498 134.619 151.738 137.488 140.047C140.374 128.281 143.521 116.593 146.826 104.927C146.952 104.483 147.072 104.05 147.187 103.61C148.934 102.739 150.586 101.688 152.116 100.475C154.669 98.4488 156.779 95.92 158.315 93.045C159.795 90.2449 160.978 86.7268 160.444 83.537C159.979 80.7947 157.705 78.3374 154.941 77.8358C154.869 77.8214 154.797 77.8106 154.725 77.8034C155.468 75.304 156.214 72.8058 156.962 70.3088C157.756 67.6627 158.55 65.0166 159.344 62.3705C159.844 62.2638 160.314 62.0463 160.719 61.7341C161.124 61.4219 161.455 61.0229 161.685 60.5663C162.139 59.7424 162.543 58.8917 162.894 58.0188C163.508 58.1415 164.125 58.2533 164.756 58.3399C167.525 58.8029 170.317 59.1149 173.12 59.2745C177.991 59.4405 183.678 59.1771 187.518 55.778C189.506 54.0135 190.505 51.5201 191.487 49.1134C192.05 47.7206 192.579 46.3169 193.074 44.9024C193.591 43.5672 194.015 42.1976 194.341 40.8034C194.508 40.0921 194.522 39.3536 194.383 38.6365C194.243 37.9194 193.954 37.24 193.533 36.6429C195.331 33.5863 196.801 30.3486 197.92 26.9834C198.504 25.2327 198.986 23.4496 199.364 21.6431C199.812 19.8598 200.064 18.0326 200.114 16.1944ZM112.594 76.8147C114.577 77.9776 116.637 79.0036 118.76 79.8854C118.772 79.8838 118.785 79.8838 118.797 79.8854C117.15 86.4234 114.428 92.6423 110.743 98.2879C110.634 97.9271 110.53 97.5951 110.411 97.2523C110.292 96.9096 110.18 96.5704 110.05 96.2312C109.206 93.7891 108.217 91.3997 107.087 89.0758C106.727 88.3542 106.366 87.6325 105.958 86.9325C105.478 86.0845 104.154 86.8242 104.637 87.6794C107.163 92.1249 108.888 97.0034 110.245 101.965C109.801 101.319 109.346 100.669 108.902 100.027C106.692 96.8518 104.48 93.6705 102.267 90.4831C102.177 90.3544 102.052 90.2552 101.906 90.198C101.87 89.9022 101.83 89.6027 101.787 89.3068C100.794 82.4509 99.6001 75.5193 97.7779 68.8294C103.039 70.8898 107.701 74.0471 112.594 76.8219V76.8147ZM90.2906 60.808C91.6509 60.6493 92.8561 61.5983 93.6066 62.6122C94.4196 63.777 95.0544 65.0563 95.4902 66.4082C95.6959 66.9964 95.8835 67.5954 96.0459 68.1907C96.248 68.9124 96.4067 69.6016 96.5907 70.2872C98.0954 76.3312 99.2465 82.4798 100.167 88.6392C100.387 90.1583 100.6 91.6739 100.791 93.193C100.982 94.7121 101.267 96.224 101.152 97.725C101.069 98.9771 100.585 100.251 99.3656 100.792C98.2398 101.286 97.3629 100.651 96.9155 99.6014C96.3743 98.3601 96.1614 96.9276 95.851 95.6069C95.5191 94.1636 95.2027 92.7203 94.902 91.2769C94.2742 88.2784 93.7005 85.2726 93.1231 82.2561C92.1164 77.0853 91.0808 71.9145 89.7168 66.8304C89.5725 66.2963 89.421 65.7479 89.273 65.2174C89.1251 64.687 88.9519 64.1097 88.7859 63.5576C88.8078 63.4354 88.7914 63.3093 88.739 63.1968C88.2952 62.0674 89.1323 60.9524 90.2906 60.8153V60.808ZM63.4733 69.1361C65.8981 68.115 68.2833 66.9711 70.8019 66.1773C73.2781 65.4113 75.8122 64.8465 78.3794 64.4886C80.0284 64.2432 81.6919 64.0664 83.3553 63.904C83.3265 64.3406 83.2832 64.77 83.229 65.1994C83.1406 65.2648 83.0661 65.3472 83.01 65.4419C82.954 65.5365 82.9175 65.6414 82.9027 65.7504C82.8879 65.8594 82.8951 65.9703 82.9239 66.0764C82.9526 66.1826 83.0024 66.2819 83.0703 66.3685C82.4244 70.2619 80.8836 74.0904 77.6577 76.5224C75.6407 78.0487 73.0968 78.8642 70.6179 79.2359C69.0012 79.4793 67.3592 79.5048 65.7358 79.3116C64.4007 79.1565 62.8888 78.9184 61.698 78.2472C59.0748 76.7786 56.9314 74.1806 55.2355 71.7017C58.0576 71.1168 60.8164 70.26 63.4733 69.1433V69.1361ZM53.6153 72.0228C55.369 74.6569 57.5123 77.2368 60.132 79.0663C62.6578 80.8272 66.2121 81.1267 69.1926 80.9246C74.6051 80.5638 79.7001 78.157 82.3847 73.2821C83.4952 71.1904 84.2396 68.9242 84.5858 66.5814C84.6676 66.081 84.7361 65.5759 84.7915 65.0659C84.8384 64.6473 84.8745 64.2288 84.9069 63.8102V63.7741C85.4265 63.7344 85.9497 63.6839 86.4729 63.6442C86.4729 64.1241 86.4729 64.6004 86.4729 65.0875C86.4526 65.5959 86.4069 66.1029 86.3358 66.6067C85.6358 72.1671 82.4713 77.5941 77.6361 80.3797C74.7191 82.016 71.4257 82.863 68.0812 82.837C64.693 82.8839 61.431 82.1514 58.6995 80.1019C55.8597 77.9802 53.6478 75.1079 51.4828 72.3223C52.19 72.2381 52.9009 72.1359 53.6153 72.0156V72.0228ZM49.8879 72.4702C49.8867 72.6495 49.9465 72.8238 50.0575 72.9646C52.2514 75.8007 54.4705 78.6766 57.2742 80.9246C60.0435 83.1305 63.4763 84.337 67.0167 84.3489C70.6251 84.4102 74.1324 83.869 77.3655 82.2236C80.4172 80.6859 82.9652 78.3069 84.7085 75.3677C86.3449 72.7173 87.4093 69.754 87.8333 66.668L88.1039 66.6897C89.5906 72.1274 90.6947 77.6771 91.77 83.2159C92.0587 84.7314 92.3521 86.2433 92.6504 87.7516C90.7201 88.9198 88.6932 89.9206 86.592 90.7429C84.4902 91.5676 82.342 92.2688 80.1583 92.8429C75.518 94.0806 70.6972 95.1812 65.8837 95.293C63.0665 95.3792 60.2537 95.0137 57.552 94.2105C57.5066 94.1947 57.4593 94.185 57.4113 94.1816C57.3897 94.095 57.3608 94.0157 57.3355 93.9327C56.253 90.4217 54.9468 86.9794 53.5684 83.5803C52.2333 80.2823 50.9379 76.9338 49.3863 73.7295C49.1987 73.3471 48.9966 72.9501 48.7765 72.546C49.1554 72.5207 49.5235 72.4919 49.8879 72.463V72.4702ZM40.3041 70.2078C40.9572 69.0387 42.4078 68.8474 43.5986 69.2335C46.3734 70.1284 47.7518 73.661 48.8234 76.0894C51.3962 81.953 53.8751 87.914 55.7912 94.0301C56.7609 97.0789 57.5264 100.189 58.0825 103.34C58.2737 104.462 58.4433 105.732 58.0428 106.829C57.6098 108.012 56.4587 108.435 55.304 108.02C52.6375 107.067 52.2586 103.249 51.5983 100.915C51.3336 100.003 51.0666 99.0902 50.7972 98.1761C50.6565 97.707 50.5121 97.2415 50.3606 96.7724C49.8266 95.026 49.2528 93.2832 48.6539 91.5548C47.4679 88.1269 46.1725 84.7398 44.7677 81.3937C43.5733 78.5611 42.4403 75.7827 40.6433 73.2677H40.6253C40.6008 73.2157 40.5679 73.1682 40.5279 73.127C40.199 72.719 40.0016 72.221 39.9617 71.6985C39.9217 71.176 40.0411 70.6538 40.3041 70.2006V70.2078ZM36.436 76.4971L39.6655 75.0538C39.7596 75.0143 39.8436 74.9538 39.9108 74.877C41.4083 77.1863 42.4367 79.7013 43.4939 82.2488C44.9565 85.7417 46.294 89.2815 47.5064 92.8682C48.091 94.5822 48.643 96.3106 49.1662 98.039C48.6341 99.0184 48.0171 99.9493 47.3224 100.821C46.2146 102.293 44.995 103.682 43.7537 105.043C41.4913 107.511 39.1134 109.878 36.685 112.18C36.3025 112.541 35.9308 112.902 35.5447 113.263C35.2128 113.028 34.8808 112.801 34.5596 112.559C34.5602 112.551 34.5602 112.542 34.5596 112.534C34.6895 110.924 34.8772 109.322 35.0901 107.717C35.1206 107.639 35.1318 107.554 35.1225 107.471C35.4834 104.747 35.9705 102.059 36.5659 99.3741C36.7824 98.4251 35.3282 97.9993 35.1225 98.9483C34.627 101.128 34.2084 103.326 33.8668 105.544C31.2768 102.144 28.269 99.0827 24.9145 96.4333C22.9909 94.8841 20.9563 93.4779 18.8273 92.2259C17.1458 91.2517 15.338 90.2413 13.4147 89.7795C20.2165 84.0241 28.3569 80.1055 36.436 76.4899V76.4971ZM8.40634 123.236C5.48358 120.234 2.67268 116.741 1.77781 112.53C0.83242 108.077 2.52474 103.542 4.77274 99.7493C6.7432 96.5187 9.17435 93.5928 11.9894 91.064C14.2663 91.2517 16.4566 92.5831 18.3798 93.7234C20.4367 94.9447 22.3992 96.3185 24.2506 97.8333C27.8156 100.673 30.9597 104.004 33.589 107.727C33.4194 108.987 33.2823 110.253 33.1632 111.516C32.8745 111.292 32.5751 111.083 32.2864 110.863C30.3523 109.362 28.5012 107.774 26.6934 106.129C25.9718 105.476 24.8893 106.529 25.6109 107.186C26.946 108.406 28.31 109.604 29.7208 110.769C25.6542 111.653 21.916 113.8 18.8128 116.543C15.7096 119.285 13.6998 122.991 12.159 126.794C10.8672 125.639 9.60792 124.47 8.40634 123.236ZM13.3606 127.829C14.8436 124.066 16.7921 120.321 19.8556 117.621C23.0743 114.785 26.9893 112.685 31.2436 112.011C31.7054 112.371 32.1709 112.732 32.6436 113.093C29.4366 114.042 26.434 115.579 23.7887 117.625C21.2253 119.715 19.0814 122.271 17.4705 125.159C16.6933 126.544 15.9934 127.97 15.3741 129.432C14.6849 128.905 14.0137 128.378 13.3606 127.829ZM18.5819 131.799C17.9071 131.337 17.254 130.85 16.6009 130.355C18.0984 126.816 20 123.391 22.7026 120.634C25.8527 117.419 29.8688 115.399 34.1735 114.226C35.2561 115.009 36.3674 115.763 37.4896 116.474C38.5121 117.182 39.7058 117.604 40.9464 117.694C42.3032 117.726 43.5264 117.091 44.847 116.947C45.9728 116.817 47.1059 117.134 47.1311 118.448C47.1098 119.562 46.7787 120.647 46.1749 121.583L45.363 121.273C44.4465 120.941 44.0316 122.403 44.9409 122.716C46.745 123.37 48.6286 124.055 50.1333 125.271C50.9457 125.91 51.5654 126.761 51.924 127.73C52.2825 128.7 52.3659 129.749 52.1648 130.763C51.4431 134.905 47.7915 138.077 43.9197 139.257C39.2613 140.7 34.4947 139.928 29.9843 138.175C29.9303 138.146 29.8734 138.123 29.8147 138.106C25.7697 136.504 21.934 134.115 18.5819 131.799ZM57.2995 210.309C56.0221 212.972 54.9143 215.761 53.4493 218.327C52.7493 219.546 51.8905 220.719 50.6854 221.477C49.4655 222.188 48.1162 222.649 46.7162 222.834C40.3474 223.916 33.7261 223.664 27.3249 223.029C26.2424 222.924 24.9903 222.484 24.3841 221.499C23.5722 220.185 23.7021 218.446 24.3841 217.122C25.0372 215.852 25.9177 214.719 26.5166 213.416C27.0828 212.143 27.427 210.782 27.5342 209.393C27.557 209.258 27.5338 209.121 27.4683 209.001C27.4027 208.882 27.2988 208.789 27.1734 208.736C27.0615 206.834 26.946 204.943 26.8414 203.053C27.361 203.168 27.895 203.251 28.4074 203.345C29.3384 203.518 30.2513 203.746 31.1822 203.937C33.657 204.447 36.1613 204.801 38.6804 204.998C43.7461 205.394 48.8377 205.319 53.8896 204.774C56.0546 204.543 58.2521 204.229 60.4098 203.829C59.3923 205.99 58.3387 208.148 57.2995 210.309ZM61.247 202.129C56.6908 203.051 52.0631 203.575 47.4162 203.695C42.3755 203.893 37.3283 203.536 32.3658 202.631C31.2833 202.425 30.2008 202.143 29.1183 201.941C28.3278 201.824 27.5447 201.661 26.7728 201.454C26.6886 199.895 26.6117 198.332 26.5419 196.763C36.1581 198.777 46.211 199.152 55.9716 198.438C58.4541 198.257 60.915 197.979 63.3759 197.611C62.6831 199.134 61.965 200.635 61.247 202.129ZM102.898 202.8C100.545 206.939 97.8825 210.886 95.2557 214.852C94.5749 215.872 93.9001 216.899 93.2314 217.934C93.1702 218.019 93.1305 218.118 93.1154 218.223C93.1003 218.327 93.1104 218.433 93.1448 218.533C93.3352 219.54 93.362 220.572 93.2242 221.589C93.0221 222.671 91.9937 223.032 91.0592 223.213C88.4864 223.695 85.8754 223.943 83.2579 223.956C80.8067 224.016 78.3574 223.773 75.9654 223.234C73.6922 222.707 71.5741 222.036 69.6905 220.643C68.8859 220.044 68.1786 219.406 67.8863 218.413C67.6089 217.286 67.561 216.114 67.7456 214.967C68.0054 212.517 68.359 210.075 68.6224 207.621C68.7523 206.344 68.8798 205.066 69.0049 203.789C73.2195 204.925 77.6361 205.286 81.995 205.275C86.978 205.241 91.9499 204.801 96.8614 203.958C98.9037 203.617 100.932 203.214 102.945 202.75C102.945 202.75 102.902 202.786 102.898 202.8ZM105.565 197.712C105.026 198.809 104.471 199.892 103.901 200.96C94.8551 203.204 85.2425 204.395 75.933 203.486C73.6367 203.272 71.3633 202.859 69.1384 202.252C69.2756 200.837 69.4163 199.412 69.5642 197.997C79.148 199.571 89.107 199.614 98.7485 198.625C101.033 198.387 103.309 198.08 105.568 197.673C105.565 197.705 105.565 197.705 105.565 197.712ZM115.802 136.71C116.397 145.395 116.523 154.163 115.78 162.838C115.032 171.186 113.114 179.387 110.082 187.201C108.935 190.185 107.715 193.133 106.366 196.027H106.319C96.7098 197.904 86.6606 198.16 76.918 197.384C74.5077 197.189 72.1045 196.915 69.723 196.522C69.806 195.739 69.8926 194.959 69.9828 194.173C70.6572 188.553 71.6511 182.976 72.9597 177.469C73.4179 177.469 73.8798 177.47 74.3272 177.433C78.6996 177.311 83.0177 176.432 87.09 174.835C89.1031 174.062 90.9764 172.965 92.636 171.588C93.3577 170.949 92.3149 169.863 91.5788 170.505C88.7282 172.966 84.9177 174.244 81.295 175.037C77.3724 175.936 73.3282 176.18 69.3261 175.759C67.5743 175.609 65.8635 175.148 64.2744 174.395C63.4084 173.955 62.6218 175.254 63.4878 175.694C65.8729 176.914 68.6261 177.35 71.3323 177.451C69.4127 183.838 66.8832 189.976 64.1156 196.013H63.9424C54.0339 197.615 43.7357 197.64 33.7947 196.431C31.3374 196.132 28.8945 195.731 26.4697 195.215C26.3615 192.376 26.2857 189.532 26.2677 186.689C26.2399 177.6 26.7218 168.517 27.711 159.482C28.4038 152.922 29.3059 146.38 30.3054 139.86C34.6354 141.426 39.4309 142.09 43.9125 140.834C48.0621 139.676 51.822 136.674 53.2509 132.535C53.9726 130.478 53.9726 128.107 52.8901 126.184C51.8617 124.42 50.0611 123.269 48.2461 122.442C48.0296 122.345 47.8131 122.262 47.5966 122.168C48.4374 120.678 49.0399 118.715 48.3868 117.142C47.6399 115.381 45.529 115.226 43.8944 115.594C42.7506 115.85 41.5995 116.359 40.4052 116.128C39.301 115.915 38.334 115.247 37.4247 114.616C37.2226 114.475 37.0241 114.327 36.8257 114.186C38.1572 113.028 39.4021 111.711 40.6505 110.466C43.3938 107.809 45.9635 104.977 48.3435 101.99C48.8307 101.355 49.3178 100.706 49.758 100.027C50.1044 101.23 50.44 102.424 50.7647 103.61C51.4864 106.309 52.7565 109.459 55.9932 109.683C56.6356 109.726 57.277 109.585 57.8424 109.277C58.4078 108.969 58.874 108.507 59.1866 107.944C59.8036 106.825 59.8506 105.472 59.7279 104.227C59.3786 101.399 58.7748 98.6081 57.9237 95.8884C60.1507 96.4709 62.4416 96.7739 64.7435 96.7905C67.2475 96.8029 69.7476 96.588 72.2128 96.1482C77.0091 95.3815 81.7213 94.1587 86.2853 92.4966C88.597 91.6332 90.8293 90.5708 92.9571 89.3212C93.2169 90.6635 93.4984 92.0058 93.7907 93.3409C94.1515 95.0188 94.534 96.7039 94.949 98.3709C95.2521 99.5978 95.6129 100.929 96.6124 101.784C98.7774 103.614 101.664 101.676 102.386 99.3813C102.88 97.7936 102.649 96.1085 102.451 94.4992C102.397 94.0554 102.342 93.6115 102.285 93.1677C104.049 95.6935 105.814 98.2194 107.575 100.778C108.866 102.636 110.158 104.502 111.363 106.421C111.58 107.334 111.782 108.225 111.98 109.156C113.924 118.235 115.201 127.444 115.802 136.71ZM126.497 106.587C121.805 106.539 117.154 105.716 112.731 104.152C112.616 104.107 112.491 104.096 112.37 104.119C112.045 102.834 111.699 101.55 111.327 100.28C115.423 94.2318 118.433 87.5159 120.222 80.4339L120.319 80.4735C121.835 81.0014 123.411 81.3372 125.01 81.4731C123.758 89.9779 125.916 98.4323 128.232 106.576C127.666 106.587 127.085 106.587 126.497 106.587ZM129.813 106.508C127.507 98.4431 125.223 89.9996 126.533 81.5741C127.229 81.603 127.926 81.603 128.636 81.5741C128.379 89.9634 129.637 98.3304 132.349 106.273C131.494 106.378 130.664 106.454 129.813 106.501V106.508ZM133.887 106.082C131.153 98.1999 129.887 89.8836 130.152 81.5452C132.838 81.5047 135.519 81.2865 138.177 80.8921C139.621 80.6956 141.039 80.3423 142.406 79.8385C142.94 79.626 143.426 79.3068 143.833 78.9005C144.24 78.4941 144.56 78.0091 144.773 77.475C145.325 76.2734 145.993 75.31 147.162 74.6244C148.025 74.1208 149.009 73.8614 150.009 73.8739C150.29 73.8846 150.57 73.9171 150.846 73.9713C151.071 74.0211 151.29 74.0911 151.503 74.1806C152.545 74.6244 153.642 75.5951 153.238 76.7461C152.834 77.8972 151.319 78.1353 150.29 78.2905H150.207C150.096 78.3034 149.991 78.3443 149.9 78.4096L148.544 78.8498C147.341 82.9128 146.147 86.9734 144.961 91.0316C143.652 95.5011 142.365 99.9743 141.1 104.451C138.741 105.179 136.33 105.722 133.887 106.075V106.082ZM122.726 214.906C122.617 216.791 122.399 218.668 122.073 220.528C121.864 221.574 121.553 223.7 120.388 224.176C119.738 224.443 119.06 223.739 118.753 223.231C118.31 222.42 118.063 221.516 118.032 220.593C117.866 218.146 118.299 215.606 118.548 213.181C118.875 209.992 119.266 206.808 119.72 203.63C119.779 203.651 119.839 203.668 119.901 203.681C120.556 203.851 121.223 203.972 121.896 204.041C122.567 204.135 123.25 204.077 123.895 203.872C123.44 207.534 123.029 211.229 122.726 214.906ZM145.975 102.557L145.423 104.476C143.072 112.797 140.807 121.14 138.628 129.504C135.673 140.964 132.938 152.478 130.542 164.068C128.182 175.507 126.165 187.053 124.595 198.6C124.447 199.683 124.299 200.808 124.159 201.916C123.939 201.962 123.746 202.091 123.621 202.277C123.603 202.299 123.582 202.318 123.56 202.335C123.515 202.359 123.471 202.385 123.43 202.414C123.369 202.43 123.31 202.45 123.253 202.475C123.184 202.475 123.112 202.504 123.044 202.515H122.979C122.951 202.51 122.923 202.51 122.896 202.515H122.603C122.387 202.515 122.167 202.49 121.95 202.468C121.494 202.422 121.041 202.347 120.593 202.244C120.384 202.194 120.179 202.136 119.966 202.078C120.254 200.125 120.561 198.172 120.886 196.219C122.762 184.91 125.198 173.702 127.835 162.549C130.412 151.533 133.208 140.506 135.969 129.493C137.972 121.518 140.093 113.574 142.33 105.66C142.493 105.061 142.666 104.469 142.835 103.874C143.391 101.911 143.95 99.9502 144.513 97.9921C145.502 94.5689 146.503 91.1506 147.515 87.7372C147.671 88.7182 147.957 89.6743 148.363 90.5805C148.559 91.0285 148.792 91.4594 149.06 91.8687C148.699 93.045 148.371 94.2213 148.028 95.4013C147.335 97.7876 146.651 100.173 145.975 102.557ZM155.295 79.4632C158.005 80.322 159.286 83.0716 159.073 85.7562C158.636 91.4213 154.858 96.7075 150.355 99.9586C149.543 100.541 148.7 101.08 147.829 101.572C148.618 98.8003 149.415 96.0339 150.218 93.2723C151.246 94.2538 152.549 94.8636 154.039 94.5389C154.992 94.3332 154.606 92.8682 153.657 93.0739C152.459 93.3373 151.452 92.5543 150.712 91.58C150.321 91.0582 149.989 90.4942 149.724 89.8985L149.67 89.7723C148.717 87.6073 148.562 84.9768 149.529 82.7829C150.175 81.3396 151.293 80.0369 152.693 79.5137C153.218 79.3155 153.78 79.2366 154.339 79.2828C154.67 79.3028 154.997 79.3696 155.309 79.4812L155.295 79.4632ZM154.212 74.4115C153.652 73.6148 152.846 73.024 151.918 72.73C152.361 71.2398 152.798 69.7423 153.231 68.2521C153.893 65.9836 154.548 63.7091 155.198 61.4287C156.007 61.8906 156.891 62.2081 157.81 62.3669C156.612 66.389 155.418 70.4087 154.227 74.4259L154.212 74.4115ZM160.401 59.8518C160.072 60.4364 159.679 60.8513 158.983 60.9343C158.358 60.9699 157.733 60.8702 157.15 60.6421C156.476 60.4312 155.841 60.1119 155.27 59.6967C154.864 59.4006 154.564 58.9818 154.415 58.5023C154.205 57.7806 154.386 56.976 154.49 56.2435C154.512 56.11 154.53 55.9765 154.544 55.8502L156.46 56.3662C158.131 56.8244 159.78 57.3007 161.454 57.6977C161.148 58.441 160.798 59.1652 160.404 59.8663L160.401 59.8518ZM192.54 41.8714C192.136 43.1632 191.696 44.4406 191.23 45.7107C190.343 48.1355 189.48 50.7299 188.062 52.8986C185.334 57.077 180.066 57.6544 175.516 57.7662C172.981 57.775 170.448 57.5965 167.939 57.2322C166.427 57.0481 164.933 56.8461 163.457 56.5682C162.955 56.478 162.458 56.3806 161.963 56.2687C161.274 56.1136 160.592 55.9476 159.903 55.7528C158.2 55.2692 156.486 54.811 154.775 54.3635L153.314 53.9702C150.875 53.3207 148.439 52.6568 146.025 51.9099C141.612 50.5387 136.878 48.8103 134.006 44.953C131.231 41.2255 132.202 35.8996 133.284 31.7536C133.501 30.9454 133.753 30.1443 134.035 29.3577C134.136 29.298 134.22 29.2131 134.279 29.1113C134.338 29.0096 134.369 28.8943 134.37 28.7767C134.381 28.6153 134.404 28.4549 134.439 28.2968L134.457 28.2427C134.471 28.2083 134.48 28.1717 134.482 28.1345C135.052 26.1607 137.589 25.5256 139.443 25.6663C140.784 25.823 142.108 26.0959 143.402 26.4818C144.718 26.8162 146.034 27.1602 147.349 27.5138C152.607 28.9102 157.846 30.3789 163.154 31.5985C168.452 32.8521 173.832 33.7287 179.254 34.2217C181.964 34.4491 184.696 34.6259 187.362 35.1924C189.235 35.6001 191.829 36.1739 192.75 38.0791C193.331 39.2843 192.919 40.6771 192.544 41.8859L192.54 41.8714ZM198.191 20.0301C197.848 21.8886 197.399 23.7259 196.845 25.5328C195.769 29.025 194.303 32.385 192.475 35.5496C192.244 35.3855 192.003 35.2349 191.754 35.0986C189.517 33.8537 186.799 33.482 184.295 33.1789C181.372 32.8181 178.421 32.6846 175.498 32.3238C172.575 31.9629 169.602 31.4397 166.679 30.8263C160.877 29.6175 155.158 28.0406 149.439 26.4963C146.613 25.7385 143.77 24.84 140.89 24.3313C139.717 24.0989 138.512 24.0733 137.329 24.2555C137.192 20.7564 137.392 17.2523 137.924 13.7913C138.194 12.0487 138.556 10.3216 139.007 8.61691C139.373 7.01041 140.027 5.4835 140.937 4.11008C141.785 2.84246 143.069 1.93068 144.546 1.54817C146.195 1.18733 147.873 1.743 149.381 2.36724C150.889 2.99149 152.343 3.76368 153.888 4.31215C155.428 4.84092 157.011 5.23689 158.618 5.4957C165.25 6.61068 172.164 6.08386 178.511 8.60609C181.759 9.9051 184.818 11.666 188.254 12.449C190.012 12.8488 191.812 13.0413 193.616 13.0227C194.507 13.0227 195.391 12.9541 196.275 13.0227C197.159 13.0913 198.057 13.0696 198.317 14.0403C198.859 15.9852 198.552 18.096 198.195 20.0445L198.191 20.0301Z" fill="#1A3869" style="fill:#1A3869;fill:color(display-p3 0.1020 0.2196 0.4118);fill-opacity:1;"/>
</svg>
