<svg width="59" height="14" viewBox="0 0 59 14" fill="none" xmlns="http://www.w3.org/2000/svg">
<path opacity="0.5" d="M58.6934 12.2287C58.6365 12.6366 58.5484 13.0395 58.43 13.4339C55.7165 11.9364 52.5917 11.2292 49.539 10.7421C45.5157 10.0962 41.4671 9.65955 37.4438 8.93788C33.0849 8.18013 28.7513 7.27442 24.4285 6.30738C20.1057 5.34035 15.7901 4.31919 11.4746 3.31607C7.75795 2.45007 3.86454 1.23045 0 1.19797C0.0355879 1.11566 0.0563592 1.02772 0.0613468 0.938184C0.0722908 0.776737 0.0952076 0.61632 0.129906 0.458267L0.147944 0.404133C0.162387 0.369726 0.170929 0.333134 0.173205 0.295887C0.203319 0.195176 0.239464 0.096367 0.281451 0C2.1351 0.0819071 3.97661 0.341707 5.78058 0.775804C8.27756 1.31706 10.7673 1.90521 13.2499 2.48616C22.065 4.54652 30.8802 6.6538 39.8181 8.12239C43.8414 8.77911 47.9153 9.12912 51.9133 9.92657C54.2726 10.3628 56.5563 11.1382 58.6934 12.2287Z" fill="#3F89FF" style="fill:#3F89FF;fill:color(display-p3 0.2471 0.5373 1.0000);fill-opacity:1;"/>
</svg>
