<svg width="31" height="38" viewBox="0 0 31 38" fill="none" xmlns="http://www.w3.org/2000/svg">
<path d="M30.7576 4.93622C27.8537 7.66873 25.0943 10.5509 22.4908 13.571C16.3566 20.647 11.0416 28.3652 6.08008 36.3036C5.76254 36.8015 5.45582 37.3031 5.14551 37.8047C4.24338 37.2126 3.28637 36.7087 2.2877 36.3C1.54077 35.9391 0.775795 35.6469 0 35.369C4.89653 27.3874 10.3018 19.6438 15.9561 12.2034C19.2325 7.89146 22.7759 3.68412 26.7811 0C26.8708 0.0069404 26.9599 0.018979 27.0482 0.0360747H27.0879H27.1095L27.308 0.101044C27.4379 0.151561 27.5642 0.216504 27.6688 0.274238L27.7121 0.299499C27.7121 0.299499 27.7121 0.299499 27.7374 0.299499C27.7626 0.299499 27.8492 0.37528 27.9106 0.418581C28.3423 0.722999 28.7101 1.10916 28.9931 1.5552C29.6353 2.48615 30.0756 3.68414 30.6385 4.7486C30.6741 4.81365 30.7139 4.87631 30.7576 4.93622Z" fill="white" style="fill:white;fill-opacity:1;"/>
</svg>
