<svg width="58" height="14" viewBox="0 0 58 14" fill="none" xmlns="http://www.w3.org/2000/svg">
<path d="M0 5.43056C0.129901 5.8816 0.256193 6.33265 0.360835 6.79091C0.53301 7.53008 0.764693 8.25412 1.05363 8.95592C1.07119 8.99242 1.0917 9.0274 1.11497 9.06056C1.12701 9.07531 1.13788 9.091 1.14745 9.10747C1.25253 9.20595 1.37485 9.28424 1.50829 9.33841C1.86259 9.47488 2.23424 9.5611 2.61244 9.59458C2.75317 9.61623 2.89028 9.63067 3.03822 9.64511L3.62638 9.67759L4.46714 9.70644L5.05169 9.74254H5.07334C5.16129 9.74562 5.24768 9.76676 5.32714 9.80462C5.40659 9.84249 5.4774 9.89627 5.53519 9.96264C6.23521 10.0468 6.93885 10.1178 7.64609 10.1755L8.23786 10.2188C8.66004 10.2549 9.08943 10.2802 9.51882 10.3091L10.0998 10.3415C10.5725 10.3632 11.0488 10.3884 11.5178 10.3993L12.0952 10.4245C13.0454 10.4462 13.9908 10.4522 14.9313 10.4426H15.4979H16.0391L18.0056 10.3956C18.2005 10.3956 18.3881 10.3956 18.583 10.3956L19.882 10.356H20.4521C21.5346 10.3163 22.6171 10.273 23.7285 10.2188L24.2914 10.19C25.0925 10.1431 25.9007 10.0962 26.6982 10.0348C26.8858 10.0348 27.0806 10.0096 27.2647 9.99513C27.7374 9.95904 28.2064 9.92657 28.6755 9.88327L28.9245 9.86162C29.0355 9.85154 29.1474 9.86506 29.2529 9.90131C29.4131 9.97363 29.5414 10.1019 29.6137 10.2621C29.6613 10.3288 29.6967 10.4033 29.7183 10.4822C29.9854 11.4457 30.3751 12.373 31.1436 12.9756C31.4034 12.4957 31.6524 12.0122 31.905 11.5323C32.0999 11.1462 32.2875 10.7457 32.4896 10.356C32.6375 10.0709 32.7927 9.79665 32.9659 9.52964C33.1055 9.31477 33.2598 9.10981 33.4277 8.91621C33.7504 8.51601 34.1659 8.20066 34.6382 7.99754C35.1104 7.79443 35.6251 7.7097 36.1376 7.75072C36.3368 7.77895 36.5311 7.83483 36.7149 7.91672C37.0849 8.0889 37.4087 8.34651 37.6597 8.66834C37.9106 8.99016 38.0815 9.36699 38.1583 9.7678C38.1676 9.80587 38.1748 9.84442 38.1799 9.88327C38.2117 10.0668 38.2274 10.2527 38.2268 10.4389C38.1963 11.3347 38.0031 12.2175 37.6567 13.0442C37.9288 12.9118 38.1854 12.7496 38.4217 12.5607C38.5927 12.4304 38.751 12.2842 38.8944 12.124C38.8944 12.106 38.9269 12.0844 38.9485 12.0663C39.7676 11.1281 40.0599 9.87965 40.2691 8.68168C40.2945 8.54469 40.3613 8.41877 40.4604 8.32085C40.5652 8.19665 40.7089 8.11147 40.8681 8.0791L41.229 7.99609L41.781 7.86981C42.3584 7.7399 42.9321 7.6064 43.5022 7.46567C43.6899 7.42598 43.8631 7.37547 44.0615 7.33217C44.3538 7.26361 44.6461 7.19143 44.9347 7.11565C45.1152 7.07235 45.2956 7.02185 45.4868 6.97133C46.1435 6.80895 46.8075 6.63935 47.4642 6.45893C47.6446 6.41202 47.825 6.36512 48.0199 6.30738C48.4132 6.20635 48.8101 6.09449 49.1998 5.98985L49.7519 5.83469C50.5746 5.61097 51.3865 5.38005 52.2092 5.14551L52.7649 4.99035L54.7278 4.43104L55.2799 4.27227L55.8644 4.1063H55.8969H55.9294C56.2181 3.99083 56.4959 3.82484 56.7701 3.68772C56.865 3.64555 56.949 3.58239 57.0159 3.50301C57.0828 3.42363 57.1307 3.33011 57.1562 3.22948C57.2943 2.50933 57.3404 1.77457 57.2933 1.04282C57.2933 0.681983 57.2717 0.346401 57.2536 0C57.1422 0.0587216 57.0277 0.111714 56.9108 0.158768C56.2393 0.417835 55.5538 0.639474 54.8577 0.822692L54.302 0.977848C54.0855 1.03197 53.8762 1.08972 53.6669 1.15106C53.2267 1.27736 52.7829 1.40004 52.3391 1.5119C52.1587 1.56602 51.9783 1.61292 51.787 1.65622C50.921 1.88355 50.0514 2.08924 49.171 2.28048C48.9905 2.32739 48.8101 2.36707 48.6225 2.40315C48.2616 2.48253 47.9225 2.55831 47.5724 2.62687L47.2549 2.69543L47.0168 2.74234C46.3456 2.87584 45.6781 3.00214 45.0033 3.12482L44.4476 3.22225C44.1301 3.27999 43.8053 3.33051 43.4878 3.38463C43.3002 3.41711 43.127 3.44958 42.9249 3.47484C42.3512 3.56866 41.7774 3.65886 41.2001 3.74185L40.6372 3.82484C39.764 3.95113 38.8799 4.0666 37.9995 4.18567C37.8155 4.21093 37.6387 4.23259 37.4402 4.26146L36.2098 4.40578L35.6469 4.46714L34.1638 4.6259C33.536 4.69446 32.9081 4.75579 32.2767 4.81714L31.7102 4.87847C30.6565 4.98191 29.5981 5.08295 28.5348 5.18158C28.3472 5.20323 28.174 5.21767 27.9683 5.23572C27.5064 5.27902 27.0409 5.31869 26.5755 5.35478C26.3914 5.37643 26.2146 5.39447 26.0126 5.4053C25.2223 5.47386 24.4321 5.54243 23.6419 5.59655C23.4507 5.59655 23.2811 5.62541 23.0718 5.63624C21.9496 5.72284 20.8238 5.795 19.698 5.85995C19.5103 5.85995 19.3191 5.88522 19.1315 5.88883L17.9371 5.95377C17.7494 5.95377 17.5546 5.97543 17.367 5.97903C16.5407 6.02234 15.7216 6.05119 14.8989 6.07645L14.3215 6.09809C13.3761 6.11974 12.4271 6.14139 11.4745 6.14139C11.2833 6.14139 11.092 6.14139 10.9044 6.14139H8.92705L7.63887 6.11974H7.06515C6.19554 6.09449 5.32952 6.06564 4.4563 6.02595L3.87897 5.98985C3.57948 5.98985 3.27638 5.95738 2.97689 5.93212L2.39595 5.88883C1.96295 5.85635 1.52994 5.81304 1.10054 5.76613C0.723434 5.6912 0.35476 5.57878 0 5.43056Z" fill="#3F89FF" style="fill:#3F89FF;fill:color(display-p3 0.2471 0.5373 1.0000);fill-opacity:1;"/>
</svg>
