<svg width="61" height="50" viewBox="0 0 61 50" fill="none" xmlns="http://www.w3.org/2000/svg">
<path d="M8.78827 46.5795C9.96109 46.9698 11.1894 47.1672 12.4255 47.1641C12.9908 48.5184 13.5922 49.8571 14.2296 51.1802C15.0487 52.9266 15.8967 54.7056 17.1163 56.2066C18.1167 57.5499 19.5403 58.5172 21.1577 58.9526C22.7526 59.3567 24.4052 59.4108 26.0289 59.584C30.2255 60.0552 34.4616 60.0552 38.6582 59.584C40.8665 59.3351 43.064 58.9922 45.2542 58.6134C47.0217 58.3418 48.7634 57.923 50.4611 57.3613C52.1101 56.8298 53.6243 55.9471 54.8993 54.7741C56.1781 53.4941 57.0731 51.8817 57.4829 50.1194C58.0025 48.1203 58.2046 46.0347 58.4102 43.9852C58.6592 41.7263 58.8469 39.4639 58.9948 37.1978C59.2654 32.9003 59.3809 28.5847 59.3773 24.2691C59.3737 19.9535 59.2582 15.6416 59.0634 11.3404C59.4662 11.1699 59.8335 10.9251 60.1459 10.6188C60.442 10.2609 60.6276 9.82458 60.6799 9.36304C60.8032 8.44592 60.8346 7.5188 60.7737 6.59544C60.7737 6.15523 60.7449 5.715 60.716 5.27839C60.716 5.02941 60.6871 4.78404 60.6546 4.55672C60.6546 4.55672 60.6546 4.53507 60.6763 4.51703C60.7182 4.42949 60.7357 4.33225 60.7268 4.23559C60.7325 4.13602 60.7126 4.03663 60.6691 3.94691C60.6282 3.80979 60.5813 3.67269 60.5284 3.53557C60.524 3.51538 60.5167 3.49592 60.5067 3.47783C60.0809 2.07057 58.3417 1.13239 57.0535 0.742692C55.022 0.143706 52.8678 0.12929 50.7714 0.0607312C45.8207 -0.0944277 40.8593 0.060733 35.923 0.378268C31.4956 0.688585 27.0826 1.15406 22.6804 1.70975C18.4406 2.25461 14.1467 2.76698 10.0007 3.84227C7.90059 4.36567 5.856 5.09071 3.89535 6.00728C2.535 6.664 0.734435 7.62743 0.287 9.2115C0.176325 9.28255 0.0909072 9.38674 0.0429568 9.50921C-0.00499351 9.63168 -0.0130226 9.76617 0.0199862 9.89348C0.171537 10.632 0.350748 11.3681 0.557626 12.1018C0.65866 12.4626 0.756084 12.8235 0.871551 13.1626C0.871551 13.1626 0.889599 13.2204 0.900424 13.2492C0.925682 13.3322 0.943721 13.4152 0.965372 13.4982C1.13783 14.3591 1.41913 15.1945 1.80251 15.9844C2.22469 16.706 3.02212 17.0669 3.82318 17.2148C4.18401 19.1489 4.60257 21.0866 5.02835 23.0134C4.2273 25.229 3.53691 27.4782 2.95716 29.761C2.32931 32.2364 1.83857 34.7875 2.00817 37.3386C2.27158 41.5676 4.69279 45.2264 8.78827 46.5795ZM59.0922 4.23559C58.7314 5.09077 57.4144 5.24953 56.6025 5.4949C56.1478 5.63563 55.6896 5.76552 55.2349 5.89181L55.2096 5.85574C54.3063 4.6745 52.9718 3.89926 51.4982 3.69976C50.0246 3.50026 48.532 3.89274 47.3471 4.79127C46.0517 3.40927 43.8939 3.50308 42.151 4.21753C41.5304 4.47012 40.9639 4.88508 40.2891 4.85622C39.6429 4.77627 38.9882 4.79575 38.3478 4.91396C37.3919 5.18958 36.4901 5.62644 35.6813 6.20574C33.0147 2.97987 25.9676 2.43862 24.3763 6.67482C23.9633 6.53558 23.5212 6.5056 23.0931 6.5878C22.6651 6.67 22.2656 6.86159 21.9335 7.14392C20.851 5.87378 19.5411 4.36548 17.8452 4.49177C16.3622 4.60363 15.6297 5.85573 15.2472 7.15473C14.7374 6.96411 14.1821 6.93098 13.6532 7.05966C13.1244 7.18833 12.6464 7.47287 12.2811 7.8764C9.63983 7.51557 6.34903 7.51557 5.18353 10.4311C5.16465 10.4778 5.15016 10.5261 5.14023 10.5754C4.49795 10.5249 3.85204 10.4744 3.21336 10.4131C2.7118 10.359 1.44889 10.2615 1.70869 9.50738C1.93241 8.84345 2.67211 8.33106 3.23501 7.97383C4.7866 6.99236 6.61604 6.35008 8.35887 5.80883C10.2303 5.23351 12.1371 4.78031 14.0673 4.45208C17.9859 3.73041 21.9551 3.25412 25.9135 2.78864C29.9476 2.31956 33.9962 1.94068 38.0592 1.70614C42.1222 1.47159 46.2213 1.38499 50.2987 1.50407C52.0817 1.49241 53.8627 1.62393 55.6246 1.89737C56.4052 2.02698 57.1588 2.2855 57.8546 2.66234C58.367 2.96183 59.1031 3.49227 59.1103 4.13816C59.102 4.17018 59.096 4.20274 59.0922 4.23559ZM12.5445 9.40634C12.7041 9.42364 12.8651 9.38958 13.0039 9.3091C13.1428 9.22863 13.2524 9.10595 13.3167 8.95891C13.6776 8.29136 14.7312 8.29498 15.1714 8.83262C15.2629 8.94268 15.3841 9.02399 15.5207 9.06682C15.6572 9.10965 15.8032 9.11217 15.9411 9.07407C16.079 9.03597 16.203 8.95888 16.2982 8.85205C16.3933 8.74521 16.4557 8.61317 16.4777 8.47179C16.64 7.57331 17.0009 5.75109 18.2818 5.98924C18.9205 6.10832 19.4654 6.66039 19.8984 7.11143C20.4252 7.66712 20.9268 8.24085 21.4427 8.80375C21.5246 8.90168 21.6302 8.97701 21.7494 9.02253C21.8686 9.06806 21.9976 9.08228 22.1238 9.06383C22.2501 9.04537 22.3696 8.99485 22.4708 8.91711C22.572 8.83936 22.6516 8.73698 22.7021 8.61972C22.7588 8.46788 22.8543 8.3335 22.9789 8.22988C23.1036 8.12626 23.2532 8.05698 23.4128 8.02892C23.5725 8.00085 23.7367 8.01497 23.8893 8.06986C24.0418 8.12475 24.1773 8.21852 24.2825 8.34189C24.3745 8.4516 24.496 8.53254 24.6326 8.57515C24.7693 8.61775 24.9153 8.62019 25.0533 8.58217C25.1913 8.54415 25.3155 8.4673 25.411 8.36072C25.5066 8.25415 25.5695 8.12237 25.5923 7.98106C25.863 5.91708 28.0171 5.01498 29.8863 5.12323C31.7554 5.23148 33.9204 5.99645 34.9596 7.69237C35.0832 7.84405 35.2617 7.94087 35.4562 7.96181C35.6508 7.98275 35.8457 7.92612 35.9988 7.80423C36.8576 7.20525 37.803 6.54852 38.835 6.33563C39.8056 6.12996 40.6752 6.54492 41.6206 6.11553C43.0098 5.48407 45.5898 4.26444 46.5821 6.18047C46.7806 6.54131 47.3579 6.82638 47.7187 6.45832C48.0973 6.05481 48.5526 5.73094 49.058 5.50569C49.5634 5.28045 50.1087 5.15836 50.6618 5.1466C51.215 5.13484 51.765 5.23364 52.2795 5.4372C52.794 5.64076 53.2627 5.94498 53.6581 6.33204L53.3658 6.4078C51.143 6.9707 48.9023 7.43979 46.6434 7.85114C42.2088 8.64137 37.7236 9.16459 33.2384 9.57955C25.2315 10.3229 17.1596 11.0229 9.11662 10.7883C8.31797 10.7667 7.52414 10.7366 6.73512 10.6981C7.8068 8.70272 10.6538 9.10324 12.5265 9.40634H12.5445ZM57.9015 10.2543C52.9256 11.6688 47.9497 13.141 42.8871 14.2235C42.7279 14.2559 42.5842 14.3411 42.4794 14.4652C42.3803 14.5632 42.3135 14.6891 42.2882 14.8261C42.0753 16.0493 41.7722 17.3267 40.9134 18.2684C40.5627 18.6506 40.1427 18.9629 39.6757 19.1886C40.0365 18.1999 40.3974 17.0777 40.1989 16.0277C40.1321 15.5031 39.8999 15.0136 39.5358 14.6301C39.1718 14.2466 38.695 13.9891 38.1746 13.8951C37.6598 13.8514 37.1421 13.9348 36.6671 14.138C36.1921 14.3412 35.7742 14.6581 35.4504 15.0606C34.7864 15.8148 34.3678 16.789 33.9276 17.6767C33.675 18.1638 33.4261 18.6473 33.1663 19.12C32.3977 18.5174 32.008 17.5901 31.741 16.6266C31.6876 16.4541 31.5811 16.3029 31.4365 16.1946C31.292 16.0864 31.1169 16.0267 30.9363 16.0241C26.6676 16.3849 22.3412 16.5473 18.0509 16.6339C14.543 16.7116 11.0339 16.5549 7.54699 16.1648C7.4892 16.0984 7.41837 16.0446 7.33891 16.0067C7.25946 15.9689 7.17307 15.9477 7.08511 15.9447C6.26241 15.8833 5.43971 15.905 4.62422 15.7967C4.24602 15.7632 3.87437 15.677 3.52007 15.5405C3.38663 15.4864 3.26431 15.4081 3.15923 15.3096C3.14966 15.2931 3.13881 15.2775 3.12677 15.2627C3.1035 15.2295 3.08299 15.1945 3.06543 15.158C2.77649 14.4562 2.54479 13.7322 2.37261 12.993C2.24993 12.5348 2.12364 12.0837 2.01178 11.6327C2.36511 11.7368 2.7276 11.8069 3.09428 11.842C5.25929 12.0729 7.46762 12.1631 9.65067 12.2028C18.5128 12.3832 27.429 11.6183 36.2334 10.7017C40.6247 10.2435 44.998 9.65532 49.3244 8.78571C51.4894 8.34549 53.6184 7.84393 55.7365 7.24494C56.8362 6.9734 57.9203 6.64214 58.984 6.25265C59.1009 6.20559 59.2153 6.1526 59.3268 6.09388C59.3448 6.45471 59.3592 6.79029 59.3665 7.1367C59.4135 7.86845 59.3674 8.60321 59.2293 9.32335C59.2039 9.42398 59.1559 9.51753 59.089 9.59691C59.0221 9.67629 58.9381 9.73945 58.8433 9.78162C58.569 9.91874 58.2912 10.0847 58.0025 10.2002H57.97L57.9015 10.2543ZM17.3545 42.3686C17.3573 42.3555 17.3573 42.342 17.3545 42.3289C17.3527 42.3206 17.3527 42.312 17.3545 42.3037C17.3508 42.2327 17.3508 42.1617 17.3545 42.0908C17.3545 42.0042 17.3545 41.9175 17.3797 41.8309C17.9793 41.553 18.5529 41.2221 19.0937 40.8423C20.8077 39.6479 22.2185 38.0566 23.5175 36.4365C24.9392 34.6612 26.2923 32.8281 27.5841 30.959C29.815 27.7522 31.8758 24.4303 33.758 21.0072C33.989 20.585 34.2163 20.1556 34.4472 19.7262C34.541 19.5458 34.6421 19.3654 34.7359 19.185C35.2447 18.2179 35.6632 17.1679 36.2983 16.2766C36.8756 15.4684 38.3154 14.6926 38.7448 16.0782C39.0587 17.0921 38.503 18.355 38.1097 19.2824C38.0339 19.4484 37.969 19.6144 37.8896 19.7803C37.6586 20.2927 37.4097 20.7943 37.1679 21.3067C36.9839 21.6675 36.8071 22.05 36.6375 22.4289C34.427 26.62 31.8935 30.6325 29.06 34.4302C26.5341 37.7535 23.6114 41.0804 20.0391 43.3465C19.4137 43.7532 18.7601 44.1149 18.0834 44.429L17.9318 44.2233C17.9318 44.2233 17.8813 44.1331 17.8597 44.1006L17.7875 43.9707C17.7225 43.8444 17.6576 43.7109 17.6035 43.5738C17.5782 43.5052 17.5493 43.4294 17.5277 43.3573L17.506 43.2851C17.5045 43.2743 17.5045 43.2634 17.506 43.2527C17.4224 42.9663 17.3656 42.6727 17.3364 42.3758L17.3545 42.3686ZM15.0957 41.2103C14.034 41.5252 12.9368 41.7046 11.8301 41.7443L11.4873 40.7845C10.1161 36.9488 8.96146 33.0555 7.9439 29.1079C7.80679 28.5775 7.66967 28.0471 7.54338 27.513C6.70985 24.1464 5.98097 20.7546 5.30981 17.3519C5.41446 17.3519 5.52271 17.3519 5.62735 17.3519C9.72029 17.903 13.8498 18.1358 17.9787 18.0483C22.1536 17.9762 26.3681 17.8246 30.5322 17.4746C30.893 18.6257 31.4739 19.6757 32.4843 20.3613C32.4013 20.5273 32.3039 20.6896 32.2137 20.8592C31.0806 22.8895 29.8851 24.885 28.627 26.8455C27.3749 28.7796 26.0759 30.6704 24.7083 32.525C23.4397 34.3191 22.061 36.0327 20.5803 37.6561C19.0396 39.2871 17.2318 40.6113 15.0776 41.2175L15.0957 41.2103ZM10.2641 41.6181C9.64997 41.5139 9.06901 41.2667 8.56816 40.8964C6.86141 39.5685 6.37067 37.0355 6.52944 35.0004C6.63347 33.8779 6.84246 32.7677 7.15367 31.6843C8.07019 35.0436 9.09857 38.3705 10.2641 41.6181ZM13.9121 47.0667C16.4974 46.7253 18.968 45.7878 21.1288 44.3279C24.9284 41.831 28.0388 38.1937 30.727 34.5854C33.3845 30.9207 35.7781 27.0718 37.8896 23.0676C37.9084 23.0374 37.9253 23.0061 37.9401 22.9737C37.9978 22.8691 38.0592 22.768 38.1133 22.6634C38.1542 22.5925 38.18 22.5139 38.1891 22.4325C38.4128 21.9598 38.6545 21.4835 38.8819 20.9891C40.0312 20.7014 41.0788 20.1021 41.9093 19.2571C42.3812 18.7448 42.7554 18.1505 43.0134 17.5035C43.27 16.8561 43.4633 16.1854 43.5908 15.5008C47.5094 14.6312 51.3704 13.5559 55.2313 12.459C55.3449 12.4738 55.4603 12.4652 55.5705 12.4337C55.586 12.4369 55.6019 12.4369 55.6174 12.4337C55.6423 12.4299 55.6666 12.4226 55.6896 12.4121L56.1514 12.2894C56.5808 12.1631 57.0102 12.044 57.4396 11.9286C57.5154 11.9069 57.5984 11.8817 57.6742 11.8528C58.0747 21.0397 58.1324 30.2554 57.4071 39.4386C57.2339 41.6036 57.0174 43.7939 56.7396 45.9661C56.5159 47.7703 56.3066 49.5745 55.603 51.2523C54.1849 54.6153 50.6956 56.0046 47.3651 56.7443C43.4636 57.5922 39.5056 58.1553 35.5225 58.4293C31.6147 58.7072 27.7934 58.3536 23.9072 57.9531C22.4855 57.8087 20.8943 57.668 19.7143 56.784C18.2097 55.6545 17.2065 53.9875 16.3658 52.3384C15.4745 50.6389 14.6627 48.8636 13.9121 47.0811V47.0667ZM4.07577 40.3588C4.10115 40.3383 4.12308 40.314 4.14071 40.2866C4.26448 40.0807 4.40962 39.8883 4.57372 39.7128L4.59537 39.6876C4.60207 39.6745 4.61199 39.6633 4.62422 39.6551C4.65309 39.6263 4.68556 39.601 4.71804 39.5649L4.97424 39.3556C5.05362 39.2943 5.13661 39.2402 5.2196 39.1824L5.2629 39.1608C5.2629 39.1608 5.2629 39.1608 5.28455 39.1608C5.33674 39.1404 5.38738 39.1163 5.4361 39.0886C5.48041 39.0652 5.52622 39.0447 5.57322 39.0272C5.9316 40.0049 6.50217 40.8909 7.24388 41.6217C8.20844 42.5227 9.47128 43.0366 10.7909 43.065C11.2955 43.0975 11.8018 43.0975 12.3064 43.065L12.891 43.0217C13.9227 42.9383 14.9405 42.7299 15.922 42.4011C15.948 43.3136 16.2252 44.2013 16.723 44.9666C15.6325 45.3542 14.4958 45.5969 13.342 45.6883C12.8389 45.7267 12.3339 45.7327 11.8301 45.7063C10.6563 45.6399 9.50383 45.3637 8.42743 44.8908C6.71555 44.1609 5.31186 42.8568 4.45825 41.2031C4.31689 40.9331 4.18923 40.6561 4.07577 40.3732V40.3588ZM3.42627 34.9968C3.68246 31.8142 4.57011 28.6244 5.61292 25.5753C5.88475 26.7372 6.16861 27.8991 6.46449 29.061C5.64539 31.7565 4.76496 34.856 5.22322 37.62C4.60664 37.8526 4.05129 38.2228 3.59946 38.7025C3.37543 37.4855 3.31717 36.2438 3.42627 35.0112V34.9968Z" fill="#1A3869" style="fill:#1A3869;fill:color(display-p3 0.1020 0.2196 0.4118);fill-opacity:1;"/>
</svg>
