<svg width="90" height="43" viewBox="0 0 90 43" fill="none" xmlns="http://www.w3.org/2000/svg">
<path d="M88.9385 6.87751C88.7437 4.59228 88.344 2.32918 87.7442 0.11547C87.659 0.144581 87.5685 0.155126 87.4789 0.146413C87.3893 0.1377 87.3026 0.109926 87.2246 0.0649476C87.1777 0.0649476 87.138 0.0216501 87.0911 0C87.3112 0.692803 87.5133 1.39283 87.6684 2.10367C88.5958 6.33987 88.3901 10.9441 86.5859 14.9277C85.0471 18.4016 82.3758 21.251 79.0084 23.0104C75.4505 24.8146 70.8499 25.2548 67.9813 22.0145C66.657 20.5207 65.7513 18.7129 63.9038 17.7675C62.0564 16.8221 59.8408 16.6561 57.7696 16.7103C55.406 16.7947 53.0499 17.0273 50.7153 17.4067C48.4552 17.7021 46.2236 18.1849 44.0435 18.85C42.0445 19.5139 40.1501 20.4954 38.732 22.0975C37.3139 23.6996 36.3361 25.5399 35.001 27.1492C32.32 30.3967 28.3724 31.6596 24.3491 32.2694C19.8134 32.9478 15.1623 32.9911 11.3879 30.0359C8.39302 27.6868 6.4842 24.3527 5.00478 20.914C4.38775 19.4707 3.83567 18.0273 3.33051 16.584C3.05442 15.9417 2.83937 15.2748 2.68822 14.5922C2.66443 14.4271 2.69851 14.2589 2.78468 14.1162C2.87086 13.9735 3.0038 13.865 3.16091 13.8092C3.19999 13.7962 3.23974 13.7853 3.27999 13.7767C3.27999 13.7767 3.30164 13.7767 3.31968 13.7767C6.47689 13.0332 9.27405 11.2076 11.2256 8.61674C12.8746 6.4842 14.0653 4.04134 15.1118 1.55158C9.6246 4.94889 4.55299 8.97542 0 13.5493C0.0221463 13.5967 0.0390844 13.6463 0.0505166 13.6973C0.339184 14.8664 0.635071 16.0391 0.948997 17.2082C3.30886 25.9945 7.26721 35.4195 15.8334 39.782C20.066 41.947 24.829 42.6687 29.5452 42.8816C34.5319 43.0981 39.5547 42.7914 44.5306 42.3981C49.4127 42.0372 54.302 41.4888 59.1336 40.6877C63.2435 40.0058 67.3318 39.082 71.2252 37.5737C74.9779 36.1304 78.5249 34.1133 81.4476 31.3205C84.6553 28.169 86.9571 24.2134 88.1122 19.8676C89.2453 15.653 89.3246 11.1823 88.9385 6.87751ZM65.7802 29.3539C64.1817 32.6014 60.0718 34.1855 56.6944 34.5391C53.2087 34.8999 49.0844 34.2071 46.8905 31.1797C45.6564 29.4694 45.4832 27.3657 46.0533 25.3739C46.5657 23.5517 47.3704 21.7656 48.7632 20.4557C48.823 20.3704 48.9005 20.299 48.9905 20.2464C49.0599 20.189 49.1378 20.1427 49.2215 20.1093C51.0524 18.9987 53.1566 18.4202 55.2979 18.4386C57.6542 18.4386 60.2053 18.4387 62.3811 19.467C64.1023 20.2717 65.5601 21.7042 66.0544 23.5733C66.5271 25.3559 66.5921 27.6508 65.7802 29.3539Z" fill="#1A3869" style="fill:#1A3869;fill:color(display-p3 0.1020 0.2196 0.4118);fill-opacity:1;"/>
</svg>
