<svg width="12" height="23" viewBox="0 0 12 23" fill="none" xmlns="http://www.w3.org/2000/svg">
<path d="M11.2436 6.48621C10.807 12.1513 7.02906 17.4375 2.52584 20.6887C1.71356 21.2714 0.870381 21.8098 0 22.3016C0.789025 19.5304 1.58528 16.764 2.38874 14.0024C3.41711 14.9839 4.71973 15.5937 6.20997 15.2689C7.16258 15.0632 6.77649 13.5983 5.82749 13.8039C4.62952 14.0673 3.62279 13.2843 2.88308 12.3101C2.49178 11.7883 2.16014 11.2242 1.89438 10.6286L1.84026 10.5023C0.887656 8.33729 0.732502 5.70681 1.69954 3.51293C2.34543 2.0696 3.46402 0.766983 4.86406 0.243773C5.38856 0.0455283 5.95065 -0.0333664 6.50946 0.0128332C6.83502 0.0283428 7.15684 0.0890638 7.46567 0.193251C10.1755 1.05204 11.4493 3.8016 11.2436 6.48621Z" fill="#FFB53F" style="fill:#FFB53F;fill:color(display-p3 1.0000 0.7098 0.2471);fill-opacity:1;"/>
</svg>
