<svg width="20" height="19" viewBox="0 0 20 19" fill="none" xmlns="http://www.w3.org/2000/svg">
<path d="M19.0649 13.9997C18.9202 14.4955 18.6415 14.9417 18.2596 15.2893C17.8776 15.6369 17.4071 15.8724 16.8999 15.9699C16.4022 16.0614 15.8889 16.0139 15.4165 15.8324C14.9441 15.651 14.531 15.3427 14.2225 14.9415C14.1632 14.8462 14.0748 14.7726 13.9704 14.7314C13.866 14.6902 13.7511 14.6837 13.6427 14.7128C13.5343 14.7419 13.4381 14.8052 13.3684 14.8931C13.2987 14.9811 13.2591 15.0891 13.2555 15.2013C13.057 17.4998 10.4049 18.4885 8.43114 18.5968C7.40998 18.6509 6.33829 18.4091 5.94498 17.3483C5.5192 16.1864 6.02075 14.9415 6.43571 13.8518C6.46171 13.7416 6.45154 13.626 6.40671 13.5221C6.36187 13.4182 6.28477 13.3314 6.1868 13.2748C6.08883 13.2181 5.97521 13.1945 5.86277 13.2074C5.75033 13.2203 5.64504 13.2692 5.5625 13.3466C4.66763 14.3642 3.03666 13.9672 1.95415 13.4982C1.31538 13.255 0.762942 12.8281 0.366493 12.2713C0.179241 11.9386 0.0607161 11.5718 0.0179473 11.1924C-0.0248216 10.8131 0.00903623 10.429 0.117516 10.063C0.792277 7.29179 3.45163 5.24948 6.1615 4.72627C6.37999 4.41398 6.56616 4.08029 6.71718 3.73036C6.63418 2.13547 7.57596 0.255509 9.30797 0.020966C11.206 -0.238835 11.2962 1.9767 11.2348 3.29735C11.2348 3.71592 11.841 4.01902 12.1261 3.65819C13.2771 2.21485 15.8968 2.91847 17.203 3.78808C18.051 4.35098 18.6464 5.38658 18.1665 6.38248C17.6865 7.37839 16.4778 7.87636 15.4638 8.27328C15.3465 8.31083 15.2463 8.38855 15.1806 8.49276C15.115 8.59698 15.0882 8.72098 15.105 8.84298C15.1219 8.96498 15.1812 9.07715 15.2725 9.15973C15.3639 9.2423 15.4815 9.28999 15.6045 9.29442C17.9211 9.50371 19.8155 11.6687 19.0649 13.9997Z" fill="white" style="fill:white;fill-opacity:1;"/>
</svg>
