<svg width="54" height="45" viewBox="0 0 54 45" fill="none" xmlns="http://www.w3.org/2000/svg">
<path d="M52.3875 38.6648C51.8657 40.6576 51.1111 42.5821 50.1395 44.3985L49.9302 44.2397C49.2004 43.6772 48.4187 43.1854 47.5956 42.7711H47.5559C49.344 39.2911 50.3951 35.4797 50.6435 31.5751C50.8918 27.6705 50.3321 23.7567 48.9992 20.0782C46.5095 13.2657 41.1475 7.78457 34.6128 4.77521C34.0968 4.52984 33.5628 4.30613 33.0287 4.10045C32.6679 3.95612 32.2818 3.81899 31.9065 3.68909C31.3111 3.49063 30.7121 3.30301 30.1023 3.14064C29.4925 2.97826 28.9946 2.86279 28.4281 2.74732C25.5906 2.14922 22.6723 2.03576 19.7969 2.41175C17.5244 2.69177 15.3367 3.44925 13.3777 4.63448C11.5781 5.79461 9.93073 7.1753 8.47392 8.74439C5.69188 11.6672 3.74696 15.7121 3.76139 19.8148C3.76139 24.0294 6.44243 27.6918 10.7833 28.1753C15.1891 28.6661 18.9742 26.0103 21.7996 22.918C24.8505 19.5599 27.1486 15.5887 28.5399 11.2702C29.2262 9.17962 29.7013 7.0255 29.958 4.84016C30.933 5.11104 31.8909 5.44 32.8267 5.82525C32.7004 6.77785 32.5452 7.71602 32.3648 8.61811C30.5029 17.9709 24.8053 28.5073 15.1061 31.4662C10.4152 32.9095 5.55474 31.3651 2.36135 27.6593C-0.554191 24.2603 -0.420666 18.8189 0.889164 14.7631C3.66038 6.1536 12.0029 0.762723 20.7856 0.0807455C23.3354 -0.106297 25.8987 0.0319362 28.4137 0.492102C28.9838 0.585919 29.5539 0.708603 30.124 0.852937C31.1488 1.08748 32.1591 1.37615 33.1659 1.71173C33.7035 1.88853 34.2483 2.07255 34.7607 2.28544C39.436 4.08743 43.6853 6.84246 47.2384 10.3754C50.7168 13.7926 52.9275 18.2928 53.5061 23.1345C54.1058 28.3357 53.7264 33.6032 52.3875 38.6648Z" fill="white" style="fill:white;fill-opacity:1;"/>
</svg>
