<svg width="6" height="6" viewBox="0 0 6 6" fill="none" xmlns="http://www.w3.org/2000/svg">
<path d="M4.24699 0.512648C3.65806 0.11509 2.94699 -0.0601239 2.24077 0.018306C1.76213 0.0694107 1.31342 0.276015 0.963401 0.606468L0.898476 0.649767C0.622236 0.885512 0.399276 1.17729 0.244375 1.50576C0.0894734 1.83422 0.00617358 2.19186 8.57748e-07 2.55496C-0.000301799 2.94955 0.0794929 3.34008 0.234552 3.70292C0.389612 4.06576 0.616709 4.39336 0.902088 4.66586C1.1644 4.95393 1.49205 5.17476 1.85752 5.30976C2.22298 5.44477 2.61554 5.49 3.00213 5.44164C3.40254 5.38347 3.78693 5.24438 4.13185 5.03284C4.47677 4.8213 4.77501 4.54174 5.00839 4.2112C5.38847 3.61707 5.52156 2.89801 5.37935 2.20719C5.23715 1.51636 4.83083 0.908359 4.24699 0.512648Z" fill="white" style="fill:white;fill-opacity:1;"/>
</svg>
