<svg width="21" height="17" viewBox="0 0 21 17" fill="none" xmlns="http://www.w3.org/2000/svg">
<path d="M20.313 5.13556C19.8187 3.26643 18.3609 1.83392 16.6397 1.02925C14.4747 0.00809256 11.9128 -0.00635405 9.55653 0.000862649C7.41517 -0.017589 5.31101 0.560931 3.48007 1.67153C3.39643 1.70495 3.31852 1.75121 3.24914 1.80865C3.15914 1.86118 3.08159 1.93258 3.02181 2.01794C1.62899 3.31694 0.824331 5.1139 0.311946 6.93612C-0.258173 8.92793 -0.0849755 11.0316 1.14908 12.742C3.34295 15.7694 7.4673 16.4622 10.953 16.1013C14.3304 15.7405 18.4403 14.1636 20.0388 10.9161C20.8507 9.21297 20.7857 6.91808 20.313 5.13556ZM19.0104 9.15165C18.4872 12.1971 14.8211 13.8425 12.1148 14.3946C9.26786 14.9647 5.90488 14.8348 3.51255 12.9981C2.76101 12.4462 2.18117 11.6927 1.84016 10.8248C1.49916 9.957 1.41093 9.01032 1.58569 8.09441C1.79903 7.13506 2.11728 6.20209 2.53469 5.31236C2.8811 4.41685 3.44539 3.62188 4.17648 2.99942C5.60631 2.09237 7.25107 1.58062 8.94311 1.51637C10.6671 1.41773 12.3968 1.51337 14.0994 1.80145C15.7845 2.11898 17.466 2.92724 18.3934 4.42831C19.1944 5.74175 19.2702 7.66501 19.0104 9.15165Z" fill="#1A3869" style="fill:#1A3869;fill:color(display-p3 0.1020 0.2196 0.4118);fill-opacity:1;"/>
</svg>
