<svg width="19" height="19" viewBox="0 0 19 19" fill="none" xmlns="http://www.w3.org/2000/svg">
<path d="M18.7662 13.7469C18.6251 14.2358 18.351 14.6758 17.9745 15.0179C17.5979 15.3601 17.1337 15.5909 16.6336 15.6846C16.1441 15.7755 15.639 15.7293 15.1741 15.551C14.7092 15.3727 14.3027 15.0693 13.9996 14.6743C13.9417 14.58 13.8549 14.5069 13.7521 14.4661C13.6493 14.4252 13.5361 14.4187 13.4293 14.4475C13.3225 14.4764 13.2279 14.539 13.1596 14.626C13.0914 14.7131 13.0531 14.8199 13.0506 14.9304C12.8521 17.1893 10.2469 18.178 8.30197 18.2682C7.29885 18.3223 6.2452 18.0842 5.85911 17.0413C5.43693 15.8975 5.93491 14.6743 6.33905 13.6026C6.36729 13.4941 6.35913 13.3793 6.31588 13.2759C6.27263 13.1724 6.19667 13.086 6.09961 13.0299C6.00254 12.9738 5.88972 12.9511 5.7785 12.9652C5.66728 12.9794 5.5638 13.0296 5.48387 13.1082C4.60343 14.1077 2.9905 13.718 1.92243 13.2562C1.29381 13.018 0.750007 12.5985 0.359989 12.051C0.176292 11.7249 0.0599335 11.3653 0.017786 10.9934C-0.0243615 10.6215 0.00858452 10.2449 0.114646 9.88599C0.778582 7.15807 3.39102 5.15184 6.05758 4.63584C6.11835 4.62714 6.17661 4.60571 6.22853 4.57297C6.28046 4.54023 6.32486 4.4969 6.35891 4.44582C6.39296 4.39475 6.41588 4.33707 6.42613 4.27655C6.43638 4.21603 6.43375 4.15403 6.41842 4.09459C6.49104 4.05132 6.5499 3.98836 6.58822 3.91301C6.62654 3.83765 6.64273 3.75298 6.63491 3.66881C6.55192 2.09557 7.47929 0.248078 9.18243 0.0207521C11.0479 -0.235441 11.1382 1.94041 11.0768 3.23941C11.0768 3.65437 11.6758 3.96108 11.9536 3.60025C13.0866 2.15691 15.663 2.87857 16.9476 3.73014C17.7847 4.28222 18.3909 5.29978 17.8929 6.27764C17.395 7.2555 16.2331 7.74983 15.2372 8.13953C15.1199 8.17472 15.0191 8.25074 14.9531 8.35382C14.887 8.45691 14.86 8.58026 14.877 8.70151C14.894 8.82277 14.9539 8.93392 15.0458 9.01484C15.1377 9.09577 15.2555 9.14111 15.3779 9.14267C17.644 9.33752 19.5059 11.4484 18.7662 13.7469Z" fill="white" style="fill:white;fill-opacity:1;"/>
</svg>
