<svg width="22" height="30" viewBox="0 0 22 30" fill="none" xmlns="http://www.w3.org/2000/svg">
<path d="M0.154291 27.936C0.152761 27.9467 0.152761 27.9577 0.154291 27.9685L0.17594 28.0406C0.19759 28.1128 0.226465 28.1885 0.251724 28.2571C0.305849 28.3942 0.370781 28.5277 0.435731 28.654L0.507902 28.784C0.507902 28.784 0.572857 28.8922 0.580074 28.9066L0.731618 29.1123C1.40835 28.7982 2.06192 28.4365 2.68736 28.0298C6.25601 25.7637 9.16073 22.4368 11.7082 19.1136C14.5418 15.3159 17.0753 11.3033 19.2858 7.1122C19.4517 6.73332 19.6466 6.35806 19.8162 5.99C20.0615 5.47762 20.3105 4.97604 20.5378 4.46366C20.6172 4.29767 20.6822 4.13171 20.7579 3.96573C21.1513 3.03838 21.7069 1.77546 21.393 0.761512C20.9636 -0.624093 19.5239 0.151697 18.9466 0.959967C18.3115 1.85123 17.8929 2.90126 17.3842 3.86829C17.2903 4.04871 17.1893 4.22913 17.0955 4.40955C16.8646 4.83894 16.6372 5.26833 16.4063 5.69051C14.5241 9.11364 12.4633 12.4355 10.2324 15.6423C8.94062 17.5115 7.58748 19.3445 6.16579 21.1198C4.86678 22.7399 3.45594 24.3312 1.74197 25.5256C1.20119 25.9055 0.627598 26.2364 0.0280078 26.5143C0.0280078 26.6009 0.0280052 26.6875 0.00274673 26.7741C-0.000915576 26.845 -0.000915576 26.916 0.00274673 26.987C0.000994536 26.9953 0.000994536 27.0039 0.00274673 27.0122C0.00557754 27.0253 0.00557754 27.0388 0.00274673 27.0519C0.0255967 27.3507 0.0763283 27.6466 0.154291 27.936ZM18.8058 2.84713C18.7878 2.75417 18.7878 2.65864 18.8058 2.56569C18.822 2.48726 18.8437 2.41008 18.8708 2.33475C18.8735 2.31576 18.8796 2.29742 18.8888 2.28061C18.9523 2.15223 19.0298 2.03122 19.1198 1.91978C19.1699 1.84369 19.2398 1.7826 19.3218 1.74297C19.3999 1.68789 19.4904 1.65318 19.5852 1.64195H19.6177C19.6271 1.63865 19.6373 1.63865 19.6466 1.64195C19.6726 1.63472 19.7 1.63472 19.726 1.64195C19.9058 1.62683 20.0847 1.6796 20.2275 1.78988C20.3485 1.88365 20.442 2.0083 20.4982 2.15072C20.5375 2.26801 20.5653 2.38886 20.5811 2.51155C20.5811 2.59454 20.5811 2.68835 20.5811 2.77495C20.5829 2.80379 20.5829 2.83271 20.5811 2.86155C20.5564 3.02779 20.4907 3.18528 20.3899 3.31982C20.2496 3.50083 20.0433 3.6189 19.8162 3.64819C19.6708 3.66827 19.5226 3.64959 19.3868 3.59406C19.3194 3.56873 19.2561 3.53347 19.1991 3.48942L19.1595 3.46055C19.0493 3.36867 18.9586 3.25584 18.8924 3.12859C18.8468 3.04077 18.8175 2.9454 18.8058 2.84713Z" fill="white" style="fill:white;fill-opacity:1;"/>
</svg>
