<svg width="5" height="8" viewBox="0 0 5 8" fill="none" xmlns="http://www.w3.org/2000/svg">
<path d="M2.35983 0.0453407C2.68723 -0.0349099 3.03172 -0.0081395 3.34279 0.121741C3.65385 0.251621 3.91512 0.477774 4.08824 0.76701C4.78826 2.08406 4.20733 4.01452 3.82845 5.50116C3.77312 5.71285 3.72621 5.9113 3.68772 6.09652C3.62999 6.37437 3.56865 6.65582 3.51092 6.93366C3.45318 7.21151 3.39184 7.50019 3.3305 7.78164C2.85528 7.4366 2.31561 7.19045 1.74352 7.05781C1.17143 6.92517 0.578565 6.90873 0 7.00945C0.0685586 6.64861 0.147933 6.26253 0.216492 5.89087C0.317526 5.41096 0.407712 4.93105 0.508745 4.44753C0.710813 3.46967 0.909305 2.49901 1.12941 1.52837C1.29179 0.817522 1.57321 0.22215 2.35983 0.0453407Z" fill="#1A3869" style="fill:#1A3869;fill:color(display-p3 0.1020 0.2196 0.4118);fill-opacity:1;"/>
</svg>
