<svg width="60" height="62" viewBox="0 0 60 62" fill="none" xmlns="http://www.w3.org/2000/svg">
<path d="M0.00956951 57.6578C-0.016268 58.5979 0.0102236 59.5387 0.0889426 60.4759C0.128634 60.8836 0.171966 61.2914 0.211658 61.7064C6.29293 55.7333 12.3609 49.7435 18.4158 43.7368C18.8524 43.3074 19.2854 42.8816 19.7184 42.4486C21.8834 40.2836 24.0484 38.127 26.2134 35.9788C27.6134 34.5824 29.0171 33.1896 30.4099 31.7859C31.0089 31.1942 31.6019 30.6024 32.1888 30.0106C36.7378 25.4665 41.2674 20.9152 45.7778 16.3566C46.2758 15.8611 46.7689 15.3631 47.2573 14.8628C48.8401 13.2655 50.423 11.6622 52.0058 10.0529C52.4749 9.58377 52.9404 9.10385 53.4059 8.62755C53.4549 8.58642 53.4996 8.54049 53.5394 8.49043C53.9002 8.1296 54.2358 7.76876 54.5786 7.42957C55.3977 6.60687 56.206 5.78057 57.0178 4.95425C57.8297 4.12794 58.638 3.30163 59.4535 2.47532C58.9014 1.62375 58.2988 0.80827 57.6962 0C56.2048 1.61654 54.7037 3.22466 53.193 4.82436C52.9188 5.12024 52.6409 5.40891 52.3631 5.69757C52.2801 5.79139 52.2007 5.87438 52.1105 5.96459C52.0131 6.07645 51.9121 6.1811 51.8074 6.28935C50.3136 7.86499 48.8113 9.43583 47.3006 11.0018C46.8135 11.5106 46.3299 12.0086 45.8573 12.5137C43.6658 14.775 41.4574 17.0302 39.2323 19.2794C35.4219 23.1283 31.5838 26.9519 27.7181 30.7503C27.0902 31.3746 26.4443 32.006 25.8093 32.6303C23.6827 34.7159 21.5538 36.7967 19.4225 38.8727L18.0765 40.1826L9.6619 48.3338C6.43123 51.449 3.21378 54.557 0.00956951 57.6578Z" fill="white" style="fill:white;fill-opacity:1;"/>
</svg>
