<svg width="4" height="4" viewBox="0 0 4 4" fill="none" xmlns="http://www.w3.org/2000/svg">
<path d="M2.22719 3.82107C2.72872 3.74128 3.18541 3.48543 3.51537 3.0994C3.73974 2.83974 3.87393 2.51438 3.89786 2.17205C3.89786 2.17205 3.89786 2.13598 3.89786 2.11794C3.92966 1.85884 3.90553 1.59592 3.8271 1.34693C3.74867 1.09795 3.61776 0.868695 3.4432 0.674598C3.25285 0.467379 3.02215 0.301263 2.76525 0.186467C2.50836 0.0716713 2.2307 0.0106066 1.94934 0.00704081C1.67186 -0.0180837 1.39242 0.0242589 1.13482 0.130439C0.877225 0.236619 0.649113 0.40349 0.469929 0.616852C0.289035 0.842334 0.15579 1.10219 0.0782609 1.38068C0.00073164 1.65916 -0.0194691 1.95048 0.0188853 2.237C0.104703 2.73838 0.384593 3.18579 0.797926 3.48228C1.21126 3.77877 1.72475 3.90048 2.22719 3.82107Z" fill="white" style="fill:white;fill-opacity:1;"/>
</svg>
