<svg width="11" height="10" viewBox="0 0 11 10" fill="none" xmlns="http://www.w3.org/2000/svg">
<path d="M10.3499 4.01248C10.1442 4.96148 9.54161 5.93573 9.09778 6.79091C8.85723 7.27203 8.59862 7.73871 8.32198 8.19095C8.19569 8.41106 8.06217 8.62395 7.93227 8.83684C7.82402 8.99561 7.67608 9.38531 7.5101 9.47191C7.34412 9.55851 7.51011 9.508 7.31165 9.47191C7.07632 9.41354 6.84952 9.32501 6.63689 9.20851L6.37346 9.10024C6.26521 9.05333 6.14975 9.00281 6.03789 8.96312L5.75645 8.84406C5.50026 8.74303 5.24405 8.63478 4.99507 8.52653L4.90486 8.48684C4.69919 8.40746 4.50075 8.32084 4.29507 8.22703C3.96671 8.09352 3.64918 7.9528 3.32443 7.80847L2.71462 7.53784L2.04345 7.24196L1.5924 7.03267C1.38673 6.94607 1.18466 6.84864 0.986203 6.75843L0.946516 6.73678C0.805791 6.67905 0.672273 6.61411 0.531548 6.54916C0.370014 6.49398 0.218803 6.41226 0.084116 6.30738C-0.0457845 6.15583 -0.00248341 6.20636 0.0624668 6.00068C0.286407 5.42657 0.54922 4.86838 0.849084 4.33002C1.11971 3.76351 1.38313 3.19699 1.65376 2.63048C2.04442 1.6947 2.54984 0.811112 3.15844 0C3.45071 0.0866003 3.74298 0.173201 4.02804 0.270626C4.20845 0.32836 4.38889 0.386093 4.5657 0.451043C4.59936 0.461143 4.63197 0.474428 4.66311 0.49073C5.15385 0.660322 5.63736 0.851564 6.10645 1.05363C6.31934 1.13301 6.52142 1.22323 6.7271 1.30983C7.1168 1.48303 7.51371 1.67066 7.89258 1.8619C8.09104 1.95571 8.2859 2.05675 8.48436 2.1614C8.59622 2.21913 8.70446 2.27325 8.81271 2.33459C8.92096 2.39593 9.17354 2.52223 9.37561 2.6377C9.48922 2.69939 9.5989 2.76808 9.70398 2.84338C9.77976 2.8939 9.85192 2.95163 9.92047 3.00576C10.0829 3.11297 10.2102 3.26556 10.2865 3.44456C10.3629 3.62356 10.3849 3.82106 10.3499 4.01248Z" fill="#3F89FF" style="fill:#3F89FF;fill:color(display-p3 0.2471 0.5373 1.0000);fill-opacity:1;"/>
</svg>
