<svg width="7" height="7" viewBox="0 0 7 7" fill="none" xmlns="http://www.w3.org/2000/svg">
<path d="M0.00051966 3.67936C0.0124945 4.66215 0.204528 5.63443 0.567055 6.548C0.652313 6.72606 0.803983 6.86357 0.989512 6.93104C1.17504 6.9985 1.37964 6.99054 1.55935 6.90884C1.73549 6.82149 1.87123 6.66969 1.93842 6.48492C2.00561 6.30016 1.99908 6.09662 1.92019 5.91654C1.59032 5.07349 1.45347 4.16725 1.51966 3.26439C1.52691 2.84516 1.62931 2.43307 1.81914 2.05922C1.94932 1.80727 2.16765 1.61203 2.43254 1.51074C3.07844 1.31589 3.90475 1.87158 4.32692 2.28654C4.8433 2.78853 5.19556 3.43513 5.33728 4.14122C5.39151 4.31511 5.50799 4.4629 5.66442 4.55623C5.82085 4.64956 6.00622 4.6819 6.18501 4.64703C6.3638 4.61217 6.52347 4.51256 6.63337 4.36729C6.74327 4.22202 6.79569 4.04131 6.78062 3.85978C6.59759 2.9413 6.16284 2.09179 5.52492 1.40611C4.95028 0.758569 4.19705 0.295334 3.35991 0.0746242C2.88582 -0.0432421 2.38771 -0.0211094 1.92596 0.138361C1.4642 0.29783 1.05862 0.58779 0.758308 0.973099C0.144889 1.7092 -0.0103054 2.74841 0.00051966 3.67936Z" fill="#1A3869" style="fill:#1A3869;fill:color(display-p3 0.1020 0.2196 0.4118);fill-opacity:1;"/>
</svg>
