<svg width="82" height="90" viewBox="0 0 82 90" fill="none" xmlns="http://www.w3.org/2000/svg">
<path d="M0 62.1827C0.119075 66.0219 0.772218 69.8287 1.47585 73.5995C2.2769 77.9006 3.19702 82.1837 3.94394 86.4993C4.26509 88.3792 4.55735 90.2736 4.78828 92.1716C10.1575 94.0443 15.819 94.7696 21.4841 94.7588C24.4036 94.7487 27.3201 94.574 30.2199 94.2356C31.5911 94.0841 32.9623 93.9073 34.3262 93.6944C35.4087 93.5284 36.5201 93.3335 37.4366 92.6985C38.3483 86.9468 39.1446 81.183 39.8253 75.4072C36.9122 75.2247 34.0171 74.8206 31.1653 74.1985C30.2379 74.0144 30.3354 72.5314 31.2772 72.7154C34.1639 73.2856 37.2706 73.8917 40.3377 73.9675C40.5867 73.9675 40.8357 73.9675 41.0811 73.9675C44.574 73.9675 47.9694 73.2242 50.8236 70.9221C51.5453 70.3231 52.5339 71.4453 51.787 72.0479C49.4954 73.8606 46.7312 74.9765 43.8234 75.2629C44.1375 80.9151 44.7469 86.547 45.6492 92.1355C45.7791 92.9438 45.9054 93.7557 46.0497 94.5639C52.1587 95.3722 58.3181 95.1124 64.4523 94.481C67.4544 94.1706 70.453 93.8134 73.4407 93.3985C75.649 93.0881 78.1604 92.6299 79.6146 90.7644C79.6384 90.731 79.6663 90.7007 79.6976 90.6742C79.8599 89.3824 80.0007 88.0834 80.1125 86.7844C80.3832 83.591 80.5167 80.3832 80.8017 77.1826C81.1438 74.0148 81.3257 70.8318 81.3466 67.6457C81.2853 62.3739 81.0435 57.0913 80.7801 51.8231C80.2352 41.0197 79.3368 30.0359 76.3996 19.5825C76.0748 18.4423 75.7284 17.3092 75.3459 16.1907C71.8458 13.8344 69.3416 9.99151 67.5086 6.26409C67.4256 6.10171 67.3498 5.93573 67.2741 5.76974C64.6833 5.40891 62.3126 4.01609 60.2269 2.52223C59.3249 1.8619 58.4661 1.15466 57.6109 0.440208C57.4377 0.295874 57.2501 0.151551 57.0841 0C56.7016 0.396918 56.3167 0.791442 55.9294 1.18355C56.0665 3.67692 56.2072 6.17027 56.3371 8.66003C56.4273 10.3163 56.431 12.0916 55.4712 13.5277C55.1051 14.0922 54.5728 14.529 53.9477 14.7779C53.3227 15.0267 52.6357 15.0753 51.9819 14.9169C50.5385 14.6174 49.5354 13.9354 49.0158 12.5246C48.6068 11.3609 48.3579 10.147 48.2761 8.91623C44.5451 12.6761 40.802 16.4312 37.0469 20.1815C40.5133 19.7316 43.993 19.4069 47.4859 19.2072C47.5747 19.1606 47.6721 19.133 47.7722 19.1262C47.8722 19.1194 47.9725 19.1334 48.0668 19.1675C48.093 19.1762 48.1183 19.187 48.1426 19.2C48.2104 19.219 48.2758 19.2456 48.3375 19.2794C50.7983 20.3042 51.8051 23.0429 52.3066 25.493C53.0251 29.1455 53.4103 32.8556 53.4577 36.5778C53.4865 38.2521 53.5263 40.0094 52.7685 41.5465C52.0944 42.8301 51.0662 43.8933 49.806 44.61C48.3627 45.4832 46.6632 45.9162 45.0177 46.2554C43.1847 46.6415 41.3372 46.9771 39.4789 47.2116C35.8093 47.6915 32.0566 47.807 28.4266 47.006C26.8028 46.6451 25.2693 46.1363 24.2337 44.7652C23.318 43.4408 22.6189 41.9792 22.1625 40.4351C21.6891 39.0112 21.3272 37.5527 21.08 36.0726C15.1358 41.9639 9.17723 47.8443 3.20421 53.7139L2.76039 54.1469C2.90545 55.7243 2.75619 57.3149 2.32019 58.8377C1.91546 60.1678 1.10403 61.3376 0 62.1827Z" fill="#3F89FF" style="fill:#3F89FF;fill:color(display-p3 0.2471 0.5373 1.0000);fill-opacity:1;"/>
</svg>
