<svg width="8" height="7" viewBox="0 0 8 7" fill="none" xmlns="http://www.w3.org/2000/svg">
<path d="M6.64125 4.82191C6.45625 4.89851 6.24867 4.89989 6.06267 4.82576C5.87667 4.75163 5.72694 4.60783 5.64535 4.42498C5.50823 3.96672 5.36029 3.51569 5.21595 3.06465C5.11248 2.69245 4.94786 2.34004 4.72882 2.02183C4.5349 1.80493 4.28533 1.6452 4.00715 1.55995H3.97829C3.93498 1.55995 3.8989 1.55995 3.852 1.5383C3.76861 1.52194 3.68423 1.5111 3.59941 1.50584H3.5489L3.38291 1.52749C3.30253 1.53755 3.22295 1.55322 3.14476 1.5744C3.08204 1.59339 3.02058 1.61629 2.96073 1.64296L2.78392 1.72955C2.64854 1.81111 2.52678 1.91337 2.42309 2.03264C2.19003 2.3018 2.00124 2.6063 1.86379 2.93473C1.53706 3.68076 1.43547 4.50603 1.57152 5.30903C1.58573 5.40759 1.5804 5.508 1.55582 5.6045C1.53123 5.701 1.48788 5.7917 1.42824 5.87145C1.3686 5.95119 1.29383 6.01841 1.20821 6.06926C1.12259 6.12011 1.02779 6.1536 0.929232 6.16782C0.83067 6.18203 0.730274 6.1767 0.633775 6.15211C0.537275 6.12753 0.446567 6.08417 0.366821 6.02453C0.287075 5.96489 0.219857 5.89013 0.169005 5.80452C0.118153 5.7189 0.084665 5.6241 0.0704493 5.52554C-0.0862372 4.53175 0.0194887 3.51424 0.377156 2.57389C0.642937 1.78258 1.13621 1.08723 1.79524 0.574878C2.13583 0.331917 2.52219 0.160599 2.93091 0.0712863C3.33964 -0.0180261 3.76225 -0.0234759 4.17314 0.0552751C4.57691 0.138573 4.96018 0.301048 5.30081 0.533297C5.64145 0.765547 5.93269 1.06297 6.15773 1.40841C6.60877 2.13007 6.81084 3.02856 7.06342 3.84765C7.13099 4.03323 7.12488 4.23764 7.04636 4.41886C6.96783 4.60007 6.82286 4.74431 6.64125 4.82191Z" fill="#1A3869" style="fill:#1A3869;fill:color(display-p3 0.1020 0.2196 0.4118);fill-opacity:1;"/>
</svg>
