<svg width="10" height="7" viewBox="0 0 10 7" fill="none" xmlns="http://www.w3.org/2000/svg">
<path d="M9.1472 6.33246C6.31163 4.55322 3.22948 3.20123 0 2.31998C0.466158 1.55259 1.10807 0.906987 1.87276 0.436414C2.51985 0.0638981 3.27484 -0.0761463 4.01248 0.0395044C4.47471 0.100888 4.92493 0.232301 5.3476 0.429212C5.42068 0.454007 5.49183 0.484158 5.56048 0.519421C6.19536 0.83954 6.79931 1.21762 7.36465 1.64884L7.92757 2.06017C8.28778 2.31316 8.59739 2.63138 8.84045 2.99835C8.89472 3.08523 8.94064 3.17705 8.97757 3.27259C9.38892 4.16746 9.35287 5.33295 9.1472 6.33246Z" fill="#FFB53F" style="fill:#FFB53F;fill:color(display-p3 1.0000 0.7098 0.2471);fill-opacity:1;"/>
</svg>
