<svg width="43" height="45" viewBox="0 0 43 45" fill="none" xmlns="http://www.w3.org/2000/svg">
<path d="M40.5836 33.4679C39.8836 30.6787 39.1403 27.8822 38.1552 25.1687C36.434 20.3516 33.6628 15.4623 28.889 13.124C27.8497 12.6153 26.6121 12.2653 25.8471 11.3199C25.176 10.4936 24.927 9.41106 24.3641 8.52341C23.9754 7.87804 23.3785 7.38426 22.6718 7.12337C22.5202 5.47967 22.1426 3.86475 21.5496 2.32427C21.297 1.68198 21.0444 0.974746 20.5032 0.520094C20.006 0.141481 19.3869 -0.0409018 18.7639 0.00771503C17.1105 0.120908 15.4718 0.394016 13.871 0.823205C12.489 1.14796 11.5472 1.90569 11.1936 3.30934C10.7787 4.96196 10.8039 6.79861 10.8653 8.49815C10.6851 8.614 10.5139 8.74305 10.3529 8.88424C9.56961 9.68482 9.01731 10.6822 8.75438 11.7709C8.39354 13.0266 8.22034 14.3437 7.67187 15.538C7.10013 16.6567 6.40414 17.7073 5.59707 18.6701C4.06211 20.6229 2.83659 22.8001 1.96346 25.1254C1.12238 27.5085 0.567605 29.9832 0.310836 32.4973C-0.267558 38.1697 -0.0379368 43.8955 0.992819 49.5034C1.24901 50.9467 1.55932 52.3901 1.91294 53.8334C2.21231 55.1835 2.66888 56.4939 3.2733 57.7377C4.42846 59.8646 6.25382 61.5504 8.46571 62.5332C13.4055 64.8353 19.2005 64.0847 24.411 63.3198C27.3983 62.9151 30.3333 62.1893 33.1649 61.1548C35.5283 60.2635 37.9531 59.1088 39.7068 57.2361C41.4604 55.3634 42.063 52.9061 42.3192 50.355C42.5767 47.5353 42.5308 44.6961 42.1821 41.8862C41.8341 39.0481 41.3002 36.236 40.5836 33.4679ZM12.1931 3.62326C12.2492 3.28016 12.3901 2.95652 12.6031 2.68176C12.8161 2.40699 13.0944 2.18984 13.4127 2.05003C14.2244 1.77858 15.0607 1.58762 15.9097 1.4799C16.7577 1.32114 17.6237 1.15516 18.4861 1.07938C19.2835 1.00361 19.8681 1.16237 20.2434 1.91291C20.9876 3.48693 21.4481 5.17996 21.6037 6.91408C20.2394 6.85453 18.8725 6.91611 17.519 7.0981C16.0645 7.24398 14.619 7.46923 13.189 7.77286C12.7478 7.80749 12.312 7.89224 11.89 8.02545C11.7957 6.5547 11.8976 5.07794 12.1931 3.6341V3.62326ZM40.4429 37.5814C40.9841 40.2076 41.3123 42.8732 41.4243 45.5523C41.5109 48.125 41.4676 50.8818 40.746 53.368C40.046 55.7675 38.2959 57.4454 36.1706 58.6578C33.7677 59.9621 31.1923 60.9193 28.5209 61.5011C25.7673 62.1207 22.9755 62.5559 20.164 62.8038C17.5299 63.06 14.8164 63.1899 12.2003 62.6703C9.95877 62.2714 7.86672 61.274 6.14555 59.7836C4.23313 58.03 3.43206 55.6773 2.83668 53.2164C1.50132 47.7117 0.913897 42.0522 1.09025 36.3907C1.23819 31.6204 1.97791 26.7023 4.29808 22.4697C5.43831 20.3841 7.14867 18.6917 8.28891 16.6169C8.83787 15.5352 9.23491 14.3829 9.46882 13.1926C9.72141 12.1101 9.99566 10.9771 10.6776 10.0786C10.9928 9.68635 11.3899 9.36779 11.8412 9.14526C12.2925 8.92274 12.787 8.80161 13.2901 8.79042C13.332 8.79563 13.3744 8.79563 13.4164 8.79042C14.7817 8.49609 16.1622 8.27685 17.5515 8.1337C18.9131 7.94815 20.2891 7.89018 21.6614 7.96051C22.8738 8.07236 23.4259 8.89506 23.9022 9.91622C24.3352 10.8436 24.7213 11.8034 25.5224 12.4926C26.3848 13.2359 27.4781 13.5751 28.4776 14.0839C29.5229 14.6127 30.4935 15.2776 31.3643 16.0612C33.1452 17.7098 34.5973 19.6811 35.6438 21.8707C36.8959 24.3965 37.733 27.0884 38.5052 29.791C39.2485 32.3854 39.9233 34.9654 40.4429 37.5923V37.5814Z" fill="#1A3869" style="fill:#1A3869;fill:color(display-p3 0.1020 0.2196 0.4118);fill-opacity:1;"/>
</svg>
