<svg width="82" height="34" viewBox="0 0 82 34" fill="none" xmlns="http://www.w3.org/2000/svg">
<path d="M81.0615 24.0759C80.3436 23.1673 79.5226 22.3451 78.6151 21.6258C76.8676 20.2779 74.9195 19.2125 72.8417 18.4685C71.1076 17.7965 69.3063 17.3126 67.4689 17.0252C67.3438 16.9239 67.1895 16.8657 67.0287 16.8592C63.4517 16.4965 59.8386 16.9076 56.4346 18.0644C52.9878 19.3276 50.0439 21.6751 48.0452 24.7543C47.2019 26.0073 46.4771 27.336 45.8801 28.7234C45.7033 29.1528 45.5193 29.5822 45.3786 30.0224L45.3137 30.1956C45.0752 30.902 44.8918 31.6259 44.7652 32.3606C44.5342 33.7917 44.4688 35.2446 44.5703 36.6907C44.675 38.5778 44.877 40.382 45.5915 42.1537C45.6224 42.2093 45.6489 42.2672 45.6709 42.3269C33.6876 40.5227 21.7331 38.4948 9.83997 36.1494C6.52092 35.5312 3.23644 34.7399 0 33.7787C0.616095 30.8726 1.58553 28.0527 2.88668 25.3821C3.16091 24.8096 3.44838 24.2491 3.74908 23.7006C3.9728 23.2929 4.20375 22.8887 4.4419 22.4954C9.49358 14.005 17.7134 7.44141 27.0193 3.83306C34.1459 1.10426 41.7412 -0.190638 49.3694 0.0226485C57.1418 0.231933 65.4158 2.05413 71.6438 6.95427C74.2711 9.04048 76.4569 11.6288 78.0738 14.5683C79.6907 17.5079 80.7064 20.7398 81.0615 24.0759Z" fill="white" style="fill:white;fill-opacity:1;"/>
</svg>
