<svg width="36" height="39" viewBox="0 0 36 39" fill="none" xmlns="http://www.w3.org/2000/svg">
<path d="M35.7262 23.1331C35.7168 23.1543 35.706 23.1748 35.6938 23.1945C35.1919 24.1184 34.6112 24.9973 33.9582 25.8213L33.8824 25.9152C33.803 26.0234 33.7236 26.128 33.637 26.2291C33.5216 26.3915 33.3953 26.5538 33.2762 26.709C33.1571 26.8642 33.1102 26.9183 33.0236 27.0265C32.1612 28.109 31.2447 29.123 30.3209 30.1369C29.8483 30.6529 29.3611 31.1725 28.8776 31.6813C28.791 31.7715 28.7044 31.8689 28.6178 31.9555C28.5312 32.0421 28.5132 32.0638 28.459 32.1179C28.1379 32.4535 27.8204 32.7818 27.4956 33.1066C26.1124 34.5235 24.6979 35.9127 23.2522 37.2742C22.8697 37.6351 22.498 37.9959 22.112 38.3568C21.78 38.1222 21.448 37.8949 21.1269 37.6531C21.1274 37.6447 21.1274 37.6363 21.1269 37.6279C21.2568 36.0185 21.4444 34.4164 21.6573 32.8107C21.6811 32.7511 21.6922 32.6872 21.6898 32.6231V32.5653C21.7439 32.1828 21.798 31.8076 21.8594 31.4251C22.0723 29.9818 22.314 28.5168 22.5991 27.0734C22.6171 26.9652 22.6388 26.8605 22.6568 26.7523C22.6749 26.644 22.7037 26.5033 22.7362 26.3915C22.7867 26.1148 22.8444 25.837 22.9094 25.5579C22.9816 25.1971 23.0573 24.8363 23.1439 24.4754C23.3604 23.5264 21.9063 23.1006 21.7006 24.0496C21.6176 24.4105 21.5346 24.8002 21.4552 25.1718C21.4552 25.2765 21.4119 25.3847 21.3903 25.4894C21.3686 25.594 21.3325 25.7347 21.3073 25.8502C21.2496 26.1244 21.199 26.4023 21.1449 26.6801C20.8803 27.9912 20.647 29.3142 20.4449 30.6493C19.346 29.1858 18.1578 27.7915 16.8871 26.4744C16.4829 26.0378 16.0571 25.6084 15.6241 25.1935C14.3098 23.9058 12.9308 22.6858 11.4926 21.5382C9.66392 20.0636 7.7348 18.718 5.71923 17.5113L5.41252 17.3309C3.73103 16.3566 1.92325 15.3463 0 14.8844L0.382487 14.5669C1.15828 13.9174 1.94851 13.2932 2.764 12.6906C2.9408 12.5535 3.12483 12.4236 3.30885 12.2864L4.10991 11.7127C4.51765 11.424 4.93622 11.1354 5.35118 10.8648C5.3855 10.836 5.42166 10.8094 5.45943 10.7854C5.63263 10.6735 5.82026 10.5544 5.97903 10.4534C6.81617 9.90132 7.66052 9.37089 8.50488 8.8549C8.72498 8.73221 8.94509 8.60231 9.1652 8.47241C9.91574 8.0322 10.6771 7.60641 11.4421 7.18423C11.9617 6.89556 12.4849 6.61772 13.0153 6.34348C13.1741 6.2641 13.3365 6.17388 13.4952 6.09089L14.2169 5.73006C15.398 5.12867 16.584 4.54533 17.7747 3.98002C18.0381 3.85012 18.3051 3.72743 18.5686 3.61918C19.5356 3.16453 20.5062 2.7243 21.4769 2.28048L21.6465 2.20472L22.646 1.75006L22.9635 1.60933C23.1295 1.53716 23.2919 1.4614 23.4579 1.39284L26.193 0.176805C26.2872 0.137305 26.3711 0.0768367 26.4384 0C26.8317 0.598986 27.1853 1.21603 27.5209 1.84388C27.7446 2.25884 27.9575 2.67741 28.1595 3.1068C28.3291 3.46764 28.4879 3.79959 28.6467 4.15321C28.8054 4.50683 28.9498 4.83881 29.1013 5.17799C29.4116 5.89966 29.7111 6.62132 30.0251 7.37185C30.155 7.68217 30.2812 7.99611 30.4075 8.30642C30.5844 8.71417 30.7467 9.12912 30.9127 9.54047C30.9632 9.67759 31.0246 9.81471 31.0751 9.95183C31.2158 10.3127 31.3529 10.641 31.4864 10.9946C31.8473 11.8643 32.1612 12.7447 32.4823 13.6215C32.6339 13.9823 32.771 14.3865 32.9081 14.7726C32.9081 14.7942 32.9262 14.8123 32.9334 14.8375C33.0452 15.1442 33.1571 15.4473 33.2617 15.7504C33.5288 16.4938 33.7874 17.2371 34.0375 17.9804C34.1963 18.4423 34.3515 18.9114 34.4994 19.3804C34.6401 19.7882 34.7736 20.1887 34.8999 20.5965C35.0623 21.1088 35.2283 21.614 35.3835 22.1228L35.7262 23.1331Z" fill="white" style="fill:white;fill-opacity:1;"/>
</svg>
