<svg width="96" height="113" viewBox="0 0 96 113" fill="none" xmlns="http://www.w3.org/2000/svg">
<path d="M0.238457 25.6305C0.747234 27.2543 1.89468 28.5172 3.20451 29.5384C4.69334 30.6436 6.28046 31.6099 7.94588 32.425C9.65383 33.3295 11.4027 34.1534 13.1924 34.8967C14.9464 35.6433 16.7443 36.282 18.5761 36.8092C19.6432 37.1441 20.7523 37.3263 21.8705 37.3504C21.8203 37.917 21.9238 38.4867 22.17 38.9994C20.6861 39.7978 19.322 40.8011 18.1178 41.9799C16.5231 43.4371 15.0328 45.0045 13.6579 46.6708C11.1307 49.6859 9.31523 53.2317 8.3464 57.0448C7.35411 61.1836 7.17008 65.5208 7.3072 69.757C7.58247 78.0154 9.45996 86.1417 12.8352 93.684C12.8643 93.7485 12.9032 93.8082 12.9507 93.8608C12.4194 94.2713 11.9514 94.7576 11.5615 95.3041C11.1924 95.8057 10.9351 96.3805 10.8069 96.9898C10.6787 97.5992 10.6825 98.2289 10.8182 98.8367C11.179 100.089 12.2073 100.955 13.3115 101.55C14.4424 102.211 15.7894 102.397 17.057 102.066C17.1941 102.03 17.3312 101.983 17.4647 101.936C20.9685 106.189 25.8976 109.024 31.3352 109.914C31.4335 109.936 31.5355 109.933 31.6324 109.906C31.7293 109.879 31.8181 109.829 31.8909 109.759C32.1976 109.9 32.5079 110.037 32.8255 110.17C33.3667 110.394 33.9128 110.602 34.4636 110.795C34.5105 110.795 34.5538 110.831 34.6007 110.842C35.1925 111.051 35.7915 111.242 36.4049 111.405C37.8142 111.802 39.2471 112.111 40.6953 112.328C41.2545 112.411 41.8211 112.483 42.384 112.545C42.9 112.595 43.4088 112.639 43.9247 112.667C44.6753 112.718 45.4294 112.747 46.1871 112.743C47.1578 112.743 48.1248 112.743 49.0738 112.671C49.8388 112.621 50.5893 112.559 51.3471 112.469C51.8811 112.408 52.4044 112.339 52.9312 112.26C60.6169 111.109 68.2558 108.204 74.9746 104.321C75.0936 104.256 75.2055 104.195 75.3354 104.127C75.7973 103.856 76.2591 103.574 76.7102 103.282C77.3489 102.885 77.9623 102.474 78.5793 102.037C79.0628 101.705 79.5427 101.359 80.0226 100.994C80.8201 100.388 81.5887 99.7496 82.332 99.0856C82.8299 98.6526 83.311 98.2028 83.7753 97.7361C83.9305 97.5918 84.0712 97.4474 84.2083 97.3031C84.6052 96.899 84.9913 96.4816 85.3666 96.051C85.8646 95.4845 86.3372 94.9036 86.7883 94.301C87.1467 93.8319 87.4859 93.3508 87.8059 92.8576C88.3333 92.0691 88.8152 91.2511 89.2492 90.4076C89.3458 90.4155 89.4429 90.401 89.533 90.3653C89.6231 90.3297 89.7038 90.2737 89.7688 90.2019C94.1529 85.8141 94.8457 79.4887 94.7808 73.5818C94.7782 73.5246 94.7698 73.4678 94.7555 73.4122C94.8421 73.3004 94.9215 73.1813 94.9973 73.0514C96.3757 70.8864 96.2638 67.9131 93.987 66.394C93.7366 66.2239 93.4708 66.0778 93.1931 65.9574C91.6888 60.1545 89.2121 54.6484 85.8682 49.6729C82.7037 44.9821 78.7345 40.4933 73.9137 37.4442C69.093 34.3952 63.5902 32.8364 58.037 31.992C55.2153 31.559 52.3683 31.3209 49.5141 31.1621C47.024 30.9605 44.5187 31.0586 42.052 31.4544C41.8618 31.0662 41.5849 30.7269 41.2426 30.4629C40.9004 30.1989 40.502 30.0171 40.0782 29.9316C41.9654 25.8614 42.503 21.3474 42.4561 16.8983C42.4164 13.1781 42.2432 9.25222 40.9695 5.71243C39.9844 2.99535 37.2637 -1.2156 33.7925 0.332386C32.4177 0.949413 31.6275 2.39636 31.1764 3.7567C30.6245 5.58503 30.2238 7.45565 29.9785 9.34964C29.4825 12.5159 29.2519 15.718 29.2893 18.9226C27.8082 16.1682 26.0914 13.5471 24.1582 11.0889C23.0018 9.61235 21.7595 8.20507 20.438 6.87432C19.2075 5.65109 17.8255 4.49281 16.1657 3.90104C14.6791 3.37061 12.8713 3.35257 11.6444 4.47116C10.4176 5.58975 10.1362 7.23876 10.1145 8.76148C10.0279 15.5704 14.8342 20.5499 18.7745 25.6702C16.0921 24.1441 13.2665 22.8848 10.3382 21.9103C8.62501 21.2861 6.8561 20.827 5.05559 20.5391C3.64834 20.3551 2.05706 20.4886 0.996201 21.535C-0.0646534 22.5815 -0.208979 24.2269 0.238457 25.6305ZM40.5112 31.8188L40.3849 31.8513C34.5539 33.4502 28.9025 35.6435 23.5195 38.3968C23.3218 38.0048 23.2781 37.553 23.3969 37.1303C23.4797 36.8264 23.626 36.5435 23.8262 36.3004C24.4072 35.5499 25.3886 34.9689 26.1139 34.5612C27.7337 33.6519 29.4452 32.9165 31.2197 32.3673C32.9725 31.8231 34.7765 31.4603 36.6034 31.2848C37.6787 31.2054 39.6777 30.8879 40.5112 31.8188ZM91.6487 76.1293C91.7203 76.0969 91.7902 76.0607 91.858 76.0211C92.3598 75.6886 92.8417 75.3272 93.3014 74.9386C93.2653 78.7454 92.8323 82.7326 91.0245 86.0595C92.0049 82.8436 92.2187 79.4427 91.6487 76.1293ZM88.4842 68.5518C89.2528 67.7977 90.1657 66.9822 91.2663 66.9858C91.838 67.0105 92.3946 67.1766 92.8864 67.4693C93.4842 67.7893 93.9607 68.2962 94.2431 68.9126C94.7194 70.0132 94.3839 71.3447 93.7596 72.3117C93.1009 73.2427 92.2675 74.0368 91.3059 74.6499C90.756 72.4661 89.7986 70.4057 88.4842 68.5771V68.5518ZM29.0186 106.562C25.901 104.581 23.3247 101.94 21.0261 99.0604C19.1866 96.7881 17.5082 94.3899 16.0034 91.8834C18.9256 89.3018 20.8573 85.7829 21.4664 81.9316C21.9391 78.729 21.4572 75.4582 20.0808 72.5282C20.9251 73.2499 21.7226 74.0473 22.5236 74.8051C23.8804 76.086 25.3057 77.3309 27.0304 78.0887C28.7552 78.8464 30.9527 79.0521 32.2662 77.4536C33.4713 76.0103 33.4028 73.8452 33.2404 72.0663C33.1105 70.7139 32.8211 69.3816 32.378 68.0971C34.1772 69.3267 36.0484 70.4473 37.9818 71.4529C40.1468 72.5354 42.7845 73.7947 45.2743 73.6973C47.5042 73.6107 48.9511 71.9509 49.6259 69.9446C50.3007 67.9384 49.8641 65.6976 49.2326 63.7563C48.9335 62.8628 48.5493 62 48.0851 61.18C50.0481 62.3887 52.0543 63.5362 54.1075 64.5862C59.2051 67.2493 64.6814 69.1137 70.3451 70.1142C73.3216 70.6457 76.3427 70.8874 79.3659 70.8359C82.0108 70.7565 84.6594 70.3271 87.0445 69.1796C91.8003 75.3716 91.2554 83.9955 87.5136 90.5447C87.3079 90.9055 87.095 91.2664 86.8713 91.6272C86.6042 92.0494 86.3264 92.4643 86.0341 92.8685C85.3231 93.8656 84.5493 94.8165 83.7176 95.7155C83.7084 95.7332 83.6947 95.7481 83.6779 95.7588C83.2665 96.2062 82.848 96.6392 82.4114 97.0578L82.2778 97.184C80.6229 98.7403 78.8334 100.147 76.9303 101.388C76.4143 101.749 75.8839 102.073 75.3534 102.394C74.0653 103.181 72.741 103.906 71.4059 104.581C64.6619 107.973 57.3333 110.524 49.7558 111.156H49.5754C48.8537 111.206 48.1609 111.249 47.4501 111.26C46.5083 111.293 45.5557 111.278 44.6139 111.231C43.8922 111.195 43.1814 111.14 42.4814 111.065C42.2397 111.04 41.9979 111.008 41.7597 110.972C41.186 110.907 40.6231 110.82 40.053 110.712C39.5009 110.622 38.9705 110.51 38.4112 110.383C37.6895 110.217 36.9678 110.026 36.2462 109.81C35.4848 109.579 34.7379 109.319 33.9946 109.03C33.4052 108.807 32.8266 108.566 32.2589 108.309C31.1412 107.799 30.0587 107.216 29.0186 106.562ZM18.8575 101.301C19.3302 101.041 19.7813 100.735 20.2323 100.432C20.456 100.709 20.687 100.984 20.9143 101.254C22.8969 103.641 25.2047 105.737 27.7702 107.482H27.7918C24.3293 106.227 21.2502 104.098 18.8539 101.301H18.8575ZM15.5018 93.9365C16.6696 95.7857 17.9393 97.5686 19.305 99.2769C18.3235 99.9444 17.2482 100.644 16.0574 100.764C14.8667 100.883 13.6435 100.229 12.8424 99.4248C12.0414 98.6202 12.0486 97.3681 12.6476 96.3866C13.3043 95.2969 14.4337 94.5932 15.4982 93.9365H15.5018ZM23.8334 39.9015H23.8587C23.9308 39.8741 23.9998 39.839 24.0644 39.7969C27.0085 38.2845 30.0414 36.9518 33.1466 35.806C36.2101 34.6694 39.3818 33.4859 42.5969 32.8725C45.4835 32.3276 48.4965 32.6018 51.4048 32.8111C54.1713 32.9967 56.926 33.3291 59.6571 33.807C65.0336 34.7849 70.3342 36.6035 74.7689 39.8763C79.2036 43.149 82.8227 47.544 85.6878 52.1807C88.2658 56.3439 90.2354 60.8543 91.5369 65.5749C91.0826 65.5337 90.6247 65.579 90.1874 65.7084C89.2069 66.0554 88.3201 66.6247 87.5965 67.3719C87.4365 67.3374 87.2694 67.3672 87.1311 67.4549C84.2444 69.0714 80.9392 69.4467 77.688 69.3601C72.0628 69.213 66.5006 68.1364 61.2268 66.1739C55.8792 64.1785 50.9033 61.3531 46.1438 58.2355C45.3825 57.734 44.7186 58.6577 45.1552 59.318C46.2665 60.9995 47.3815 62.7351 47.9156 64.6945C48.4027 66.4554 48.7202 68.3028 47.9516 70.0384C47.6088 70.8106 47.064 71.6514 46.2557 72.0014C45.35 72.3983 44.2747 72.2251 43.3438 72.0014C38.8297 70.8287 34.8967 68.0899 31.1079 65.5064C30.9724 65.4204 30.8129 65.3804 30.6529 65.3921C30.4929 65.4039 30.341 65.4668 30.2196 65.5717C30.0982 65.6765 30.0137 65.8176 29.9787 65.9742C29.9438 66.1307 29.9601 66.2944 30.0254 66.4409C31.1791 68.7008 31.7871 71.1997 31.8007 73.737C31.8007 74.7149 31.7032 75.902 30.996 76.6598C30.1877 77.5221 28.8671 77.2732 27.882 76.8943C25.9299 76.1474 24.3892 74.6283 22.9061 73.2066C21.4231 71.7849 19.8967 70.3812 18.0204 69.4467C17.2987 69.0858 16.8224 70.0998 17.2121 70.6302C19.413 73.6156 20.4274 77.3116 20.0587 81.0021C19.6901 84.6927 17.9646 88.115 15.2167 90.606C14.8559 90.9416 14.4698 91.2664 14.0765 91.5622C14.0734 91.5704 14.0734 91.5794 14.0765 91.5875C14.2857 91.9483 14.495 92.3452 14.7151 92.7169L14.5167 92.8396C14.3904 92.9154 14.2677 92.9947 14.1559 93.0813C10.7353 85.4589 8.89414 77.2227 8.74336 68.8693C8.67841 64.8532 8.86602 60.6928 9.9377 56.8066C10.9408 53.1369 12.8965 49.8894 15.3502 47.0064C16.5682 45.5924 17.8721 44.2548 19.2544 43.0011C20.6184 41.7273 22.069 40.4969 23.8298 39.9015H23.8334ZM3.30555 22.033C4.67312 21.784 6.13088 22.2423 7.44432 22.5959C9.0333 23.0316 10.599 23.5482 12.1352 24.1439C15.3074 25.3861 18.3327 26.975 21.156 28.8816C21.7225 29.2641 22.6788 28.6038 22.2385 27.9435C20.0483 24.5913 17.2735 21.6794 15.0218 18.3705C13.1888 15.6643 11.6553 12.4781 11.6156 9.14758C11.6156 7.79805 11.7671 5.87481 13.1924 5.25057C14.6755 4.59385 16.44 5.5284 17.6271 6.38358C18.9229 7.39258 20.1039 8.54092 21.1488 9.80791C22.2631 11.059 23.3133 12.3656 24.2953 13.723C26.3286 16.5276 28.0753 19.5292 29.5094 22.6825C29.8883 23.516 30.9527 22.9892 30.9022 22.217C30.6169 17.8689 30.8263 13.5025 31.5264 9.20171C31.7521 7.46807 32.1325 5.7581 32.6631 4.09228C33.0852 2.91596 33.8538 1.51231 35.2863 1.53757C36.874 1.56283 38.0864 3.20462 38.7829 4.45311C39.5352 5.86256 40.0589 7.38258 40.3344 8.95634C40.9341 12.3383 41.146 15.7777 40.9659 19.2077C40.8143 22.7835 40.1793 26.3089 38.6457 29.5564C38.6177 29.6162 38.5971 29.6792 38.5844 29.744C38.1369 29.726 37.7003 29.744 37.2962 29.7693C34.9643 29.9015 32.6596 30.337 30.4403 31.0647C28.238 31.746 26.14 32.7271 24.2051 33.9802C23.4737 34.4571 22.8575 35.0907 22.4009 35.8349C21.0767 36.0262 19.6478 35.6184 18.4101 35.2287C16.5967 34.6569 14.8132 33.9945 13.0662 33.2441C10.0387 31.956 6.87781 30.4765 4.24733 28.4667C3.0674 27.5682 1.93076 26.4207 1.58075 24.9341C1.23435 23.5449 1.82252 22.2964 3.30194 22.033H3.30555Z" fill="#1A3869" style="fill:#1A3869;fill:color(display-p3 0.1020 0.2196 0.4118);fill-opacity:1;"/>
</svg>
