<svg width="195" height="137" viewBox="0 0 195 137" fill="none" xmlns="http://www.w3.org/2000/svg">
<path d="M0.670127 158.074C1.03096 158.828 0.915493 159.712 1.07426 160.517C1.13208 160.936 1.29462 161.335 1.54684 161.676C1.79907 162.016 2.13288 162.288 2.5176 162.465C3.48824 162.88 4.52384 162.559 5.53778 162.649C6.48317 162.732 7.34197 163.259 8.11776 163.732C8.91586 164.278 9.78358 164.715 10.6977 165.031C11.7802 165.33 12.8014 165.172 13.8911 164.973C16.0561 164.587 17.8603 165.464 19.7799 166.33C21.6996 167.196 23.5976 167.845 25.6868 167.412C26.8235 167.163 27.8951 166.792 29.0823 166.846C30.2458 166.934 31.3925 167.177 32.4922 167.567C34.686 168.289 36.8222 169.123 39.164 169.152C41.5924 169.18 43.9811 168.563 46.4059 168.545C48.8307 168.527 50.8983 169.469 53.1752 170.075C54.2276 170.389 55.3261 170.519 56.4227 170.461C57.4947 170.338 58.5366 170.026 59.5006 169.541C60.601 169.01 61.8078 168.736 63.0296 168.74C64.2437 168.797 65.4508 168.956 66.638 169.216C70.1958 169.891 74.598 170.274 76.7413 166.669C77.3475 165.644 78.1017 165.457 79.2672 165.431C80.1845 165.478 81.1019 165.342 81.9662 165.031C82.3499 164.874 82.6912 164.629 82.9621 164.316C83.233 164.002 83.4259 163.629 83.525 163.227C83.6296 162.776 83.6116 162.317 83.6982 161.866C83.8064 161.325 84.0879 161.394 84.5462 161.285C86.5308 160.816 86.1627 158.46 85.0766 157.276C83.7463 155.901 81.9371 155.09 80.0249 155.014C80.0321 154.575 79.9109 154.143 79.6763 153.772C79.4417 153.401 79.1039 153.107 78.7043 152.925C78.6478 152.828 78.5675 152.746 78.4708 152.689C78.3742 152.631 78.2645 152.6 78.1522 152.596L74.017 152.293C66.4684 151.74 58.9209 151.196 51.3746 150.662C52.2154 149.84 53.0633 149.024 53.9005 148.198C59.3371 142.906 64.7724 137.621 70.2066 132.343C77.5652 125.179 84.9142 118.008 92.2536 110.83C94.231 110.981 96.2733 110.772 97.9837 109.989C98.0089 110.519 98.045 111.072 98.0883 111.595C98.81 120.399 101.311 128.969 102.53 137.712C103.233 142.391 103.429 147.132 103.115 151.853C103.025 153.073 102.931 154.31 102.754 155.526C102.548 156.698 102.219 157.845 101.772 158.947C101.108 160.787 99.9069 163.079 100.809 165.006C102.465 168.538 106.297 169.4 109.83 169.852C113.898 170.347 118.026 169.933 121.914 168.639C123.919 167.948 125.887 167.155 127.81 166.261C129.481 165.54 131.242 164.76 132.501 163.375C133.695 162.05 134.377 160.127 134.911 158.449C135.59 156.284 135.889 154.007 136.297 151.799C136.997 148.029 137.648 144.248 138.249 140.454C138.296 140.18 138.339 139.902 138.379 139.624C139.286 133.892 140.079 128.144 140.757 122.38C141.118 122.38 141.453 122.38 141.8 122.348C141.865 123.556 141.941 124.772 142.034 125.956C142.518 132.023 143.319 138.061 144.434 144.045C144.972 146.931 145.581 149.818 146.285 152.705C146.909 155.259 147.512 157.854 148.811 160.17C149.433 161.33 150.235 162.385 151.185 163.295C152.114 164.116 153.179 164.77 154.332 165.226C155.781 165.921 157.282 166.505 158.82 166.972C160.245 167.335 161.691 167.609 163.15 167.791C165.977 168.224 168.832 168.448 171.691 168.459C173.95 168.459 176.84 168.563 178.583 166.857C179.027 166.418 179.357 165.878 179.545 165.283C179.734 164.689 179.775 164.057 179.666 163.443C179.46 162.039 178.684 160.795 178.295 159.449C177.454 156.562 177.743 153.48 178.266 150.54C178.818 147.379 179.59 144.261 180.099 141.089C180.631 137.766 180.992 134.418 181.181 131.058C181.376 127.778 181.672 124.509 181.935 121.229C182.176 118.108 182.244 114.976 182.141 111.847C181.972 106.301 181.78 100.752 181.445 95.2128C180.817 84.8064 179.778 74.1906 176.638 64.1811C178.015 64.8319 179.511 65.1907 181.033 65.2347C183.213 65.2293 185.338 64.5472 187.113 63.2826C188.79 62.1631 190.101 60.576 190.884 58.718C191.682 56.784 191.812 54.6478 191.642 52.5839C191.281 48.4848 189.791 44.3785 188.059 40.651C187.987 40.4959 187.914 40.3407 187.846 40.1856C187.817 40.1386 187.792 40.0809 187.767 40.034C187.139 38.7061 186.448 37.4083 185.695 36.1406C185.547 35.888 185.392 35.6318 185.233 35.3792C184.187 33.6726 183.038 32.0302 181.795 30.4611L181.777 30.4358C181.055 29.5012 180.438 28.5234 179.817 27.5311C179.172 26.5103 178.476 25.5228 177.732 24.5722C179.495 22.5901 181.217 20.5742 182.899 18.5247C183.018 18.3911 183.13 18.2576 183.234 18.1205C186.424 14.2307 189.455 10.2182 192.255 6.03256C193.107 5.16294 193.951 4.10569 194.092 2.87164C194.163 2.30024 194.041 1.72151 193.747 1.22687C193.452 0.73223 193.001 0.349855 192.465 0.140118C191.292 -0.271234 190.015 0.29168 189.051 0.941182C187.839 1.74945 187.002 2.87524 186.118 4.01187C183.902 6.86968 181.647 9.69503 179.352 12.4879C177.338 14.944 175.302 17.382 173.243 19.802C172.667 19.3396 172.05 18.9313 171.399 18.5824C169.657 17.6662 167.699 17.2394 165.734 17.3474C163.769 17.4554 161.87 18.0942 160.238 19.1958C159.56 19.6684 158.945 20.2263 158.409 20.8557C157.82 20.4744 157.201 20.1413 156.558 19.8597C155.338 19.3083 154.087 18.8264 152.812 18.4164C152.423 16.8323 151.633 15.4215 149.695 15.4467C149.113 15.4671 148.542 15.6108 148.019 15.8684C147.497 16.1259 147.035 16.4913 146.664 16.9406C144.193 16.5586 141.674 16.5976 139.216 17.0561C139.072 17.0772 138.939 17.1452 138.837 17.2495C138.735 17.3538 138.671 17.4887 138.653 17.6334C136.011 17.9931 133.395 18.5284 130.823 19.2355C125.909 20.5814 121.081 22.2845 116.249 23.8686L108.809 26.3079C108.534 26.4017 108.26 26.4883 107.986 26.5749C107.819 26.5248 107.641 26.527 107.475 26.5812C107.309 26.6354 107.164 26.7389 107.059 26.878C105.377 27.4192 103.699 27.9605 102.057 28.6172C101.684 28.4 101.272 28.2588 100.844 28.2018C100.416 28.1448 99.9811 28.1732 99.5641 28.2852C98.9636 28.447 98.4121 28.7542 97.9583 29.1796C97.5046 29.605 97.1626 30.1356 96.9625 30.7245C96.7633 31.4465 96.7758 32.2105 96.9986 32.9256C96.497 33.2142 96.0063 33.5173 95.5119 33.8132C93.2711 35.1591 91.1314 36.6025 89.5293 38.7061C87.9272 40.8098 86.7906 43.2743 85.7081 45.663C84.553 48.2611 83.5388 50.9195 82.6698 53.6266C80.9739 59.0227 79.6502 64.5287 78.7079 70.106C77.73 75.6123 76.9037 81.1836 76.7918 86.7838C76.7016 92.0303 77.1779 97.6305 79.3177 102.491C80.2348 104.726 81.7536 106.663 83.7054 108.087C84.187 108.422 84.6923 108.721 85.2173 108.982C80.8633 113.142 76.4947 117.295 72.1118 121.442C66.5982 126.645 61.0654 131.832 55.5134 137.001L47.2395 144.691L43.0899 148.523C42.5666 148.973 42.0837 149.468 41.6465 150.002L40.4161 149.915C34.8845 149.555 29.3601 149.122 23.8177 148.833C22.1729 148.739 20.5237 148.757 18.8814 148.887C17.2493 149.011 15.6419 149.358 14.104 149.919C14.0102 149.811 13.8833 149.738 13.7432 149.71C12.8739 149.482 11.9885 149.32 11.0946 149.226C9.47089 149.082 7.64146 149.251 6.4038 150.395C5.68213 151.056 5.40069 151.922 4.8847 152.723C4.3254 153.6 3.31144 153.625 2.39132 153.881C1.47119 154.137 0.58714 154.621 0.179397 155.49C-0.282471 156.508 0.244342 157.201 0.670127 158.074ZM46.3446 154.729C47.1089 154.408 47.8149 153.963 48.4338 153.412C48.4391 153.424 48.448 153.434 48.4591 153.441C49.4406 154.339 47.2178 155.158 46.6549 155.36C45.3731 155.871 43.9724 156.004 42.6172 155.746C41.9543 155.606 41.3176 155.362 40.73 155.025C40.2862 154.765 39.763 154.433 39.6475 153.903C39.413 152.975 40.1599 152.394 40.9718 152.156C41.1594 154.693 44.3059 155.541 46.3446 154.729ZM47.1853 147.408C47.4055 147.476 47.6255 147.552 47.8384 147.642C47.9323 147.685 48.0297 147.722 48.1235 147.768L48.2354 147.819L48.322 147.869C48.5141 147.973 48.6964 148.094 48.8669 148.23L49.004 148.335C49.0774 148.405 49.1472 148.478 49.2132 148.555C49.2818 148.631 49.3395 148.714 49.4045 148.793C49.4261 148.837 49.4514 148.873 49.4766 148.92C49.5019 148.966 49.5668 149.096 49.6065 149.19C49.6192 149.215 49.6289 149.242 49.6354 149.27C49.6354 149.288 49.6354 149.298 49.6354 149.316C49.6652 149.414 49.6857 149.514 49.6967 149.616C49.6988 149.65 49.6988 149.683 49.6967 149.717C49.6978 149.736 49.6978 149.755 49.6967 149.775C49.6923 149.88 49.7083 149.986 49.7437 150.085L49.3251 150.514C48.9029 150.944 48.4194 151.431 47.8817 151.896C46.3554 153.26 44.4935 154.393 42.9058 152.943C42.7057 152.794 42.5549 152.589 42.4731 152.353C42.3914 152.118 42.3825 151.863 42.4476 151.622C42.4656 151.596 42.4779 151.567 42.4837 151.536C42.5023 151.492 42.5156 151.446 42.5233 151.398C42.7632 150.915 43.0954 150.484 43.5012 150.128C43.6744 149.955 43.862 149.789 44.0172 149.641C44.811 148.92 45.6025 148.187 46.3915 147.444C46.4619 147.482 46.5392 147.505 46.6188 147.512C46.7003 147.523 46.7831 147.517 46.8624 147.495C46.9417 147.474 47.0159 147.437 47.0807 147.386L47.1853 147.408ZM78.7079 80.4403C78.8856 80.4083 79.0464 80.3151 79.1625 80.1769C80.245 78.8995 82.0709 78.6072 83.6297 78.3727C85.5008 78.0755 87.393 77.9307 89.2875 77.9397C93.07 77.9653 96.8259 78.5739 100.423 79.7439C100.369 80.5918 100.34 81.4434 100.354 82.2878C96.2617 81.3781 92.0705 80.9889 87.8803 81.1295C84.6328 81.2413 81.2085 81.5841 78.4481 83.3486C78.4806 82.8362 78.5238 82.3347 78.5707 81.8295C78.6177 81.3243 78.6501 80.895 78.7079 80.4403ZM81.277 64.6935C84.4133 62.9887 87.9262 62.0956 91.4958 62.0956C95.0655 62.0956 98.5784 62.9887 101.715 64.6935C101.599 65.9744 101.484 67.2662 101.375 68.5508C101.347 68.8503 101.318 69.1462 101.296 69.4493C101.142 71.1765 100.989 72.9061 100.838 74.6381C100.73 75.8288 100.614 77.0124 100.52 78.2067C96.6564 76.9808 92.619 76.391 88.5658 76.4603C86.4806 76.483 84.4013 76.6895 82.3523 77.0773C81.1298 77.273 79.9641 77.7309 78.9352 78.4196C79.4331 74.2592 80.1692 70.1204 81.0064 66.0069C81.0858 65.5667 81.176 65.1337 81.2698 64.6935H81.277ZM97.7996 35.2674C98.5033 37.0716 99.2141 38.8757 99.8781 40.6799C102.118 46.8165 104.356 52.9507 106.593 59.0825C105.506 61.2836 104.349 63.4486 103.122 65.5775L103.844 57.235C103.934 56.2824 102.447 56.1741 102.364 57.1231C102.252 58.4294 102.133 59.732 102.003 61.0382C101.942 61.7202 101.884 62.395 101.827 63.0733C98.7092 61.492 95.2719 60.6436 91.7768 60.5929C88.2818 60.5423 84.8213 61.2907 81.6595 62.781C82.5904 58.6165 83.7959 54.5181 85.2679 50.5127C86.1938 48.0195 87.2637 45.5821 88.4721 43.213C89.6304 40.9469 90.9979 38.836 92.9969 37.2411C94.3914 36.1703 95.8641 35.2053 97.4027 34.3545C97.5651 34.69 97.6842 34.9859 97.7924 35.2674H97.7996ZM121.506 79.9207C121.073 80.3537 120.64 80.7795 120.204 81.2089C114.149 87.2228 108.081 93.2126 102 99.1784C101.96 98.7635 101.917 98.3557 101.877 97.948C101.798 97.0108 101.772 96.07 101.798 95.1299C105.014 92.0267 108.228 88.9211 111.439 85.8131L119.843 77.6619L121.189 76.352C123.323 74.2736 125.452 72.1928 127.576 70.1096C128.211 69.4854 128.857 68.8539 129.485 68.2296C133.35 64.4313 137.188 60.6076 140.999 56.7587C143.217 54.5143 145.425 52.2591 147.624 49.9931C148.114 49.4879 148.598 48.9899 149.067 48.4812C150.58 46.9175 152.082 45.3467 153.574 43.7687C153.678 43.6604 153.78 43.5558 153.877 43.4439C153.967 43.3537 154.047 43.2707 154.13 43.1769C154.407 42.8882 154.685 42.5996 154.959 42.3037C156.468 40.7016 157.969 39.0934 159.463 37.4793C160.065 38.2876 160.668 39.1031 161.22 39.9546C160.404 40.7809 159.6 41.6073 158.784 42.4336C157.969 43.2599 157.164 44.0862 156.345 44.9089C155.984 45.2697 155.659 45.6306 155.306 45.9697C155.266 46.0198 155.221 46.0657 155.172 46.1069C154.707 46.5832 154.241 47.0631 153.772 47.5322C152.197 49.1415 150.614 50.7448 149.024 52.3421C148.543 52.8424 148.049 53.3404 147.544 53.8359C143.036 58.4065 138.507 62.9579 133.955 67.4899C133.366 68.0817 132.773 68.6735 132.176 69.2652C130.784 70.6689 129.38 72.0617 127.98 73.4581C125.829 75.6111 123.669 77.7653 121.499 79.9207H121.506ZM134.695 68.8791C138.837 68.2681 143.003 67.8508 147.191 67.6271C149.781 68.7456 150.214 72.3829 150.601 74.8438C150.886 76.6768 151.099 78.5134 151.225 80.3645C151.405 82.2016 151.438 84.0501 151.326 85.8925C151.026 89.1941 148.215 90.7854 145.271 91.5179C142.03 92.3278 138.722 92.8364 135.388 93.037C133.795 93.1363 132.197 93.1037 130.61 92.9396C129.044 92.7772 127.117 92.5788 125.753 91.7308C124.494 90.9514 123.87 89.3493 123.339 88.0286C122.786 86.6055 122.366 85.1343 122.084 83.6337C121.961 83.0166 121.849 82.3996 121.752 81.7718C126.079 77.4754 130.391 73.1779 134.688 68.8791H134.695ZM153.92 49.5528C153.978 50.6714 154.038 51.79 154.101 52.9086C154.191 54.554 154.433 56.268 154.223 57.9098C154.05 59.2593 153.303 60.7171 151.744 60.4356C151.2 60.3747 150.684 60.1621 150.254 59.8222C149.785 59.3387 149.615 58.4871 149.475 57.8556C149.228 56.7373 149.091 55.5978 149.063 54.453C150.676 52.8256 152.293 51.1946 153.913 49.5528H153.92ZM162.021 41.2789C163.699 44.3893 164.619 47.8317 165.943 51.0936C163.879 50.592 161.974 49.3832 160.3 48.142C159.452 47.5177 158.64 46.8466 157.832 46.179L157.503 45.9048C159.012 44.3568 160.524 42.8233 162.021 41.2789ZM121.117 74.3602C121.117 72.8952 121.615 71.8741 123.008 71.2534C123.625 70.9865 124.266 70.781 124.924 70.64C123.657 71.8813 122.387 73.1153 121.117 74.3566V74.3602ZM101.888 92.9757C101.971 91.7344 102.065 90.4931 102.101 89.2447C102.184 86.2714 101.74 83.3306 101.863 80.3573C101.996 77.5428 102.31 74.7355 102.559 71.939C102.646 70.9684 102.729 69.9977 102.815 69.0271C104.399 66.411 105.897 63.7373 107.282 61.0202C107.419 61.4063 107.564 61.7851 107.701 62.1712C108.332 63.8996 108.939 65.6352 109.588 67.3528C110.057 68.5869 110.671 69.9328 111.84 70.6689C112.386 70.9979 113.008 71.1798 113.645 71.1969C114.283 71.2139 114.914 71.0656 115.477 70.7663C116.794 70.0843 117.422 68.7745 117.689 67.3636C118.006 65.6785 117.328 64.0836 116.765 62.5248C116.162 60.8037 115.499 59.1041 114.813 57.419C114.373 56.3221 113.928 55.2239 113.478 54.1246V54.1066C116.154 54.4582 118.858 54.5416 121.55 54.3555C126.891 53.9905 132.118 52.645 136.972 50.3864C139.324 49.2894 141.56 47.9597 143.647 46.4172C144.972 45.4321 146.361 44.346 147.292 42.9856C147.4 44.6202 147.537 46.2332 147.598 47.8894C143.675 51.9524 139.717 55.9745 135.723 59.9557C132.791 62.9001 129.849 65.8157 126.897 68.7023C125.55 68.9193 124.223 69.2439 122.928 69.673C121.654 70.124 120.467 70.9143 119.948 72.1988C119.515 73.2813 119.587 74.5298 119.673 75.7278C114.764 80.5028 109.842 85.2683 104.908 90.0241C103.909 91.0272 102.905 91.9978 101.888 92.9721V92.9757ZM102.646 31.6338C105.171 36.8767 107.221 42.3001 109.317 47.7378C110.476 50.758 111.71 53.7457 112.926 56.7335C113.55 58.2526 114.16 59.7753 114.73 61.3052C115.286 62.7738 116.033 64.3543 116.253 65.9059C116.433 67.1435 115.989 68.825 114.809 69.4457C113.629 70.0663 112.536 69.6369 111.833 68.623C111.039 67.4791 110.653 66.0213 110.187 64.7223C109.613 63.1527 109.043 61.5867 108.462 60.0315C108.35 59.7175 108.239 59.4 108.101 59.0861C108.069 59.0103 108.047 58.9381 108.022 58.866C105.857 52.929 103.692 46.9933 101.527 41.0588C100.953 39.4892 100.412 37.9051 99.7842 36.3679C99.4234 35.4839 99.0625 34.5962 98.7306 33.6905C98.5754 33.2395 98.4311 32.774 98.3156 32.3085C98.3156 32.2833 98.3156 32.258 98.3156 32.2364C98.2323 31.8057 98.2906 31.3596 98.4818 30.9648C98.673 30.57 98.9869 30.2477 99.3765 30.0461C100.253 29.5409 101.134 29.8043 101.834 30.4069C101.95 30.5063 102.061 30.6123 102.166 30.7245L102.646 31.6338ZM139.169 23.865C139.032 25.2498 138.71 26.6101 138.213 27.91C135.976 33.3766 129.914 36.9308 124.104 36.754C117.996 36.5953 112.175 32.6044 108.798 27.6141L110.418 27.0909C115.304 25.4888 120.186 23.8758 125.075 22.2882C129.694 20.7907 134.345 19.4556 139.169 18.8278C139.391 20.4935 139.391 22.1813 139.169 23.847V23.865ZM140.771 30.0208C139.638 32.6943 137.813 35.0181 135.485 36.754C134.259 37.648 132.925 38.385 131.516 38.9479C129.607 39.702 127.377 39.8897 125.331 39.9041C121.627 39.9082 117.975 39.0369 114.671 37.3614C111.368 35.6859 108.507 33.2536 106.323 30.2626C106.012 29.8392 105.721 29.4062 105.449 28.9636C105.414 28.9178 105.381 28.8695 105.352 28.8193C105.337 28.7911 105.317 28.7655 105.294 28.7435C105.973 28.509 106.644 28.2852 107.326 28.0615C109.393 31.2231 112.19 33.8417 115.481 35.6968C118.457 37.3638 121.824 38.3814 125.259 38.201C128.51 38.0067 131.638 36.893 134.28 34.9895C136.933 33.1369 138.921 30.4803 139.949 27.412C140.834 24.4908 141.053 21.408 140.587 18.3911C141.165 18.3154 141.746 18.2612 142.327 18.2396C142.767 22.2196 142.388 26.3187 140.771 30.0208ZM147.079 39.9654C146.938 40.0791 146.846 40.2414 146.819 40.4201C146.57 41.8634 145.506 42.9459 144.448 43.8769C143.41 44.7668 142.317 45.5911 141.176 46.345C132.804 51.7787 122.741 53.9809 112.864 52.5406H112.818C112.096 50.7652 111.385 48.9815 110.685 47.1894C108.581 41.7408 106.528 36.2958 104.002 31.0384C103.84 30.6776 103.667 30.3456 103.497 30.0028C103.484 29.9663 103.467 29.9312 103.447 29.8982C103.441 29.8854 103.434 29.8733 103.425 29.8621C103.402 29.8211 103.376 29.7824 103.346 29.7466L103.295 29.6889C103.288 29.6903 103.281 29.6903 103.273 29.6889L103.122 29.5409C103.393 29.4435 103.656 29.3353 103.927 29.2451C103.94 29.3254 103.968 29.4025 104.01 29.4724C104.269 29.8946 104.54 30.3095 104.832 30.7209C107.285 34.2783 110.629 37.1291 114.53 38.9877C118.431 40.8464 122.752 41.6477 127.06 41.3114C129.167 41.1634 131.274 40.7918 133.194 39.8464C134.629 39.1579 135.982 38.3106 137.228 37.3205C142.814 32.691 144.513 25.1929 143.878 18.236C144.639 18.2562 145.397 18.3164 146.151 18.4164C146.151 18.4164 146.151 18.4164 146.151 18.4381C146.26 25.6223 146.646 32.7957 147.093 39.9654H147.079ZM152.372 27.1594C152.852 32.009 153.184 36.8731 153.455 41.7335C151.968 43.314 150.467 44.8872 148.952 46.4533C148.786 43.5666 148.591 40.6799 148.41 37.7932C148.013 31.4137 147.689 25.0197 147.573 18.6329C147.573 18.6329 147.573 18.6004 147.573 18.5896V18.5463C147.598 18.2807 147.694 18.0267 147.85 17.8103C148.006 17.594 148.217 17.4233 148.461 17.3159C149.183 16.9226 150.139 16.8612 150.684 17.3592C150.871 17.5357 151.025 17.7448 151.138 17.9762C151.375 18.5071 151.519 19.0746 151.564 19.6541C151.64 20.2675 151.658 20.8809 151.716 21.3753C151.983 23.2985 152.192 25.229 152.387 27.1594H152.372ZM157.467 22.1077C155.963 24.4072 155.314 27.1619 155.634 29.8909C155.952 32.3591 157.189 34.3509 158.586 36.2813C157.355 37.6236 156.103 38.9551 154.851 40.2866C154.458 33.7916 153.96 27.2965 153.152 20.8015C153.126 20.5922 153.101 20.3757 153.065 20.1448C153.953 20.4515 154.833 20.7907 155.692 21.166C156.315 21.4188 156.914 21.728 157.482 22.0897L157.467 22.1077ZM180.164 13.8482C180.965 12.874 181.759 11.8889 182.553 10.9074C183.647 9.56032 184.73 8.20719 185.8 6.84805C186.796 5.5743 187.709 4.12735 188.878 3.01237C189.538 2.3773 191.065 1.08552 192.082 1.66285C192.908 2.13555 192.67 3.00155 192.19 3.78095C192.018 3.82503 191.87 3.93523 191.779 4.08765C191.544 4.44849 191.31 4.80932 191.057 5.17016C190.982 5.24643 190.923 5.33729 190.884 5.43717C189.357 7.71764 187.763 9.95242 186.103 12.1415C185.025 13.5656 183.925 14.9716 182.801 16.3596C182.255 15.2318 181.325 14.3352 180.178 13.8302L180.164 13.8482ZM176.765 23.4789C176.501 23.1686 176.227 22.8547 175.953 22.5407C175.433 21.9562 174.87 21.3716 174.315 20.8268C175.949 18.9216 177.562 16.9983 179.161 15.0534C179.32 15.1007 179.476 15.1561 179.63 15.2194L179.76 15.2844C179.774 15.2869 179.789 15.2869 179.803 15.2844C179.886 15.3187 179.964 15.3649 180.034 15.4215C180.206 15.5311 180.371 15.6516 180.528 15.7823L180.6 15.8509L180.622 15.8689H180.644C180.716 15.9411 180.788 16.0168 180.853 16.089C180.986 16.237 181.106 16.3885 181.214 16.5473L181.293 16.6772C181.347 16.771 181.398 16.8648 181.445 16.9658C181.492 17.0669 181.531 17.1499 181.567 17.2401C181.604 17.3303 181.603 17.3231 181.618 17.3628C181.619 17.3699 181.619 17.3773 181.618 17.3844C181.618 17.3844 181.618 17.4097 181.618 17.4277C181.618 17.4458 181.618 17.4457 181.618 17.453C181.633 17.5038 181.645 17.5557 181.654 17.6081C180.102 19.6288 178.461 21.5557 176.779 23.4609L176.765 23.4789ZM184.072 36.4112C181.733 43.9888 173.824 47.3626 166.593 48.7698C165.51 45.8471 164.554 42.9099 163.06 40.1964C162.818 39.7526 162.555 39.3087 162.277 38.8757C162.093 38.5835 161.895 38.2948 161.689 38.0025C161.296 37.454 160.892 36.92 160.491 36.3715C160.195 35.9602 159.896 35.5561 159.607 35.1483C158.081 32.958 156.836 30.6595 157.052 27.7945C157.184 26.0898 157.737 24.4445 158.662 23.0062C158.93 22.5838 159.232 22.1833 159.564 21.8082C160.554 20.6829 161.813 19.8254 163.223 19.3149C164.943 18.7583 166.786 18.702 168.538 19.1525C169.888 19.4797 171.148 20.102 172.229 20.9747C172.623 21.27 172.997 21.5919 173.348 21.9382C173.428 22.0056 173.504 22.0779 173.575 22.1546C174.34 22.9088 175.098 23.7098 175.808 24.5398C176.13 24.9006 176.447 25.3011 176.743 25.6944L177.194 26.3006C178.02 27.4697 178.749 28.7038 179.543 29.909C179.551 30.0698 179.612 30.2235 179.716 30.3456C181.32 32.2542 182.776 34.2819 184.072 36.4112ZM186.446 40.8242C183.787 48.4018 175.26 50.9601 168.094 52.3313C167.733 51.6096 167.437 50.8879 167.141 50.1663C171.222 49.3616 175.253 48.0698 178.688 45.6991C181.497 43.8251 183.701 41.1749 185.031 38.0711C185.558 38.9876 186.024 39.8969 186.46 40.8242H186.446ZM175.881 62.1135L175.859 62.0918C175.8 62.0259 175.726 61.9751 175.643 61.9439C174.65 61.2886 173.741 60.5142 172.936 59.6382C171.312 57.8439 169.923 55.8491 168.805 53.7024C175.935 52.2952 184.064 49.6214 187.312 42.6825C188.925 46.3919 190.343 50.5379 190.199 54.5648C190.194 56.4601 189.623 58.3107 188.56 59.8799C187.342 61.5246 185.644 62.7512 183.7 63.3909C180.965 64.3146 178.233 63.5893 175.895 62.1315L175.881 62.1135ZM146.545 147.491C148.923 147.884 151.308 148.173 153.711 148.342C158.394 148.659 163.096 148.548 167.758 148.01C170.042 147.743 172.334 147.393 174.582 146.902C175.665 146.701 176.711 146.336 177.685 145.82C177.23 147.967 176.747 150.103 176.462 152.279C176.101 155.007 176.101 157.825 177.01 160.452C177.45 161.726 178.37 163.122 178.186 164.522C178.028 165.767 176.819 166.521 175.661 166.745C173.232 167.232 170.645 167.044 168.198 166.864C165.364 166.707 162.545 166.336 159.766 165.756C158.3 165.377 156.873 164.86 155.504 164.212C154.263 163.663 153.061 163.18 152.066 162.231C150.312 160.553 149.208 158.211 148.562 155.898C147.808 153.112 147.144 150.309 146.545 147.491ZM145.7 143.067C148.39 143.399 151.099 143.553 153.808 143.529C158.893 143.503 163.966 142.977 169.01 142.345C172.142 141.959 176.05 141.883 178.753 139.974C178.591 141.093 178.392 142.212 178.194 143.319C178.194 143.392 178.168 143.456 178.154 143.525C177.396 144.499 176.231 144.968 175.069 145.257C173.806 145.593 172.507 145.809 171.222 146.022C168.432 146.495 165.616 146.802 162.79 146.942C157.256 147.217 151.708 146.88 146.249 145.935C146.058 144.979 145.881 144.027 145.708 143.067H145.7ZM135.684 145.25C133.158 146.112 130.455 146.094 127.825 146.148C125.259 146.199 122.69 146.238 120.117 146.148C114.91 145.993 109.693 145.329 104.843 143.33C104.76 143.294 104.67 143.273 104.58 143.269C104.522 142.432 104.443 141.602 104.356 140.743C106.596 141.475 108.888 142.04 111.212 142.432C115.865 143.161 120.586 143.362 125.284 143.031C127.702 142.886 130.116 142.634 132.519 142.309C133.861 142.125 135.272 141.97 136.532 141.457C136.33 142.699 136.128 143.947 135.911 145.185C135.835 145.195 135.761 145.217 135.691 145.25H135.684ZM102.956 159.975C103.382 158.883 103.735 157.763 104.013 156.623C104.226 155.559 104.368 154.481 104.439 153.397C104.668 151.062 104.763 148.715 104.724 146.368C104.724 145.867 104.695 145.365 104.666 144.86C109.621 146.841 114.975 147.505 120.276 147.649C123.029 147.725 125.786 147.675 128.536 147.613C130.939 147.563 133.324 147.469 135.637 146.805C135.223 149.211 134.788 151.616 134.331 154.022C133.67 157.475 132.977 161.809 129.669 163.725C127.99 164.637 126.254 165.441 124.473 166.131C122.573 166.941 120.603 167.575 118.587 168.026C114.714 168.849 110.705 168.786 106.86 167.842C105.417 167.502 103.905 166.903 102.97 165.706C102.364 164.926 101.758 164.107 101.978 163.082C102.231 162.03 102.56 160.998 102.963 159.994L102.956 159.975ZM99.3837 109.145C100.491 108.295 101.303 107.118 101.704 105.782C102.14 104.259 102.289 102.668 102.144 101.091L102.588 100.658C108.561 94.7907 114.519 88.9103 120.464 83.0166C120.711 84.4967 121.073 85.9552 121.546 87.3791C122.003 88.9232 122.702 90.3848 123.617 91.7092C124.653 93.0803 126.186 93.5891 127.81 93.9499C131.44 94.751 135.193 94.6355 138.863 94.1556C140.721 93.9102 142.568 93.5855 144.401 93.1994C146.047 92.8602 147.736 92.4272 149.19 91.554C150.45 90.8373 151.478 89.7741 152.152 88.4905C152.91 86.9534 152.874 85.1961 152.841 83.5218C152.794 79.7996 152.409 76.0895 151.69 72.437C151.185 69.9869 150.178 67.2482 147.721 66.2234C147.659 66.1896 147.594 66.1629 147.526 66.144C147.502 66.131 147.477 66.1202 147.45 66.1115C147.356 66.0774 147.256 66.0633 147.156 66.0702C147.056 66.077 146.958 66.1046 146.87 66.1512C143.377 66.3533 139.897 66.6781 136.431 67.1255C140.183 63.3776 143.926 59.6225 147.66 55.8602C147.742 57.091 147.99 58.3049 148.399 59.4686C148.919 60.8794 149.915 61.5614 151.366 61.8609C152.019 62.0193 152.706 61.9707 153.331 61.7218C153.956 61.473 154.489 61.0362 154.855 60.4717C155.815 59.0284 155.811 57.2603 155.721 55.604C155.591 53.1143 155.45 50.6209 155.313 48.1275C155.7 47.7354 156.085 47.3409 156.468 46.944C156.641 47.0956 156.829 47.2399 156.995 47.3842C157.85 48.1059 158.709 48.8059 159.611 49.4662C161.696 50.9745 164.067 52.3746 166.658 52.7137C166.733 52.8797 166.809 53.0457 166.892 53.2081C168.725 56.9355 171.222 60.7856 174.73 63.1347C175.112 64.2532 175.451 65.3863 175.783 66.5265C178.72 76.9907 179.619 87.9637 180.164 98.7671C180.427 104.035 180.669 109.318 180.73 114.59C180.709 117.776 180.527 120.959 180.185 124.127C179.9 127.327 179.767 130.535 179.496 133.728C179.384 135.027 179.244 136.326 179.081 137.618C179.05 137.645 179.022 137.675 178.998 137.708C177.555 139.574 175.029 140.032 172.824 140.342C169.837 140.765 166.838 141.122 163.836 141.425C157.723 142.056 151.568 142.316 145.433 141.508C145.289 140.7 145.163 139.888 145.033 139.08C144.131 133.491 143.521 127.859 143.207 122.207C146.115 121.921 148.879 120.805 151.171 118.992C151.918 118.389 150.947 117.267 150.207 117.866C147.357 120.168 143.961 120.908 140.465 120.911C140.219 120.911 139.97 120.911 139.721 120.911C136.654 120.836 133.537 120.23 130.661 119.659C129.719 119.475 129.622 120.958 130.549 121.142C133.401 121.765 136.296 122.169 139.209 122.351C138.526 128.125 137.73 133.888 136.82 139.642C135.904 140.263 134.8 140.472 133.71 140.638C132.346 140.851 130.975 141.028 129.604 141.18C126.704 141.518 123.787 141.693 120.868 141.703C115.203 141.703 109.541 140.981 104.172 139.116C103.941 137.218 103.649 135.323 103.328 133.443C102.581 129.113 101.661 124.845 100.86 120.543C100.163 116.791 99.51 112.984 99.3909 109.145H99.3837ZM91.6329 109.332C90.3625 109.163 89.1109 108.874 87.8947 108.47C87.8081 108.448 87.7215 108.416 87.6349 108.387C87.2014 108.24 86.7762 108.071 86.3612 107.878C84.5867 107.085 83.0604 105.825 81.9445 104.234C80.6311 102.321 79.877 100.062 79.3502 97.8181C78.4348 93.6967 78.0899 89.4691 78.3254 85.2538C81.0497 82.9409 84.8962 82.6594 88.3205 82.58C92.3734 82.4801 96.4227 82.8923 100.372 83.8069C100.437 84.9182 100.538 86.0224 100.585 87.1338C100.632 88.5105 100.6 89.8888 100.488 91.2617C100.412 92.3442 100.354 93.4015 100.336 94.4659C100.315 95.1479 100.315 95.8335 100.336 96.5227C100.358 97.4572 100.408 98.3954 100.51 99.3444C100.549 99.7305 100.589 100.12 100.618 100.517C100.675 101.174 100.715 101.838 100.708 102.505C100.708 103.999 100.445 105.482 99.6254 106.756C99.2837 107.295 98.8444 107.767 98.3301 108.145C98.183 108.174 98.0533 108.259 97.9692 108.383C96.6384 109.152 95.117 109.527 93.5815 109.466C92.9322 109.463 92.2837 109.419 91.6402 109.332H91.6329ZM51.0499 148.869C50.7708 148.036 50.2191 147.322 49.4839 146.841C48.994 146.521 48.4637 146.267 47.907 146.087C47.9648 146.029 48.0297 145.975 48.0874 145.921C58.7778 136.02 69.4092 126.053 79.9816 116.022C82.2188 113.896 84.4548 111.766 86.6895 109.632C87.8756 110.058 89.0961 110.382 90.3376 110.599C82.1105 118.653 73.8679 126.691 65.6096 134.713C60.7647 139.433 55.9139 144.152 51.0571 148.869H51.0499ZM78.5094 155.169C78.5094 156.097 77.9501 157.128 77.4882 157.904C76.9899 158.746 76.3698 159.51 75.648 160.17C74.0629 161.558 72.1036 162.448 70.0154 162.729C67.6266 163.126 65.1621 163.176 62.7445 163.252C60.2259 163.329 57.7085 163.329 55.1922 163.252C45.0889 162.992 35.0324 161.689 25.0481 160.131C22.5476 159.745 20.0506 159.333 17.55 158.925C15.1685 158.529 12.6318 158.301 10.3333 157.504C9.9472 157.367 9.41314 157.175 9.22912 156.782C8.98736 156.277 9.43842 155.602 9.70183 155.176C10.2064 154.362 10.8472 153.641 11.5962 153.044C13.1642 151.818 15.007 150.992 16.9654 150.637C19.3722 150.161 21.8403 150.215 24.2796 150.352C26.8054 150.489 29.3312 150.67 31.8859 150.832L39.3119 151.323C38.738 151.736 38.3371 152.346 38.1861 153.037C37.4644 156.284 42.1914 157.504 44.5585 157.338C46.1398 157.242 47.6691 156.737 48.9967 155.873C50.0504 155.151 50.6638 153.462 49.5777 152.47C49.559 152.452 49.5384 152.437 49.5163 152.423L49.7978 152.145C49.8303 152.12 49.8555 152.084 49.888 152.059C58.6996 152.679 67.5076 153.314 76.3119 153.964C76.3602 153.977 76.4099 153.984 76.4599 153.986C77.3006 154.029 78.5238 154.076 78.5166 155.169H78.5094ZM1.92944 155.692C2.24952 155.479 2.61099 155.335 2.99031 155.27C3.80219 155.079 4.65376 154.938 5.33574 154.426C6.12597 153.834 6.38574 152.932 6.8873 152.135C7.24451 151.557 7.79393 151.124 8.43891 150.911C9.60441 150.518 10.9142 150.63 12.1447 150.872C11.55 151.216 10.9883 151.615 10.4668 152.062C9.1714 153.145 7.01722 155.494 7.85075 157.349C8.2621 158.28 9.24358 158.734 10.1637 159.012C11.384 159.362 12.6254 159.633 13.8803 159.824C19.2928 160.74 24.7053 161.628 30.1359 162.407C41.0367 163.977 52.0458 165.092 63.0693 164.724C67.7205 164.562 72.9634 164.63 76.6186 161.293C78.0685 160.005 79.1475 158.353 79.7435 156.508C80.7719 156.528 81.7791 156.804 82.6734 157.312C83.359 157.709 84.5931 158.543 84.4776 159.499C84.4199 159.925 84.0771 159.86 83.7235 159.929C83.2882 160.01 82.8957 160.242 82.6157 160.585C82.0311 161.35 82.3595 162.299 81.9771 163.111C81.5946 163.923 80.4074 163.945 79.6605 163.959C78.7007 163.959 77.6831 163.959 76.8135 164.435C75.9439 164.912 75.6191 165.817 75.0093 166.575C74.4079 167.275 73.5988 167.764 72.7 167.972C68.8571 168.986 65.0683 166.709 61.2038 167.405C60.1213 167.604 59.1398 168.101 58.1222 168.524C57.163 168.934 56.1133 169.087 55.0768 168.967C53.0092 168.729 51.1076 167.762 49.0725 167.326C44.8327 166.427 40.5785 168.408 36.3531 167.272C34.2855 166.709 32.3117 165.803 30.1864 165.467C29.1978 165.31 28.1895 165.325 27.2059 165.511C26.1812 165.709 25.1925 166.121 24.1388 166.102C22.313 166.059 20.6424 165.085 19.0114 164.385C17.2974 163.634 15.6051 163.191 13.7324 163.508C12.6174 163.699 11.6684 163.869 10.5931 163.432C9.86345 163.086 9.15928 162.688 8.48582 162.242C7.71439 161.747 6.85799 161.399 5.95998 161.217C5.08676 161.072 4.062 161.437 3.22125 161.152C2.38051 160.867 2.47429 159.893 2.42017 159.196C2.37501 158.412 2.14103 157.651 1.73818 156.977C1.43147 156.439 1.39902 156.086 1.93666 155.692H1.92944Z" fill="#1A3869" style="fill:#1A3869;fill:color(display-p3 0.1020 0.2196 0.4118);fill-opacity:1;"/>
</svg>
