<svg width="29" height="16" viewBox="0 0 29 16" fill="none" xmlns="http://www.w3.org/2000/svg">
<path d="M28.1199 0C28.091 0.43661 28.0477 0.866013 27.9936 1.29541C27.9051 1.36077 27.8306 1.4432 27.7746 1.53784C27.7185 1.63249 27.682 1.73742 27.6672 1.84642C27.6524 1.95541 27.6596 2.06626 27.6884 2.17243C27.7172 2.2786 27.7669 2.37792 27.8348 2.46451C27.1889 6.35791 25.6481 10.1864 22.4223 12.6184C20.4052 14.1447 17.8613 14.9602 15.3824 15.3319C13.7657 15.5753 12.1237 15.6008 10.5003 15.4076C9.1652 15.2525 7.65331 15.0143 6.46255 14.3432C3.83928 12.8746 1.69592 10.2766 0 7.79766C2.82357 7.21067 5.58362 6.35146 8.24146 5.2321C10.6663 4.21094 13.0514 3.06711 15.57 2.27328C18.0463 1.50729 20.5804 0.94253 23.1475 0.58455C24.793 0.339183 26.4528 0.162376 28.1199 0Z" fill="white" style="fill:white;fill-opacity:1;"/>
</svg>
