<svg width="103" height="82" viewBox="0 0 103 82" fill="none" xmlns="http://www.w3.org/2000/svg">
<path d="M100.044 37.5664C99.2424 37.0388 98.3172 36.7291 97.3595 36.6679C99.3549 34.0987 100.246 30.7755 100.899 27.647C101.318 25.9131 101.592 24.1474 101.718 22.368C101.795 20.4633 101.551 18.5592 100.997 16.7354C98.7234 9.28414 91.2542 6.18817 84.2143 4.89278C79.1782 3.96367 74.0507 3.62821 68.9365 3.89326C65.9352 2.14514 62.629 0.983108 59.194 0.46894C55.9465 -0.0362282 52.699 -0.0434458 49.4262 0.0395462C45.8237 0.0822343 42.2295 0.393421 38.6733 0.970506C36.7882 1.30899 34.9299 1.78291 33.1129 2.38858C32.9502 1.96463 32.6991 1.58024 32.3762 1.26104C32.0532 0.941841 31.6659 0.695168 31.2401 0.5375C30.214 0.112932 29.062 0.110092 28.0338 0.529593C27.0057 0.949095 26.1844 1.7571 25.7482 2.77829C25.3874 3.56852 25.2394 4.61855 25.7085 5.37269C21.263 7.45471 17.0016 10.0094 13.3102 13.2317C8.48948 17.4606 5.02547 23.1113 3.14191 29.2455C2.00168 32.926 1.60115 36.7184 2.45633 40.4999C3.27542 44.0866 4.77289 47.4965 5.20228 51.1735C5.21 51.2669 5.23699 51.3576 5.28155 51.4401C5.32612 51.5225 5.38728 51.5949 5.46119 51.6525C5.5351 51.7101 5.62014 51.7518 5.71097 51.775C5.8018 51.7981 5.89643 51.8021 5.9889 51.7868C5.9889 51.8626 6.02498 51.9384 6.04303 52.0142C3.49192 52.7611 0.410396 54.5725 0.038736 57.4267C-0.332924 60.2809 2.02694 62.6263 4.66825 63.0485C6.2206 63.2631 7.80172 63.0119 9.21115 62.3268C11.3473 67.7646 14.353 72.7911 19.1233 76.3669C27.2024 82.4398 38.0455 82.0284 47.6292 81.498C53.0273 81.1949 58.4086 80.6717 63.773 79.9284C68.081 79.3764 72.3348 78.4614 76.4888 77.1932C80.4904 75.9159 84.3694 74.1117 87.6963 71.5209C91.2459 68.7361 94.0092 65.075 95.7141 60.8979C97.4641 56.6437 97.9945 52.1405 97.926 47.5759C100.091 47.2945 102.209 46.2264 102.772 43.9676C103.364 41.4417 102.141 38.9375 100.044 37.5664ZM79.9745 5.79125C86.5994 6.5887 94.7687 8.1836 98.377 14.4838C99.3714 16.2476 99.9767 18.2038 100.152 20.221C100.336 22.1515 100.059 24.0026 99.7013 25.8934C99.0554 29.296 98.2904 33.0054 96.1182 35.8019C95.9414 35.2498 95.7574 34.7194 95.5445 34.1601C95.2594 33.3951 94.9202 32.6482 94.5666 31.9085C94.6059 31.7964 94.6105 31.6751 94.5795 31.5605C94.5486 31.4459 94.4837 31.3432 94.3934 31.2662C94.3053 31.1726 94.2126 31.0835 94.1156 30.9992C94.1156 30.9992 94.1156 30.9992 94.1156 30.9775C94.0432 30.8173 93.9149 30.689 93.7547 30.6167C91.6913 28.7067 89.2249 27.2848 86.538 26.4563C83.5648 25.5325 80.4544 25.197 77.3692 24.8542C71.0257 24.1421 64.6229 24.1337 58.2775 24.8289C47.948 25.9982 37.906 28.9811 28.6132 33.6405C32.4886 20.4989 44.1905 10.9079 57.1192 7.29954C64.5271 5.22113 72.3536 4.86391 79.9745 5.79125ZM92.6037 36.823C94.065 40.9005 94.48 45.4831 93.2063 49.6652C92.142 53.2705 89.8161 56.3725 86.6535 58.4046C85.0753 59.4172 83.2825 60.0473 81.4178 60.2448C80.4254 60.3685 79.4179 60.2342 78.4926 59.855C77.5673 59.4758 76.7553 58.8644 76.1352 58.0798C74.9661 56.6365 74.0279 55.0849 72.415 54.0926C70.7407 53.0642 68.7741 52.6493 66.8329 52.5699C62.5028 52.3534 58.0393 53.0498 53.8428 53.9771C51.9393 54.3466 50.0895 54.9527 48.3365 55.7813C46.5606 56.7071 45.025 58.034 43.8513 59.6567C42.6714 61.2516 41.6863 63.0305 40.2718 64.4377C38.8636 65.7521 37.1649 66.7152 35.3139 67.2486C33.3524 67.8326 31.3352 68.2099 29.2952 68.3744C26.9931 68.6126 24.5827 68.6378 22.3925 67.8043C18.4233 66.2924 15.8758 62.5109 14.1618 58.8051C13.4401 57.2246 12.787 55.6009 12.2025 53.9663C12.0076 53.4287 11.8416 52.8838 11.6504 52.3498C14.7276 51.4706 17.4544 49.6544 19.4516 47.1537C21.7357 44.3248 23.2115 40.9077 24.5538 37.5519C28.7933 35.0916 33.2329 32.9937 37.8253 31.2806C49.3868 26.9217 61.7603 25.1386 74.082 26.0557C77.7409 26.3444 81.5874 26.6403 85.1488 27.6614C86.4154 31.3997 89.2912 34.2503 92.5965 36.3034C92.5513 36.466 92.5627 36.639 92.6289 36.7942L92.6037 36.823ZM87.036 28.2857C89.1989 29.0821 91.1821 30.3 92.8707 31.8688C93.4972 33.0918 94.0327 34.3594 94.4728 35.6612C91.3624 33.9364 88.5371 31.5188 87.036 28.2857ZM36.2232 3.02727C39.5411 2.25919 42.9237 1.80374 46.3266 1.66691C53.0093 1.30608 59.9806 1.26639 66.1148 4.10255C56.4697 5.08402 47.1349 8.43257 39.6043 14.7327C34.0438 19.4236 29.7102 25.4604 27.4405 32.3523C26.3328 27.7661 25.6905 23.0572 26.073 18.3411C26.4985 13.4053 28.2889 8.68519 31.2437 4.70875C31.2716 4.67676 31.2936 4.64012 31.3087 4.6005C32.9137 3.97656 34.5548 3.44999 36.2232 3.02366V3.02727ZM27.2709 3.14272C27.5814 2.56914 28.0889 2.12722 28.6996 1.89843C29.3104 1.66964 29.9833 1.66943 30.5942 1.89785C30.8371 1.96789 31.0608 2.09236 31.2484 2.26179C31.436 2.43123 31.5824 2.64117 31.6767 2.8757C30.8432 3.1788 30.0169 3.49635 29.1942 3.83553C28.4978 4.12059 27.8086 4.41287 27.123 4.71958C27.0881 4.67874 27.0495 4.64127 27.0075 4.6077L26.9642 4.57163C26.939 4.53915 26.9642 4.57163 26.9642 4.48503L26.939 4.32988C26.9378 4.25251 26.9438 4.17519 26.957 4.09894C26.995 3.76091 27.1018 3.43426 27.2709 3.13913V3.14272ZM4.34349 41.8495C3.90664 40.3834 3.61773 38.8772 3.4811 37.3535C3.38984 35.6478 3.52942 33.9376 3.89606 32.2693C4.57443 28.928 5.96364 25.7743 7.57296 22.7902C8.93167 20.2279 10.6687 17.8851 12.7257 15.8405C16.9835 11.6548 22.2445 8.56245 27.6679 6.14125C28.0287 5.96805 28.4256 5.80209 28.8045 5.64332C26.458 9.33105 25.0164 13.5212 24.5972 17.872C24.0992 23.418 24.958 28.9532 26.4013 34.3008C26.4414 34.4376 26.516 34.5619 26.6178 34.6616C25.1913 35.4146 23.7925 36.2084 22.4213 37.0431C16.6203 40.5515 11.2619 44.7444 6.46159 49.5316C5.97447 46.9264 5.05073 44.4006 4.34349 41.8495ZM4.61051 61.4969C3.97175 61.369 3.3743 61.0858 2.87087 60.6724C2.36744 60.2589 1.9735 59.7279 1.72383 59.1262C0.579988 56.2684 4.04761 54.1431 6.38943 53.4756C7.03532 55.9617 7.76421 58.4587 8.64464 60.8979C7.40064 61.5303 5.98459 61.7406 4.61051 61.4969ZM95.3677 57.1669C94.2125 61.5127 91.9107 65.4683 88.703 68.6198C85.7803 71.4127 82.2333 73.4225 78.4806 74.8731C74.5872 76.3814 70.4989 77.3051 66.389 77.9871C61.5575 78.7881 56.6681 79.3186 51.786 79.6974C46.8101 80.0907 41.7873 80.3974 36.8006 80.1809C32.1097 79.9789 27.3359 79.2356 23.0889 77.0814C14.5226 72.7189 10.5643 63.2939 8.20443 54.5076C7.8905 53.3385 7.59462 52.1657 7.30595 50.9966C7.29452 50.9456 7.27758 50.896 7.25543 50.8487C11.8084 46.2748 16.88 42.2482 22.3672 38.8509C21.3208 41.3407 20.13 43.7835 18.481 45.9161C16.5295 48.5069 13.7323 50.3325 10.5751 51.076C10.5751 51.076 10.5499 51.076 10.5354 51.076C10.4952 51.0847 10.4554 51.0955 10.4163 51.1085C10.2592 51.1643 10.1263 51.2728 10.0401 51.4156C9.95394 51.5583 9.91986 51.7265 9.94365 51.8915C10.0948 52.5741 10.3098 53.241 10.5859 53.8833C11.0911 55.3519 11.6432 56.7989 12.2602 58.2133C13.7396 61.6521 15.6484 64.9862 18.6434 67.3352C22.4177 70.2977 27.0689 70.2472 31.6046 69.5688C35.6279 68.959 39.5754 67.6889 42.2564 64.4486C43.5915 62.832 44.5874 60.9593 45.9874 59.3969C47.3875 57.8344 49.2999 56.8277 51.2989 56.1494C53.479 55.4842 55.7107 55.0014 57.9708 54.706C60.3089 54.3262 62.6686 54.0936 65.0359 54.0096C67.1035 53.9555 69.2937 54.1142 71.1701 55.0668C73.0464 56.0195 73.9233 57.82 75.2475 59.3139C78.1162 62.5614 82.7168 62.114 86.2746 60.3098C89.6421 58.5503 92.3134 55.7009 93.8522 52.2271C95.6563 48.2579 95.8656 43.6392 94.9347 39.403C94.7795 38.6814 94.5738 37.9921 94.3573 37.2993C94.4042 37.321 94.4439 37.3463 94.4908 37.3643C94.5688 37.4093 94.6556 37.437 94.7452 37.4458C94.8348 37.4545 94.9252 37.4439 95.0104 37.4148C95.6102 39.6285 96.0099 41.8916 96.2048 44.1769C96.5981 48.4997 96.5187 52.9704 95.3677 57.1597V57.1669ZM100.336 45.097C99.6071 45.633 98.7472 45.9633 97.8466 46.0532C97.7394 43.3929 97.3769 40.7491 96.7641 38.1581C97.1734 38.1286 97.5848 38.1626 97.9837 38.2592C98.5789 38.4373 99.1323 38.733 99.6111 39.1288C100.089 39.4848 100.49 39.9341 100.79 40.4495C101.089 40.9649 101.281 41.5357 101.354 42.1273C101.491 43.2098 101.228 44.3753 100.336 45.0898V45.097Z" fill="#1A3869" style="fill:#1A3869;fill:color(display-p3 0.1020 0.2196 0.4118);fill-opacity:1;"/>
</svg>
