<svg width="3" height="3" viewBox="0 0 3 3" fill="none" xmlns="http://www.w3.org/2000/svg">
<path d="M2.73588 1.94096C2.73939 1.9878 2.73939 2.03485 2.73588 2.08169C2.72823 2.14529 2.71495 2.20806 2.6962 2.26931C2.64118 2.41667 2.55919 2.55252 2.45443 2.66985C2.44522 2.68345 2.43283 2.69458 2.41835 2.70232C2.36141 2.75628 2.29846 2.8035 2.23072 2.84305C1.95946 2.98464 1.64392 3.01567 1.35028 2.92964C1.09711 2.93029 0.848229 2.86435 0.628608 2.73841C0.426167 2.62258 0.259982 2.45263 0.148692 2.24766C0.0913637 2.13425 0.0523987 2.01245 0.0332331 1.88683C0.00780703 1.77564 -0.00310752 1.66163 0.000759268 1.54764C0.0174117 1.30915 0.0930408 1.07853 0.220863 0.876493C0.343757 0.67431 0.523122 0.512511 0.736854 0.411024C0.775963 0.391068 0.81709 0.375341 0.859537 0.364114C0.940661 0.278139 1.03148 0.201853 1.13016 0.136786C1.31479 0.0275476 1.53014 -0.0182023 1.74323 0.00656088C1.95633 0.031324 2.15544 0.125238 2.3101 0.273905C2.48011 0.452675 2.59098 0.679439 2.62764 0.923404C2.65159 1.04235 2.66606 1.163 2.67093 1.28424C2.67093 1.31671 2.70702 1.35279 2.71784 1.38887C2.77007 1.56847 2.77627 1.75833 2.73588 1.94096Z" fill="#1A3869" style="fill:#1A3869;fill:color(display-p3 0.1020 0.2196 0.4118);fill-opacity:1;"/>
</svg>
