<svg width="2" height="3" viewBox="0 0 2 3" fill="none" xmlns="http://www.w3.org/2000/svg">
<path d="M0.0234029 1.22866C0.033687 1.32009 0.059312 1.40914 0.0991861 1.49206C0.165323 1.61931 0.256083 1.73217 0.3662 1.82405L0.405887 1.8529C0.46286 1.89694 0.526112 1.93223 0.593528 1.95755C0.729397 2.01309 0.877522 2.03174 1.02292 2.01166C1.25006 1.98238 1.45634 1.86432 1.59664 1.68331C1.69738 1.54877 1.76311 1.39129 1.78789 1.22505C1.78962 1.19621 1.78962 1.16729 1.78789 1.13845C1.78789 1.05185 1.78789 0.95804 1.78789 0.875048C1.77203 0.752356 1.74422 0.631506 1.70488 0.514213C1.64875 0.371797 1.55526 0.247146 1.43426 0.153379C1.29144 0.0430965 1.11252 -0.00969806 0.932713 0.00542394C0.906746 -0.00180798 0.879285 -0.00180798 0.853318 0.00542394C0.843979 0.0021221 0.833784 0.0021221 0.824445 0.00542394H0.788371C0.693527 0.0166525 0.602994 0.0513909 0.524968 0.106468C0.442897 0.146098 0.373075 0.207189 0.322902 0.283274C0.232919 0.394715 0.155469 0.515722 0.0919623 0.644109C0.0827295 0.660913 0.0766213 0.679259 0.073925 0.698243C0.0468161 0.77358 0.0251136 0.850737 0.00897739 0.92916C-0.00670722 1.02893 -0.00180312 1.13086 0.0234029 1.22866Z" fill="#1A3869" style="fill:#1A3869;fill:color(display-p3 0.1020 0.2196 0.4118);fill-opacity:1;"/>
</svg>
