<svg width="38" height="22" viewBox="0 0 38 22" fill="none" xmlns="http://www.w3.org/2000/svg">
<path d="M0 10.5111C0.0231641 10.5331 0.0426675 10.5587 0.0577459 10.5869C0.0868712 10.6372 0.11943 10.6854 0.155178 10.7312C0.427007 11.1763 0.718052 11.6092 1.02837 12.0302C3.21323 15.0212 6.07394 17.4536 9.3773 19.1291C12.6807 20.8046 16.3332 21.6758 20.0372 21.6717C22.0831 21.6717 24.3131 21.4697 26.2219 20.7155C27.6313 20.1526 28.9647 19.4156 30.1911 18.5217C32.5124 16.7834 34.3304 14.4598 35.4592 11.7885C37.0613 8.0863 37.4402 3.98722 37.0325 0C36.4515 0.0216501 35.8706 0.0757691 35.2933 0.151544C35.7585 3.16839 35.5402 6.25121 34.6546 9.17241C33.6264 12.2407 31.6391 14.8973 28.9859 16.7499C26.3439 18.6534 23.2155 19.7671 19.965 19.9614C16.5299 20.1418 13.1632 19.1242 10.1864 17.4572C6.89565 15.6021 4.09887 12.9835 2.0315 9.82191C1.34952 10.0565 0.678369 10.2766 0 10.5111Z" fill="#3F89FF" style="fill:#3F89FF;fill:color(display-p3 0.2471 0.5373 1.0000);fill-opacity:1;"/>
</svg>
