<svg width="14" height="24" viewBox="0 0 14 24" fill="none" xmlns="http://www.w3.org/2000/svg">
<path d="M13.8813 2.21192C13.5205 2.81451 13.1849 3.4135 12.8421 4.01609C10.3848 8.34611 8.11156 12.8096 6.55997 17.5474C5.9188 19.4848 5.41363 21.4646 5.0481 23.4723L4.80271 23.3785C3.65293 22.9748 2.46955 22.6741 1.26653 22.48C0.851574 22.4078 0.425785 22.3501 0 22.2887C0.00221689 22.2849 0.00339164 22.2806 0.00339164 22.2761C0.00339164 22.2717 0.00221689 22.2673 0 22.2635C1.97377 14.4947 5.09139 7.07597 8.83325 0C10.0168 0.555686 11.2039 1.0825 12.4091 1.5985C12.9071 1.80778 13.3942 2.01346 13.8813 2.21192Z" fill="white" style="fill:white;fill-opacity:1;"/>
</svg>
