<svg width="5" height="5" viewBox="0 0 5 5" fill="none" xmlns="http://www.w3.org/2000/svg">
<path d="M4.03561 3.04582C3.86477 3.38999 3.60988 3.68549 3.29451 3.90499C2.97915 4.12448 2.6135 4.26086 2.23143 4.30152C1.85558 4.32336 1.48062 4.24581 1.14426 4.07668C0.807902 3.90755 0.522023 3.65282 0.3154 3.3381C0.0959524 3.02094 -0.0142439 2.64095 0.00147597 2.2556C0.0340126 1.82362 0.168824 1.40557 0.394785 1.03597C0.579756 0.659267 0.880794 0.351908 1.25357 0.159146C1.5903 -0.00330486 1.97324 -0.0428746 2.33608 0.0472881C2.62173 -0.00642886 2.91649 0.0159837 3.19075 0.112258C3.465 0.208532 3.70909 0.375284 3.89849 0.595764C4.15418 0.947874 4.30307 1.36616 4.32739 1.80063C4.3517 2.2351 4.25041 2.66738 4.03561 3.04582Z" fill="#1A3869" style="fill:#1A3869;fill:color(display-p3 0.1020 0.2196 0.4118);fill-opacity:1;"/>
</svg>
