<svg width="58" height="10" viewBox="0 0 58 10" fill="none" xmlns="http://www.w3.org/2000/svg">
<path d="M1.53679 8.9658C2.17547 9.02714 2.82137 9.07766 3.46366 9.12818C3.47359 9.07883 3.48808 9.03052 3.50696 8.98386C4.67245 6.09718 7.96326 6.05387 10.6046 6.42914C10.9698 6.02561 11.4478 5.74107 11.9767 5.6124C12.5055 5.48372 13.0608 5.51685 13.5706 5.70747C13.9531 4.40847 14.6856 3.15637 16.1687 3.04451C17.8646 2.91822 19.1708 4.4265 20.2569 5.69664C20.589 5.41431 20.9885 5.22274 21.4166 5.14054C21.8446 5.05834 22.2867 5.08832 22.6998 5.22756C24.291 0.991355 31.3382 1.53261 34.0047 4.75847C34.8135 4.17918 35.7153 3.7423 36.6713 3.46668C37.3116 3.34847 37.9663 3.32901 38.6126 3.40896C39.2873 3.43782 39.8538 3.02286 40.4745 2.77027C42.2173 2.0486 44.3751 1.96201 45.6705 3.34401C46.8544 2.45 48.3437 2.0602 49.8138 2.25959C51.2839 2.45898 52.6156 3.23139 53.5186 4.40845L53.5439 4.44455C53.9986 4.31826 54.4568 4.18834 54.9115 4.04762C55.7234 3.80225 57.0296 3.64349 57.4012 2.78831C57.4048 2.75425 57.4109 2.72049 57.4193 2.68729C57.4193 2.04139 56.676 1.51096 56.1636 1.21146C55.4678 0.834625 54.7142 0.576111 53.9336 0.446495C52.1717 0.173055 50.3907 0.0415413 48.6077 0.0531974C44.5303 -0.065878 40.442 0.0207214 36.3682 0.255264C32.2944 0.489807 28.2566 0.865075 24.2225 1.33777C20.2533 1.80325 16.2841 2.28676 12.3763 3.00121C10.4523 3.32901 8.55152 3.781 6.68591 4.35434C4.94308 4.90281 3.11364 5.5451 1.56205 6.51935C0.99915 6.88019 0.259446 7.38896 0.0357281 8.0529C-0.227681 8.81426 1.03523 8.91167 1.53679 8.9658Z" fill="#3F89FF" style="fill:#3F89FF;fill:color(display-p3 0.2471 0.5373 1.0000);fill-opacity:1;"/>
</svg>
