<svg width="62" height="35" viewBox="0 0 62 35" fill="none" xmlns="http://www.w3.org/2000/svg">
<path d="M60.9072 18.6158C60.5644 20.4743 60.115 22.3116 59.5613 24.1186C58.4826 27.6059 57.0156 30.961 55.188 34.1209C54.9563 33.9568 54.7154 33.8062 54.4663 33.6699C53.9244 33.3694 53.3583 33.1147 52.774 32.9085C52.5864 32.84 52.3951 32.7786 52.2003 32.7209C51.4663 32.4959 50.7192 32.3164 49.9631 32.1832C49.7647 32.1435 49.559 32.1038 49.3605 32.0786C48.5667 31.9451 47.7765 31.844 47.0079 31.7502C46.2393 31.6564 45.5176 31.577 44.7743 31.5157C44.5686 31.494 44.363 31.4724 44.1573 31.458C43.4356 31.3858 42.6851 31.328 41.9454 31.2667L41.3211 31.2162C40.4371 31.1368 39.553 31.0538 38.6762 30.9492L38.2107 30.8951L38.0664 30.8734C36.7265 30.7098 35.3938 30.5138 34.0683 30.2852L33.4694 30.1842C32.6322 30.0399 31.7999 29.8859 30.9724 29.7223L30.3734 29.5996C30.045 29.5347 29.7203 29.4697 29.3919 29.3976C28.2228 29.1522 27.0537 28.896 25.8882 28.6182C25.6898 28.5821 25.4949 28.5352 25.2965 28.4847C24.0408 28.1888 22.7706 27.8821 21.533 27.5609L20.9448 27.4094C20.2989 27.2506 19.6494 27.0774 18.9999 26.9114L18.4153 26.7599L14.2946 25.6557C14.1034 25.6052 13.9049 25.5547 13.71 25.497C13.1904 25.3634 12.6708 25.2227 12.1512 25.082C11.3358 24.8655 10.5167 24.631 9.69396 24.4036L9.08415 24.2304C8.38413 24.0392 7.68411 23.848 6.97688 23.6639L6.38871 23.516C5.46498 23.285 4.53402 23.0794 3.60307 22.917L3.13398 22.8376L2.52778 22.769C1.69947 22.6844 0.863642 22.7087 0.0416325 22.8412C-0.0948748 19.3421 0.104495 15.838 0.637008 12.377C0.907092 10.6345 1.26842 8.90732 1.71951 7.20265C2.084 5.59113 2.7381 4.05918 3.64998 2.68138C4.49784 1.41376 5.78204 0.501982 7.25833 0.119463C7.52573 0.0560577 7.79906 0.0209695 8.07381 0.014807C8.29106 -0.00493567 8.50966 -0.00493567 8.72692 0.014807C9.76788 0.110293 10.7866 0.373503 11.7435 0.794222C11.8626 0.837523 11.978 0.880825 12.1043 0.931341L12.3208 1.02514C12.9703 1.29937 13.609 1.59888 14.2549 1.89838L14.807 2.14374C15.3988 2.40354 15.9941 2.65973 16.6112 2.86541C17.4902 3.17096 18.3852 3.42874 19.2922 3.6376C19.487 3.68451 19.6783 3.72781 19.8767 3.7675C20.3602 3.87214 20.851 3.96234 21.3417 4.04894C22.3268 4.21131 23.3263 4.34484 24.3258 4.44948L24.9356 4.51804C25.5093 4.57577 26.0903 4.62988 26.6712 4.6804L27.2919 4.7237C28.7569 4.84638 30.2255 4.95824 31.6868 5.08453L32.3039 5.15309C34.0158 5.32062 35.7161 5.59175 37.3952 5.96497C37.5937 6.01188 37.7958 6.05518 37.987 6.1057C38.6618 6.2789 39.3329 6.46654 39.9969 6.69747C40.1881 6.75882 40.383 6.82737 40.5706 6.89954C40.7582 6.97171 41.0036 7.05469 41.2201 7.14129C42.548 7.66811 43.8434 8.28154 45.1424 8.86248L45.6981 9.11146C46.4197 9.42899 47.1414 9.74291 47.8631 10.0244C48.0579 10.0929 48.2455 10.1687 48.4368 10.2373C49.1529 10.4988 49.8829 10.7204 50.6234 10.9012C50.7317 10.9337 50.8472 10.9589 50.9626 10.9842L51.2152 11.0419C52.6 11.3417 54.0098 11.5108 55.4261 11.5471H56.0468H56.3246C56.8623 11.5471 57.4071 11.5146 57.9412 11.5074H58.5474C58.6953 11.5074 58.8397 11.5074 58.984 11.5254C59.868 11.5724 60.7665 11.5724 61.0263 12.543C61.5712 14.5565 61.2645 16.6673 60.9072 18.6158Z" fill="#3F89FF" style="fill:#3F89FF;fill:color(display-p3 0.2471 0.5373 1.0000);fill-opacity:1;"/>
</svg>
