<svg width="61" height="33" viewBox="0 0 61 33" fill="none" xmlns="http://www.w3.org/2000/svg">
<path d="M60.5613 12.4279C59.6412 10.5263 57.0468 9.95258 55.1741 9.54123C52.5075 8.97472 49.7615 8.79791 47.0661 8.57058C41.6441 8.07755 36.2638 7.20092 30.9657 5.94731C25.6578 4.72769 20.4185 3.25909 15.1611 1.86266C13.8429 1.51626 12.5282 1.17347 11.2172 0.834286C9.92031 0.447722 8.59223 0.174858 7.248 0.0187961C5.49074 -0.114713 3.12005 0.448189 2.39477 2.1838C2.35278 2.28017 2.31664 2.37898 2.28652 2.47969C2.28425 2.51694 2.27571 2.55353 2.26126 2.58794L2.24322 2.64207C2.20853 2.80012 2.18561 2.96054 2.17466 3.12199C2.16968 3.21153 2.14891 3.29947 2.11332 3.38178C2.06451 3.51891 1.96689 3.63325 1.83909 3.70293C1.55764 4.48955 1.30505 5.2906 1.08855 6.09887C0.00604393 10.2449 -0.96821 15.5708 1.81022 19.2982C4.6969 23.1555 9.41661 24.8839 13.8296 26.2551C16.2436 27.002 18.6792 27.6659 21.1185 28.3155L22.5799 28.7088C24.2902 29.1562 26.0042 29.6145 27.7073 30.098C28.3965 30.2928 29.0785 30.4588 29.7677 30.614C30.262 30.7258 30.76 30.8233 31.2615 30.9135C32.7374 31.1913 34.2312 31.3934 35.7431 31.5774C38.2554 31.9495 40.7918 32.1352 43.3315 32.1331C47.8816 32.0212 53.1498 31.4439 55.8777 27.2654C57.2958 25.1004 58.1582 22.5024 59.0458 20.0776C59.5113 18.8075 59.9515 17.5301 60.3557 16.2383C60.4206 16.0399 60.482 15.827 60.5397 15.6177C60.6581 15.2233 60.7462 14.8204 60.8031 14.4125C60.9208 13.7416 60.8367 13.0509 60.5613 12.4279ZM11.9389 11.0495C11.768 11.3937 11.5131 11.6892 11.1978 11.9087C10.8824 12.1282 10.5168 12.2646 10.1347 12.3052C9.75883 12.3271 9.38386 12.2495 9.04751 12.0804C8.71115 11.9112 8.42527 11.6565 8.21865 11.3418C7.9992 11.0246 7.889 10.6446 7.90472 10.2593C7.93726 9.82731 8.07207 9.40927 8.29803 9.03966C8.483 8.66296 8.78404 8.3556 9.15682 8.16284C9.49355 8.00039 9.87649 7.96082 10.2393 8.05098C10.525 7.99726 10.8197 8.01968 11.094 8.11595C11.3682 8.21222 11.6123 8.37898 11.8017 8.59946C12.0574 8.95157 12.2063 9.36985 12.2306 9.80432C12.2549 10.2388 12.1537 10.6711 11.9389 11.0495ZM52.7493 20.3194C52.5079 20.5689 52.2019 20.7464 51.8654 20.8318C51.5289 20.9172 51.1752 20.9072 50.8441 20.8029C50.5241 20.6947 50.2303 20.5206 49.9817 20.2919C49.7331 20.0632 49.5352 19.7849 49.4007 19.475C49.2341 19.1314 49.1551 18.7519 49.1708 18.3703C49.1866 17.9888 49.2966 17.617 49.4909 17.2883C49.7184 16.9469 50.062 16.6994 50.458 16.5919C50.8226 16.4958 51.2102 16.5436 51.5405 16.7254C51.715 16.7286 51.8884 16.7541 52.0565 16.8012C52.4551 16.9196 52.7989 17.1753 53.0271 17.5229C53.2309 17.8488 53.3476 18.2215 53.3663 18.6054C53.3817 18.9177 53.3352 19.2299 53.2293 19.5241C53.1234 19.8183 52.9602 20.0886 52.7493 20.3194Z" fill="white" style="fill:white;fill-opacity:1;"/>
</svg>
