<svg width="32" height="32" viewBox="0 0 32 32" fill="none" xmlns="http://www.w3.org/2000/svg">
<rect x="1.85547" y="1.83594" width="28.2888" height="28.3259" rx="6.25985" fill="#15532C" style="fill:#15532C;fill:color(display-p3 0.0824 0.3255 0.1725);fill-opacity:1;"/>
<path d="M20.4859 13.7733V1.83594H23.8854C27.3426 1.83594 30.1452 4.63857 30.1452 8.09579V23.9039C30.1452 27.3611 27.3426 30.1638 23.8854 30.1638H11.25V13.7733H20.4859Z" fill="#605959" style="fill:#605959;fill:color(display-p3 0.3765 0.3490 0.3490);fill-opacity:1;"/>
<path d="M23.9229 1.83691C24.414 1.83972 24.8914 1.90001 25.3496 2.00977V23.582H20.3945V13.8281H20.4863V1.83691H23.9229Z" fill="white" style="fill:white;fill-opacity:1;"/>
<path d="M11.6055 30.1631H8.11328C7.60947 30.1631 7.11975 30.1016 6.65039 29.9893V8.30664H11.6055V30.1631Z" fill="white" style="fill:white;fill-opacity:1;"/>
<rect x="24.5176" y="13.5869" width="4.9554" height="16.6136" transform="rotate(90 24.5176 13.5869)" fill="white" style="fill:white;fill-opacity:1;"/>
</svg>
