<svg width="555" height="213" viewBox="0 0 555 213" fill="none" xmlns="http://www.w3.org/2000/svg">
<path d="M249.904 20.2502C249.854 20.5108 249.805 20.7897 249.755 21.0503C249.706 21.3109 249.654 21.5715 249.604 21.806C249.555 22.0405 249.505 22.2907 249.453 22.5227C249.401 22.7546 249.352 22.9813 249.299 23.2002C249.247 23.4191 249.195 23.6302 249.143 23.8387C249.091 24.0471 249.034 24.2452 248.979 24.4406C248.924 24.6361 248.867 24.8237 248.809 25.0061C248.752 25.1886 248.692 25.3684 248.632 25.5273C248.572 25.6863 248.51 25.8661 248.445 26.0277C248.379 26.1893 248.314 26.3482 248.247 26.4994C248.179 26.6505 248.108 26.7964 248.036 26.9398C247.963 27.0831 247.89 27.2186 247.811 27.3515C247.733 27.4844 247.655 27.6121 247.572 27.7398C247.488 27.8675 247.405 27.9848 247.311 28.0994C247.217 28.2141 247.131 28.3288 247.05 28.4382C246.97 28.5477 246.858 28.6493 246.756 28.7509C246.654 28.8526 246.55 28.9516 246.441 29.0454C246.331 29.1392 246.219 29.233 246.102 29.319C245.985 29.405 245.867 29.4936 245.742 29.5796C245.617 29.6656 245.482 29.7412 245.357 29.8194C245.231 29.8976 245.096 29.9705 244.942 30.0435C244.788 30.1165 244.653 30.1868 244.502 30.2546C244.351 30.3223 244.194 30.3875 244.033 30.4526L243.532 30.6403C243.358 30.7002 243.181 30.7601 242.998 30.8175C242.816 30.8748 242.626 30.9321 242.43 30.9869C242.235 31.0416 242.034 31.0963 241.828 31.1484C241.622 31.2006 241.409 31.2553 241.19 31.3074L240.512 31.4611L239.798 31.6123L239.04 31.7608L238.242 31.912L239.04 32.0631L239.798 32.2117L240.512 32.3628L241.19 32.5166C241.409 32.5687 241.622 32.6208 241.828 32.6755C242.034 32.7303 242.235 32.7824 242.43 32.8371C242.626 32.8918 242.813 32.9492 242.998 33.0065C243.183 33.0638 243.358 33.1238 243.532 33.1837L244.033 33.3713C244.194 33.4365 244.351 33.5016 244.502 33.5694C244.653 33.6371 244.801 33.7075 244.942 33.7805C245.083 33.8534 245.224 33.929 245.357 34.0046C245.489 34.0802 245.617 34.1609 245.742 34.2443C245.867 34.3277 245.987 34.4137 246.102 34.5049C246.217 34.5961 246.331 34.6821 246.441 34.7786C246.55 34.875 246.654 34.9714 246.756 35.073C246.858 35.1747 246.954 35.2789 247.05 35.3857C247.147 35.4926 247.235 35.6073 247.311 35.7245C247.387 35.8418 247.483 35.9617 247.572 36.0842C247.66 36.2066 247.736 36.3447 247.811 36.4724C247.887 36.6001 247.963 36.733 248.036 36.8842C248.108 37.0353 248.179 37.1734 248.247 37.3246C248.314 37.4757 248.382 37.6321 248.445 37.7963C248.507 37.9604 248.572 38.1246 248.632 38.2966C248.692 38.4686 248.752 38.6458 248.809 38.8178C248.867 38.9898 248.924 39.1905 248.979 39.3859C249.034 39.5814 249.088 39.782 249.143 39.9879C249.198 40.1938 249.247 40.4075 249.299 40.6264C249.352 40.8453 249.404 41.072 249.453 41.3039C249.503 41.5359 249.555 41.7756 249.604 42.0206C249.654 42.2655 249.703 42.5183 249.755 42.7763C249.808 43.0343 249.854 43.2975 249.904 43.5763L250.055 42.7763C250.105 42.5157 250.154 42.2551 250.206 42.0206C250.258 41.786 250.305 41.5359 250.357 41.3039C250.41 41.072 250.459 40.8453 250.511 40.6264C250.563 40.4075 250.615 40.1964 250.668 39.9879C250.72 39.7794 250.774 39.5814 250.829 39.3859C250.884 39.1905 250.941 39.0028 251.001 38.8178C251.061 38.6328 251.116 38.4582 251.178 38.2966C251.241 38.1351 251.301 37.9578 251.366 37.7963C251.431 37.6347 251.494 37.4757 251.564 37.3246C251.634 37.1734 251.702 37.0275 251.772 36.8842C251.843 36.7409 251.921 36.6053 251.999 36.4724C252.077 36.3395 252.156 36.2118 252.239 36.0842C252.322 35.9565 252.406 35.8392 252.5 35.7245C252.593 35.6099 252.679 35.4952 252.76 35.3857C252.841 35.2763 252.953 35.1747 253.055 35.073C253.156 34.9714 253.26 34.8724 253.37 34.7786C253.479 34.6847 253.591 34.5909 253.706 34.5049C253.821 34.4189 253.943 34.3303 254.068 34.2443C254.193 34.1583 254.329 34.0828 254.454 34.0046C254.579 33.9264 254.715 33.8534 254.866 33.7805C255.017 33.7075 255.155 33.6371 255.306 33.5694C255.457 33.5016 255.616 33.4365 255.778 33.3713L256.278 33.1837C256.45 33.1238 256.63 33.0638 256.812 33.0065C256.995 32.9492 257.185 32.8918 257.378 32.8371C257.571 32.7824 257.774 32.7277 257.983 32.6755C258.191 32.6234 258.402 32.5687 258.621 32.5166L259.296 32.3628L260.013 32.2117L260.771 32.0657L261.568 31.9146L260.771 31.7634L260.013 31.6149L259.296 31.4638L258.621 31.31C258.402 31.2579 258.188 31.2058 257.983 31.151C257.777 31.0963 257.573 31.0442 257.378 30.9895C257.182 30.9347 256.995 30.8774 256.812 30.8201C256.63 30.7627 256.45 30.7028 256.278 30.6429L255.778 30.4552C255.616 30.3901 255.46 30.3249 255.306 30.2572C255.152 30.1894 255.009 30.1191 254.866 30.0461C254.722 29.9731 254.587 29.8976 254.454 29.822C254.321 29.7464 254.193 29.6656 254.068 29.5822C253.943 29.4988 253.823 29.4129 253.706 29.3216C253.589 29.2304 253.479 29.1418 253.37 29.048C253.26 28.9542 253.156 28.8552 253.055 28.7535C252.953 28.6519 252.857 28.5477 252.76 28.4408C252.664 28.334 252.575 28.2193 252.5 28.102C252.424 27.9848 252.325 27.8649 252.239 27.7424C252.153 27.6199 252.075 27.4818 251.999 27.3541C251.924 27.2264 251.845 27.0935 251.772 26.9424C251.7 26.7912 251.632 26.6531 251.564 26.502C251.496 26.3508 251.428 26.1945 251.366 26.0303C251.303 25.8661 251.238 25.7019 251.178 25.53C251.118 25.358 251.058 25.1808 251.001 25.0088C250.944 24.8368 250.886 24.6387 250.829 24.4433C250.772 24.2478 250.72 24.0471 250.668 23.8413C250.615 23.6354 250.561 23.4217 250.511 23.2028C250.462 22.9839 250.407 22.7572 250.357 22.5253C250.308 22.2933 250.256 22.0536 250.206 21.8086C250.157 21.5637 250.105 21.3109 250.055 21.0529L249.904 20.2502Z" fill="url(#paint0_linear_25_313)"/>
<path d="M308.768 79.398C308.718 79.6717 308.669 79.9375 308.617 80.1981C308.565 80.4587 308.518 80.7193 308.468 80.9538C308.419 81.1883 308.367 81.4385 308.317 81.6705C308.268 81.9024 308.215 82.1291 308.163 82.348C308.111 82.5669 308.059 82.778 308.007 82.9865C307.955 83.1949 307.898 83.393 307.843 83.5884C307.788 83.7839 307.731 83.9715 307.673 84.1539C307.616 84.3364 307.556 84.5162 307.496 84.6882C307.436 84.8602 307.374 85.0269 307.309 85.1885C307.243 85.3501 307.178 85.5091 307.11 85.6602C307.043 85.8113 306.972 85.9573 306.899 86.1006C306.826 86.2439 306.753 86.3794 306.675 86.5124C306.597 86.6453 306.519 86.7729 306.436 86.898C306.352 87.0231 306.269 87.143 306.175 87.2603C306.081 87.3775 305.995 87.4896 305.899 87.5964C305.802 87.7033 305.706 87.8101 305.607 87.9118C305.508 88.0134 305.398 88.1124 305.292 88.2062C305.185 88.3 305.07 88.3913 304.953 88.4799C304.835 88.5685 304.718 88.6545 304.593 88.7405C304.468 88.8265 304.333 88.902 304.207 88.9802C304.082 89.0584 303.947 89.1314 303.793 89.2043C303.639 89.2773 303.504 89.3477 303.353 89.4154C303.202 89.4832 303.045 89.5483 302.884 89.6135L302.381 89.8011C302.209 89.861 302.031 89.921 301.859 89.9783C301.687 90.0356 301.487 90.093 301.291 90.1477C301.096 90.2024 300.895 90.2571 300.689 90.3093C300.484 90.3614 300.27 90.4161 300.051 90.4682L299.373 90.622L298.657 90.7731L297.901 90.9217L297.101 91.0728C297.362 91.1223 297.64 91.1718 297.901 91.224L298.657 91.3725C298.917 91.422 299.141 91.4741 299.373 91.5236L300.051 91.6774C300.27 91.7295 300.484 91.7816 300.689 91.8364C300.895 91.8911 301.096 91.9432 301.291 91.9979C301.487 92.0527 301.674 92.11 301.859 92.1673C302.044 92.2247 302.219 92.2846 302.381 92.3445C302.542 92.4045 302.719 92.467 302.884 92.5322C303.048 92.5973 303.202 92.6624 303.353 92.7302C303.504 92.798 303.652 92.8683 303.793 92.9413C303.934 93.0143 304.072 93.0872 304.207 93.1654C304.343 93.2436 304.468 93.3218 304.593 93.4052C304.718 93.4885 304.838 93.5745 304.953 93.6658C305.067 93.757 305.182 93.8456 305.292 93.942C305.401 94.0384 305.505 94.1348 305.607 94.2365C305.708 94.3381 305.805 94.4423 305.899 94.5492C305.993 94.656 306.086 94.7707 306.175 94.888C306.264 95.0052 306.347 95.1251 306.436 95.2476C306.524 95.3701 306.597 95.5082 306.675 95.6333C306.753 95.7584 306.826 95.8939 306.899 96.0476C306.972 96.2014 307.043 96.3369 307.11 96.488C307.178 96.6392 307.243 96.7955 307.309 96.9571C307.374 97.1187 307.436 97.2881 307.496 97.4601C307.556 97.632 307.616 97.8093 307.673 97.9812C307.731 98.1532 307.788 98.3539 307.843 98.5494C307.898 98.7448 307.952 98.9455 308.007 99.1513C308.062 99.3572 308.111 99.5709 308.163 99.7898C308.215 100.009 308.265 100.235 308.317 100.467C308.369 100.699 308.419 100.939 308.468 101.184C308.518 101.429 308.567 101.682 308.617 101.94C308.666 102.198 308.718 102.461 308.768 102.74C308.817 102.466 308.87 102.2 308.919 101.94C308.969 101.679 309.018 101.419 309.068 101.184C309.117 100.949 309.169 100.699 309.219 100.467L309.372 99.7898C309.425 99.5709 309.477 99.3572 309.531 99.1513C309.586 98.9455 309.638 98.7448 309.693 98.5494C309.748 98.3539 309.805 98.1663 309.862 97.9812C309.92 97.7962 309.98 97.6216 310.042 97.4601C310.105 97.2985 310.165 97.1213 310.227 96.9571C310.29 96.7929 310.358 96.6392 310.425 96.488C310.493 96.3369 310.563 96.1883 310.636 96.0476C310.709 95.9069 310.785 95.7688 310.86 95.6333C310.936 95.4978 311.019 95.3727 311.1 95.2476C311.181 95.1225 311.27 95.0026 311.361 94.888C311.452 94.7733 311.541 94.6586 311.634 94.5492C311.728 94.4397 311.827 94.3355 311.929 94.2365C312.031 94.1374 312.135 94.0358 312.244 93.942C312.354 93.8482 312.463 93.7544 312.58 93.6658C312.698 93.5772 312.818 93.4938 312.943 93.4052C313.068 93.3166 313.203 93.2436 313.328 93.1654C313.453 93.0872 313.589 93.0143 313.74 92.9413C313.891 92.8683 314.029 92.798 314.18 92.7302C314.332 92.6624 314.491 92.5973 314.652 92.5322C314.814 92.467 314.981 92.4071 315.153 92.3445C315.325 92.282 315.502 92.2247 315.674 92.1673C315.846 92.11 316.046 92.0527 316.239 91.9979C316.432 91.9432 316.635 91.8885 316.841 91.8364C317.047 91.7842 317.261 91.7295 317.48 91.6774L318.157 91.5236L318.874 91.3725L319.63 91.224C319.89 91.1718 320.151 91.1223 320.43 91.0728L319.63 90.9217L318.874 90.7731L318.157 90.622L317.48 90.4682C317.261 90.4161 317.05 90.364 316.841 90.3093C316.633 90.2545 316.435 90.2024 316.239 90.1477C316.044 90.093 315.856 90.0356 315.674 89.9783C315.491 89.921 315.312 89.861 315.153 89.8011L314.652 89.6135C314.491 89.5483 314.334 89.4832 314.18 89.4154C314.027 89.3477 313.883 89.2773 313.74 89.2043C313.597 89.1314 313.461 89.0558 313.328 88.9802C313.195 88.9046 313.068 88.8212 312.943 88.7405C312.818 88.6597 312.698 88.5711 312.58 88.4799C312.463 88.3886 312.351 88.3 312.244 88.2062C312.137 88.1124 312.031 88.0134 311.929 87.9118C311.827 87.8101 311.728 87.7059 311.634 87.5964C311.541 87.487 311.449 87.3775 311.361 87.2603C311.272 87.143 311.186 87.0231 311.1 86.898C311.014 86.7729 310.939 86.6374 310.86 86.5124C310.782 86.3873 310.709 86.2517 310.636 86.1006C310.563 85.9495 310.496 85.8113 310.425 85.6602C310.355 85.5091 310.292 85.3501 310.227 85.1885C310.162 85.0269 310.102 84.8602 310.042 84.6882C309.982 84.5162 309.92 84.339 309.862 84.1539C309.805 83.9689 309.748 83.7839 309.693 83.5884C309.638 83.393 309.584 83.1923 309.531 82.9865C309.479 82.7806 309.425 82.5669 309.372 82.348L309.219 81.6705C309.169 81.4385 309.12 81.1988 309.068 80.9538C309.015 80.7088 308.969 80.4561 308.919 80.1981C308.87 79.9401 308.817 79.6717 308.768 79.398Z" fill="url(#paint1_linear_25_313)"/>
<path d="M277.493 17.8683C277.29 18.9733 277.088 20.0487 276.886 21.0945C276.685 22.1404 276.483 23.1593 276.282 24.1514C276.078 25.1416 275.875 26.105 275.672 27.0414C275.469 27.9778 275.262 28.889 275.052 29.775C274.841 30.6611 274.63 31.5184 274.416 32.355C274.202 33.1915 273.981 33.9993 273.757 34.7863C273.532 35.5733 273.306 36.3343 273.074 37.0744C272.842 37.8145 272.602 38.5337 272.357 39.2295C272.112 39.9253 271.859 40.6003 271.599 41.2518C271.338 41.9033 271.078 42.5391 270.799 43.1515C270.52 43.7639 270.241 44.3581 269.949 44.9314C269.657 45.5047 269.355 46.0598 269.042 46.5966C268.73 47.1335 268.409 47.6546 268.075 48.1602C267.742 48.6658 267.398 49.1479 267.033 49.6169C266.668 50.086 266.306 50.5395 265.923 50.9799C265.54 51.4203 265.141 51.8398 264.737 52.249C264.333 52.6581 263.903 53.0542 263.466 53.4373C263.028 53.8204 262.574 54.1878 262.105 54.5448C261.636 54.9019 261.149 55.2459 260.646 55.5872C260.143 55.9286 259.624 56.2439 259.082 56.5567C258.54 56.8694 257.99 57.1691 257.414 57.4635C256.839 57.758 256.247 58.0368 255.635 58.3131C255.022 58.5893 254.389 58.8551 253.737 59.1131C253.086 59.3711 252.408 59.6343 251.713 59.8689C251.017 60.1034 250.3 60.3536 249.56 60.5855C248.82 60.8174 248.056 61.0468 247.269 61.2709C246.482 61.495 245.672 61.7139 244.838 61.9276C244.004 62.1413 243.144 62.3549 242.258 62.5634C241.372 62.7719 240.463 62.9804 239.527 63.1837C238.591 63.3869 237.627 63.5928 236.634 63.7934C235.642 63.9941 234.625 64.1974 233.58 64.4006C232.535 64.6039 231.456 64.8046 230.354 65.0078C231.455 65.2111 232.531 65.4135 233.58 65.615C234.63 65.8166 235.652 66.0129 236.647 66.204C237.64 66.4072 238.602 66.6105 239.54 66.8164C240.478 67.0223 241.388 67.2255 242.271 67.4366C243.155 67.6477 244.017 67.8562 244.851 68.0725C245.685 68.2888 246.495 68.5051 247.282 68.7292C248.069 68.9533 248.846 69.18 249.573 69.4119C250.3 69.6439 251.03 69.8862 251.726 70.1312C252.421 70.3761 253.096 70.6263 253.75 70.8869C254.405 71.1475 255.035 71.4081 255.648 71.687C256.26 71.9658 256.854 72.2446 257.427 72.5365C258.001 72.8284 258.558 73.1307 259.095 73.4434C259.632 73.7561 260.138 74.0766 260.659 74.4102C261.18 74.7438 261.647 75.0903 262.118 75.4526C262.59 75.8148 263.041 76.177 263.479 76.5601C263.916 76.9432 264.341 77.3419 264.75 77.7458C265.159 78.1498 265.556 78.5798 265.936 79.0176C266.316 79.4554 266.689 79.9114 267.046 80.3805C267.403 80.8496 267.747 81.3343 268.089 81.8372C268.43 82.3402 268.745 82.8588 269.055 83.4008C269.365 83.9428 269.67 84.4953 269.962 85.0686C270.254 85.6419 270.538 86.2361 270.812 86.8485C271.085 87.4609 271.354 88.0942 271.612 88.7483C271.87 89.4024 272.133 90.0747 272.37 90.7705C272.607 91.4663 272.852 92.1829 273.087 92.923C273.321 93.6631 273.548 94.4267 273.77 95.2137C273.991 96.0007 274.213 96.8112 274.429 97.6451C274.645 98.479 274.854 99.3389 275.065 100.225C275.276 101.111 275.479 102.021 275.685 102.956C275.891 103.892 276.091 104.858 276.295 105.849C276.498 106.839 276.699 107.858 276.899 108.905C277.1 109.953 277.303 111.027 277.507 112.132C277.71 111.027 277.912 109.951 278.114 108.905C278.315 107.86 278.518 106.841 278.721 105.849C278.924 104.858 279.125 103.894 279.331 102.956C279.537 102.018 279.742 101.108 279.951 100.225C280.159 99.3416 280.37 98.479 280.587 97.6451C280.803 96.8112 281.022 96.0007 281.243 95.2137C281.465 94.4267 281.694 93.6631 281.929 92.923C282.163 92.1829 282.401 91.4663 282.645 90.7705C282.89 90.0747 283.143 89.3998 283.401 88.7483C283.659 88.0968 283.922 87.4609 284.201 86.8485C284.48 86.2361 284.759 85.6419 285.053 85.0686C285.348 84.4953 285.648 83.9402 285.958 83.4008C286.268 82.8614 286.594 82.3454 286.927 81.8372C287.261 81.3291 287.605 80.8496 287.97 80.3805C288.334 79.9114 288.697 79.4554 289.077 79.0176C289.458 78.5798 289.859 78.155 290.265 77.7458C290.672 77.3367 291.097 76.9432 291.537 76.5601C291.978 76.177 292.428 75.8096 292.897 75.4526C293.366 75.0956 293.854 74.749 294.354 74.4102C294.854 74.0714 295.378 73.7561 295.918 73.4434C296.457 73.1307 297.01 72.8284 297.583 72.5365C298.156 72.2446 298.75 71.9606 299.363 71.687C299.975 71.4133 300.608 71.1449 301.263 70.8869C301.917 70.6289 302.589 70.3657 303.285 70.1312C303.981 69.8966 304.7 69.6465 305.44 69.4119C306.18 69.1774 306.944 68.9507 307.728 68.7292C308.512 68.5077 309.325 68.2862 310.162 68.0725C310.999 67.8588 311.856 67.6451 312.739 67.4366C313.623 67.2281 314.535 67.0196 315.473 66.8164C316.411 66.6131 317.373 66.4072 318.363 66.204C319.353 66.0007 320.372 65.8 321.42 65.5994C322.467 65.3987 323.541 65.1955 324.646 64.9922C323.541 64.7889 322.466 64.5865 321.42 64.385C320.374 64.1835 319.355 63.9811 318.363 63.7778C317.373 63.578 316.409 63.3748 315.473 63.168C314.537 62.9613 313.618 62.7571 312.716 62.5556C311.833 62.3471 310.974 62.1352 310.139 61.9198C309.303 61.7043 308.492 61.4819 307.705 61.2526C306.923 61.0285 306.157 60.8018 305.416 60.5672C304.676 60.3327 303.957 60.0956 303.261 59.8506C302.566 59.6056 301.893 59.3529 301.239 59.0949C300.585 58.8369 299.954 58.5737 299.339 58.2948C298.724 58.016 298.135 57.7372 297.56 57.4453C296.984 57.1534 296.431 56.8485 295.894 56.5384C295.357 56.2283 294.836 55.9026 294.331 55.569C293.825 55.2354 293.343 54.8914 292.874 54.5266C292.405 54.1618 291.951 53.8021 291.514 53.4191C291.076 53.036 290.651 52.6373 290.242 52.2307C289.833 51.8242 289.437 51.3994 289.054 50.9616C288.671 50.5238 288.303 50.0678 287.946 49.5987C287.589 49.1296 287.245 48.6449 286.904 48.142C286.562 47.639 286.247 47.1204 285.934 46.5784C285.622 46.0363 285.322 45.4865 285.03 44.9132C284.738 44.3398 284.454 43.7457 284.178 43.1333C283.902 42.5209 283.638 41.8876 283.378 41.2335C283.117 40.5794 282.857 39.9071 282.622 39.2113C282.387 38.5155 282.137 37.7962 281.905 37.0561C281.673 36.316 281.444 35.5551 281.22 34.7681C280.996 33.9811 280.78 33.1706 280.563 32.3367C280.347 31.5028 280.136 30.6428 279.927 29.7568C279.719 28.8708 279.513 27.9613 279.307 27.0231C279.101 26.085 278.901 25.1234 278.697 24.1331C278.494 23.1428 278.294 22.1239 278.09 21.0763C277.887 20.0287 277.71 18.9733 277.493 17.8683Z" fill="url(#paint2_linear_25_313)"/>
<path d="M11.373 204.439C9.36914 204.439 7.61719 204.146 6.11719 203.561C4.62891 202.963 3.45703 202.113 2.60156 201.012C1.74609 199.898 1.26562 198.562 1.16016 197.004L1.14258 196.723H6.15234L6.1875 196.916C6.30469 197.572 6.59766 198.141 7.06641 198.621C7.54688 199.09 8.16797 199.459 8.92969 199.729C9.69141 199.986 10.5527 200.115 11.5137 200.115C12.498 200.115 13.3418 199.986 14.0449 199.729C14.7598 199.459 15.3105 199.084 15.6973 198.604C16.0957 198.111 16.2949 197.543 16.2949 196.898V196.881C16.2949 196.025 15.9551 195.357 15.2754 194.877C14.6074 194.385 13.4824 193.975 11.9004 193.646L9.22852 193.119C6.73242 192.615 4.85156 191.766 3.58594 190.57C2.32031 189.375 1.6875 187.822 1.6875 185.912V185.895C1.6875 184.348 2.10352 183 2.93555 181.852C3.76758 180.691 4.91016 179.795 6.36328 179.162C7.81641 178.518 9.48047 178.195 11.3555 178.195C13.3125 178.195 15 178.5 16.418 179.109C17.8477 179.719 18.9609 180.58 19.7578 181.693C20.5547 182.807 20.9941 184.102 21.0762 185.578L21.0938 185.912H16.084L16.0664 185.701C15.9727 185.033 15.7207 184.465 15.3105 183.996C14.9004 183.516 14.3555 183.146 13.6758 182.889C13.0078 182.631 12.2344 182.502 11.3555 182.502C10.4531 182.502 9.67383 182.637 9.01758 182.906C8.36133 183.164 7.85742 183.521 7.50586 183.979C7.16602 184.436 6.99609 184.969 6.99609 185.578V185.596C6.99609 186.393 7.33594 187.037 8.01562 187.529C8.69531 188.021 9.76172 188.414 11.2148 188.707L13.9043 189.252C15.6738 189.604 17.127 190.09 18.2637 190.711C19.4004 191.332 20.2383 192.117 20.7773 193.066C21.3281 194.004 21.6035 195.135 21.6035 196.459V196.477C21.6035 198.105 21.1934 199.518 20.373 200.713C19.5645 201.896 18.3926 202.816 16.8574 203.473C15.334 204.117 13.5059 204.439 11.373 204.439ZM33.0645 204.387C31.1543 204.387 29.502 203.994 28.1074 203.209C26.7129 202.424 25.6348 201.299 24.873 199.834C24.1113 198.369 23.7305 196.617 23.7305 194.578V194.543C23.7305 192.516 24.1172 190.775 24.8906 189.322C25.6641 187.857 26.748 186.732 28.1426 185.947C29.5371 185.162 31.1719 184.77 33.0469 184.77C34.9336 184.77 36.5742 185.162 37.9688 185.947C39.375 186.721 40.4648 187.84 41.2383 189.305C42.0117 190.758 42.3984 192.504 42.3984 194.543V194.578C42.3984 196.629 42.0117 198.387 41.2383 199.852C40.4766 201.316 39.3984 202.441 38.0039 203.227C36.6094 204 34.9629 204.387 33.0645 204.387ZM33.082 200.361C33.9141 200.361 34.6348 200.139 35.2441 199.693C35.8652 199.236 36.3398 198.58 36.668 197.725C37.0078 196.857 37.1777 195.809 37.1777 194.578V194.543C37.1777 193.324 37.0078 192.287 36.668 191.432C36.3281 190.576 35.8477 189.926 35.2266 189.48C34.6055 189.023 33.8789 188.795 33.0469 188.795C32.2266 188.795 31.5059 189.023 30.8848 189.48C30.2754 189.926 29.8008 190.576 29.4609 191.432C29.1211 192.287 28.9512 193.324 28.9512 194.543V194.578C28.9512 195.809 29.1152 196.857 29.4434 197.725C29.7832 198.58 30.2637 199.236 30.8848 199.693C31.5059 200.139 32.2383 200.361 33.082 200.361ZM45.0527 204V185.156H50.1855V188.32H50.291C50.6777 187.242 51.334 186.381 52.2598 185.736C53.1973 185.092 54.2988 184.77 55.5645 184.77C56.4434 184.77 57.2344 184.922 57.9375 185.227C58.6406 185.531 59.2324 185.971 59.7129 186.545C60.2051 187.119 60.5508 187.822 60.75 188.654H60.8555C61.1367 187.857 61.5586 187.172 62.1211 186.598C62.6953 186.012 63.3691 185.561 64.1426 185.244C64.9277 184.928 65.7832 184.77 66.709 184.77C67.9395 184.77 69.0176 185.033 69.9434 185.561C70.8691 186.088 71.5898 186.826 72.1055 187.775C72.6211 188.725 72.8789 189.838 72.8789 191.115V204H67.7461V192.398C67.7461 191.672 67.623 191.057 67.377 190.553C67.1426 190.049 66.7969 189.668 66.3398 189.41C65.8945 189.152 65.3379 189.023 64.6699 189.023C64.0254 189.023 63.457 189.17 62.9648 189.463C62.4844 189.756 62.1094 190.166 61.8398 190.693C61.5703 191.221 61.4355 191.836 61.4355 192.539V204H56.4961V192.24C56.4961 191.561 56.373 190.98 56.127 190.5C55.8809 190.02 55.5293 189.656 55.0723 189.41C54.627 189.152 54.0879 189.023 53.4551 189.023C52.8105 189.023 52.2422 189.176 51.75 189.48C51.2578 189.785 50.8711 190.207 50.5898 190.746C50.3203 191.285 50.1855 191.912 50.1855 192.627V204H45.0527ZM84.709 204.387C82.7871 204.387 81.1348 203.994 79.752 203.209C78.3691 202.412 77.3027 201.281 76.5527 199.816C75.8145 198.352 75.4453 196.617 75.4453 194.613V194.596C75.4453 192.592 75.8145 190.857 76.5527 189.393C77.3027 187.916 78.3516 186.779 79.6992 185.982C81.0586 185.174 82.6582 184.77 84.498 184.77C86.3379 184.77 87.9258 185.162 89.2617 185.947C90.6094 186.721 91.6465 187.816 92.373 189.234C93.1113 190.652 93.4805 192.311 93.4805 194.209V195.791H77.959V192.557H91.0547L88.6113 195.58V193.611C88.6113 192.51 88.4414 191.59 88.1016 190.852C87.7617 190.102 87.2871 189.539 86.6777 189.164C86.0801 188.789 85.3828 188.602 84.5859 188.602C83.7891 188.602 83.0801 188.795 82.459 189.182C81.8496 189.568 81.3691 190.137 81.0176 190.887C80.6777 191.625 80.5078 192.533 80.5078 193.611V195.598C80.5078 196.641 80.6777 197.531 81.0176 198.27C81.3691 199.008 81.8672 199.576 82.5117 199.975C83.1562 200.361 83.9238 200.555 84.8145 200.555C85.5176 200.555 86.127 200.443 86.6426 200.221C87.1582 199.998 87.5801 199.717 87.9082 199.377C88.2363 199.037 88.459 198.691 88.5762 198.34L88.6113 198.234H93.3223L93.2695 198.428C93.1289 199.119 92.8535 199.816 92.4434 200.52C92.0332 201.223 91.4766 201.867 90.7734 202.453C90.082 203.039 89.2324 203.508 88.2246 203.859C87.2285 204.211 86.0566 204.387 84.709 204.387ZM103.623 204.387C101.537 204.387 99.9902 203.947 98.9824 203.068C97.9746 202.189 97.4707 200.742 97.4707 198.727V189.023H94.8516V185.156H97.4707V180.551H102.656V185.156H106.102V189.023H102.656V198.164C102.656 199.043 102.85 199.658 103.236 200.01C103.635 200.35 104.221 200.52 104.994 200.52C105.229 200.52 105.434 200.514 105.609 200.502C105.785 200.479 105.949 200.455 106.102 200.432V204.193C105.82 204.24 105.469 204.281 105.047 204.316C104.637 204.363 104.162 204.387 103.623 204.387ZM109.055 204V178.635H114.188V188.408H114.293C114.785 187.236 115.518 186.34 116.49 185.719C117.475 185.086 118.67 184.77 120.076 184.77C121.447 184.77 122.625 185.074 123.609 185.684C124.594 186.281 125.35 187.131 125.877 188.232C126.416 189.334 126.686 190.646 126.686 192.17V204H121.553V193.225C121.553 191.912 121.236 190.887 120.604 190.148C119.982 189.398 119.086 189.023 117.914 189.023C117.164 189.023 116.508 189.205 115.945 189.568C115.395 189.92 114.961 190.412 114.645 191.045C114.34 191.666 114.188 192.387 114.188 193.207V204H109.055ZM130.096 204V185.156H135.229V204H130.096ZM132.662 182.73C131.889 182.73 131.238 182.467 130.711 181.939C130.184 181.412 129.92 180.785 129.92 180.059C129.92 179.32 130.184 178.693 130.711 178.178C131.238 177.65 131.889 177.387 132.662 177.387C133.436 177.387 134.086 177.65 134.613 178.178C135.141 178.693 135.404 179.32 135.404 180.059C135.404 180.785 135.141 181.412 134.613 181.939C134.086 182.467 133.436 182.73 132.662 182.73ZM138.674 204V185.156H143.807V188.25H143.912C144.404 187.172 145.131 186.322 146.092 185.701C147.053 185.08 148.242 184.77 149.66 184.77C151.734 184.77 153.334 185.396 154.459 186.65C155.596 187.893 156.164 189.621 156.164 191.836V204H151.031V192.891C151.031 191.66 150.738 190.711 150.152 190.043C149.578 189.363 148.717 189.023 147.568 189.023C146.807 189.023 146.145 189.199 145.582 189.551C145.02 189.891 144.58 190.371 144.264 190.992C143.959 191.613 143.807 192.34 143.807 193.172V204H138.674ZM168.223 210.539C166.5 210.539 164.994 210.299 163.705 209.818C162.428 209.35 161.408 208.711 160.646 207.902C159.896 207.094 159.439 206.186 159.275 205.178L159.258 205.02H164.25L164.303 205.143C164.514 205.6 164.953 206.004 165.621 206.355C166.289 206.707 167.156 206.883 168.223 206.883C169.547 206.883 170.555 206.566 171.246 205.934C171.938 205.301 172.283 204.457 172.283 203.402V200.52H172.178C171.85 201.176 171.404 201.744 170.842 202.225C170.279 202.705 169.617 203.08 168.855 203.35C168.105 203.607 167.273 203.736 166.359 203.736C164.789 203.736 163.43 203.361 162.281 202.611C161.145 201.861 160.266 200.789 159.645 199.395C159.035 197.988 158.73 196.312 158.73 194.367V194.35C158.73 192.346 159.041 190.629 159.662 189.199C160.295 187.77 161.186 186.674 162.334 185.912C163.482 185.15 164.854 184.77 166.447 184.77C167.338 184.77 168.152 184.916 168.891 185.209C169.629 185.502 170.273 185.918 170.824 186.457C171.387 186.996 171.838 187.635 172.178 188.373H172.283V185.156H177.416V203.473C177.416 204.867 177.041 206.092 176.291 207.146C175.553 208.213 174.492 209.045 173.109 209.643C171.738 210.24 170.109 210.539 168.223 210.539ZM168.135 199.975C168.979 199.975 169.711 199.752 170.332 199.307C170.953 198.861 171.434 198.229 171.773 197.408C172.125 196.588 172.301 195.615 172.301 194.49V194.473C172.301 193.348 172.125 192.381 171.773 191.572C171.434 190.752 170.947 190.125 170.314 189.691C169.693 189.246 168.967 189.023 168.135 189.023C167.291 189.023 166.553 189.246 165.92 189.691C165.287 190.125 164.801 190.746 164.461 191.555C164.121 192.363 163.951 193.336 163.951 194.473V194.49C163.951 195.615 164.121 196.588 164.461 197.408C164.801 198.229 165.287 198.861 165.92 199.307C166.553 199.752 167.291 199.975 168.135 199.975ZM199.652 204.439C197.18 204.439 195.035 203.912 193.219 202.857C191.414 201.803 190.02 200.297 189.035 198.34C188.062 196.371 187.576 194.027 187.576 191.309V191.291C187.576 188.561 188.068 186.223 189.053 184.277C190.037 182.32 191.432 180.82 193.236 179.777C195.041 178.723 197.18 178.195 199.652 178.195C201.703 178.195 203.531 178.594 205.137 179.391C206.742 180.188 208.031 181.283 209.004 182.678C209.977 184.061 210.545 185.654 210.709 187.459L210.727 187.617H205.559L205.488 187.318C205.289 186.381 204.932 185.566 204.416 184.875C203.9 184.184 203.238 183.65 202.43 183.275C201.633 182.889 200.707 182.695 199.652 182.695C198.293 182.695 197.115 183.041 196.119 183.732C195.123 184.424 194.35 185.414 193.799 186.703C193.26 187.98 192.99 189.504 192.99 191.273V191.291C192.99 193.072 193.26 194.613 193.799 195.914C194.35 197.203 195.123 198.199 196.119 198.902C197.127 199.594 198.305 199.939 199.652 199.939C200.672 199.939 201.58 199.752 202.377 199.377C203.186 199.002 203.859 198.463 204.398 197.76C204.938 197.045 205.318 196.184 205.541 195.176L205.576 195H210.744L210.727 195.193C210.562 196.986 209.988 198.58 209.004 199.975C208.031 201.369 206.742 202.465 205.137 203.262C203.531 204.047 201.703 204.439 199.652 204.439ZM213.715 204V178.635H218.848V204H213.715ZM230.889 204.387C228.967 204.387 227.314 203.994 225.932 203.209C224.549 202.412 223.482 201.281 222.732 199.816C221.994 198.352 221.625 196.617 221.625 194.613V194.596C221.625 192.592 221.994 190.857 222.732 189.393C223.482 187.916 224.531 186.779 225.879 185.982C227.238 185.174 228.838 184.77 230.678 184.77C232.518 184.77 234.105 185.162 235.441 185.947C236.789 186.721 237.826 187.816 238.553 189.234C239.291 190.652 239.66 192.311 239.66 194.209V195.791H224.139V192.557H237.234L234.791 195.58V193.611C234.791 192.51 234.621 191.59 234.281 190.852C233.941 190.102 233.467 189.539 232.857 189.164C232.26 188.789 231.562 188.602 230.766 188.602C229.969 188.602 229.26 188.795 228.639 189.182C228.029 189.568 227.549 190.137 227.197 190.887C226.857 191.625 226.688 192.533 226.688 193.611V195.598C226.688 196.641 226.857 197.531 227.197 198.27C227.549 199.008 228.047 199.576 228.691 199.975C229.336 200.361 230.104 200.555 230.994 200.555C231.697 200.555 232.307 200.443 232.822 200.221C233.338 199.998 233.76 199.717 234.088 199.377C234.416 199.037 234.639 198.691 234.756 198.34L234.791 198.234H239.502L239.449 198.428C239.309 199.119 239.033 199.816 238.623 200.52C238.213 201.223 237.656 201.867 236.953 202.453C236.262 203.039 235.412 203.508 234.404 203.859C233.408 204.211 232.236 204.387 230.889 204.387ZM247.922 204.299C246.668 204.299 245.566 204.059 244.617 203.578C243.668 203.086 242.924 202.412 242.385 201.557C241.857 200.689 241.594 199.705 241.594 198.604V198.568C241.594 197.42 241.881 196.441 242.455 195.633C243.029 194.812 243.861 194.168 244.951 193.699C246.041 193.23 247.365 192.943 248.924 192.838L256.271 192.381V195.58L249.697 196.002C248.713 196.061 247.963 196.295 247.447 196.705C246.932 197.104 246.674 197.637 246.674 198.305V198.34C246.674 199.031 246.938 199.576 247.465 199.975C247.992 200.361 248.701 200.555 249.592 200.555C250.354 200.555 251.033 200.408 251.631 200.115C252.24 199.811 252.715 199.4 253.055 198.885C253.406 198.357 253.582 197.766 253.582 197.109V191.396C253.582 190.564 253.318 189.908 252.791 189.428C252.264 188.936 251.496 188.689 250.488 188.689C249.527 188.689 248.766 188.889 248.203 189.287C247.641 189.686 247.295 190.189 247.166 190.799L247.131 190.957H242.438L242.455 190.746C242.549 189.586 242.93 188.555 243.598 187.652C244.277 186.75 245.215 186.047 246.41 185.543C247.617 185.027 249.047 184.77 250.699 184.77C252.328 184.77 253.74 185.033 254.936 185.561C256.131 186.076 257.057 186.809 257.713 187.758C258.381 188.707 258.715 189.814 258.715 191.08V204H253.582V201.188H253.477C253.125 201.832 252.668 202.389 252.105 202.857C251.555 203.314 250.928 203.672 250.225 203.93C249.521 204.176 248.754 204.299 247.922 204.299ZM262.037 204V185.156H267.17V188.25H267.275C267.768 187.172 268.494 186.322 269.455 185.701C270.416 185.08 271.605 184.77 273.023 184.77C275.098 184.77 276.697 185.396 277.822 186.65C278.959 187.893 279.527 189.621 279.527 191.836V204H274.395V192.891C274.395 191.66 274.102 190.711 273.516 190.043C272.941 189.363 272.08 189.023 270.932 189.023C270.17 189.023 269.508 189.199 268.945 189.551C268.383 189.891 267.943 190.371 267.627 190.992C267.322 191.613 267.17 192.34 267.17 193.172V204H262.037ZM290.021 204V185.156H295.154V204H290.021ZM292.588 182.73C291.814 182.73 291.164 182.467 290.637 181.939C290.109 181.412 289.846 180.785 289.846 180.059C289.846 179.32 290.109 178.693 290.637 178.178C291.164 177.65 291.814 177.387 292.588 177.387C293.361 177.387 294.012 177.65 294.539 178.178C295.066 178.693 295.33 179.32 295.33 180.059C295.33 180.785 295.066 181.412 294.539 181.939C294.012 182.467 293.361 182.73 292.588 182.73ZM306.352 204.387C304.617 204.387 303.141 204.135 301.922 203.631C300.703 203.127 299.748 202.43 299.057 201.539C298.377 200.637 297.967 199.594 297.826 198.41L297.809 198.252H302.818L302.854 198.41C303.018 199.148 303.387 199.723 303.961 200.133C304.535 200.543 305.332 200.748 306.352 200.748C307.008 200.748 307.564 200.672 308.021 200.52C308.479 200.355 308.83 200.127 309.076 199.834C309.334 199.541 309.463 199.189 309.463 198.779V198.762C309.463 198.258 309.281 197.854 308.918 197.549C308.555 197.244 307.91 196.986 306.984 196.775L303.785 196.107C302.566 195.85 301.547 195.48 300.727 195C299.918 194.508 299.309 193.904 298.898 193.189C298.488 192.463 298.283 191.631 298.283 190.693V190.676C298.283 189.469 298.605 188.426 299.25 187.547C299.895 186.668 300.809 185.988 301.992 185.508C303.188 185.016 304.582 184.77 306.176 184.77C307.84 184.77 309.252 185.039 310.412 185.578C311.584 186.105 312.48 186.82 313.102 187.723C313.734 188.625 314.068 189.627 314.104 190.729V190.904H309.375L309.357 190.764C309.275 190.084 308.959 189.521 308.408 189.076C307.869 188.619 307.125 188.391 306.176 188.391C305.59 188.391 305.08 188.473 304.646 188.637C304.213 188.801 303.879 189.035 303.645 189.34C303.41 189.633 303.293 189.984 303.293 190.395V190.412C303.293 190.729 303.369 191.016 303.521 191.273C303.686 191.52 303.955 191.736 304.33 191.924C304.705 192.111 305.209 192.275 305.842 192.416L309.041 193.102C311.021 193.512 312.439 194.127 313.295 194.947C314.162 195.768 314.596 196.869 314.596 198.252V198.27C314.596 199.5 314.244 200.572 313.541 201.486C312.838 202.4 311.865 203.115 310.623 203.631C309.393 204.135 307.969 204.387 306.352 204.387ZM335.988 204.439C333.516 204.439 331.371 203.912 329.555 202.857C327.75 201.803 326.355 200.297 325.371 198.34C324.398 196.371 323.912 194.027 323.912 191.309V191.291C323.912 188.561 324.404 186.223 325.389 184.277C326.373 182.32 327.768 180.82 329.572 179.777C331.377 178.723 333.516 178.195 335.988 178.195C338.039 178.195 339.867 178.594 341.473 179.391C343.078 180.188 344.367 181.283 345.34 182.678C346.312 184.061 346.881 185.654 347.045 187.459L347.062 187.617H341.895L341.824 187.318C341.625 186.381 341.268 185.566 340.752 184.875C340.236 184.184 339.574 183.65 338.766 183.275C337.969 182.889 337.043 182.695 335.988 182.695C334.629 182.695 333.451 183.041 332.455 183.732C331.459 184.424 330.686 185.414 330.135 186.703C329.596 187.98 329.326 189.504 329.326 191.273V191.291C329.326 193.072 329.596 194.613 330.135 195.914C330.686 197.203 331.459 198.199 332.455 198.902C333.463 199.594 334.641 199.939 335.988 199.939C337.008 199.939 337.916 199.752 338.713 199.377C339.521 199.002 340.195 198.463 340.734 197.76C341.273 197.045 341.654 196.184 341.877 195.176L341.912 195H347.08L347.062 195.193C346.898 196.986 346.324 198.58 345.34 199.975C344.367 201.369 343.078 202.465 341.473 203.262C339.867 204.047 338.039 204.439 335.988 204.439ZM358.576 204.387C356.666 204.387 355.014 203.994 353.619 203.209C352.225 202.424 351.146 201.299 350.385 199.834C349.623 198.369 349.242 196.617 349.242 194.578V194.543C349.242 192.516 349.629 190.775 350.402 189.322C351.176 187.857 352.26 186.732 353.654 185.947C355.049 185.162 356.684 184.77 358.559 184.77C360.445 184.77 362.086 185.162 363.48 185.947C364.887 186.721 365.977 187.84 366.75 189.305C367.523 190.758 367.91 192.504 367.91 194.543V194.578C367.91 196.629 367.523 198.387 366.75 199.852C365.988 201.316 364.91 202.441 363.516 203.227C362.121 204 360.475 204.387 358.576 204.387ZM358.594 200.361C359.426 200.361 360.146 200.139 360.756 199.693C361.377 199.236 361.852 198.58 362.18 197.725C362.52 196.857 362.689 195.809 362.689 194.578V194.543C362.689 193.324 362.52 192.287 362.18 191.432C361.84 190.576 361.359 189.926 360.738 189.48C360.117 189.023 359.391 188.795 358.559 188.795C357.738 188.795 357.018 189.023 356.396 189.48C355.787 189.926 355.312 190.576 354.973 191.432C354.633 192.287 354.463 193.324 354.463 194.543V194.578C354.463 195.809 354.627 196.857 354.955 197.725C355.295 198.58 355.775 199.236 356.396 199.693C357.018 200.139 357.75 200.361 358.594 200.361ZM370.564 204V185.156H375.697V188.32H375.803C376.189 187.242 376.846 186.381 377.771 185.736C378.709 185.092 379.811 184.77 381.076 184.77C381.955 184.77 382.746 184.922 383.449 185.227C384.152 185.531 384.744 185.971 385.225 186.545C385.717 187.119 386.062 187.822 386.262 188.654H386.367C386.648 187.857 387.07 187.172 387.633 186.598C388.207 186.012 388.881 185.561 389.654 185.244C390.439 184.928 391.295 184.77 392.221 184.77C393.451 184.77 394.529 185.033 395.455 185.561C396.381 186.088 397.102 186.826 397.617 187.775C398.133 188.725 398.391 189.838 398.391 191.115V204H393.258V192.398C393.258 191.672 393.135 191.057 392.889 190.553C392.654 190.049 392.309 189.668 391.852 189.41C391.406 189.152 390.85 189.023 390.182 189.023C389.537 189.023 388.969 189.17 388.477 189.463C387.996 189.756 387.621 190.166 387.352 190.693C387.082 191.221 386.947 191.836 386.947 192.539V204H382.008V192.24C382.008 191.561 381.885 190.98 381.639 190.5C381.393 190.02 381.041 189.656 380.584 189.41C380.139 189.152 379.6 189.023 378.967 189.023C378.322 189.023 377.754 189.176 377.262 189.48C376.77 189.785 376.383 190.207 376.102 190.746C375.832 191.285 375.697 191.912 375.697 192.627V204H370.564ZM401.748 204V185.156H406.881V204H401.748ZM404.314 182.73C403.541 182.73 402.891 182.467 402.363 181.939C401.836 181.412 401.572 180.785 401.572 180.059C401.572 179.32 401.836 178.693 402.363 178.178C402.891 177.65 403.541 177.387 404.314 177.387C405.088 177.387 405.738 177.65 406.266 178.178C406.793 178.693 407.057 179.32 407.057 180.059C407.057 180.785 406.793 181.412 406.266 181.939C405.738 182.467 405.088 182.73 404.314 182.73ZM410.326 204V185.156H415.459V188.25H415.564C416.057 187.172 416.783 186.322 417.744 185.701C418.705 185.08 419.895 184.77 421.312 184.77C423.387 184.77 424.986 185.396 426.111 186.65C427.248 187.893 427.816 189.621 427.816 191.836V204H422.684V192.891C422.684 191.66 422.391 190.711 421.805 190.043C421.23 189.363 420.369 189.023 419.221 189.023C418.459 189.023 417.797 189.199 417.234 189.551C416.672 189.891 416.232 190.371 415.916 190.992C415.611 191.613 415.459 192.34 415.459 193.172V204H410.326ZM439.875 210.539C438.152 210.539 436.646 210.299 435.357 209.818C434.08 209.35 433.061 208.711 432.299 207.902C431.549 207.094 431.092 206.186 430.928 205.178L430.91 205.02H435.902L435.955 205.143C436.166 205.6 436.605 206.004 437.273 206.355C437.941 206.707 438.809 206.883 439.875 206.883C441.199 206.883 442.207 206.566 442.898 205.934C443.59 205.301 443.936 204.457 443.936 203.402V200.52H443.83C443.502 201.176 443.057 201.744 442.494 202.225C441.932 202.705 441.27 203.08 440.508 203.35C439.758 203.607 438.926 203.736 438.012 203.736C436.441 203.736 435.082 203.361 433.934 202.611C432.797 201.861 431.918 200.789 431.297 199.395C430.688 197.988 430.383 196.312 430.383 194.367V194.35C430.383 192.346 430.693 190.629 431.314 189.199C431.947 187.77 432.838 186.674 433.986 185.912C435.135 185.15 436.506 184.77 438.1 184.77C438.99 184.77 439.805 184.916 440.543 185.209C441.281 185.502 441.926 185.918 442.477 186.457C443.039 186.996 443.49 187.635 443.83 188.373H443.936V185.156H449.068V203.473C449.068 204.867 448.693 206.092 447.943 207.146C447.205 208.213 446.145 209.045 444.762 209.643C443.391 210.24 441.762 210.539 439.875 210.539ZM439.787 199.975C440.631 199.975 441.363 199.752 441.984 199.307C442.605 198.861 443.086 198.229 443.426 197.408C443.777 196.588 443.953 195.615 443.953 194.49V194.473C443.953 193.348 443.777 192.381 443.426 191.572C443.086 190.752 442.6 190.125 441.967 189.691C441.346 189.246 440.619 189.023 439.787 189.023C438.943 189.023 438.205 189.246 437.572 189.691C436.939 190.125 436.453 190.746 436.113 191.555C435.773 192.363 435.604 193.336 435.604 194.473V194.49C435.604 195.615 435.773 196.588 436.113 197.408C436.453 198.229 436.939 198.861 437.572 199.307C438.205 199.752 438.943 199.975 439.787 199.975ZM469.283 204.439C467.279 204.439 465.527 204.146 464.027 203.561C462.539 202.963 461.367 202.113 460.512 201.012C459.656 199.898 459.176 198.562 459.07 197.004L459.053 196.723H464.062L464.098 196.916C464.215 197.572 464.508 198.141 464.977 198.621C465.457 199.09 466.078 199.459 466.84 199.729C467.602 199.986 468.463 200.115 469.424 200.115C470.408 200.115 471.252 199.986 471.955 199.729C472.67 199.459 473.221 199.084 473.607 198.604C474.006 198.111 474.205 197.543 474.205 196.898V196.881C474.205 196.025 473.865 195.357 473.186 194.877C472.518 194.385 471.393 193.975 469.811 193.646L467.139 193.119C464.643 192.615 462.762 191.766 461.496 190.57C460.23 189.375 459.598 187.822 459.598 185.912V185.895C459.598 184.348 460.014 183 460.846 181.852C461.678 180.691 462.82 179.795 464.273 179.162C465.727 178.518 467.391 178.195 469.266 178.195C471.223 178.195 472.91 178.5 474.328 179.109C475.758 179.719 476.871 180.58 477.668 181.693C478.465 182.807 478.904 184.102 478.986 185.578L479.004 185.912H473.994L473.977 185.701C473.883 185.033 473.631 184.465 473.221 183.996C472.811 183.516 472.266 183.146 471.586 182.889C470.918 182.631 470.145 182.502 469.266 182.502C468.363 182.502 467.584 182.637 466.928 182.906C466.271 183.164 465.768 183.521 465.416 183.979C465.076 184.436 464.906 184.969 464.906 185.578V185.596C464.906 186.393 465.246 187.037 465.926 187.529C466.605 188.021 467.672 188.414 469.125 188.707L471.814 189.252C473.584 189.604 475.037 190.09 476.174 190.711C477.311 191.332 478.148 192.117 478.688 193.066C479.238 194.004 479.514 195.135 479.514 196.459V196.477C479.514 198.105 479.104 199.518 478.283 200.713C477.475 201.896 476.303 202.816 474.768 203.473C473.244 204.117 471.416 204.439 469.283 204.439ZM490.975 204.387C489.064 204.387 487.412 203.994 486.018 203.209C484.623 202.424 483.545 201.299 482.783 199.834C482.021 198.369 481.641 196.617 481.641 194.578V194.543C481.641 192.516 482.027 190.775 482.801 189.322C483.574 187.857 484.658 186.732 486.053 185.947C487.447 185.162 489.082 184.77 490.957 184.77C492.844 184.77 494.484 185.162 495.879 185.947C497.285 186.721 498.375 187.84 499.148 189.305C499.922 190.758 500.309 192.504 500.309 194.543V194.578C500.309 196.629 499.922 198.387 499.148 199.852C498.387 201.316 497.309 202.441 495.914 203.227C494.52 204 492.873 204.387 490.975 204.387ZM490.992 200.361C491.824 200.361 492.545 200.139 493.154 199.693C493.775 199.236 494.25 198.58 494.578 197.725C494.918 196.857 495.088 195.809 495.088 194.578V194.543C495.088 193.324 494.918 192.287 494.578 191.432C494.238 190.576 493.758 189.926 493.137 189.48C492.516 189.023 491.789 188.795 490.957 188.795C490.137 188.795 489.416 189.023 488.795 189.48C488.186 189.926 487.711 190.576 487.371 191.432C487.031 192.287 486.861 193.324 486.861 194.543V194.578C486.861 195.809 487.025 196.857 487.354 197.725C487.693 198.58 488.174 199.236 488.795 199.693C489.416 200.139 490.148 200.361 490.992 200.361ZM511.611 204.387C509.701 204.387 508.049 203.994 506.654 203.209C505.26 202.424 504.182 201.299 503.42 199.834C502.658 198.369 502.277 196.617 502.277 194.578V194.543C502.277 192.516 502.664 190.775 503.438 189.322C504.211 187.857 505.295 186.732 506.689 185.947C508.084 185.162 509.719 184.77 511.594 184.77C513.48 184.77 515.121 185.162 516.516 185.947C517.922 186.721 519.012 187.84 519.785 189.305C520.559 190.758 520.945 192.504 520.945 194.543V194.578C520.945 196.629 520.559 198.387 519.785 199.852C519.023 201.316 517.945 202.441 516.551 203.227C515.156 204 513.51 204.387 511.611 204.387ZM511.629 200.361C512.461 200.361 513.182 200.139 513.791 199.693C514.412 199.236 514.887 198.58 515.215 197.725C515.555 196.857 515.725 195.809 515.725 194.578V194.543C515.725 193.324 515.555 192.287 515.215 191.432C514.875 190.576 514.395 189.926 513.773 189.48C513.152 189.023 512.426 188.795 511.594 188.795C510.773 188.795 510.053 189.023 509.432 189.48C508.822 189.926 508.348 190.576 508.008 191.432C507.668 192.287 507.498 193.324 507.498 194.543V194.578C507.498 195.809 507.662 196.857 507.99 197.725C508.33 198.58 508.811 199.236 509.432 199.693C510.053 200.139 510.785 200.361 511.629 200.361ZM523.6 204V185.156H528.732V188.25H528.838C529.33 187.172 530.057 186.322 531.018 185.701C531.979 185.08 533.168 184.77 534.586 184.77C536.66 184.77 538.26 185.396 539.385 186.65C540.521 187.893 541.09 189.621 541.09 191.836V204H535.957V192.891C535.957 191.66 535.664 190.711 535.078 190.043C534.504 189.363 533.643 189.023 532.494 189.023C531.732 189.023 531.07 189.199 530.508 189.551C529.945 189.891 529.506 190.371 529.189 190.992C528.885 191.613 528.732 192.34 528.732 193.172V204H523.6ZM546.152 195.475L545.73 178.635H551.004L550.582 195.475H546.152ZM548.367 204.211C547.57 204.211 546.891 203.947 546.328 203.42C545.777 202.881 545.502 202.225 545.502 201.451C545.502 200.678 545.777 200.027 546.328 199.5C546.891 198.961 547.57 198.691 548.367 198.691C549.164 198.691 549.838 198.961 550.389 199.5C550.951 200.027 551.232 200.678 551.232 201.451C551.232 202.225 550.951 202.881 550.389 203.42C549.838 203.947 549.164 204.211 548.367 204.211Z" fill="black" style="fill:black;fill-opacity:1;"/>
<defs>
<linearGradient id="paint0_linear_25_313" x1="247.374" y1="22.1784" x2="262.286" y2="56.0812" gradientUnits="userSpaceOnUse">
<stop stop-color="#17552F" style="stop-color:#17552F;stop-color:color(display-p3 0.0902 0.3333 0.1843);stop-opacity:1;"/>
<stop offset="1" stop-color="#33BB67" style="stop-color:#33BB67;stop-color:color(display-p3 0.1984 0.7333 0.4055);stop-opacity:1;"/>
</linearGradient>
<linearGradient id="paint1_linear_25_313" x1="306.234" y1="81.3275" x2="321.162" y2="115.247" gradientUnits="userSpaceOnUse">
<stop stop-color="#17552F" style="stop-color:#17552F;stop-color:color(display-p3 0.0902 0.3333 0.1843);stop-opacity:1;"/>
<stop offset="1" stop-color="#33BB67" style="stop-color:#33BB67;stop-color:color(display-p3 0.1984 0.7333 0.4055);stop-opacity:1;"/>
</linearGradient>
<linearGradient id="paint2_linear_25_313" x1="267.268" y1="25.6604" x2="327.517" y2="162.679" gradientUnits="userSpaceOnUse">
<stop stop-color="#17552F" style="stop-color:#17552F;stop-color:color(display-p3 0.0902 0.3333 0.1843);stop-opacity:1;"/>
<stop offset="1" stop-color="#33BB67" style="stop-color:#33BB67;stop-color:color(display-p3 0.1984 0.7333 0.4055);stop-opacity:1;"/>
</linearGradient>
</defs>
</svg>
